<svg width="18" height="18" viewBox="0 0 18 18" fill="none" xmlns="http://www.w3.org/2000/svg">
<g id="currency-dollar-circle">
<path id="Solid" fill-rule="evenodd" clip-rule="evenodd" d="M9 0.75C4.44365 0.75 0.75 4.44365 0.75 9C0.75 13.5563 4.44365 17.25 9 17.25C13.5563 17.25 17.25 13.5563 17.25 9C17.25 4.44365 13.5563 0.75 9 0.75ZM9.75 4.125C9.75 3.71079 9.41421 3.375 9 3.375C8.58579 3.375 8.25 3.71079 8.25 4.125V4.5C6.80025 4.5 5.625 5.67525 5.625 7.125C5.625 8.57475 6.80025 9.75 8.25 9.75H9.75C10.3713 9.75 10.875 10.2537 10.875 10.875C10.875 11.4963 10.3713 12 9.75 12H8.125C7.57271 12 7.125 11.5523 7.125 11C7.125 10.5858 6.78921 10.25 6.375 10.25C5.96079 10.25 5.625 10.5858 5.625 11C5.625 12.3807 6.74429 13.5 8.125 13.5H8.25V13.875C8.25 14.2892 8.58579 14.625 9 14.625C9.41421 14.625 9.75 14.2892 9.75 13.875V13.5C11.1997 13.5 12.375 12.3247 12.375 10.875C12.375 9.42525 11.1997 8.25 9.75 8.25H8.25C7.62868 8.25 7.125 7.74632 7.125 7.125C7.125 6.50368 7.62868 6 8.25 6H9.875C10.4273 6 10.875 6.44772 10.875 7C10.875 7.41421 11.2108 7.75 11.625 7.75C12.0392 7.75 12.375 7.41421 12.375 7C12.375 5.61929 11.2557 4.5 9.875 4.5H9.75V4.125Z" fill="#DBDBDB"/>
</g>
</svg>
