<svg width="18" height="18" viewBox="0 0 18 18" fill="none" xmlns="http://www.w3.org/2000/svg">
<g id="google-chrome">
<g id="Solid">
<path d="M5.53185 7.57107L3.46951 4.11221C3.30436 3.83523 3.22179 3.69675 3.20318 3.53745C3.18806 3.40809 3.21519 3.24477 3.27131 3.12724C3.34041 2.98251 3.44797 2.89118 3.66309 2.70852C5.10175 1.48694 6.96481 0.75 9 0.75C11.8555 0.75 14.3722 2.20076 15.8532 4.40542C16.0167 4.64884 16.0985 4.77055 16.0913 4.89643C16.0854 4.99987 16.026 5.11123 15.9434 5.17383C15.843 5.25 15.6853 5.25 15.3699 5.25H9C7.4349 5.25 6.09374 6.2088 5.53185 7.57107Z" fill="#DBDBDB"/>
<path d="M0.75 9C0.75 7.73353 1.03537 6.53372 1.54532 5.46135C1.67099 5.19707 1.73383 5.06492 1.84561 5.00689C1.93747 4.95919 2.06336 4.95329 2.15928 4.99217C2.276 5.03948 2.35663 5.17471 2.51788 5.44516L5.69648 10.7762C6.32964 11.9513 7.57155 12.75 9 12.75C9.15395 12.75 9.30573 12.7407 9.45481 12.7227L7.44861 16.2188C7.28828 16.4981 7.20812 16.6378 7.07832 16.7321C6.97303 16.8086 6.81704 16.8651 6.68718 16.8737C6.52709 16.8844 6.39512 16.8354 6.13118 16.7375C2.98912 15.5721 0.75 12.5475 0.75 9Z" fill="#DBDBDB"/>
<path d="M8.79513 16.886C8.70221 17.0479 8.81332 17.25 9 17.25C13.5563 17.25 17.25 13.5563 17.25 9C17.25 8.53511 17.2115 8.07921 17.1377 7.63529C17.0914 7.35742 17.0683 7.21848 16.9794 7.08478C16.9073 6.97632 16.7807 6.86904 16.6618 6.81572C16.5154 6.75 16.3542 6.75 16.0318 6.75H12.0003C12.471 7.37675 12.75 8.1558 12.75 9C12.75 9.73466 12.5387 10.42 12.1737 10.9985L8.79513 16.886Z" fill="#DBDBDB"/>
<path d="M11.25 9C11.25 10.2426 10.2426 11.25 9 11.25C7.75736 11.25 6.75 10.2426 6.75 9C6.75 7.75736 7.75736 6.75 9 6.75C10.2426 6.75 11.25 7.75736 11.25 9Z" fill="#DBDBDB"/>
</g>
</g>
</svg>
