<svg width="18" height="18" viewBox="0 0 18 18" fill="none" xmlns="http://www.w3.org/2000/svg">
<g id="link-external-01-alt">
<g id="Solid">
<path d="M10.5 2.25C10.5 1.83579 10.8358 1.5 11.25 1.5H15.75C16.1642 1.5 16.5 1.83579 16.5 2.25L16.5 6.75C16.5 7.16421 16.1642 7.5 15.75 7.5C15.3358 7.5 15 7.16421 15 6.75L15 4.06066L10.2803 8.78033C9.98744 9.07322 9.51256 9.07322 9.21967 8.78033C8.92678 8.48744 8.92678 8.01256 9.21967 7.71967L13.9393 3H11.25C10.8358 3 10.5 2.66421 10.5 2.25Z" fill="#DBDBDB"/>
<path d="M8.96583 5.85219C9.26284 5.55517 9.41135 5.40667 9.46699 5.23542C9.51594 5.08479 9.51594 4.92253 9.46699 4.7719C9.41135 4.60065 9.26285 4.45214 8.96583 4.15513L8.3818 3.5711L8.35479 3.54399C8.25434 3.443 8.12785 3.31584 7.97309 3.221C7.83888 3.13876 7.69256 3.07815 7.53951 3.04141C7.36301 2.99903 7.18366 2.99951 7.04122 2.99989L7.00294 2.99996L5.81903 2.99996C5.2153 2.99995 4.71703 2.99994 4.31113 3.03311C3.88956 3.06755 3.50203 3.14147 3.13803 3.32694C2.57354 3.61456 2.1146 4.0735 1.82698 4.63799C1.64151 5.00199 1.56759 5.38952 1.53315 5.81109C1.49998 6.21698 1.49999 6.71525 1.5 7.31896V12.1809C1.49999 12.7847 1.49998 13.2829 1.53315 13.6888C1.56759 14.1104 1.64151 14.4979 1.82698 14.8619C2.1146 15.4264 2.57354 15.8854 3.13803 16.173C3.50203 16.3584 3.88956 16.4324 4.31113 16.4668C4.71702 16.5 5.21529 16.5 5.81901 16.5H10.681C11.2847 16.5 11.783 16.5 12.1889 16.4668C12.6104 16.4324 12.998 16.3584 13.362 16.173C13.9265 15.8854 14.3854 15.4264 14.673 14.8619C14.8585 14.4979 14.9324 14.1104 14.9669 13.6888C15 13.2829 15 12.7847 15 12.181V10.997L15.0001 10.9587C15.0004 10.8163 15.0009 10.637 14.9586 10.4605C14.9218 10.3074 14.8612 10.1611 14.779 10.0269C14.6841 9.8721 14.557 9.74562 14.456 9.64517L14.4289 9.61816L13.8449 9.03417C13.5479 8.73716 13.3994 8.58865 13.2281 8.53301C13.0775 8.48406 12.9152 8.48406 12.7646 8.53301C12.5933 8.58865 12.4448 8.73716 12.1478 9.03417L11.341 9.84099C10.4623 10.7197 9.03769 10.7197 8.15901 9.84099C7.28033 8.96231 7.28033 7.53769 8.15901 6.65901L8.96583 5.85219Z" fill="#DBDBDB"/>
</g>
</g>
</svg>
