<svg width="18" height="18" viewBox="0 0 18 18" fill="none" xmlns="http://www.w3.org/2000/svg">
<g id="message-heart-square">
<path id="Solid" fill-rule="evenodd" clip-rule="evenodd" d="M12.181 1.5H5.8191C5.21538 1.49999 4.7171 1.49998 4.3112 1.53315C3.88963 1.56759 3.5021 1.64151 3.1381 1.82698C2.57361 2.1146 2.11467 2.57354 1.82705 3.13803C1.64158 3.50203 1.56766 3.88956 1.53322 4.31113C1.50005 4.71703 1.50006 5.2153 1.50007 5.81903L1.50004 10.6032C1.49971 11.1997 1.49947 11.6427 1.60229 12.0265C1.8797 13.0617 2.68834 13.8704 3.72362 14.1478C3.95422 14.2096 4.20621 14.2341 4.50007 14.2438L4.50007 15.2782C4.50003 15.4547 4.5 15.6345 4.51339 15.7819C4.52619 15.9229 4.56009 16.1889 4.74584 16.4216C4.95957 16.6894 5.28368 16.8451 5.62629 16.8448C5.92402 16.8444 6.15295 16.7047 6.27103 16.6267C6.39448 16.545 6.5349 16.4327 6.67266 16.3224L8.4825 14.8745C8.87144 14.5634 8.98691 14.4755 9.1069 14.4142C9.22726 14.3527 9.35537 14.3078 9.48777 14.2806C9.61976 14.2535 9.7648 14.25 10.2629 14.25H12.1811C12.7848 14.25 13.2831 14.25 13.6889 14.2169C14.1105 14.1824 14.498 14.1085 14.862 13.923C15.4265 13.6354 15.8855 13.1765 16.1731 12.612C16.3586 12.248 16.4325 11.8604 16.4669 11.4389C16.5001 11.033 16.5001 10.5347 16.5001 9.93099V5.81901C16.5001 5.21529 16.5001 4.71702 16.4669 4.31113C16.4325 3.88956 16.3586 3.50203 16.1731 3.13803C15.8855 2.57354 15.4265 2.1146 14.862 1.82698C14.498 1.64151 14.1105 1.56759 13.6889 1.53315C13.283 1.49998 12.7848 1.49999 12.181 1.5ZM6.35221 5.49917C7.19766 4.78571 8.32291 4.9953 8.99769 5.77444C9.67247 4.9953 10.7832 4.79322 11.6432 5.49917C12.5032 6.20512 12.6076 7.40549 11.9437 8.2493C11.5324 8.77207 10.5 9.72686 9.77391 10.3777C9.50721 10.6168 9.37387 10.7363 9.21383 10.7845C9.07655 10.8258 8.91883 10.8258 8.78155 10.7845C8.62151 10.7363 8.48816 10.6168 8.22147 10.3777C7.49541 9.72686 6.463 8.77207 6.05167 8.2493C5.38773 7.40549 5.50675 6.21263 6.35221 5.49917Z" fill="#DBDBDB"/>
</g>
</svg>
