<svg width="18" height="18" viewBox="0 0 18 18" fill="none" xmlns="http://www.w3.org/2000/svg">
<g id="user-01">
<g id="Solid">
<path fill-rule="evenodd" clip-rule="evenodd" d="M6.5895 10.875C8.1965 10.8753 9.8035 10.8753 11.4105 10.875C11.9555 10.8749 12.3269 10.8748 12.6512 10.932C14.2037 11.2057 15.4193 12.4213 15.693 13.9738C15.7502 14.2981 15.7501 14.6695 15.75 15.2145C15.75 15.3333 15.7536 15.4529 15.7329 15.5704C15.6508 16.0361 15.2861 16.4008 14.8204 16.4829C14.7182 16.5009 14.6106 16.5003 14.5571 16.5001C10.8528 16.4802 7.14725 16.4802 3.44288 16.5001C3.38936 16.5003 3.28177 16.5009 3.17964 16.4829C2.71388 16.4008 2.34922 16.0361 2.26709 15.5704C2.24637 15.4529 2.25001 15.3333 2.24999 15.2145C2.24987 14.6695 2.24978 14.2981 2.30697 13.9738C2.58073 12.4213 3.79627 11.2057 5.34881 10.932C5.67312 10.8748 6.0445 10.8749 6.5895 10.875Z" fill="#DBDBDB"/>
<path fill-rule="evenodd" clip-rule="evenodd" d="M4.875 5.625C4.875 3.34683 6.72182 1.5 9 1.5C11.2782 1.5 13.125 3.34683 13.125 5.625C13.125 7.90317 11.2782 9.75 9 9.75C6.72182 9.75 4.875 7.90317 4.875 5.625Z" fill="#DBDBDB"/>
</g>
</g>
</svg>
