<svg width="26" height="26" viewBox="0 0 26 26" fill="none" xmlns="http://www.w3.org/2000/svg">
<g id="user-circle">
<g id="Solid">
<path fill-rule="evenodd" clip-rule="evenodd" d="M7.09091 10.0455C7.09091 6.78195 9.7365 4.13636 13 4.13636C16.2635 4.13636 18.9091 6.78195 18.9091 10.0455C18.9091 13.309 16.2635 15.9545 13 15.9545C9.7365 15.9545 7.09091 13.309 7.09091 10.0455Z" fill="#DBDBDB"/>
<path fill-rule="evenodd" clip-rule="evenodd" d="M13 0C5.8203 0 0 5.8203 0 13C0 20.1797 5.8203 26 13 26C20.1797 26 26 20.1797 26 13C26 5.8203 20.1797 0 13 0ZM2.36364 13C2.36364 7.1257 7.1257 2.36364 13 2.36364C18.8743 2.36364 23.6364 7.1257 23.6364 13C23.6364 15.6249 22.6855 18.0278 21.1094 19.8829C20.0267 18.568 18.3848 17.7273 16.5455 17.7273H9.4546C7.61525 17.7273 5.97338 18.568 4.89065 19.883C3.31453 18.0279 2.36364 15.625 2.36364 13Z" fill="#DBDBDB"/>
</g>
</g>
</svg>
