<svg width="181" height="182" viewBox="0 0 181 182" fill="none"
    xmlns="http://www.w3.org/2000/svg">
    <path d="M90.5 152.5C124.036 152.5 151.5 125.119 151.5 91C151.5 56.8806 124.036 29.5 90.5 29.5C56.964 29.5 29.5 56.8806 29.5 91C29.5 125.119 56.964 152.5 90.5 152.5ZM180.5 91C180.5 140.984 140.203 181.5 90.5 181.5C40.797 181.5 0.5 140.984 0.5 91C0.5 41.0156 40.797 0.5 90.5 0.5C140.203 0.5 180.5 41.0156 180.5 91Z" fill="#244A3C" stroke="#38F8AC"/>
    <path d="M175.468 61.164C178.74 70.5863 180.444 80.4986 180.499 90.5H151.534C151.47 82.6112 149.894 74.807 146.89 67.5154L146.845 67.4065C146.845 67.4065 146.845 67.4065 146.845 67.4065C146.108 65.6271 145.29 63.8867 144.393 62.1907C141.559 56.8307 137.944 51.9134 133.66 47.6054C127.992 41.9065 121.264 37.3858 113.858 34.3014C106.607 31.2811 98.8457 29.6961 91 29.6315L91 0.501396C101.003 0.557272 110.916 2.2894 120.333 5.61674C121.883 6.16426 123.419 6.75498 124.941 7.38853C135.86 11.9364 145.781 18.6023 154.139 27.0059C160.496 33.3985 165.854 40.7015 170.045 48.6641C171.363 51.1688 172.566 53.7388 173.649 56.3662L173.693 56.4737C174.329 58.0222 174.92 59.5862 175.468 61.164Z" fill="#5C4D2F" stroke="#FFCB65"/>
    <path d="M172.558 53.8306C173.636 56.2358 174.606 58.6828 175.468 61.1643C177.879 68.1068 179.44 75.3192 180.115 82.6415C180.356 85.2496 180.484 87.8716 180.498 90.5003H151.534C151.465 82.0323 149.654 73.67 146.215 65.9399L172.558 53.8306Z" fill="#66363C" stroke="#FF465C"/>
</svg>
    