<svg width="1358" height="393" viewBox="0 0 1358 393" fill="none" xmlns="http://www.w3.org/2000/svg">
    <path opacity="0.5" d="M4.52415 131.139C3.84138 131.139 3.23153 131.022 2.6946 130.786C2.16098 130.551 1.7384 130.224 1.42685 129.807C1.11861 129.386 0.952888 128.899 0.929688 128.345H2.49077C2.51065 128.647 2.61174 128.909 2.79403 129.131C2.97964 129.349 3.22159 129.518 3.51989 129.638C3.81818 129.757 4.14962 129.817 4.5142 129.817C4.91525 129.817 5.26989 129.747 5.57812 129.608C5.88968 129.469 6.13329 129.275 6.30895 129.026C6.48461 128.774 6.57244 128.484 6.57244 128.156C6.57244 127.815 6.48461 127.515 6.30895 127.256C6.1366 126.995 5.88305 126.789 5.5483 126.64C5.21686 126.491 4.81581 126.416 4.34517 126.416H3.48509V125.163H4.34517C4.72301 125.163 5.05445 125.095 5.33949 124.96C5.62784 124.824 5.85322 124.635 6.01562 124.393C6.17803 124.147 6.25923 123.861 6.25923 123.533C6.25923 123.218 6.18797 122.944 6.04545 122.712C5.90625 122.477 5.70739 122.293 5.44886 122.161C5.19366 122.028 4.89205 121.962 4.54403 121.962C4.21259 121.962 3.9027 122.023 3.61435 122.146C3.32931 122.265 3.0973 122.437 2.91832 122.663C2.73935 122.885 2.64323 123.152 2.62997 123.463H1.14347C1.16004 122.913 1.32244 122.429 1.63068 122.011C1.94223 121.594 2.35322 121.267 2.86364 121.032C3.37405 120.797 3.94081 120.679 4.56392 120.679C5.21686 120.679 5.7803 120.807 6.25426 121.062C6.73153 121.314 7.09943 121.65 7.35795 122.071C7.61979 122.492 7.74905 122.953 7.74574 123.453C7.74905 124.023 7.58996 124.507 7.26847 124.905C6.95028 125.303 6.52604 125.569 5.99574 125.705V125.785C6.67188 125.888 7.19555 126.156 7.56676 126.59C7.94129 127.024 8.12689 127.563 8.12358 128.206C8.12689 128.766 7.97112 129.268 7.65625 129.712C7.3447 130.156 6.9188 130.506 6.37855 130.761C5.83831 131.013 5.22017 131.139 4.52415 131.139ZM11.6559 129.608L11.5813 130.15C11.5316 130.548 11.4471 130.962 11.3278 131.393C11.2118 131.827 11.0908 132.23 10.9648 132.601C10.8422 132.972 10.7411 133.267 10.6616 133.486H9.6076C9.65069 133.28 9.71035 133.002 9.78658 132.651C9.86281 132.303 9.93738 131.913 10.0103 131.482C10.0832 131.051 10.1379 130.612 10.1744 130.165L10.2241 129.608H11.6559ZM16.932 131.139C16.3089 131.139 15.7488 131.02 15.2516 130.781C14.7578 130.539 14.3633 130.208 14.0684 129.787C13.7734 129.366 13.6159 128.885 13.5961 128.345H15.0875C15.124 128.783 15.3179 129.142 15.6692 129.424C16.0205 129.706 16.4415 129.847 16.932 129.847C17.3231 129.847 17.6694 129.757 17.9711 129.578C18.276 129.396 18.5146 129.146 18.687 128.827C18.8626 128.509 18.9505 128.146 18.9505 127.739C18.9505 127.324 18.861 126.955 18.682 126.63C18.503 126.305 18.2561 126.05 17.9412 125.864C17.6297 125.679 17.2717 125.584 16.8674 125.581C16.5591 125.581 16.2492 125.634 15.9377 125.74C15.6261 125.846 15.3742 125.985 15.182 126.158L13.775 125.949L14.3468 120.818H19.9448V122.136H15.6245L15.3013 124.984H15.361C15.5598 124.792 15.8233 124.631 16.1515 124.502C16.4829 124.373 16.8375 124.308 17.2154 124.308C17.8352 124.308 18.387 124.456 18.8709 124.751C19.3581 125.046 19.7409 125.448 20.0194 125.959C20.3011 126.466 20.4403 127.049 20.437 127.709C20.4403 128.368 20.2911 128.957 19.9895 129.474C19.6912 129.991 19.2769 130.398 18.7466 130.697C18.2196 130.992 17.6148 131.139 16.932 131.139ZM25.7976 131.169C25.0121 131.166 24.3409 130.959 23.7841 130.548C23.2273 130.137 22.8014 129.538 22.5064 128.753C22.2114 127.967 22.0639 127.021 22.0639 125.914C22.0639 124.81 22.2114 123.867 22.5064 123.085C22.8047 122.303 23.2322 121.706 23.7891 121.295C24.3492 120.884 25.0187 120.679 25.7976 120.679C26.5765 120.679 27.2443 120.886 27.8011 121.3C28.358 121.711 28.7839 122.308 29.0788 123.09C29.3771 123.869 29.5263 124.81 29.5263 125.914C29.5263 127.024 29.3788 127.972 29.0838 128.758C28.7888 129.54 28.3629 130.138 27.8061 130.553C27.2493 130.964 26.5798 131.169 25.7976 131.169ZM25.7976 129.842C26.487 129.842 27.0256 129.505 27.4134 128.832C27.8045 128.16 28 127.187 28 125.914C28 125.069 27.9105 124.355 27.7315 123.771C27.5559 123.185 27.3023 122.741 26.9709 122.439C26.6428 122.134 26.2517 121.982 25.7976 121.982C25.1115 121.982 24.5729 122.32 24.1818 122.996C23.7907 123.672 23.5935 124.645 23.5902 125.914C23.5902 126.763 23.678 127.48 23.8537 128.067C24.0327 128.65 24.2862 129.093 24.6143 129.394C24.9425 129.692 25.3369 129.842 25.7976 129.842ZM34.8347 131.169C34.0492 131.166 33.378 130.959 32.8212 130.548C32.2644 130.137 31.8385 129.538 31.5435 128.753C31.2485 127.967 31.101 127.021 31.101 125.914C31.101 124.81 31.2485 123.867 31.5435 123.085C31.8418 122.303 32.2694 121.706 32.8262 121.295C33.3863 120.884 34.0558 120.679 34.8347 120.679C35.6136 120.679 36.2814 120.886 36.8382 121.3C37.3951 121.711 37.821 122.308 38.1159 123.09C38.4142 123.869 38.5634 124.81 38.5634 125.914C38.5634 127.024 38.4159 127.972 38.1209 128.758C37.8259 129.54 37.4 130.138 36.8432 130.553C36.2864 130.964 35.6169 131.169 34.8347 131.169ZM34.8347 129.842C35.5241 129.842 36.0627 129.505 36.4505 128.832C36.8416 128.16 37.0371 127.187 37.0371 125.914C37.0371 125.069 36.9476 124.355 36.7686 123.771C36.593 123.185 36.3394 122.741 36.008 122.439C35.6799 122.134 35.2888 121.982 34.8347 121.982C34.1486 121.982 33.61 122.32 33.2189 122.996C32.8278 123.672 32.6306 124.645 32.6273 125.914C32.6273 126.763 32.7151 127.48 32.8908 128.067C33.0698 128.65 33.3233 129.093 33.6515 129.394C33.9796 129.692 34.374 129.842 34.8347 129.842Z" fill="white"/>
    <path opacity="0.5" d="M0.765625 89.0114V87.7685L5.16548 80.8182H6.14489V82.6477H5.52344L2.37642 87.6293V87.7088H8.40696V89.0114H0.765625ZM5.59304 91V88.6335L5.60298 88.0668V80.8182H7.05966V91H5.59304ZM11.7106 89.608L11.636 90.1499C11.5863 90.5476 11.5018 90.9619 11.3825 91.3928C11.2665 91.8269 11.1455 92.2296 11.0195 92.6009C10.8969 92.9721 10.7958 93.267 10.7163 93.4858H9.66229C9.70537 93.2803 9.76503 93.0019 9.84126 92.6506C9.9175 92.3026 9.99207 91.9131 10.065 91.4822C10.1379 91.0514 10.1926 90.6122 10.229 90.1648L10.2788 89.608H11.7106ZM16.9656 91.169C16.18 91.1657 15.5089 90.9586 14.9521 90.5476C14.3952 90.1366 13.9693 89.5384 13.6744 88.7528C13.3794 87.9673 13.2319 87.0211 13.2319 85.9141C13.2319 84.8104 13.3794 83.8674 13.6744 83.0852C13.9727 82.303 14.4002 81.7064 14.957 81.2955C15.5172 80.8845 16.1867 80.679 16.9656 80.679C17.7444 80.679 18.4123 80.8861 18.9691 81.3004C19.5259 81.7114 19.9518 82.308 20.2468 83.0902C20.5451 83.8691 20.6942 84.8104 20.6942 85.9141C20.6942 87.0244 20.5468 87.9723 20.2518 88.7578C19.9568 89.54 19.5309 90.1383 18.9741 90.5526C18.4173 90.9635 17.7478 91.169 16.9656 91.169ZM16.9656 89.8416C17.6549 89.8416 18.1935 89.5052 18.5813 88.8324C18.9724 88.1596 19.168 87.1868 19.168 85.9141C19.168 85.0689 19.0785 84.3546 18.8995 83.7713C18.7238 83.1847 18.4703 82.7405 18.1388 82.4389C17.8107 82.134 17.4196 81.9815 16.9656 81.9815C16.2795 81.9815 15.7409 82.3196 15.3498 82.9957C14.9587 83.6719 14.7615 84.6446 14.7582 85.9141C14.7582 86.7625 14.846 87.4801 15.0217 88.0668C15.2006 88.6501 15.4542 89.0926 15.7823 89.3942C16.1104 89.6925 16.5049 89.8416 16.9656 89.8416ZM26.0027 91.169C25.2172 91.1657 24.546 90.9586 23.9892 90.5476C23.4324 90.1366 23.0065 89.5384 22.7115 88.7528C22.4165 87.9673 22.269 87.0211 22.269 85.9141C22.269 84.8104 22.4165 83.8674 22.7115 83.0852C23.0098 82.303 23.4373 81.7064 23.9941 81.2955C24.5543 80.8845 25.2238 80.679 26.0027 80.679C26.7815 80.679 27.4494 80.8861 28.0062 81.3004C28.563 81.7114 28.9889 82.308 29.2839 83.0902C29.5822 83.8691 29.7314 84.8104 29.7314 85.9141C29.7314 87.0244 29.5839 87.9723 29.2889 88.7578C28.9939 89.54 28.568 90.1383 28.0112 90.5526C27.4544 90.9635 26.7849 91.169 26.0027 91.169ZM26.0027 89.8416C26.6921 89.8416 27.2306 89.5052 27.6184 88.8324C28.0095 88.1596 28.2051 87.1868 28.2051 85.9141C28.2051 85.0689 28.1156 84.3546 27.9366 83.7713C27.7609 83.1847 27.5074 82.7405 27.176 82.4389C26.8478 82.134 26.4567 81.9815 26.0027 81.9815C25.3166 81.9815 24.778 82.3196 24.3869 82.9957C23.9958 83.6719 23.7986 84.6446 23.7953 85.9141C23.7953 86.7625 23.8831 87.4801 24.0588 88.0668C24.2377 88.6501 24.4913 89.0926 24.8194 89.3942C25.1475 89.6925 25.542 89.8416 26.0027 89.8416ZM35.0398 91.169C34.2543 91.1657 33.5831 90.9586 33.0263 90.5476C32.4695 90.1366 32.0436 89.5384 31.7486 88.7528C31.4536 87.9673 31.3061 87.0211 31.3061 85.9141C31.3061 84.8104 31.4536 83.8674 31.7486 83.0852C32.0469 82.303 32.4744 81.7064 33.0312 81.2955C33.5914 80.8845 34.2609 80.679 35.0398 80.679C35.8187 80.679 36.4865 80.8861 37.0433 81.3004C37.6001 81.7114 38.026 82.308 38.321 83.0902C38.6193 83.8691 38.7685 84.8104 38.7685 85.9141C38.7685 87.0244 38.621 87.9723 38.326 88.7578C38.031 89.54 37.6051 90.1383 37.0483 90.5526C36.4915 90.9635 35.822 91.169 35.0398 91.169ZM35.0398 89.8416C35.7292 89.8416 36.2678 89.5052 36.6555 88.8324C37.0466 88.1596 37.2422 87.1868 37.2422 85.9141C37.2422 85.0689 37.1527 84.3546 36.9737 83.7713C36.7981 83.1847 36.5445 82.7405 36.2131 82.4389C35.8849 82.134 35.4938 81.9815 35.0398 81.9815C34.3537 81.9815 33.8151 82.3196 33.424 82.9957C33.0329 83.6719 32.8357 84.6446 32.8324 85.9141C32.8324 86.7625 32.9202 87.4801 33.0959 88.0668C33.2749 88.6501 33.5284 89.0926 33.8565 89.3942C34.1847 89.6925 34.5791 89.8416 35.0398 89.8416Z" fill="white"/>
    <path opacity="0.5" d="M0.765625 49.0114V47.7685L5.16548 40.8182H6.14489V42.6477H5.52344L2.37642 47.6293V47.7088H8.40696V49.0114H0.765625ZM5.59304 51V48.6335L5.60298 48.0668V40.8182H7.05966V51H5.59304ZM11.7106 49.608L11.636 50.1499C11.5863 50.5476 11.5018 50.9619 11.3825 51.3928C11.2665 51.8269 11.1455 52.2296 11.0195 52.6009C10.8969 52.9721 10.7958 53.267 10.7163 53.4858H9.66229C9.70537 53.2803 9.76503 53.0019 9.84126 52.6506C9.9175 52.3026 9.99207 51.9131 10.065 51.4822C10.1379 51.0514 10.1926 50.6122 10.229 50.1648L10.2788 49.608H11.7106ZM16.9867 51.1392C16.3636 51.1392 15.8034 51.0199 15.3063 50.7812C14.8124 50.5393 14.418 50.2079 14.123 49.7869C13.8281 49.366 13.6706 48.8854 13.6507 48.3452H15.1422C15.1787 48.7827 15.3726 49.1423 15.7239 49.424C16.0752 49.7057 16.4962 49.8466 16.9867 49.8466C17.3778 49.8466 17.7241 49.7571 18.0257 49.5781C18.3307 49.3958 18.5693 49.1456 18.7417 48.8274C18.9173 48.5092 19.0051 48.1463 19.0051 47.7386C19.0051 47.3243 18.9157 46.9548 18.7367 46.63C18.5577 46.3052 18.3108 46.05 17.9959 45.8643C17.6844 45.6787 17.3264 45.5843 16.9221 45.581C16.6138 45.581 16.3039 45.634 15.9924 45.7401C15.6808 45.8461 15.4289 45.9853 15.2367 46.1577L13.8297 45.9489L14.4015 40.8182H19.9995V42.1357H15.6792L15.356 44.9844H15.4157C15.6145 44.7921 15.878 44.6314 16.2061 44.5021C16.5376 44.3729 16.8922 44.3082 17.2701 44.3082C17.8899 44.3082 18.4417 44.4557 18.9256 44.7507C19.4128 45.0457 19.7956 45.4484 20.074 45.9588C20.3558 46.4659 20.495 47.0492 20.4917 47.7088C20.495 48.3684 20.3458 48.9567 20.0442 49.4737C19.7459 49.9908 19.3316 50.3984 18.8013 50.6967C18.2743 50.9917 17.6694 51.1392 16.9867 51.1392ZM25.8523 51.169C25.0668 51.1657 24.3956 50.9586 23.8388 50.5476C23.282 50.1366 22.8561 49.5384 22.5611 48.7528C22.2661 47.9673 22.1186 47.0211 22.1186 45.9141C22.1186 44.8104 22.2661 43.8674 22.5611 43.0852C22.8594 42.303 23.2869 41.7064 23.8438 41.2955C24.4039 40.8845 25.0734 40.679 25.8523 40.679C26.6312 40.679 27.299 40.8861 27.8558 41.3004C28.4126 41.7114 28.8385 42.308 29.1335 43.0902C29.4318 43.8691 29.581 44.8104 29.581 45.9141C29.581 47.0244 29.4335 47.9723 29.1385 48.7578C28.8435 49.54 28.4176 50.1383 27.8608 50.5526C27.304 50.9635 26.6345 51.169 25.8523 51.169ZM25.8523 49.8416C26.5417 49.8416 27.0803 49.5052 27.468 48.8324C27.8591 48.1596 28.0547 47.1868 28.0547 45.9141C28.0547 45.0689 27.9652 44.3546 27.7862 43.7713C27.6106 43.1847 27.357 42.7405 27.0256 42.4389C26.6974 42.134 26.3063 41.9815 25.8523 41.9815C25.1662 41.9815 24.6276 42.3196 24.2365 42.9957C23.8454 43.6719 23.6482 44.6446 23.6449 45.9141C23.6449 46.7625 23.7327 47.4801 23.9084 48.0668C24.0874 48.6501 24.3409 49.0926 24.669 49.3942C24.9972 49.6925 25.3916 49.8416 25.8523 49.8416ZM34.8894 51.169C34.1039 51.1657 33.4327 50.9586 32.8759 50.5476C32.3191 50.1366 31.8932 49.5384 31.5982 48.7528C31.3032 47.9673 31.1557 47.0211 31.1557 45.9141C31.1557 44.8104 31.3032 43.8674 31.5982 43.0852C31.8965 42.303 32.324 41.7064 32.8809 41.2955C33.441 40.8845 34.1105 40.679 34.8894 40.679C35.6683 40.679 36.3361 40.8861 36.8929 41.3004C37.4498 41.7114 37.8757 42.308 38.1706 43.0902C38.4689 43.8691 38.6181 44.8104 38.6181 45.9141C38.6181 47.0244 38.4706 47.9723 38.1756 48.7578C37.8806 49.54 37.4547 50.1383 36.8979 50.5526C36.3411 50.9635 35.6716 51.169 34.8894 51.169ZM34.8894 49.8416C35.5788 49.8416 36.1174 49.5052 36.5051 48.8324C36.8962 48.1596 37.0918 47.1868 37.0918 45.9141C37.0918 45.0689 37.0023 44.3546 36.8233 43.7713C36.6477 43.1847 36.3941 42.7405 36.0627 42.4389C35.7346 42.134 35.3435 41.9815 34.8894 41.9815C34.2033 41.9815 33.6647 42.3196 33.2736 42.9957C32.8825 43.6719 32.6853 44.6446 32.682 45.9141C32.682 46.7625 32.7698 47.4801 32.9455 48.0668C33.1245 48.6501 33.378 49.0926 33.7061 49.3942C34.0343 49.6925 34.4287 49.8416 34.8894 49.8416Z" fill="white"/>
    <path opacity="0.5" d="M4.3402 11.1392C3.71709 11.1392 3.15696 11.0199 2.6598 10.7812C2.16596 10.5393 1.77154 10.2079 1.47656 9.78693C1.18158 9.366 1.02415 8.88542 1.00426 8.34517H2.49574C2.5322 8.78267 2.72609 9.14228 3.07741 9.42401C3.42874 9.70573 3.84967 9.84659 4.3402 9.84659C4.7313 9.84659 5.07765 9.7571 5.37926 9.57812C5.68419 9.39583 5.92282 9.1456 6.09517 8.82741C6.27083 8.50923 6.35866 8.14631 6.35866 7.73864C6.35866 7.32434 6.26918 6.95478 6.0902 6.62997C5.91122 6.30516 5.6643 6.04995 5.34943 5.86435C5.03788 5.67874 4.67992 5.58428 4.27557 5.58097C3.96733 5.58097 3.65743 5.634 3.34588 5.74006C3.03433 5.84612 2.78243 5.98532 2.5902 6.15767L1.18324 5.94886L1.75497 0.818182H7.35298V2.13565H3.03267L2.70952 4.98438H2.76918C2.96804 4.79214 3.23153 4.63139 3.55966 4.50213C3.8911 4.37287 4.24574 4.30824 4.62358 4.30824C5.24337 4.30824 5.79522 4.45573 6.27912 4.75071C6.76634 5.04569 7.14915 5.44839 7.42756 5.95881C7.70928 6.46591 7.84848 7.04924 7.84517 7.70881C7.84848 8.36837 7.69934 8.95668 7.39773 9.47372C7.09943 9.99077 6.68513 10.3984 6.15483 10.6967C5.62784 10.9917 5.02296 11.1392 4.3402 11.1392ZM11.2457 9.60795L11.1712 10.1499C11.1214 10.5476 11.0369 10.9619 10.9176 11.3928C10.8016 11.8269 10.6806 12.2296 10.5547 12.6009C10.4321 12.9721 10.331 13.267 10.2514 13.4858H9.19744C9.24053 13.2803 9.30019 13.0019 9.37642 12.6506C9.45265 12.3026 9.52723 11.9131 9.60014 11.4822C9.67306 11.0514 9.72775 10.6122 9.7642 10.1648L9.81392 9.60795H11.2457ZM16.5007 11.169C15.7152 11.1657 15.044 10.9586 14.4872 10.5476C13.9304 10.1366 13.5045 9.53835 13.2095 8.75284C12.9145 7.96733 12.767 7.02107 12.767 5.91406C12.767 4.81037 12.9145 3.86742 13.2095 3.08523C13.5078 2.30303 13.9354 1.70644 14.4922 1.29545C15.0523 0.884469 15.7218 0.678977 16.5007 0.678977C17.2796 0.678977 17.9474 0.886126 18.5043 1.30043C19.0611 1.71141 19.487 2.308 19.782 3.0902C20.0803 3.86908 20.2294 4.81037 20.2294 5.91406C20.2294 7.02438 20.0819 7.9723 19.7869 8.75781C19.492 9.54001 19.0661 10.1383 18.5092 10.5526C17.9524 10.9635 17.2829 11.169 16.5007 11.169ZM16.5007 9.84162C17.1901 9.84162 17.7287 9.50521 18.1165 8.83239C18.5076 8.15956 18.7031 7.18679 18.7031 5.91406C18.7031 5.06889 18.6136 4.35464 18.4347 3.77131C18.259 3.18466 18.0054 2.74053 17.674 2.43892C17.3459 2.134 16.9548 1.98153 16.5007 1.98153C15.8146 1.98153 15.276 2.3196 14.8849 2.99574C14.4938 3.67187 14.2966 4.64465 14.2933 5.91406C14.2933 6.76255 14.3812 7.48011 14.5568 8.06676C14.7358 8.65009 14.9893 9.09257 15.3175 9.39418C15.6456 9.69247 16.04 9.84162 16.5007 9.84162ZM25.5378 11.169C24.7523 11.1657 24.0811 10.9586 23.5243 10.5476C22.9675 10.1366 22.5416 9.53835 22.2466 8.75284C21.9516 7.96733 21.8042 7.02107 21.8042 5.91406C21.8042 4.81037 21.9516 3.86742 22.2466 3.08523C22.5449 2.30303 22.9725 1.70644 23.5293 1.29545C24.0894 0.884469 24.7589 0.678977 25.5378 0.678977C26.3167 0.678977 26.9846 0.886126 27.5414 1.30043C28.0982 1.71141 28.5241 2.308 28.8191 3.0902C29.1174 3.86908 29.2665 4.81037 29.2665 5.91406C29.2665 7.02438 29.119 7.9723 28.824 8.75781C28.5291 9.54001 28.1032 10.1383 27.5463 10.5526C26.9895 10.9635 26.32 11.169 25.5378 11.169ZM25.5378 9.84162C26.2272 9.84162 26.7658 9.50521 27.1536 8.83239C27.5447 8.15956 27.7402 7.18679 27.7402 5.91406C27.7402 5.06889 27.6507 4.35464 27.4718 3.77131C27.2961 3.18466 27.0426 2.74053 26.7111 2.43892C26.383 2.134 25.9919 1.98153 25.5378 1.98153C24.8517 1.98153 24.3132 2.3196 23.9221 2.99574C23.531 3.67187 23.3337 4.64465 23.3304 5.91406C23.3304 6.76255 23.4183 7.48011 23.5939 8.06676C23.7729 8.65009 24.0265 9.09257 24.3546 9.39418C24.6827 9.69247 25.0771 9.84162 25.5378 9.84162ZM34.5749 11.169C33.7894 11.1657 33.1183 10.9586 32.5614 10.5476C32.0046 10.1366 31.5787 9.53835 31.2837 8.75284C30.9888 7.96733 30.8413 7.02107 30.8413 5.91406C30.8413 4.81037 30.9888 3.86742 31.2837 3.08523C31.582 2.30303 32.0096 1.70644 32.5664 1.29545C33.1265 0.884469 33.796 0.678977 34.5749 0.678977C35.3538 0.678977 36.0217 0.886126 36.5785 1.30043C37.1353 1.71141 37.5612 2.308 37.8562 3.0902C38.1545 3.86908 38.3036 4.81037 38.3036 5.91406C38.3036 7.02438 38.1561 7.9723 37.8612 8.75781C37.5662 9.54001 37.1403 10.1383 36.5835 10.5526C36.0266 10.9635 35.3571 11.169 34.5749 11.169ZM34.5749 9.84162C35.2643 9.84162 35.8029 9.50521 36.1907 8.83239C36.5818 8.15956 36.7773 7.18679 36.7773 5.91406C36.7773 5.06889 36.6879 4.35464 36.5089 3.77131C36.3332 3.18466 36.0797 2.74053 35.7482 2.43892C35.4201 2.134 35.029 1.98153 34.5749 1.98153C33.8888 1.98153 33.3503 2.3196 32.9592 2.99574C32.5681 3.67187 32.3709 4.64465 32.3675 5.91406C32.3675 6.76255 32.4554 7.48011 32.631 8.06676C32.81 8.65009 33.0636 9.09257 33.3917 9.39418C33.7198 9.69247 34.1142 9.84162 34.5749 9.84162Z" fill="white"/>
    <path opacity="0.5" d="M4.52415 171.139C3.84138 171.139 3.23153 171.022 2.6946 170.786C2.16098 170.551 1.7384 170.224 1.42685 169.807C1.11861 169.386 0.952888 168.899 0.929688 168.345H2.49077C2.51065 168.647 2.61174 168.909 2.79403 169.131C2.97964 169.349 3.22159 169.518 3.51989 169.638C3.81818 169.757 4.14962 169.817 4.5142 169.817C4.91525 169.817 5.26989 169.747 5.57812 169.608C5.88968 169.469 6.13329 169.275 6.30895 169.026C6.48461 168.774 6.57244 168.484 6.57244 168.156C6.57244 167.815 6.48461 167.515 6.30895 167.256C6.1366 166.995 5.88305 166.789 5.5483 166.64C5.21686 166.491 4.81581 166.416 4.34517 166.416H3.48509V165.163H4.34517C4.72301 165.163 5.05445 165.095 5.33949 164.96C5.62784 164.824 5.85322 164.635 6.01562 164.393C6.17803 164.147 6.25923 163.861 6.25923 163.533C6.25923 163.218 6.18797 162.944 6.04545 162.712C5.90625 162.477 5.70739 162.293 5.44886 162.161C5.19366 162.028 4.89205 161.962 4.54403 161.962C4.21259 161.962 3.9027 162.023 3.61435 162.146C3.32931 162.265 3.0973 162.437 2.91832 162.663C2.73935 162.885 2.64323 163.152 2.62997 163.463H1.14347C1.16004 162.913 1.32244 162.429 1.63068 162.011C1.94223 161.594 2.35322 161.267 2.86364 161.032C3.37405 160.797 3.94081 160.679 4.56392 160.679C5.21686 160.679 5.7803 160.807 6.25426 161.062C6.73153 161.314 7.09943 161.65 7.35795 162.071C7.61979 162.492 7.74905 162.953 7.74574 163.453C7.74905 164.023 7.58996 164.507 7.26847 164.905C6.95028 165.303 6.52604 165.569 5.99574 165.705V165.785C6.67188 165.888 7.19555 166.156 7.56676 166.59C7.94129 167.024 8.12689 167.563 8.12358 168.206C8.12689 168.766 7.97112 169.268 7.65625 169.712C7.3447 170.156 6.9188 170.506 6.37855 170.761C5.83831 171.013 5.22017 171.139 4.52415 171.139ZM11.6559 169.608L11.5813 170.15C11.5316 170.548 11.4471 170.962 11.3278 171.393C11.2118 171.827 11.0908 172.23 10.9648 172.601C10.8422 172.972 10.7411 173.267 10.6616 173.486H9.6076C9.65069 173.28 9.71035 173.002 9.78658 172.651C9.86281 172.303 9.93738 171.913 10.0103 171.482C10.0832 171.051 10.1379 170.612 10.1744 170.165L10.2241 169.608H11.6559ZM16.9109 171.169C16.1254 171.166 15.4542 170.959 14.8974 170.548C14.3406 170.137 13.9147 169.538 13.6197 168.753C13.3247 167.967 13.1772 167.021 13.1772 165.914C13.1772 164.81 13.3247 163.867 13.6197 163.085C13.918 162.303 14.3455 161.706 14.9023 161.295C15.4625 160.884 16.132 160.679 16.9109 160.679C17.6897 160.679 18.3576 160.886 18.9144 161.3C19.4712 161.711 19.8971 162.308 20.1921 163.09C20.4904 163.869 20.6396 164.81 20.6396 165.914C20.6396 167.024 20.4921 167.972 20.1971 168.758C19.9021 169.54 19.4762 170.138 18.9194 170.553C18.3626 170.964 17.6931 171.169 16.9109 171.169ZM16.9109 169.842C17.6003 169.842 18.1388 169.505 18.5266 168.832C18.9177 168.16 19.1133 167.187 19.1133 165.914C19.1133 165.069 19.0238 164.355 18.8448 163.771C18.6692 163.185 18.4156 162.741 18.0842 162.439C17.756 162.134 17.3649 161.982 16.9109 161.982C16.2248 161.982 15.6862 162.32 15.2951 162.996C14.904 163.672 14.7068 164.645 14.7035 165.914C14.7035 166.763 14.7913 167.48 14.967 168.067C15.146 168.65 15.3995 169.093 15.7276 169.394C16.0558 169.692 16.4502 169.842 16.9109 169.842ZM25.948 171.169C25.1625 171.166 24.4913 170.959 23.9345 170.548C23.3777 170.137 22.9518 169.538 22.6568 168.753C22.3618 167.967 22.2143 167.021 22.2143 165.914C22.2143 164.81 22.3618 163.867 22.6568 163.085C22.9551 162.303 23.3826 161.706 23.9395 161.295C24.4996 160.884 25.1691 160.679 25.948 160.679C26.7269 160.679 27.3947 160.886 27.9515 161.3C28.5083 161.711 28.9342 162.308 29.2292 163.09C29.5275 163.869 29.6767 164.81 29.6767 165.914C29.6767 167.024 29.5292 167.972 29.2342 168.758C28.9392 169.54 28.5133 170.138 27.9565 170.553C27.3997 170.964 26.7302 171.169 25.948 171.169ZM25.948 169.842C26.6374 169.842 27.176 169.505 27.5637 168.832C27.9548 168.16 28.1504 167.187 28.1504 165.914C28.1504 165.069 28.0609 164.355 27.8819 163.771C27.7063 163.185 27.4527 162.741 27.1213 162.439C26.7931 162.134 26.402 161.982 25.948 161.982C25.2619 161.982 24.7233 162.32 24.3322 162.996C23.9411 163.672 23.7439 164.645 23.7406 165.914C23.7406 166.763 23.8284 167.48 24.0041 168.067C24.1831 168.65 24.4366 169.093 24.7647 169.394C25.0929 169.692 25.4873 169.842 25.948 169.842ZM34.9851 171.169C34.1996 171.166 33.5284 170.959 32.9716 170.548C32.4148 170.137 31.9889 169.538 31.6939 168.753C31.3989 167.967 31.2514 167.021 31.2514 165.914C31.2514 164.81 31.3989 163.867 31.6939 163.085C31.9922 162.303 32.4197 161.706 32.9766 161.295C33.5367 160.884 34.2062 160.679 34.9851 160.679C35.764 160.679 36.4318 160.886 36.9886 161.3C37.5455 161.711 37.9714 162.308 38.2663 163.09C38.5646 163.869 38.7138 164.81 38.7138 165.914C38.7138 167.024 38.5663 167.972 38.2713 168.758C37.9763 169.54 37.5504 170.138 36.9936 170.553C36.4368 170.964 35.7673 171.169 34.9851 171.169ZM34.9851 169.842C35.6745 169.842 36.2131 169.505 36.6009 168.832C36.992 168.16 37.1875 167.187 37.1875 165.914C37.1875 165.069 37.098 164.355 36.919 163.771C36.7434 163.185 36.4898 162.741 36.1584 162.439C35.8303 162.134 35.4392 161.982 34.9851 161.982C34.299 161.982 33.7604 162.32 33.3693 162.996C32.9782 163.672 32.781 164.645 32.7777 165.914C32.7777 166.763 32.8655 167.48 33.0412 168.067C33.2202 168.65 33.4737 169.093 33.8018 169.394C34.13 169.692 34.5244 169.842 34.9851 169.842Z" fill="white"/>
    <path opacity="0.5" d="M0.979403 211V209.886L4.42472 206.317C4.79261 205.929 5.09588 205.589 5.33452 205.298C5.57647 205.003 5.7571 204.723 5.87642 204.457C5.99574 204.192 6.0554 203.911 6.0554 203.612C6.0554 203.274 5.97585 202.982 5.81676 202.737C5.65767 202.489 5.44058 202.298 5.16548 202.165C4.89039 202.03 4.58049 201.962 4.2358 201.962C3.87121 201.962 3.55303 202.036 3.28125 202.185C3.00947 202.335 2.80066 202.545 2.65483 202.817C2.509 203.089 2.43608 203.407 2.43608 203.771H0.96946C0.96946 203.152 1.11198 202.61 1.39702 202.146C1.68205 201.682 2.07315 201.322 2.57031 201.067C3.06747 200.808 3.63258 200.679 4.26562 200.679C4.9053 200.679 5.46875 200.807 5.95597 201.062C6.4465 201.314 6.82931 201.658 7.1044 202.096C7.3795 202.53 7.51705 203.021 7.51705 203.567C7.51705 203.945 7.44579 204.315 7.30327 204.676C7.16406 205.037 6.92045 205.44 6.57244 205.884C6.22443 206.325 5.74053 206.86 5.12074 207.49L3.0973 209.608V209.683H7.68111V211H0.979403ZM11.5192 209.608L11.4446 210.15C11.3949 210.548 11.3104 210.962 11.1911 211.393C11.075 211.827 10.9541 212.23 10.8281 212.601C10.7055 212.972 10.6044 213.267 10.5249 213.486H9.47088C9.51397 213.28 9.57363 213.002 9.64986 212.651C9.72609 212.303 9.80066 211.913 9.87358 211.482C9.9465 211.051 10.0012 210.612 10.0376 210.165L10.0874 209.608H11.5192ZM16.7953 211.139C16.1722 211.139 15.612 211.02 15.1149 210.781C14.621 210.539 14.2266 210.208 13.9316 209.787C13.6367 209.366 13.4792 208.885 13.4593 208.345H14.9508C14.9873 208.783 15.1812 209.142 15.5325 209.424C15.8838 209.706 16.3047 209.847 16.7953 209.847C17.1864 209.847 17.5327 209.757 17.8343 209.578C18.1393 209.396 18.3779 209.146 18.5502 208.827C18.7259 208.509 18.8137 208.146 18.8137 207.739C18.8137 207.324 18.7243 206.955 18.5453 206.63C18.3663 206.305 18.1194 206.05 17.8045 205.864C17.493 205.679 17.135 205.584 16.7306 205.581C16.4224 205.581 16.1125 205.634 15.801 205.74C15.4894 205.846 15.2375 205.985 15.0453 206.158L13.6383 205.949L14.21 200.818H19.8081V202.136H15.4877L15.1646 204.984H15.2243C15.4231 204.792 15.6866 204.631 16.0147 204.502C16.3462 204.373 16.7008 204.308 17.0787 204.308C17.6984 204.308 18.2503 204.456 18.7342 204.751C19.2214 205.046 19.6042 205.448 19.8826 205.959C20.1644 206.466 20.3036 207.049 20.3002 207.709C20.3036 208.368 20.1544 208.957 19.8528 209.474C19.5545 209.991 19.1402 210.398 18.6099 210.697C18.0829 210.992 17.478 211.139 16.7953 211.139ZM25.6609 211.169C24.8754 211.166 24.2042 210.959 23.6474 210.548C23.0906 210.137 22.6647 209.538 22.3697 208.753C22.0747 207.967 21.9272 207.021 21.9272 205.914C21.9272 204.81 22.0747 203.867 22.3697 203.085C22.668 202.303 23.0955 201.706 23.6523 201.295C24.2125 200.884 24.882 200.679 25.6609 200.679C26.4397 200.679 27.1076 200.886 27.6644 201.3C28.2212 201.711 28.6471 202.308 28.9421 203.09C29.2404 203.869 29.3896 204.81 29.3896 205.914C29.3896 207.024 29.2421 207.972 28.9471 208.758C28.6521 209.54 28.2262 210.138 27.6694 210.553C27.1126 210.964 26.4431 211.169 25.6609 211.169ZM25.6609 209.842C26.3503 209.842 26.8888 209.505 27.2766 208.832C27.6677 208.16 27.8633 207.187 27.8633 205.914C27.8633 205.069 27.7738 204.355 27.5948 203.771C27.4192 203.185 27.1656 202.741 26.8342 202.439C26.506 202.134 26.1149 201.982 25.6609 201.982C24.9748 201.982 24.4362 202.32 24.0451 202.996C23.654 203.672 23.4568 204.645 23.4535 205.914C23.4535 206.763 23.5413 207.48 23.717 208.067C23.896 208.65 24.1495 209.093 24.4776 209.394C24.8058 209.692 25.2002 209.842 25.6609 209.842ZM34.698 211.169C33.9125 211.166 33.2413 210.959 32.6845 210.548C32.1277 210.137 31.7018 209.538 31.4068 208.753C31.1118 207.967 30.9643 207.021 30.9643 205.914C30.9643 204.81 31.1118 203.867 31.4068 203.085C31.7051 202.303 32.1326 201.706 32.6895 201.295C33.2496 200.884 33.9191 200.679 34.698 200.679C35.4769 200.679 36.1447 200.886 36.7015 201.3C37.2583 201.711 37.6842 202.308 37.9792 203.09C38.2775 203.869 38.4267 204.81 38.4267 205.914C38.4267 207.024 38.2792 207.972 37.9842 208.758C37.6892 209.54 37.2633 210.138 36.7065 210.553C36.1497 210.964 35.4802 211.169 34.698 211.169ZM34.698 209.842C35.3874 209.842 35.926 209.505 36.3137 208.832C36.7048 208.16 36.9004 207.187 36.9004 205.914C36.9004 205.069 36.8109 204.355 36.6319 203.771C36.4563 203.185 36.2027 202.741 35.8713 202.439C35.5431 202.134 35.152 201.982 34.698 201.982C34.0119 201.982 33.4733 202.32 33.0822 202.996C32.6911 203.672 32.4939 204.645 32.4906 205.914C32.4906 206.763 32.5784 207.48 32.7541 208.067C32.9331 208.65 33.1866 209.093 33.5147 209.394C33.8429 209.692 34.2373 209.842 34.698 209.842Z" fill="white"/>
    <path opacity="0.5" d="M0.979403 251V249.886L4.42472 246.317C4.79261 245.929 5.09588 245.589 5.33452 245.298C5.57647 245.003 5.7571 244.723 5.87642 244.457C5.99574 244.192 6.0554 243.911 6.0554 243.612C6.0554 243.274 5.97585 242.982 5.81676 242.737C5.65767 242.489 5.44058 242.298 5.16548 242.165C4.89039 242.03 4.58049 241.962 4.2358 241.962C3.87121 241.962 3.55303 242.036 3.28125 242.185C3.00947 242.335 2.80066 242.545 2.65483 242.817C2.509 243.089 2.43608 243.407 2.43608 243.771H0.96946C0.96946 243.152 1.11198 242.61 1.39702 242.146C1.68205 241.682 2.07315 241.322 2.57031 241.067C3.06747 240.808 3.63258 240.679 4.26562 240.679C4.9053 240.679 5.46875 240.807 5.95597 241.062C6.4465 241.314 6.82931 241.658 7.1044 242.096C7.3795 242.53 7.51705 243.021 7.51705 243.567C7.51705 243.945 7.44579 244.315 7.30327 244.676C7.16406 245.037 6.92045 245.44 6.57244 245.884C6.22443 246.325 5.74053 246.86 5.12074 247.49L3.0973 249.608V249.683H7.68111V251H0.979403ZM11.5192 249.608L11.4446 250.15C11.3949 250.548 11.3104 250.962 11.1911 251.393C11.075 251.827 10.9541 252.23 10.8281 252.601C10.7055 252.972 10.6044 253.267 10.5249 253.486H9.47088C9.51397 253.28 9.57363 253.002 9.64986 252.651C9.72609 252.303 9.80066 251.913 9.87358 251.482C9.9465 251.051 10.0012 250.612 10.0376 250.165L10.0874 249.608H11.5192ZM16.7741 251.169C15.9886 251.166 15.3175 250.959 14.7607 250.548C14.2038 250.137 13.7779 249.538 13.483 248.753C13.188 247.967 13.0405 247.021 13.0405 245.914C13.0405 244.81 13.188 243.867 13.483 243.085C13.7813 242.303 14.2088 241.706 14.7656 241.295C15.3258 240.884 15.9953 240.679 16.7741 240.679C17.553 240.679 18.2209 240.886 18.7777 241.3C19.3345 241.711 19.7604 242.308 20.0554 243.09C20.3537 243.869 20.5028 244.81 20.5028 245.914C20.5028 247.024 20.3554 247.972 20.0604 248.758C19.7654 249.54 19.3395 250.138 18.7827 250.553C18.2259 250.964 17.5563 251.169 16.7741 251.169ZM16.7741 249.842C17.4635 249.842 18.0021 249.505 18.3899 248.832C18.781 248.16 18.9766 247.187 18.9766 245.914C18.9766 245.069 18.8871 244.355 18.7081 243.771C18.5324 243.185 18.2789 242.741 17.9474 242.439C17.6193 242.134 17.2282 241.982 16.7741 241.982C16.0881 241.982 15.5495 242.32 15.1584 242.996C14.7673 243.672 14.5701 244.645 14.5668 245.914C14.5668 246.763 14.6546 247.48 14.8303 248.067C15.0092 248.65 15.2628 249.093 15.5909 249.394C15.919 249.692 16.3134 249.842 16.7741 249.842ZM25.8113 251.169C25.0257 251.166 24.3546 250.959 23.7978 250.548C23.2409 250.137 22.815 249.538 22.5201 248.753C22.2251 247.967 22.0776 247.021 22.0776 245.914C22.0776 244.81 22.2251 243.867 22.5201 243.085C22.8184 242.303 23.2459 241.706 23.8027 241.295C24.3629 240.884 25.0324 240.679 25.8113 240.679C26.5901 240.679 27.258 240.886 27.8148 241.3C28.3716 241.711 28.7975 242.308 29.0925 243.09C29.3908 243.869 29.54 244.81 29.54 245.914C29.54 247.024 29.3925 247.972 29.0975 248.758C28.8025 249.54 28.3766 250.138 27.8198 250.553C27.263 250.964 26.5935 251.169 25.8113 251.169ZM25.8113 249.842C26.5007 249.842 27.0392 249.505 27.427 248.832C27.8181 248.16 28.0137 247.187 28.0137 245.914C28.0137 245.069 27.9242 244.355 27.7452 243.771C27.5695 243.185 27.316 242.741 26.9846 242.439C26.6564 242.134 26.2653 241.982 25.8113 241.982C25.1252 241.982 24.5866 242.32 24.1955 242.996C23.8044 243.672 23.6072 244.645 23.6039 245.914C23.6039 246.763 23.6917 247.48 23.8674 248.067C24.0463 248.65 24.2999 249.093 24.628 249.394C24.9561 249.692 25.3506 249.842 25.8113 249.842ZM34.8484 251.169C34.0629 251.166 33.3917 250.959 32.8349 250.548C32.2781 250.137 31.8522 249.538 31.5572 248.753C31.2622 247.967 31.1147 247.021 31.1147 245.914C31.1147 244.81 31.2622 243.867 31.5572 243.085C31.8555 242.303 32.283 241.706 32.8398 241.295C33.4 240.884 34.0695 240.679 34.8484 240.679C35.6272 240.679 36.2951 240.886 36.8519 241.3C37.4087 241.711 37.8346 242.308 38.1296 243.09C38.4279 243.869 38.5771 244.81 38.5771 245.914C38.5771 247.024 38.4296 247.972 38.1346 248.758C37.8396 249.54 37.4137 250.138 36.8569 250.553C36.3001 250.964 35.6306 251.169 34.8484 251.169ZM34.8484 249.842C35.5378 249.842 36.0763 249.505 36.4641 248.832C36.8552 248.16 37.0508 247.187 37.0508 245.914C37.0508 245.069 36.9613 244.355 36.7823 243.771C36.6067 243.185 36.3531 242.741 36.0217 242.439C35.6935 242.134 35.3024 241.982 34.8484 241.982C34.1623 241.982 33.6237 242.32 33.2326 242.996C32.8415 243.672 32.6443 244.645 32.641 245.914C32.641 246.763 32.7288 247.48 32.9045 248.067C33.0835 248.65 33.337 249.093 33.6651 249.394C33.9933 249.692 34.3877 249.842 34.8484 249.842Z" fill="white"/>
    <path opacity="0.5" d="M4.84233 280.818V291H3.30114V282.359H3.24148L0.805398 283.95V282.479L3.34588 280.818H4.84233ZM8.96254 289.608L8.88796 290.15C8.83825 290.548 8.75373 290.962 8.63441 291.393C8.51841 291.827 8.39743 292.23 8.27148 292.601C8.14885 292.972 8.04776 293.267 7.96822 293.486H6.91424C6.95733 293.28 7.01699 293.002 7.09322 292.651C7.16945 292.303 7.24402 291.913 7.31694 291.482C7.38986 291.051 7.44454 290.612 7.481 290.165L7.53072 289.608H8.96254ZM14.2386 291.139C13.6155 291.139 13.0554 291.02 12.5582 290.781C12.0644 290.539 11.67 290.208 11.375 289.787C11.08 289.366 10.9226 288.885 10.9027 288.345H12.3942C12.4306 288.783 12.6245 289.142 12.9759 289.424C13.3272 289.706 13.7481 289.847 14.2386 289.847C14.6297 289.847 14.9761 289.757 15.2777 289.578C15.5826 289.396 15.8213 289.146 15.9936 288.827C16.1693 288.509 16.2571 288.146 16.2571 287.739C16.2571 287.324 16.1676 286.955 15.9886 286.63C15.8097 286.305 15.5627 286.05 15.2479 285.864C14.9363 285.679 14.5784 285.584 14.174 285.581C13.8658 285.581 13.5559 285.634 13.2443 285.74C12.9328 285.846 12.6809 285.985 12.4886 286.158L11.0817 285.949L11.6534 280.818H17.2514V282.136H12.9311L12.608 284.984H12.6676C12.8665 284.792 13.13 284.631 13.4581 284.502C13.7895 284.373 14.1442 284.308 14.522 284.308C15.1418 284.308 15.6937 284.456 16.1776 284.751C16.6648 285.046 17.0476 285.448 17.326 285.959C17.6077 286.466 17.7469 287.049 17.7436 287.709C17.7469 288.368 17.5978 288.957 17.2962 289.474C16.9979 289.991 16.5836 290.398 16.0533 290.697C15.5263 290.992 14.9214 291.139 14.2386 291.139ZM23.1042 291.169C22.3187 291.166 21.6475 290.959 21.0907 290.548C20.5339 290.137 20.108 289.538 19.813 288.753C19.5181 287.967 19.3706 287.021 19.3706 285.914C19.3706 284.81 19.5181 283.867 19.813 283.085C20.1113 282.303 20.5389 281.706 21.0957 281.295C21.6558 280.884 22.3253 280.679 23.1042 280.679C23.8831 280.679 24.551 280.886 25.1078 281.3C25.6646 281.711 26.0905 282.308 26.3855 283.09C26.6838 283.869 26.8329 284.81 26.8329 285.914C26.8329 287.024 26.6854 287.972 26.3904 288.758C26.0955 289.54 25.6696 290.138 25.1127 290.553C24.5559 290.964 23.8864 291.169 23.1042 291.169ZM23.1042 289.842C23.7936 289.842 24.3322 289.505 24.72 288.832C25.1111 288.16 25.3066 287.187 25.3066 285.914C25.3066 285.069 25.2172 284.355 25.0382 283.771C24.8625 283.185 24.609 282.741 24.2775 282.439C23.9494 282.134 23.5583 281.982 23.1042 281.982C22.4181 281.982 21.8796 282.32 21.4885 282.996C21.0974 283.672 20.9002 284.645 20.8968 285.914C20.8968 286.763 20.9847 287.48 21.1603 288.067C21.3393 288.65 21.5929 289.093 21.921 289.394C22.2491 289.692 22.6435 289.842 23.1042 289.842ZM32.1413 291.169C31.3558 291.166 30.6847 290.959 30.1278 290.548C29.571 290.137 29.1451 289.538 28.8501 288.753C28.5552 287.967 28.4077 287.021 28.4077 285.914C28.4077 284.81 28.5552 283.867 28.8501 283.085C29.1484 282.303 29.576 281.706 30.1328 281.295C30.6929 280.884 31.3625 280.679 32.1413 280.679C32.9202 280.679 33.5881 280.886 34.1449 281.3C34.7017 281.711 35.1276 282.308 35.4226 283.09C35.7209 283.869 35.87 284.81 35.87 285.914C35.87 287.024 35.7225 287.972 35.4276 288.758C35.1326 289.54 34.7067 290.138 34.1499 290.553C33.593 290.964 32.9235 291.169 32.1413 291.169ZM32.1413 289.842C32.8307 289.842 33.3693 289.505 33.7571 288.832C34.1482 288.16 34.3438 287.187 34.3438 285.914C34.3438 285.069 34.2543 284.355 34.0753 283.771C33.8996 283.185 33.6461 282.741 33.3146 282.439C32.9865 282.134 32.5954 281.982 32.1413 281.982C31.4553 281.982 30.9167 282.32 30.5256 282.996C30.1345 283.672 29.9373 284.645 29.9339 285.914C29.9339 286.763 30.0218 287.48 30.1974 288.067C30.3764 288.65 30.63 289.093 30.9581 289.394C31.2862 289.692 31.6806 289.842 32.1413 289.842Z" fill="white"/>
    <path opacity="0.5" d="M4.84233 320.818V331H3.30114V322.359H3.24148L0.805398 323.95V322.479L3.34588 320.818H4.84233ZM8.96254 329.608L8.88796 330.15C8.83825 330.548 8.75373 330.962 8.63441 331.393C8.51841 331.827 8.39743 332.23 8.27148 332.601C8.14885 332.972 8.04776 333.267 7.96822 333.486H6.91424C6.95733 333.28 7.01699 333.002 7.09322 332.651C7.16945 332.303 7.24402 331.913 7.31694 331.482C7.38986 331.051 7.44454 330.612 7.481 330.165L7.53072 329.608H8.96254ZM14.2175 331.169C13.432 331.166 12.7608 330.959 12.204 330.548C11.6472 330.137 11.2213 329.538 10.9263 328.753C10.6313 327.967 10.4838 327.021 10.4838 325.914C10.4838 324.81 10.6313 323.867 10.9263 323.085C11.2246 322.303 11.6522 321.706 12.209 321.295C12.7691 320.884 13.4386 320.679 14.2175 320.679C14.9964 320.679 15.6642 320.886 16.2211 321.3C16.7779 321.711 17.2038 322.308 17.4988 323.09C17.7971 323.869 17.9462 324.81 17.9462 325.914C17.9462 327.024 17.7987 327.972 17.5037 328.758C17.2087 329.54 16.7828 330.138 16.226 330.553C15.6692 330.964 14.9997 331.169 14.2175 331.169ZM14.2175 329.842C14.9069 329.842 15.4455 329.505 15.8333 328.832C16.2244 328.16 16.4199 327.187 16.4199 325.914C16.4199 325.069 16.3304 324.355 16.1515 323.771C15.9758 323.185 15.7222 322.741 15.3908 322.439C15.0627 322.134 14.6716 321.982 14.2175 321.982C13.5314 321.982 12.9928 322.32 12.6017 322.996C12.2106 323.672 12.0134 324.645 12.0101 325.914C12.0101 326.763 12.098 327.48 12.2736 328.067C12.4526 328.65 12.7061 329.093 13.0343 329.394C13.3624 329.692 13.7568 329.842 14.2175 329.842ZM23.2546 331.169C22.4691 331.166 21.7979 330.959 21.2411 330.548C20.6843 330.137 20.2584 329.538 19.9634 328.753C19.6684 327.967 19.521 327.021 19.521 325.914C19.521 324.81 19.6684 323.867 19.9634 323.085C20.2617 322.303 20.6893 321.706 21.2461 321.295C21.8062 320.884 22.4757 320.679 23.2546 320.679C24.0335 320.679 24.7013 320.886 25.2582 321.3C25.815 321.711 26.2409 322.308 26.5359 323.09C26.8342 323.869 26.9833 324.81 26.9833 325.914C26.9833 327.024 26.8358 327.972 26.5408 328.758C26.2459 329.54 25.82 330.138 25.2631 330.553C24.7063 330.964 24.0368 331.169 23.2546 331.169ZM23.2546 329.842C23.944 329.842 24.4826 329.505 24.8704 328.832C25.2615 328.16 25.457 327.187 25.457 325.914C25.457 325.069 25.3675 324.355 25.1886 323.771C25.0129 323.185 24.7594 322.741 24.4279 322.439C24.0998 322.134 23.7087 321.982 23.2546 321.982C22.5685 321.982 22.0299 322.32 21.6388 322.996C21.2478 323.672 21.0505 324.645 21.0472 325.914C21.0472 326.763 21.1351 327.48 21.3107 328.067C21.4897 328.65 21.7433 329.093 22.0714 329.394C22.3995 329.692 22.7939 329.842 23.2546 329.842ZM32.2917 331.169C31.5062 331.166 30.835 330.959 30.2782 330.548C29.7214 330.137 29.2955 329.538 29.0005 328.753C28.7056 327.967 28.5581 327.021 28.5581 325.914C28.5581 324.81 28.7056 323.867 29.0005 323.085C29.2988 322.303 29.7264 321.706 30.2832 321.295C30.8433 320.884 31.5128 320.679 32.2917 320.679C33.0706 320.679 33.7385 320.886 34.2953 321.3C34.8521 321.711 35.278 322.308 35.573 323.09C35.8713 323.869 36.0204 324.81 36.0204 325.914C36.0204 327.024 35.8729 327.972 35.5779 328.758C35.283 329.54 34.8571 330.138 34.3002 330.553C33.7434 330.964 33.0739 331.169 32.2917 331.169ZM32.2917 329.842C32.9811 329.842 33.5197 329.505 33.9075 328.832C34.2986 328.16 34.4941 327.187 34.4941 325.914C34.4941 325.069 34.4047 324.355 34.2257 323.771C34.05 323.185 33.7965 322.741 33.465 322.439C33.1369 322.134 32.7458 321.982 32.2917 321.982C31.6056 321.982 31.0671 322.32 30.676 322.996C30.2849 323.672 30.0877 324.645 30.0843 325.914C30.0843 326.763 30.1722 327.48 30.3478 328.067C30.5268 328.65 30.7804 329.093 31.1085 329.394C31.4366 329.692 31.831 329.842 32.2917 329.842Z" fill="white"/>
    <path opacity="0.5" d="M4.3402 371.139C3.71709 371.139 3.15696 371.02 2.6598 370.781C2.16596 370.539 1.77154 370.208 1.47656 369.787C1.18158 369.366 1.02415 368.885 1.00426 368.345H2.49574C2.5322 368.783 2.72609 369.142 3.07741 369.424C3.42874 369.706 3.84967 369.847 4.3402 369.847C4.7313 369.847 5.07765 369.757 5.37926 369.578C5.68419 369.396 5.92282 369.146 6.09517 368.827C6.27083 368.509 6.35866 368.146 6.35866 367.739C6.35866 367.324 6.26918 366.955 6.0902 366.63C5.91122 366.305 5.6643 366.05 5.34943 365.864C5.03788 365.679 4.67992 365.584 4.27557 365.581C3.96733 365.581 3.65743 365.634 3.34588 365.74C3.03433 365.846 2.78243 365.985 2.5902 366.158L1.18324 365.949L1.75497 360.818H7.35298V362.136H3.03267L2.70952 364.984H2.76918C2.96804 364.792 3.23153 364.631 3.55966 364.502C3.8911 364.373 4.24574 364.308 4.62358 364.308C5.24337 364.308 5.79522 364.456 6.27912 364.751C6.76634 365.046 7.14915 365.448 7.42756 365.959C7.70928 366.466 7.84848 367.049 7.84517 367.709C7.84848 368.368 7.69934 368.957 7.39773 369.474C7.09943 369.991 6.68513 370.398 6.15483 370.697C5.62784 370.992 5.02296 371.139 4.3402 371.139ZM13.2058 371.169C12.4203 371.166 11.7491 370.959 11.1923 370.548C10.6355 370.137 10.2096 369.538 9.9146 368.753C9.61961 367.967 9.47212 367.021 9.47212 365.914C9.47212 364.81 9.61961 363.867 9.9146 363.085C10.2129 362.303 10.6404 361.706 11.1973 361.295C11.7574 360.884 12.4269 360.679 13.2058 360.679C13.9847 360.679 14.6525 360.886 15.2093 361.3C15.7662 361.711 16.1921 362.308 16.487 363.09C16.7853 363.869 16.9345 364.81 16.9345 365.914C16.9345 367.024 16.787 367.972 16.492 368.758C16.197 369.54 15.7711 370.138 15.2143 370.553C14.6575 370.964 13.988 371.169 13.2058 371.169ZM13.2058 369.842C13.8952 369.842 14.4338 369.505 14.8216 368.832C15.2127 368.16 15.4082 367.187 15.4082 365.914C15.4082 365.069 15.3187 364.355 15.1397 363.771C14.9641 363.185 14.7105 362.741 14.3791 362.439C14.051 362.134 13.6599 361.982 13.2058 361.982C12.5197 361.982 11.9811 362.32 11.59 362.996C11.1989 363.672 11.0017 364.645 10.9984 365.914C10.9984 366.763 11.0862 367.48 11.2619 368.067C11.4409 368.65 11.6944 369.093 12.0225 369.394C12.3507 369.692 12.7451 369.842 13.2058 369.842ZM22.2429 371.169C21.4574 371.166 20.7862 370.959 20.2294 370.548C19.6726 370.137 19.2467 369.538 18.9517 368.753C18.6567 367.967 18.5092 367.021 18.5092 365.914C18.5092 364.81 18.6567 363.867 18.9517 363.085C19.25 362.303 19.6776 361.706 20.2344 361.295C20.7945 360.884 21.464 360.679 22.2429 360.679C23.0218 360.679 23.6896 360.886 24.2464 361.3C24.8033 361.711 25.2292 362.308 25.5241 363.09C25.8224 363.869 25.9716 364.81 25.9716 365.914C25.9716 367.024 25.8241 367.972 25.5291 368.758C25.2341 369.54 24.8082 370.138 24.2514 370.553C23.6946 370.964 23.0251 371.169 22.2429 371.169ZM22.2429 369.842C22.9323 369.842 23.4709 369.505 23.8587 368.832C24.2498 368.16 24.4453 367.187 24.4453 365.914C24.4453 365.069 24.3558 364.355 24.1768 363.771C24.0012 363.185 23.7476 362.741 23.4162 362.439C23.0881 362.134 22.697 361.982 22.2429 361.982C21.5568 361.982 21.0182 362.32 20.6271 362.996C20.236 363.672 20.0388 364.645 20.0355 365.914C20.0355 366.763 20.1233 367.48 20.299 368.067C20.478 368.65 20.7315 369.093 21.0597 369.394C21.3878 369.692 21.7822 369.842 22.2429 369.842Z" fill="white"/>
    <path opacity="0.5" d="M56.8423 381.818V392H55.3011V383.359H55.2415L52.8054 384.95V383.479L55.3459 381.818H56.8423Z" fill="white"/>
    <path opacity="0.5" d="M236.534 392.139C236.08 392.133 235.633 392.05 235.192 391.891C234.754 391.732 234.357 391.466 233.999 391.095C233.641 390.724 233.354 390.225 233.138 389.599C232.926 388.972 232.82 388.19 232.82 387.252C232.82 386.364 232.908 385.575 233.084 384.886C233.263 384.196 233.52 383.615 233.854 383.141C234.189 382.663 234.594 382.3 235.067 382.052C235.541 381.803 236.073 381.679 236.663 381.679C237.27 381.679 237.808 381.798 238.279 382.037C238.75 382.276 239.131 382.605 239.423 383.026C239.718 383.447 239.905 383.926 239.984 384.463H238.468C238.365 384.039 238.161 383.692 237.857 383.424C237.552 383.156 237.154 383.021 236.663 383.021C235.918 383.021 235.336 383.346 234.918 383.996C234.504 384.645 234.295 385.549 234.292 386.705H234.366C234.542 386.417 234.758 386.172 235.013 385.969C235.271 385.764 235.56 385.607 235.878 385.497C236.199 385.384 236.537 385.328 236.892 385.328C237.482 385.328 238.016 385.472 238.493 385.761C238.973 386.046 239.356 386.44 239.641 386.944C239.926 387.448 240.069 388.024 240.069 388.674C240.069 389.324 239.921 389.912 239.626 390.439C239.335 390.966 238.924 391.384 238.393 391.692C237.863 391.997 237.243 392.146 236.534 392.139ZM236.529 390.847C236.92 390.847 237.27 390.75 237.578 390.558C237.886 390.366 238.13 390.107 238.309 389.783C238.488 389.458 238.577 389.095 238.577 388.694C238.577 388.303 238.49 387.946 238.314 387.625C238.142 387.304 237.903 387.048 237.598 386.859C237.296 386.67 236.952 386.576 236.564 386.576C236.269 386.576 235.996 386.632 235.744 386.745C235.495 386.858 235.276 387.013 235.087 387.212C234.898 387.411 234.749 387.64 234.64 387.898C234.534 388.154 234.481 388.424 234.481 388.709C234.481 389.09 234.569 389.443 234.744 389.768C234.923 390.093 235.167 390.354 235.475 390.553C235.787 390.749 236.138 390.847 236.529 390.847Z" fill="white"/>
    <path opacity="0.5" d="M423.842 381.818V392H422.301V383.359H422.241L419.805 384.95V383.479L422.346 381.818H423.842ZM430.46 381.818V392H428.918V383.359H428.859L426.423 384.95V383.479L428.963 381.818H430.46Z" fill="white"/>
    <path opacity="0.5" d="M636.842 381.818V392H635.301V383.359H635.241L632.805 384.95V383.479L635.346 381.818H636.842ZM643.151 392.139C642.697 392.133 642.25 392.05 641.809 391.891C641.371 391.732 640.974 391.466 640.616 391.095C640.258 390.724 639.971 390.225 639.756 389.599C639.544 388.972 639.438 388.19 639.438 387.252C639.438 386.364 639.525 385.575 639.701 384.886C639.88 384.196 640.137 383.615 640.472 383.141C640.806 382.663 641.211 382.3 641.685 382.052C642.159 381.803 642.691 381.679 643.281 381.679C643.887 381.679 644.426 381.798 644.896 382.037C645.367 382.276 645.748 382.605 646.04 383.026C646.335 383.447 646.522 383.926 646.602 384.463H645.085C644.982 384.039 644.779 383.692 644.474 383.424C644.169 383.156 643.771 383.021 643.281 383.021C642.535 383.021 641.953 383.346 641.536 383.996C641.121 384.645 640.912 385.549 640.909 386.705H640.984C641.159 386.417 641.375 386.172 641.63 385.969C641.888 385.764 642.177 385.607 642.495 385.497C642.817 385.384 643.155 385.328 643.509 385.328C644.099 385.328 644.633 385.472 645.11 385.761C645.591 386.046 645.973 386.44 646.259 386.944C646.544 387.448 646.686 388.024 646.686 388.674C646.686 389.324 646.539 389.912 646.244 390.439C645.952 390.966 645.541 391.384 645.011 391.692C644.48 391.997 643.861 392.146 643.151 392.139ZM643.146 390.847C643.537 390.847 643.887 390.75 644.195 390.558C644.504 390.366 644.747 390.107 644.926 389.783C645.105 389.458 645.195 389.095 645.195 388.694C645.195 388.303 645.107 387.946 644.931 387.625C644.759 387.304 644.52 387.048 644.215 386.859C643.914 386.67 643.569 386.576 643.181 386.576C642.886 386.576 642.613 386.632 642.361 386.745C642.112 386.858 641.893 387.013 641.705 387.212C641.516 387.411 641.366 387.64 641.257 387.898C641.151 388.154 641.098 388.424 641.098 388.709C641.098 389.09 641.186 389.443 641.362 389.768C641.54 390.093 641.784 390.354 642.092 390.553C642.404 390.749 642.755 390.847 643.146 390.847Z" fill="white"/>
    <path opacity="0.5" d="M848.979 392V390.886L852.425 387.317C852.793 386.929 853.096 386.589 853.335 386.298C853.576 386.003 853.757 385.723 853.876 385.457C853.996 385.192 854.055 384.911 854.055 384.612C854.055 384.274 853.976 383.982 853.817 383.737C853.658 383.489 853.441 383.298 853.165 383.165C852.89 383.03 852.58 382.962 852.236 382.962C851.871 382.962 851.553 383.036 851.281 383.185C851.009 383.335 850.801 383.545 850.655 383.817C850.509 384.089 850.436 384.407 850.436 384.771H848.969C848.969 384.152 849.112 383.61 849.397 383.146C849.682 382.682 850.073 382.322 850.57 382.067C851.067 381.808 851.633 381.679 852.266 381.679C852.905 381.679 853.469 381.807 853.956 382.062C854.446 382.314 854.829 382.658 855.104 383.096C855.379 383.53 855.517 384.021 855.517 384.567C855.517 384.945 855.446 385.315 855.303 385.676C855.164 386.037 854.92 386.44 854.572 386.884C854.224 387.325 853.741 387.86 853.121 388.49L851.097 390.608V390.683H855.681V392H848.979ZM861.428 381.818V392H859.887V383.359H859.827L857.391 384.95V383.479L859.932 381.818H861.428Z" fill="white"/>
    <path opacity="0.5" d="M1071.98 392V390.886L1075.42 387.317C1075.79 386.929 1076.1 386.589 1076.33 386.298C1076.58 386.003 1076.76 385.723 1076.88 385.457C1077 385.192 1077.06 384.911 1077.06 384.612C1077.06 384.274 1076.98 383.982 1076.82 383.737C1076.66 383.489 1076.44 383.298 1076.17 383.165C1075.89 383.03 1075.58 382.962 1075.24 382.962C1074.87 382.962 1074.55 383.036 1074.28 383.185C1074.01 383.335 1073.8 383.545 1073.65 383.817C1073.51 384.089 1073.44 384.407 1073.44 384.771H1071.97C1071.97 384.152 1072.11 383.61 1072.4 383.146C1072.68 382.682 1073.07 382.322 1073.57 382.067C1074.07 381.808 1074.63 381.679 1075.27 381.679C1075.91 381.679 1076.47 381.807 1076.96 382.062C1077.45 382.314 1077.83 382.658 1078.1 383.096C1078.38 383.53 1078.52 384.021 1078.52 384.567C1078.52 384.945 1078.45 385.315 1078.3 385.676C1078.16 386.037 1077.92 386.44 1077.57 386.884C1077.22 387.325 1076.74 387.86 1076.12 388.49L1074.1 390.608V390.683H1078.68V392H1071.98ZM1084.12 392.139C1083.67 392.133 1083.22 392.05 1082.78 391.891C1082.34 391.732 1081.94 391.466 1081.58 391.095C1081.23 390.724 1080.94 390.225 1080.72 389.599C1080.51 388.972 1080.41 388.19 1080.41 387.252C1080.41 386.364 1080.49 385.575 1080.67 384.886C1080.85 384.196 1081.11 383.615 1081.44 383.141C1081.78 382.663 1082.18 382.3 1082.65 382.052C1083.13 381.803 1083.66 381.679 1084.25 381.679C1084.86 381.679 1085.39 381.798 1085.87 382.037C1086.34 382.276 1086.72 382.605 1087.01 383.026C1087.3 383.447 1087.49 383.926 1087.57 384.463H1086.05C1085.95 384.039 1085.75 383.692 1085.44 383.424C1085.14 383.156 1084.74 383.021 1084.25 383.021C1083.5 383.021 1082.92 383.346 1082.5 383.996C1082.09 384.645 1081.88 385.549 1081.88 386.705H1081.95C1082.13 386.417 1082.34 386.172 1082.6 385.969C1082.86 385.764 1083.15 385.607 1083.46 385.497C1083.79 385.384 1084.12 385.328 1084.48 385.328C1085.07 385.328 1085.6 385.472 1086.08 385.761C1086.56 386.046 1086.94 386.44 1087.23 386.944C1087.51 387.448 1087.65 388.024 1087.65 388.674C1087.65 389.324 1087.51 389.912 1087.21 390.439C1086.92 390.966 1086.51 391.384 1085.98 391.692C1085.45 391.997 1084.83 392.146 1084.12 392.139ZM1084.12 390.847C1084.51 390.847 1084.86 390.75 1085.16 390.558C1085.47 390.366 1085.72 390.107 1085.89 389.783C1086.07 389.458 1086.16 389.095 1086.16 388.694C1086.16 388.303 1086.08 387.946 1085.9 387.625C1085.73 387.304 1085.49 387.048 1085.18 386.859C1084.88 386.67 1084.54 386.576 1084.15 386.576C1083.85 386.576 1083.58 386.632 1083.33 386.745C1083.08 386.858 1082.86 387.013 1082.67 387.212C1082.48 387.411 1082.34 387.64 1082.23 387.898C1082.12 388.154 1082.07 388.424 1082.07 388.709C1082.07 389.09 1082.15 389.443 1082.33 389.768C1082.51 390.093 1082.75 390.354 1083.06 390.553C1083.37 390.749 1083.72 390.847 1084.12 390.847Z" fill="white"/>
    <path opacity="0.5" d="M86.9794 392V390.886L90.4247 387.317C90.7926 386.929 91.0959 386.589 91.3345 386.298C91.5765 386.003 91.7571 385.723 91.8764 385.457C91.9957 385.192 92.0554 384.911 92.0554 384.612C92.0554 384.274 91.9759 383.982 91.8168 383.737C91.6577 383.489 91.4406 383.298 91.1655 383.165C90.8904 383.03 90.5805 382.962 90.2358 382.962C89.8712 382.962 89.553 383.036 89.2812 383.185C89.0095 383.335 88.8007 383.545 88.6548 383.817C88.509 384.089 88.4361 384.407 88.4361 384.771H86.9695C86.9695 384.152 87.112 383.61 87.397 383.146C87.6821 382.682 88.0732 382.322 88.5703 382.067C89.0675 381.808 89.6326 381.679 90.2656 381.679C90.9053 381.679 91.4688 381.807 91.956 382.062C92.4465 382.314 92.8293 382.658 93.1044 383.096C93.3795 383.53 93.517 384.021 93.517 384.567C93.517 384.945 93.4458 385.315 93.3033 385.676C93.1641 386.037 92.9205 386.44 92.5724 386.884C92.2244 387.325 91.7405 387.86 91.1207 388.49L89.0973 390.608V390.683H93.6811V392H86.9794Z" fill="white"/>
    <path opacity="0.5" d="M269.322 392L273.767 383.21V383.136H268.626V381.818H275.358V383.18L270.928 392H269.322Z" fill="white"/>
    <path opacity="0.5" d="M464.842 381.818V392H463.301V383.359H463.241L460.805 384.95V383.479L463.346 381.818H464.842ZM467.597 392V390.886L471.042 387.317C471.41 386.929 471.713 386.589 471.952 386.298C472.194 386.003 472.374 385.723 472.494 385.457C472.613 385.192 472.673 384.911 472.673 384.612C472.673 384.274 472.593 383.982 472.434 383.737C472.275 383.489 472.058 383.298 471.783 383.165C471.508 383.03 471.198 382.962 470.853 382.962C470.488 382.962 470.17 383.036 469.898 383.185C469.627 383.335 469.418 383.545 469.272 383.817C469.126 384.089 469.053 384.407 469.053 384.771H467.587C467.587 384.152 467.729 383.61 468.014 383.146C468.299 382.682 468.69 382.322 469.188 382.067C469.685 381.808 470.25 381.679 470.883 381.679C471.522 381.679 472.086 381.807 472.573 382.062C473.064 382.314 473.446 382.658 473.722 383.096C473.997 383.53 474.134 384.021 474.134 384.567C474.134 384.945 474.063 385.315 473.92 385.676C473.781 386.037 473.538 386.44 473.19 386.884C472.842 387.325 472.358 387.86 471.738 388.49L469.714 390.608V390.683H474.298V392H467.597Z" fill="white"/>
    <path opacity="0.5" d="M679.842 381.818V392H678.301V383.359H678.241L675.805 384.95V383.479L678.346 381.818H679.842ZM682.94 392L687.384 383.21V383.136H682.244V381.818H688.975V383.18L684.545 392H682.94Z" fill="white"/>
    <path opacity="0.5" d="M891.979 392V390.886L895.425 387.317C895.793 386.929 896.096 386.589 896.335 386.298C896.576 386.003 896.757 385.723 896.876 385.457C896.996 385.192 897.055 384.911 897.055 384.612C897.055 384.274 896.976 383.982 896.817 383.737C896.658 383.489 896.441 383.298 896.165 383.165C895.89 383.03 895.58 382.962 895.236 382.962C894.871 382.962 894.553 383.036 894.281 383.185C894.009 383.335 893.801 383.545 893.655 383.817C893.509 384.089 893.436 384.407 893.436 384.771H891.969C891.969 384.152 892.112 383.61 892.397 383.146C892.682 382.682 893.073 382.322 893.57 382.067C894.067 381.808 894.633 381.679 895.266 381.679C895.905 381.679 896.469 381.807 896.956 382.062C897.446 382.314 897.829 382.658 898.104 383.096C898.379 383.53 898.517 384.021 898.517 384.567C898.517 384.945 898.446 385.315 898.303 385.676C898.164 386.037 897.92 386.44 897.572 386.884C897.224 387.325 896.741 387.86 896.121 388.49L894.097 390.608V390.683H898.681V392H891.979ZM900.565 392V390.886L904.011 387.317C904.379 386.929 904.682 386.589 904.92 386.298C905.162 386.003 905.343 385.723 905.462 385.457C905.582 385.192 905.641 384.911 905.641 384.612C905.641 384.274 905.562 383.982 905.403 383.737C905.244 383.489 905.027 383.298 904.751 383.165C904.476 383.03 904.166 382.962 903.822 382.962C903.457 382.962 903.139 383.036 902.867 383.185C902.595 383.335 902.387 383.545 902.241 383.817C902.095 384.089 902.022 384.407 902.022 384.771H900.555C900.555 384.152 900.698 383.61 900.983 383.146C901.268 382.682 901.659 382.322 902.156 382.067C902.653 381.808 903.219 381.679 903.852 381.679C904.491 381.679 905.055 381.807 905.542 382.062C906.032 382.314 906.415 382.658 906.69 383.096C906.965 383.53 907.103 384.021 907.103 384.567C907.103 384.945 907.032 385.315 906.889 385.676C906.75 386.037 906.506 386.44 906.158 386.884C905.81 387.325 905.326 387.86 904.707 388.49L902.683 390.608V390.683H907.267V392H900.565Z" fill="white"/>
    <path opacity="0.5" d="M1116.98 392V390.886L1120.42 387.317C1120.79 386.929 1121.1 386.589 1121.33 386.298C1121.58 386.003 1121.76 385.723 1121.88 385.457C1122 385.192 1122.06 384.911 1122.06 384.612C1122.06 384.274 1121.98 383.982 1121.82 383.737C1121.66 383.489 1121.44 383.298 1121.17 383.165C1120.89 383.03 1120.58 382.962 1120.24 382.962C1119.87 382.962 1119.55 383.036 1119.28 383.185C1119.01 383.335 1118.8 383.545 1118.65 383.817C1118.51 384.089 1118.44 384.407 1118.44 384.771H1116.97C1116.97 384.152 1117.11 383.61 1117.4 383.146C1117.68 382.682 1118.07 382.322 1118.57 382.067C1119.07 381.808 1119.63 381.679 1120.27 381.679C1120.91 381.679 1121.47 381.807 1121.96 382.062C1122.45 382.314 1122.83 382.658 1123.1 383.096C1123.38 383.53 1123.52 384.021 1123.52 384.567C1123.52 384.945 1123.45 385.315 1123.3 385.676C1123.16 386.037 1122.92 386.44 1122.57 386.884C1122.22 387.325 1121.74 387.86 1121.12 388.49L1119.1 390.608V390.683H1123.68V392H1116.98ZM1125.91 392L1130.35 383.21V383.136H1125.21V381.818H1131.94V383.18L1127.51 392H1125.91Z" fill="white"/>
    <path opacity="0.5" d="M126.524 392.139C125.841 392.139 125.232 392.022 124.695 391.786C124.161 391.551 123.738 391.224 123.427 390.807C123.119 390.386 122.953 389.899 122.93 389.345H124.491C124.511 389.647 124.612 389.909 124.794 390.131C124.98 390.349 125.222 390.518 125.52 390.638C125.818 390.757 126.15 390.817 126.514 390.817C126.915 390.817 127.27 390.747 127.578 390.608C127.89 390.469 128.133 390.275 128.309 390.026C128.485 389.774 128.572 389.484 128.572 389.156C128.572 388.815 128.485 388.515 128.309 388.256C128.137 387.995 127.883 387.789 127.548 387.64C127.217 387.491 126.816 387.416 126.345 387.416H125.485V386.163H126.345C126.723 386.163 127.054 386.095 127.339 385.96C127.628 385.824 127.853 385.635 128.016 385.393C128.178 385.147 128.259 384.861 128.259 384.533C128.259 384.218 128.188 383.944 128.045 383.712C127.906 383.477 127.707 383.293 127.449 383.161C127.194 383.028 126.892 382.962 126.544 382.962C126.213 382.962 125.903 383.023 125.614 383.146C125.329 383.265 125.097 383.437 124.918 383.663C124.739 383.885 124.643 384.152 124.63 384.463H123.143C123.16 383.913 123.322 383.429 123.631 383.011C123.942 382.594 124.353 382.267 124.864 382.032C125.374 381.797 125.941 381.679 126.564 381.679C127.217 381.679 127.78 381.807 128.254 382.062C128.732 382.314 129.099 382.65 129.358 383.071C129.62 383.492 129.749 383.953 129.746 384.453C129.749 385.023 129.59 385.507 129.268 385.905C128.95 386.303 128.526 386.569 127.996 386.705V386.785C128.672 386.888 129.196 387.156 129.567 387.59C129.941 388.024 130.127 388.563 130.124 389.206C130.127 389.766 129.971 390.268 129.656 390.712C129.345 391.156 128.919 391.506 128.379 391.761C127.838 392.013 127.22 392.139 126.524 392.139Z" fill="white"/>
    <path opacity="0.5" d="M308.42 392.139C307.707 392.139 307.077 392.017 306.531 391.771C305.987 391.526 305.561 391.188 305.253 390.757C304.945 390.326 304.792 389.836 304.795 389.286C304.792 388.855 304.88 388.459 305.059 388.097C305.241 387.733 305.488 387.429 305.8 387.188C306.111 386.942 306.459 386.786 306.844 386.72V386.661C306.337 386.538 305.931 386.266 305.626 385.845C305.321 385.424 305.17 384.94 305.173 384.393C305.17 383.873 305.308 383.409 305.586 383.001C305.868 382.59 306.254 382.267 306.744 382.032C307.235 381.797 307.793 381.679 308.42 381.679C309.04 381.679 309.593 381.798 310.08 382.037C310.571 382.272 310.957 382.595 311.239 383.006C311.52 383.414 311.663 383.876 311.666 384.393C311.663 384.94 311.507 385.424 311.199 385.845C310.891 386.266 310.49 386.538 309.996 386.661V386.72C310.377 386.786 310.72 386.942 311.025 387.188C311.333 387.429 311.578 387.733 311.761 388.097C311.946 388.459 312.041 388.855 312.044 389.286C312.041 389.836 311.885 390.326 311.577 390.757C311.268 391.188 310.841 391.526 310.294 391.771C309.75 392.017 309.126 392.139 308.42 392.139ZM308.42 390.881C308.841 390.881 309.205 390.812 309.513 390.673C309.822 390.53 310.06 390.333 310.229 390.081C310.398 389.826 310.485 389.527 310.488 389.186C310.485 388.831 310.392 388.518 310.21 388.246C310.031 387.975 309.787 387.761 309.479 387.605C309.17 387.449 308.817 387.371 308.42 387.371C308.019 387.371 307.662 387.449 307.351 387.605C307.039 387.761 306.794 387.975 306.615 388.246C306.436 388.518 306.348 388.831 306.352 389.186C306.348 389.527 306.429 389.826 306.595 390.081C306.764 390.333 307.004 390.53 307.316 390.673C307.628 390.812 307.996 390.881 308.42 390.881ZM308.42 386.143C308.758 386.143 309.058 386.076 309.32 385.94C309.581 385.804 309.787 385.615 309.936 385.373C310.089 385.131 310.166 384.848 310.17 384.523C310.166 384.205 310.09 383.926 309.941 383.688C309.795 383.449 309.591 383.265 309.33 383.136C309.068 383.003 308.764 382.937 308.42 382.937C308.068 382.937 307.76 383.003 307.495 383.136C307.233 383.265 307.029 383.449 306.884 383.688C306.738 383.926 306.666 384.205 306.67 384.523C306.666 384.848 306.739 385.131 306.888 385.373C307.038 385.615 307.243 385.804 307.505 385.94C307.77 386.076 308.075 386.143 308.42 386.143Z" fill="white"/>
    <path opacity="0.5" d="M507.842 381.818V392H506.301V383.359H506.241L503.805 384.95V383.479L506.346 381.818H507.842ZM514.141 392.139C513.459 392.139 512.849 392.022 512.312 391.786C511.778 391.551 511.356 391.224 511.044 390.807C510.736 390.386 510.57 389.899 510.547 389.345H512.108C512.128 389.647 512.229 389.909 512.411 390.131C512.597 390.349 512.839 390.518 513.137 390.638C513.435 390.757 513.767 390.817 514.131 390.817C514.532 390.817 514.887 390.747 515.195 390.608C515.507 390.469 515.75 390.275 515.926 390.026C516.102 389.774 516.19 389.484 516.19 389.156C516.19 388.815 516.102 388.515 515.926 388.256C515.754 387.995 515.5 387.789 515.165 387.64C514.834 387.491 514.433 387.416 513.962 387.416H513.102V386.163H513.962C514.34 386.163 514.672 386.095 514.957 385.96C515.245 385.824 515.47 385.635 515.633 385.393C515.795 385.147 515.876 384.861 515.876 384.533C515.876 384.218 515.805 383.944 515.663 383.712C515.523 383.477 515.325 383.293 515.066 383.161C514.811 383.028 514.509 382.962 514.161 382.962C513.83 382.962 513.52 383.023 513.232 383.146C512.946 383.265 512.714 383.437 512.536 383.663C512.357 383.885 512.26 384.152 512.247 384.463H510.761C510.777 383.913 510.94 383.429 511.248 383.011C511.559 382.594 511.97 382.267 512.481 382.032C512.991 381.797 513.558 381.679 514.181 381.679C514.834 381.679 515.397 381.807 515.871 382.062C516.349 382.314 516.717 382.65 516.975 383.071C517.237 383.492 517.366 383.953 517.363 384.453C517.366 385.023 517.207 385.507 516.886 385.905C516.567 386.303 516.143 386.569 515.613 386.705V386.785C516.289 386.888 516.813 387.156 517.184 387.59C517.558 388.024 517.744 388.563 517.741 389.206C517.744 389.766 517.588 390.268 517.273 390.712C516.962 391.156 516.536 391.506 515.996 391.761C515.455 392.013 514.837 392.139 514.141 392.139Z" fill="white"/>
    <path opacity="0.5" d="M721.842 381.818V392H720.301V383.359H720.241L717.805 384.95V383.479L720.346 381.818H721.842ZM728.037 392.139C727.324 392.139 726.695 392.017 726.148 391.771C725.604 391.526 725.178 391.188 724.87 390.757C724.562 390.326 724.409 389.836 724.413 389.286C724.409 388.855 724.497 388.459 724.676 388.097C724.858 387.733 725.105 387.429 725.417 387.188C725.728 386.942 726.076 386.786 726.461 386.72V386.661C725.954 386.538 725.548 386.266 725.243 385.845C724.938 385.424 724.787 384.94 724.79 384.393C724.787 383.873 724.925 383.409 725.203 383.001C725.485 382.59 725.871 382.267 726.362 382.032C726.852 381.797 727.411 381.679 728.037 381.679C728.657 381.679 729.21 381.798 729.697 382.037C730.188 382.272 730.574 382.595 730.856 383.006C731.138 383.414 731.28 383.876 731.283 384.393C731.28 384.94 731.124 385.424 730.816 385.845C730.508 386.266 730.107 386.538 729.613 386.661V386.72C729.994 386.786 730.337 386.942 730.642 387.188C730.95 387.429 731.196 387.733 731.378 388.097C731.563 388.459 731.658 388.855 731.661 389.286C731.658 389.836 731.502 390.326 731.194 390.757C730.886 391.188 730.458 391.526 729.911 391.771C729.368 392.017 728.743 392.139 728.037 392.139ZM728.037 390.881C728.458 390.881 728.822 390.812 729.131 390.673C729.439 390.53 729.678 390.333 729.847 390.081C730.016 389.826 730.102 389.527 730.105 389.186C730.102 388.831 730.009 388.518 729.827 388.246C729.648 387.975 729.404 387.761 729.096 387.605C728.788 387.449 728.435 387.371 728.037 387.371C727.636 387.371 727.28 387.449 726.968 387.605C726.656 387.761 726.411 387.975 726.232 388.246C726.053 388.518 725.965 388.831 725.969 389.186C725.965 389.527 726.047 389.826 726.212 390.081C726.381 390.333 726.622 390.53 726.933 390.673C727.245 390.812 727.613 390.881 728.037 390.881ZM728.037 386.143C728.375 386.143 728.675 386.076 728.937 385.94C729.199 385.804 729.404 385.615 729.553 385.373C729.706 385.131 729.784 384.848 729.787 384.523C729.784 384.205 729.707 383.926 729.558 383.688C729.412 383.449 729.209 383.265 728.947 383.136C728.685 383.003 728.382 382.937 728.037 382.937C727.686 382.937 727.377 383.003 727.112 383.136C726.85 383.265 726.647 383.449 726.501 383.688C726.355 383.926 726.284 384.205 726.287 384.523C726.284 384.848 726.357 385.131 726.506 385.373C726.655 385.615 726.86 385.804 727.122 385.94C727.387 386.076 727.692 386.143 728.037 386.143Z" fill="white"/>
    <path opacity="0.5" d="M936.979 392V390.886L940.425 387.317C940.793 386.929 941.096 386.589 941.335 386.298C941.576 386.003 941.757 385.723 941.876 385.457C941.996 385.192 942.055 384.911 942.055 384.612C942.055 384.274 941.976 383.982 941.817 383.737C941.658 383.489 941.441 383.298 941.165 383.165C940.89 383.03 940.58 382.962 940.236 382.962C939.871 382.962 939.553 383.036 939.281 383.185C939.009 383.335 938.801 383.545 938.655 383.817C938.509 384.089 938.436 384.407 938.436 384.771H936.969C936.969 384.152 937.112 383.61 937.397 383.146C937.682 382.682 938.073 382.322 938.57 382.067C939.067 381.808 939.633 381.679 940.266 381.679C940.905 381.679 941.469 381.807 941.956 382.062C942.446 382.314 942.829 382.658 943.104 383.096C943.379 383.53 943.517 384.021 943.517 384.567C943.517 384.945 943.446 385.315 943.303 385.676C943.164 386.037 942.92 386.44 942.572 386.884C942.224 387.325 941.741 387.86 941.121 388.49L939.097 390.608V390.683H943.681V392H936.979ZM949.11 392.139C948.427 392.139 947.817 392.022 947.281 391.786C946.747 391.551 946.324 391.224 946.013 390.807C945.705 390.386 945.539 389.899 945.516 389.345H947.077C947.097 389.647 947.198 389.909 947.38 390.131C947.566 390.349 947.808 390.518 948.106 390.638C948.404 390.757 948.736 390.817 949.1 390.817C949.501 390.817 949.856 390.747 950.164 390.608C950.476 390.469 950.719 390.275 950.895 390.026C951.071 389.774 951.158 389.484 951.158 389.156C951.158 388.815 951.071 388.515 950.895 388.256C950.723 387.995 950.469 387.789 950.134 387.64C949.803 387.491 949.402 387.416 948.931 387.416H948.071V386.163H948.931C949.309 386.163 949.64 386.095 949.925 385.96C950.214 385.824 950.439 385.635 950.602 385.393C950.764 385.147 950.845 384.861 950.845 384.533C950.845 384.218 950.774 383.944 950.631 383.712C950.492 383.477 950.293 383.293 950.035 383.161C949.78 383.028 949.478 382.962 949.13 382.962C948.799 382.962 948.489 383.023 948.2 383.146C947.915 383.265 947.683 383.437 947.504 383.663C947.325 383.885 947.229 384.152 947.216 384.463H945.729C945.746 383.913 945.908 383.429 946.217 383.011C946.528 382.594 946.939 382.267 947.45 382.032C947.96 381.797 948.527 381.679 949.15 381.679C949.803 381.679 950.366 381.807 950.84 382.062C951.317 382.314 951.685 382.65 951.944 383.071C952.206 383.492 952.335 383.953 952.332 384.453C952.335 385.023 952.176 385.507 951.854 385.905C951.536 386.303 951.112 386.569 950.582 386.705V386.785C951.258 386.888 951.781 387.156 952.153 387.59C952.527 388.024 952.713 388.563 952.71 389.206C952.713 389.766 952.557 390.268 952.242 390.712C951.931 391.156 951.505 391.506 950.964 391.761C950.424 392.013 949.806 392.139 949.11 392.139Z" fill="white"/>
    <path opacity="0.5" d="M1160.98 392V390.886L1164.42 387.317C1164.79 386.929 1165.1 386.589 1165.33 386.298C1165.58 386.003 1165.76 385.723 1165.88 385.457C1166 385.192 1166.06 384.911 1166.06 384.612C1166.06 384.274 1165.98 383.982 1165.82 383.737C1165.66 383.489 1165.44 383.298 1165.17 383.165C1164.89 383.03 1164.58 382.962 1164.24 382.962C1163.87 382.962 1163.55 383.036 1163.28 383.185C1163.01 383.335 1162.8 383.545 1162.65 383.817C1162.51 384.089 1162.44 384.407 1162.44 384.771H1160.97C1160.97 384.152 1161.11 383.61 1161.4 383.146C1161.68 382.682 1162.07 382.322 1162.57 382.067C1163.07 381.808 1163.63 381.679 1164.27 381.679C1164.91 381.679 1165.47 381.807 1165.96 382.062C1166.45 382.314 1166.83 382.658 1167.1 383.096C1167.38 383.53 1167.52 384.021 1167.52 384.567C1167.52 384.945 1167.45 385.315 1167.3 385.676C1167.16 386.037 1166.92 386.44 1166.57 386.884C1166.22 387.325 1165.74 387.86 1165.12 388.49L1163.1 390.608V390.683H1167.68V392H1160.98ZM1173.01 392.139C1172.29 392.139 1171.66 392.017 1171.12 391.771C1170.57 391.526 1170.15 391.188 1169.84 390.757C1169.53 390.326 1169.38 389.836 1169.38 389.286C1169.38 388.855 1169.47 388.459 1169.64 388.097C1169.83 387.733 1170.07 387.429 1170.39 387.188C1170.7 386.942 1171.05 386.786 1171.43 386.72V386.661C1170.92 386.538 1170.52 386.266 1170.21 385.845C1169.91 385.424 1169.76 384.94 1169.76 384.393C1169.76 383.873 1169.89 383.409 1170.17 383.001C1170.45 382.59 1170.84 382.267 1171.33 382.032C1171.82 381.797 1172.38 381.679 1173.01 381.679C1173.63 381.679 1174.18 381.798 1174.67 382.037C1175.16 382.272 1175.54 382.595 1175.82 383.006C1176.11 383.414 1176.25 383.876 1176.25 384.393C1176.25 384.94 1176.09 385.424 1175.78 385.845C1175.48 386.266 1175.08 386.538 1174.58 386.661V386.72C1174.96 386.786 1175.31 386.942 1175.61 387.188C1175.92 387.429 1176.16 387.733 1176.35 388.097C1176.53 388.459 1176.63 388.855 1176.63 389.286C1176.63 389.836 1176.47 390.326 1176.16 390.757C1175.85 391.188 1175.43 391.526 1174.88 391.771C1174.34 392.017 1173.71 392.139 1173.01 392.139ZM1173.01 390.881C1173.43 390.881 1173.79 390.812 1174.1 390.673C1174.41 390.53 1174.65 390.333 1174.82 390.081C1174.98 389.826 1175.07 389.527 1175.07 389.186C1175.07 388.831 1174.98 388.518 1174.8 388.246C1174.62 387.975 1174.37 387.761 1174.06 387.605C1173.76 387.449 1173.4 387.371 1173.01 387.371C1172.6 387.371 1172.25 387.449 1171.94 387.605C1171.63 387.761 1171.38 387.975 1171.2 388.246C1171.02 388.518 1170.93 388.831 1170.94 389.186C1170.93 389.527 1171.02 389.826 1171.18 390.081C1171.35 390.333 1171.59 390.53 1171.9 390.673C1172.21 390.812 1172.58 390.881 1173.01 390.881ZM1173.01 386.143C1173.34 386.143 1173.64 386.076 1173.91 385.94C1174.17 385.804 1174.37 385.615 1174.52 385.373C1174.67 385.131 1174.75 384.848 1174.76 384.523C1174.75 384.205 1174.68 383.926 1174.53 383.688C1174.38 383.449 1174.18 383.265 1173.92 383.136C1173.65 383.003 1173.35 382.937 1173.01 382.937C1172.65 382.937 1172.35 383.003 1172.08 383.136C1171.82 383.265 1171.62 383.449 1171.47 383.688C1171.32 383.926 1171.25 384.205 1171.26 384.523C1171.25 384.848 1171.33 385.131 1171.47 385.373C1171.62 385.615 1171.83 385.804 1172.09 385.94C1172.36 386.076 1172.66 386.143 1173.01 386.143Z" fill="white"/>
    <path opacity="0.5" d="M159.766 390.011V388.768L164.165 381.818H165.145V383.648H164.523L161.376 388.629V388.709H167.407V390.011H159.766ZM164.593 392V389.634L164.603 389.067V381.818H166.06V392H164.593Z" fill="white"/>
    <path opacity="0.5" d="M344.365 381.679C344.819 381.682 345.267 381.765 345.707 381.928C346.148 382.09 346.546 382.355 346.901 382.723C347.259 383.091 347.544 383.588 347.756 384.214C347.971 384.838 348.08 385.613 348.084 386.541C348.084 387.433 347.994 388.227 347.815 388.923C347.636 389.615 347.379 390.2 347.045 390.678C346.713 391.155 346.311 391.518 345.837 391.766C345.363 392.015 344.829 392.139 344.236 392.139C343.629 392.139 343.091 392.02 342.62 391.781C342.149 391.543 341.767 391.213 341.472 390.792C341.177 390.368 340.993 389.88 340.92 389.33H342.436C342.536 389.768 342.738 390.122 343.043 390.394C343.351 390.663 343.749 390.797 344.236 390.797C344.982 390.797 345.563 390.472 345.981 389.822C346.398 389.17 346.609 388.258 346.612 387.088H346.533C346.36 387.373 346.145 387.618 345.886 387.824C345.631 388.029 345.344 388.188 345.026 388.301C344.708 388.414 344.368 388.47 344.007 388.47C343.42 388.47 342.887 388.326 342.406 388.038C341.926 387.749 341.543 387.353 341.258 386.849C340.973 386.346 340.83 385.771 340.83 385.124C340.83 384.481 340.976 383.898 341.268 383.374C341.563 382.851 341.974 382.436 342.501 382.131C343.031 381.823 343.652 381.672 344.365 381.679ZM344.37 382.972C343.982 382.972 343.633 383.068 343.321 383.26C343.013 383.449 342.769 383.706 342.59 384.031C342.411 384.352 342.322 384.71 342.322 385.104C342.322 385.499 342.408 385.857 342.58 386.178C342.756 386.496 342.995 386.75 343.296 386.939C343.601 387.125 343.949 387.217 344.34 387.217C344.632 387.217 344.904 387.161 345.156 387.048C345.407 386.936 345.628 386.78 345.817 386.581C346.006 386.379 346.153 386.15 346.259 385.895C346.365 385.64 346.418 385.371 346.418 385.089C346.418 384.715 346.329 384.367 346.15 384.045C345.974 383.724 345.732 383.465 345.424 383.27C345.116 383.071 344.764 382.972 344.37 382.972Z" fill="white"/>
    <path opacity="0.5" d="M550.842 381.818V392H549.301V383.359H549.241L546.805 384.95V383.479L549.346 381.818H550.842ZM553.383 390.011V388.768L557.783 381.818H558.762V383.648H558.141L554.994 388.629V388.709H561.024V390.011H553.383ZM558.21 392V389.634L558.22 389.067V381.818H559.677V392H558.21Z" fill="white"/>
    <path opacity="0.5" d="M764.842 381.818V392H763.301V383.359H763.241L760.805 384.95V383.479L763.346 381.818H764.842ZM770.982 381.679C771.436 381.682 771.884 381.765 772.325 381.928C772.765 382.09 773.163 382.355 773.518 382.723C773.876 383.091 774.161 383.588 774.373 384.214C774.588 384.838 774.698 385.613 774.701 386.541C774.701 387.433 774.612 388.227 774.433 388.923C774.254 389.615 773.997 390.2 773.662 390.678C773.33 391.155 772.928 391.518 772.454 391.766C771.98 392.015 771.446 392.139 770.853 392.139C770.246 392.139 769.708 392.02 769.237 391.781C768.767 391.543 768.384 391.213 768.089 390.792C767.794 390.368 767.61 389.88 767.537 389.33H769.053C769.153 389.768 769.355 390.122 769.66 390.394C769.968 390.663 770.366 390.797 770.853 390.797C771.599 390.797 772.18 390.472 772.598 389.822C773.016 389.17 773.226 388.258 773.229 387.088H773.15C772.978 387.373 772.762 387.618 772.504 387.824C772.248 388.029 771.962 388.188 771.643 388.301C771.325 388.414 770.986 388.47 770.624 388.47C770.038 388.47 769.504 388.326 769.023 388.038C768.543 387.749 768.16 387.353 767.875 386.849C767.59 386.346 767.447 385.771 767.447 385.124C767.447 384.481 767.593 383.898 767.885 383.374C768.18 382.851 768.591 382.436 769.118 382.131C769.648 381.823 770.27 381.672 770.982 381.679ZM770.987 382.972C770.599 382.972 770.25 383.068 769.938 383.26C769.63 383.449 769.386 383.706 769.207 384.031C769.028 384.352 768.939 384.71 768.939 385.104C768.939 385.499 769.025 385.857 769.197 386.178C769.373 386.496 769.612 386.75 769.913 386.939C770.218 387.125 770.566 387.217 770.957 387.217C771.249 387.217 771.521 387.161 771.773 387.048C772.025 386.936 772.245 386.78 772.434 386.581C772.623 386.379 772.77 386.15 772.876 385.895C772.982 385.64 773.036 385.371 773.036 385.089C773.036 384.715 772.946 384.367 772.767 384.045C772.591 383.724 772.349 383.465 772.041 383.27C771.733 383.071 771.382 382.972 770.987 382.972Z" fill="white"/>
    <path opacity="0.5" d="M981.979 392V390.886L985.425 387.317C985.793 386.929 986.096 386.589 986.335 386.298C986.576 386.003 986.757 385.723 986.876 385.457C986.996 385.192 987.055 384.911 987.055 384.612C987.055 384.274 986.976 383.982 986.817 383.737C986.658 383.489 986.441 383.298 986.165 383.165C985.89 383.03 985.58 382.962 985.236 382.962C984.871 382.962 984.553 383.036 984.281 383.185C984.009 383.335 983.801 383.545 983.655 383.817C983.509 384.089 983.436 384.407 983.436 384.771H981.969C981.969 384.152 982.112 383.61 982.397 383.146C982.682 382.682 983.073 382.322 983.57 382.067C984.067 381.808 984.633 381.679 985.266 381.679C985.905 381.679 986.469 381.807 986.956 382.062C987.446 382.314 987.829 382.658 988.104 383.096C988.379 383.53 988.517 384.021 988.517 384.567C988.517 384.945 988.446 385.315 988.303 385.676C988.164 386.037 987.92 386.44 987.572 386.884C987.224 387.325 986.741 387.86 986.121 388.49L984.097 390.608V390.683H988.681V392H981.979ZM990.133 390.011V388.768L994.533 381.818H995.512V383.648H994.891L991.744 388.629V388.709H997.774V390.011H990.133ZM994.96 392V389.634L994.97 389.067V381.818H996.427V392H994.96Z" fill="white"/>
    <path opacity="0.5" d="M1205.98 392V390.886L1209.42 387.317C1209.79 386.929 1210.1 386.589 1210.33 386.298C1210.58 386.003 1210.76 385.723 1210.88 385.457C1211 385.192 1211.06 384.911 1211.06 384.612C1211.06 384.274 1210.98 383.982 1210.82 383.737C1210.66 383.489 1210.44 383.298 1210.17 383.165C1209.89 383.03 1209.58 382.962 1209.24 382.962C1208.87 382.962 1208.55 383.036 1208.28 383.185C1208.01 383.335 1207.8 383.545 1207.65 383.817C1207.51 384.089 1207.44 384.407 1207.44 384.771H1205.97C1205.97 384.152 1206.11 383.61 1206.4 383.146C1206.68 382.682 1207.07 382.322 1207.57 382.067C1208.07 381.808 1208.63 381.679 1209.27 381.679C1209.91 381.679 1210.47 381.807 1210.96 382.062C1211.45 382.314 1211.83 382.658 1212.1 383.096C1212.38 383.53 1212.52 384.021 1212.52 384.567C1212.52 384.945 1212.45 385.315 1212.3 385.676C1212.16 386.037 1211.92 386.44 1211.57 386.884C1211.22 387.325 1210.74 387.86 1210.12 388.49L1208.1 390.608V390.683H1212.68V392H1205.98ZM1217.95 381.679C1218.41 381.682 1218.85 381.765 1219.29 381.928C1219.73 382.09 1220.13 382.355 1220.49 382.723C1220.84 383.091 1221.13 383.588 1221.34 384.214C1221.56 384.838 1221.67 385.613 1221.67 386.541C1221.67 387.433 1221.58 388.227 1221.4 388.923C1221.22 389.615 1220.97 390.2 1220.63 390.678C1220.3 391.155 1219.9 391.518 1219.42 391.766C1218.95 392.015 1218.42 392.139 1217.82 392.139C1217.22 392.139 1216.68 392.02 1216.21 391.781C1215.74 391.543 1215.35 391.213 1215.06 390.792C1214.76 390.368 1214.58 389.88 1214.51 389.33H1216.02C1216.12 389.768 1216.32 390.122 1216.63 390.394C1216.94 390.663 1217.33 390.797 1217.82 390.797C1218.57 390.797 1219.15 390.472 1219.57 389.822C1219.98 389.17 1220.19 388.258 1220.2 387.088H1220.12C1219.95 387.373 1219.73 387.618 1219.47 387.824C1219.22 388.029 1218.93 388.188 1218.61 388.301C1218.29 388.414 1217.95 388.47 1217.59 388.47C1217.01 388.47 1216.47 388.326 1215.99 388.038C1215.51 387.749 1215.13 387.353 1214.84 386.849C1214.56 386.346 1214.42 385.771 1214.42 385.124C1214.42 384.481 1214.56 383.898 1214.85 383.374C1215.15 382.851 1215.56 382.436 1216.09 382.131C1216.62 381.823 1217.24 381.672 1217.95 381.679ZM1217.96 382.972C1217.57 382.972 1217.22 383.068 1216.91 383.26C1216.6 383.449 1216.36 383.706 1216.18 384.031C1216 384.352 1215.91 384.71 1215.91 385.104C1215.91 385.499 1215.99 385.857 1216.17 386.178C1216.34 386.496 1216.58 386.75 1216.88 386.939C1217.19 387.125 1217.54 387.217 1217.93 387.217C1218.22 387.217 1218.49 387.161 1218.74 387.048C1218.99 386.936 1219.21 386.78 1219.4 386.581C1219.59 386.379 1219.74 386.15 1219.85 385.895C1219.95 385.64 1220 385.371 1220 385.089C1220 384.715 1219.91 384.367 1219.74 384.045C1219.56 383.724 1219.32 383.465 1219.01 383.27C1218.7 383.071 1218.35 382.972 1217.96 382.972Z" fill="white"/>
    <path opacity="0.5" d="M200.34 392.139C199.717 392.139 199.157 392.02 198.66 391.781C198.166 391.539 197.772 391.208 197.477 390.787C197.182 390.366 197.024 389.885 197.004 389.345H198.496C198.532 389.783 198.726 390.142 199.077 390.424C199.429 390.706 199.85 390.847 200.34 390.847C200.731 390.847 201.078 390.757 201.379 390.578C201.684 390.396 201.923 390.146 202.095 389.827C202.271 389.509 202.359 389.146 202.359 388.739C202.359 388.324 202.269 387.955 202.09 387.63C201.911 387.305 201.664 387.05 201.349 386.864C201.038 386.679 200.68 386.584 200.276 386.581C199.967 386.581 199.657 386.634 199.346 386.74C199.034 386.846 198.782 386.985 198.59 387.158L197.183 386.949L197.755 381.818H203.353V383.136H199.033L198.71 385.984H198.769C198.968 385.792 199.232 385.631 199.56 385.502C199.891 385.373 200.246 385.308 200.624 385.308C201.243 385.308 201.795 385.456 202.279 385.751C202.766 386.046 203.149 386.448 203.428 386.959C203.709 387.466 203.848 388.049 203.845 388.709C203.848 389.368 203.699 389.957 203.398 390.474C203.099 390.991 202.685 391.398 202.155 391.697C201.628 391.992 201.023 392.139 200.34 392.139Z" fill="white"/>
    <path opacity="0.5" d="M380.842 381.818V392H379.301V383.359H379.241L376.805 384.95V383.479L379.346 381.818H380.842ZM387.141 392.169C386.356 392.166 385.685 391.959 385.128 391.548C384.571 391.137 384.145 390.538 383.85 389.753C383.555 388.967 383.408 388.021 383.408 386.914C383.408 385.81 383.555 384.867 383.85 384.085C384.148 383.303 384.576 382.706 385.133 382.295C385.693 381.884 386.362 381.679 387.141 381.679C387.92 381.679 388.588 381.886 389.145 382.3C389.702 382.711 390.128 383.308 390.423 384.09C390.721 384.869 390.87 385.81 390.87 386.914C390.87 388.024 390.723 388.972 390.428 389.758C390.133 390.54 389.707 391.138 389.15 391.553C388.593 391.964 387.924 392.169 387.141 392.169ZM387.141 390.842C387.831 390.842 388.369 390.505 388.757 389.832C389.148 389.16 389.344 388.187 389.344 386.914C389.344 386.069 389.254 385.355 389.075 384.771C388.9 384.185 388.646 383.741 388.315 383.439C387.987 383.134 387.595 382.982 387.141 382.982C386.455 382.982 385.917 383.32 385.526 383.996C385.134 384.672 384.937 385.645 384.934 386.914C384.934 387.763 385.022 388.48 385.197 389.067C385.376 389.65 385.63 390.093 385.958 390.394C386.286 390.692 386.681 390.842 387.141 390.842Z" fill="white"/>
    <path opacity="0.5" d="M593.842 381.818V392H592.301V383.359H592.241L589.805 384.95V383.479L592.346 381.818H593.842ZM599.957 392.139C599.334 392.139 598.774 392.02 598.277 391.781C597.783 391.539 597.389 391.208 597.094 390.787C596.799 390.366 596.641 389.885 596.621 389.345H598.113C598.149 389.783 598.343 390.142 598.695 390.424C599.046 390.706 599.467 390.847 599.957 390.847C600.348 390.847 600.695 390.757 600.996 390.578C601.301 390.396 601.54 390.146 601.712 389.827C601.888 389.509 601.976 389.146 601.976 388.739C601.976 388.324 601.886 387.955 601.707 387.63C601.528 387.305 601.281 387.05 600.967 386.864C600.655 386.679 600.297 386.584 599.893 386.581C599.585 386.581 599.275 386.634 598.963 386.74C598.652 386.846 598.4 386.985 598.207 387.158L596.8 386.949L597.372 381.818H602.97V383.136H598.65L598.327 385.984H598.386C598.585 385.792 598.849 385.631 599.177 385.502C599.508 385.373 599.863 385.308 600.241 385.308C600.861 385.308 601.412 385.456 601.896 385.751C602.384 386.046 602.766 386.448 603.045 386.959C603.326 387.466 603.466 388.049 603.462 388.709C603.466 389.368 603.317 389.957 603.015 390.474C602.717 390.991 602.302 391.398 601.772 391.697C601.245 391.992 600.64 392.139 599.957 392.139Z" fill="white"/>
    <path opacity="0.5" d="M803.979 392V390.886L807.425 387.317C807.793 386.929 808.096 386.589 808.335 386.298C808.576 386.003 808.757 385.723 808.876 385.457C808.996 385.192 809.055 384.911 809.055 384.612C809.055 384.274 808.976 383.982 808.817 383.737C808.658 383.489 808.441 383.298 808.165 383.165C807.89 383.03 807.58 382.962 807.236 382.962C806.871 382.962 806.553 383.036 806.281 383.185C806.009 383.335 805.801 383.545 805.655 383.817C805.509 384.089 805.436 384.407 805.436 384.771H803.969C803.969 384.152 804.112 383.61 804.397 383.146C804.682 382.682 805.073 382.322 805.57 382.067C806.067 381.808 806.633 381.679 807.266 381.679C807.905 381.679 808.469 381.807 808.956 382.062C809.446 382.314 809.829 382.658 810.104 383.096C810.379 383.53 810.517 384.021 810.517 384.567C810.517 384.945 810.446 385.315 810.303 385.676C810.164 386.037 809.92 386.44 809.572 386.884C809.224 387.325 808.741 387.86 808.121 388.49L806.097 390.608V390.683H810.681V392H803.979ZM816.11 392.169C815.325 392.166 814.653 391.959 814.097 391.548C813.54 391.137 813.114 390.538 812.819 389.753C812.524 388.967 812.376 388.021 812.376 386.914C812.376 385.81 812.524 384.867 812.819 384.085C813.117 383.303 813.545 382.706 814.102 382.295C814.662 381.884 815.331 381.679 816.11 381.679C816.889 381.679 817.557 381.886 818.114 382.3C818.67 382.711 819.096 383.308 819.391 384.09C819.69 384.869 819.839 385.81 819.839 386.914C819.839 388.024 819.691 388.972 819.396 389.758C819.101 390.54 818.675 391.138 818.119 391.553C817.562 391.964 816.892 392.169 816.11 392.169ZM816.11 390.842C816.799 390.842 817.338 390.505 817.726 389.832C818.117 389.16 818.312 388.187 818.312 386.914C818.312 386.069 818.223 385.355 818.044 384.771C817.868 384.185 817.615 383.741 817.283 383.439C816.955 383.134 816.564 382.982 816.11 382.982C815.424 382.982 814.885 383.32 814.494 383.996C814.103 384.672 813.906 385.645 813.903 386.914C813.903 387.763 813.991 388.48 814.166 389.067C814.345 389.65 814.599 390.093 814.927 390.394C815.255 390.692 815.649 390.842 816.11 390.842Z" fill="white"/>
    <path opacity="0.5" d="M1026.98 392V390.886L1030.42 387.317C1030.79 386.929 1031.1 386.589 1031.33 386.298C1031.58 386.003 1031.76 385.723 1031.88 385.457C1032 385.192 1032.06 384.911 1032.06 384.612C1032.06 384.274 1031.98 383.982 1031.82 383.737C1031.66 383.489 1031.44 383.298 1031.17 383.165C1030.89 383.03 1030.58 382.962 1030.24 382.962C1029.87 382.962 1029.55 383.036 1029.28 383.185C1029.01 383.335 1028.8 383.545 1028.65 383.817C1028.51 384.089 1028.44 384.407 1028.44 384.771H1026.97C1026.97 384.152 1027.11 383.61 1027.4 383.146C1027.68 382.682 1028.07 382.322 1028.57 382.067C1029.07 381.808 1029.63 381.679 1030.27 381.679C1030.91 381.679 1031.47 381.807 1031.96 382.062C1032.45 382.314 1032.83 382.658 1033.1 383.096C1033.38 383.53 1033.52 384.021 1033.52 384.567C1033.52 384.945 1033.45 385.315 1033.3 385.676C1033.16 386.037 1032.92 386.44 1032.57 386.884C1032.22 387.325 1031.74 387.86 1031.12 388.49L1029.1 390.608V390.683H1033.68V392H1026.98ZM1038.93 392.139C1038.3 392.139 1037.74 392.02 1037.25 391.781C1036.75 391.539 1036.36 391.208 1036.06 390.787C1035.77 390.366 1035.61 389.885 1035.59 389.345H1037.08C1037.12 389.783 1037.31 390.142 1037.66 390.424C1038.01 390.706 1038.44 390.847 1038.93 390.847C1039.32 390.847 1039.66 390.757 1039.97 390.578C1040.27 390.396 1040.51 390.146 1040.68 389.827C1040.86 389.509 1040.94 389.146 1040.94 388.739C1040.94 388.324 1040.86 387.955 1040.68 387.63C1040.5 387.305 1040.25 387.05 1039.94 386.864C1039.62 386.679 1039.27 386.584 1038.86 386.581C1038.55 386.581 1038.24 386.634 1037.93 386.74C1037.62 386.846 1037.37 386.985 1037.18 387.158L1035.77 386.949L1036.34 381.818H1041.94V383.136H1037.62L1037.3 385.984H1037.36C1037.55 385.792 1037.82 385.631 1038.15 385.502C1038.48 385.373 1038.83 385.308 1039.21 385.308C1039.83 385.308 1040.38 385.456 1040.87 385.751C1041.35 386.046 1041.74 386.448 1042.01 386.959C1042.3 387.466 1042.43 388.049 1042.43 388.709C1042.43 389.368 1042.29 389.957 1041.98 390.474C1041.69 390.991 1041.27 391.398 1040.74 391.697C1040.21 391.992 1039.61 392.139 1038.93 392.139Z" fill="white"/>
    <path opacity="0.5" d="M1254.52 392.139C1253.84 392.139 1253.23 392.022 1252.69 391.786C1252.16 391.551 1251.74 391.224 1251.43 390.807C1251.12 390.386 1250.95 389.899 1250.93 389.345H1252.49C1252.51 389.647 1252.61 389.909 1252.79 390.131C1252.98 390.349 1253.22 390.518 1253.52 390.638C1253.82 390.757 1254.15 390.817 1254.51 390.817C1254.92 390.817 1255.27 390.747 1255.58 390.608C1255.89 390.469 1256.13 390.275 1256.31 390.026C1256.48 389.774 1256.57 389.484 1256.57 389.156C1256.57 388.815 1256.48 388.515 1256.31 388.256C1256.14 387.995 1255.88 387.789 1255.55 387.64C1255.22 387.491 1254.82 387.416 1254.35 387.416H1253.49V386.163H1254.35C1254.72 386.163 1255.05 386.095 1255.34 385.96C1255.63 385.824 1255.85 385.635 1256.02 385.393C1256.18 385.147 1256.26 384.861 1256.26 384.533C1256.26 384.218 1256.19 383.944 1256.05 383.712C1255.91 383.477 1255.71 383.293 1255.45 383.161C1255.19 383.028 1254.89 382.962 1254.54 382.962C1254.21 382.962 1253.9 383.023 1253.61 383.146C1253.33 383.265 1253.1 383.437 1252.92 383.663C1252.74 383.885 1252.64 384.152 1252.63 384.463H1251.14C1251.16 383.913 1251.32 383.429 1251.63 383.011C1251.94 382.594 1252.35 382.267 1252.86 382.032C1253.37 381.797 1253.94 381.679 1254.56 381.679C1255.22 381.679 1255.78 381.807 1256.25 382.062C1256.73 382.314 1257.1 382.65 1257.36 383.071C1257.62 383.492 1257.75 383.953 1257.75 384.453C1257.75 385.023 1257.59 385.507 1257.27 385.905C1256.95 386.303 1256.53 386.569 1256 386.705V386.785C1256.67 386.888 1257.2 387.156 1257.57 387.59C1257.94 388.024 1258.13 388.563 1258.12 389.206C1258.13 389.766 1257.97 390.268 1257.66 390.712C1257.34 391.156 1256.92 391.506 1256.38 391.761C1255.84 392.013 1255.22 392.139 1254.52 392.139ZM1263.55 392.169C1262.76 392.166 1262.09 391.959 1261.53 391.548C1260.98 391.137 1260.55 390.538 1260.26 389.753C1259.96 388.967 1259.81 388.021 1259.81 386.914C1259.81 385.81 1259.96 384.867 1260.26 384.085C1260.55 383.303 1260.98 382.706 1261.54 382.295C1262.1 381.884 1262.77 381.679 1263.55 381.679C1264.33 381.679 1264.99 381.886 1265.55 382.3C1266.11 382.711 1266.53 383.308 1266.83 384.09C1267.13 384.869 1267.28 385.81 1267.28 386.914C1267.28 388.024 1267.13 388.972 1266.83 389.758C1266.54 390.54 1266.11 391.138 1265.56 391.553C1265 391.964 1264.33 392.169 1263.55 392.169ZM1263.55 390.842C1264.24 390.842 1264.78 390.505 1265.16 389.832C1265.55 389.16 1265.75 388.187 1265.75 386.914C1265.75 386.069 1265.66 385.355 1265.48 384.771C1265.31 384.185 1265.05 383.741 1264.72 383.439C1264.39 383.134 1264 382.982 1263.55 382.982C1262.86 382.982 1262.32 383.32 1261.93 383.996C1261.54 384.672 1261.34 385.645 1261.34 386.914C1261.34 387.763 1261.43 388.48 1261.6 389.067C1261.78 389.65 1262.04 390.093 1262.36 390.394C1262.69 390.692 1263.09 390.842 1263.55 390.842Z" fill="white"/>
    <path opacity="0.5" d="M1300.52 392.139C1299.84 392.139 1299.23 392.022 1298.69 391.786C1298.16 391.551 1297.74 391.224 1297.43 390.807C1297.12 390.386 1296.95 389.899 1296.93 389.345H1298.49C1298.51 389.647 1298.61 389.909 1298.79 390.131C1298.98 390.349 1299.22 390.518 1299.52 390.638C1299.82 390.757 1300.15 390.817 1300.51 390.817C1300.92 390.817 1301.27 390.747 1301.58 390.608C1301.89 390.469 1302.13 390.275 1302.31 390.026C1302.48 389.774 1302.57 389.484 1302.57 389.156C1302.57 388.815 1302.48 388.515 1302.31 388.256C1302.14 387.995 1301.88 387.789 1301.55 387.64C1301.22 387.491 1300.82 387.416 1300.35 387.416H1299.49V386.163H1300.35C1300.72 386.163 1301.05 386.095 1301.34 385.96C1301.63 385.824 1301.85 385.635 1302.02 385.393C1302.18 385.147 1302.26 384.861 1302.26 384.533C1302.26 384.218 1302.19 383.944 1302.05 383.712C1301.91 383.477 1301.71 383.293 1301.45 383.161C1301.19 383.028 1300.89 382.962 1300.54 382.962C1300.21 382.962 1299.9 383.023 1299.61 383.146C1299.33 383.265 1299.1 383.437 1298.92 383.663C1298.74 383.885 1298.64 384.152 1298.63 384.463H1297.14C1297.16 383.913 1297.32 383.429 1297.63 383.011C1297.94 382.594 1298.35 382.267 1298.86 382.032C1299.37 381.797 1299.94 381.679 1300.56 381.679C1301.22 381.679 1301.78 381.807 1302.25 382.062C1302.73 382.314 1303.1 382.65 1303.36 383.071C1303.62 383.492 1303.75 383.953 1303.75 384.453C1303.75 385.023 1303.59 385.507 1303.27 385.905C1302.95 386.303 1302.53 386.569 1302 386.705V386.785C1302.67 386.888 1303.2 387.156 1303.57 387.59C1303.94 388.024 1304.13 388.563 1304.12 389.206C1304.13 389.766 1303.97 390.268 1303.66 390.712C1303.34 391.156 1302.92 391.506 1302.38 391.761C1301.84 392.013 1301.22 392.139 1300.52 392.139ZM1309.87 381.818V392H1308.32V383.359H1308.26L1305.83 384.95V383.479L1308.37 381.818H1309.87Z" fill="white"/>
    <path opacity="0.5" d="M1343.52 392.139C1342.84 392.139 1342.23 392.022 1341.69 391.786C1341.16 391.551 1340.74 391.224 1340.43 390.807C1340.12 390.386 1339.95 389.899 1339.93 389.345H1341.49C1341.51 389.647 1341.61 389.909 1341.79 390.131C1341.98 390.349 1342.22 390.518 1342.52 390.638C1342.82 390.757 1343.15 390.817 1343.51 390.817C1343.92 390.817 1344.27 390.747 1344.58 390.608C1344.89 390.469 1345.13 390.275 1345.31 390.026C1345.48 389.774 1345.57 389.484 1345.57 389.156C1345.57 388.815 1345.48 388.515 1345.31 388.256C1345.14 387.995 1344.88 387.789 1344.55 387.64C1344.22 387.491 1343.82 387.416 1343.35 387.416H1342.49V386.163H1343.35C1343.72 386.163 1344.05 386.095 1344.34 385.96C1344.63 385.824 1344.85 385.635 1345.02 385.393C1345.18 385.147 1345.26 384.861 1345.26 384.533C1345.26 384.218 1345.19 383.944 1345.05 383.712C1344.91 383.477 1344.71 383.293 1344.45 383.161C1344.19 383.028 1343.89 382.962 1343.54 382.962C1343.21 382.962 1342.9 383.023 1342.61 383.146C1342.33 383.265 1342.1 383.437 1341.92 383.663C1341.74 383.885 1341.64 384.152 1341.63 384.463H1340.14C1340.16 383.913 1340.32 383.429 1340.63 383.011C1340.94 382.594 1341.35 382.267 1341.86 382.032C1342.37 381.797 1342.94 381.679 1343.56 381.679C1344.22 381.679 1344.78 381.807 1345.25 382.062C1345.73 382.314 1346.1 382.65 1346.36 383.071C1346.62 383.492 1346.75 383.953 1346.75 384.453C1346.75 385.023 1346.59 385.507 1346.27 385.905C1345.95 386.303 1345.53 386.569 1345 386.705V386.785C1345.67 386.888 1346.2 387.156 1346.57 387.59C1346.94 388.024 1347.13 388.563 1347.12 389.206C1347.13 389.766 1346.97 390.268 1346.66 390.712C1346.34 391.156 1345.92 391.506 1345.38 391.761C1344.84 392.013 1344.22 392.139 1343.52 392.139ZM1352.87 381.818V392H1351.32V383.359H1351.26L1348.83 384.95V383.479L1351.37 381.818H1352.87Z" fill="white"/>
    <rect x="52" y="5" width="1304" height="1" fill="#1F2329"/>
    <rect x="52" y="45" width="1304" height="1" fill="#1F2329"/>
    <rect x="52" y="85" width="1304" height="1" fill="#1F2329"/>
    <rect x="52" y="125" width="1304" height="1" fill="#1F2329"/>
    <rect x="52" y="165" width="1304" height="1" fill="#1F2329"/>
    <rect x="52" y="205" width="1304" height="1" fill="#1F2329"/>
    <rect x="52" y="245" width="1304" height="1" fill="#1F2329"/>
    <rect x="52" y="285" width="1304" height="1" fill="#1F2329"/>
    <rect x="52" y="325" width="1304" height="1" fill="#1F2329"/>
    <rect x="52" y="365" width="1304" height="1" fill="#1F2329"/>
    <path d="M92 259.5L51.5 255.5V291H1357V175L1307.5 199.5L1258 229L1218.5 208.5L1170 224.5L1126 237L1075.5 229L1039 214.5L992 237L948 245L898.5 261L858.5 249.5L813.5 245L771 263.5L725.5 268L685 261L637 263.5L592 252L549 255.5L513 268H463.5L427 255.5L383.5 263.5L344.5 255.5L311 239.5L278.5 252H240.5L200.5 259.5L170.5 252L128.5 255.5L92 259.5Z" fill="url(#paint0_linear_227_1683)" fill-opacity="0.2"/>
    <path d="M51.5 255.5L92 259.5L128.5 255.5L170.5 252L200.5 259.5L240.5 252H278.5L311 239.5L344.5 255.5L383.5 263.5L427 255.5L463.5 268H513L549 255.5L592 252L637 263.5L685 261L725.5 268L771 263.5L813.5 245L858.5 249.5L898.5 261L948 245L992 237L1039 214.5L1075.5 229L1126 237L1170 224.5L1218.5 208.5L1258 229L1307.5 199.5L1357 175" stroke="#D2D2D2" stroke-width="2"/>
    <path d="M96.5 251L52 268.5V291H1355.5V241.5L1309 257.5L1263 261.5L1219 237L1170 255L1126 241.5L1075.5 251.5L1032 234.5L990 202.5L947 212L904.5 171.5L856.5 195L812 171.5L769 118L728.5 89.5L697 48L647.5 130L594 182L557.5 150.5L513.5 195L471 212L428.5 218.5L384.5 238L345.5 229.5L310.5 238L276.5 264L235.5 268.5L199.5 254L166.5 261L126.5 264L96.5 251Z" fill="url(#paint1_linear_227_1683)" fill-opacity="0.2"/>
    <path d="M52 268.5L96.5 251L126.5 264L166.5 261L199.5 254L235.5 268.5L276.5 264L310.5 238L345.5 229.5L384.5 238L428.5 218.5L471 212L513.5 195L557.5 150.5L594 182L647.5 130L697 48L728.5 89.5L769 118L812 171.5L856.5 195L904.5 171.5L947 212L990 202.5L1032 234.5L1075.5 251.5L1126 241.5L1170 255L1219 237L1263 261.5L1309 257.5L1355.5 241.5" stroke="#38F8AC" stroke-width="2"/>
    <defs>
    <linearGradient id="paint0_linear_227_1683" x1="704.25" y1="175" x2="704.25" y2="291" gradientUnits="userSpaceOnUse">
    <stop stop-color="#D2D2D2"/>
    <stop offset="1" stop-color="#D2D2D2" stop-opacity="0"/>
    </linearGradient>
    <linearGradient id="paint1_linear_227_1683" x1="703.75" y1="48" x2="703.75" y2="291" gradientUnits="userSpaceOnUse">
    <stop stop-color="#38F8AC"/>
    <stop offset="1" stop-color="#38F8AC" stop-opacity="0"/>
    </linearGradient>
    </defs>
    </svg>
    