<svg width="327" height="393" viewBox="0 0 327 393" fill="none" xmlns="http://www.w3.org/2000/svg">
    <path opacity="0.5" d="M4.52415 131.139C3.84138 131.139 3.23153 131.022 2.6946 130.786C2.16098 130.551 1.7384 130.224 1.42685 129.807C1.11861 129.386 0.952888 128.899 0.929688 128.345H2.49077C2.51065 128.647 2.61174 128.909 2.79403 129.131C2.97964 129.349 3.22159 129.518 3.51989 129.638C3.81818 129.757 4.14962 129.817 4.5142 129.817C4.91525 129.817 5.26989 129.747 5.57812 129.608C5.88968 129.469 6.13329 129.275 6.30895 129.026C6.48461 128.774 6.57244 128.484 6.57244 128.156C6.57244 127.815 6.48461 127.515 6.30895 127.256C6.1366 126.995 5.88305 126.789 5.5483 126.64C5.21686 126.491 4.81581 126.416 4.34517 126.416H3.48509V125.163H4.34517C4.72301 125.163 5.05445 125.095 5.33949 124.96C5.62784 124.824 5.85322 124.635 6.01562 124.393C6.17803 124.147 6.25923 123.861 6.25923 123.533C6.25923 123.218 6.18797 122.944 6.04545 122.712C5.90625 122.477 5.70739 122.293 5.44886 122.161C5.19366 122.028 4.89205 121.962 4.54403 121.962C4.21259 121.962 3.9027 122.023 3.61435 122.146C3.32931 122.265 3.0973 122.437 2.91832 122.663C2.73935 122.885 2.64323 123.152 2.62997 123.463H1.14347C1.16004 122.913 1.32244 122.429 1.63068 122.011C1.94223 121.594 2.35322 121.267 2.86364 121.032C3.37405 120.797 3.94081 120.679 4.56392 120.679C5.21686 120.679 5.7803 120.807 6.25426 121.062C6.73153 121.314 7.09943 121.65 7.35795 122.071C7.61979 122.492 7.74905 122.953 7.74574 123.453C7.74905 124.023 7.58996 124.507 7.26847 124.905C6.95028 125.303 6.52604 125.569 5.99574 125.705V125.785C6.67188 125.888 7.19555 126.156 7.56676 126.59C7.94129 127.024 8.12689 127.563 8.12358 128.206C8.12689 128.766 7.97112 129.268 7.65625 129.712C7.3447 130.156 6.9188 130.506 6.37855 130.761C5.83831 131.013 5.22017 131.139 4.52415 131.139ZM11.6559 129.608L11.5813 130.15C11.5316 130.548 11.4471 130.962 11.3278 131.393C11.2118 131.827 11.0908 132.23 10.9648 132.601C10.8422 132.972 10.7411 133.267 10.6616 133.486H9.6076C9.65069 133.28 9.71035 133.002 9.78658 132.651C9.86281 132.303 9.93738 131.913 10.0103 131.482C10.0832 131.051 10.1379 130.612 10.1744 130.165L10.2241 129.608H11.6559ZM16.932 131.139C16.3089 131.139 15.7488 131.02 15.2516 130.781C14.7578 130.539 14.3633 130.208 14.0684 129.787C13.7734 129.366 13.6159 128.885 13.5961 128.345H15.0875C15.124 128.783 15.3179 129.142 15.6692 129.424C16.0205 129.706 16.4415 129.847 16.932 129.847C17.3231 129.847 17.6694 129.757 17.9711 129.578C18.276 129.396 18.5146 129.146 18.687 128.827C18.8626 128.509 18.9505 128.146 18.9505 127.739C18.9505 127.324 18.861 126.955 18.682 126.63C18.503 126.305 18.2561 126.05 17.9412 125.864C17.6297 125.679 17.2717 125.584 16.8674 125.581C16.5591 125.581 16.2492 125.634 15.9377 125.74C15.6261 125.846 15.3742 125.985 15.182 126.158L13.775 125.949L14.3468 120.818H19.9448V122.136H15.6245L15.3013 124.984H15.361C15.5598 124.792 15.8233 124.631 16.1515 124.502C16.4829 124.373 16.8375 124.308 17.2154 124.308C17.8352 124.308 18.387 124.456 18.8709 124.751C19.3581 125.046 19.7409 125.448 20.0194 125.959C20.3011 126.466 20.4403 127.049 20.437 127.709C20.4403 128.368 20.2911 128.957 19.9895 129.474C19.6912 129.991 19.2769 130.398 18.7466 130.697C18.2196 130.992 17.6148 131.139 16.932 131.139ZM25.7976 131.169C25.0121 131.166 24.3409 130.959 23.7841 130.548C23.2273 130.137 22.8014 129.538 22.5064 128.753C22.2114 127.967 22.0639 127.021 22.0639 125.914C22.0639 124.81 22.2114 123.867 22.5064 123.085C22.8047 122.303 23.2322 121.706 23.7891 121.295C24.3492 120.884 25.0187 120.679 25.7976 120.679C26.5765 120.679 27.2443 120.886 27.8011 121.3C28.358 121.711 28.7839 122.308 29.0788 123.09C29.3771 123.869 29.5263 124.81 29.5263 125.914C29.5263 127.024 29.3788 127.972 29.0838 128.758C28.7888 129.54 28.3629 130.138 27.8061 130.553C27.2493 130.964 26.5798 131.169 25.7976 131.169ZM25.7976 129.842C26.487 129.842 27.0256 129.505 27.4134 128.832C27.8045 128.16 28 127.187 28 125.914C28 125.069 27.9105 124.355 27.7315 123.771C27.5559 123.185 27.3023 122.741 26.9709 122.439C26.6428 122.134 26.2517 121.982 25.7976 121.982C25.1115 121.982 24.5729 122.32 24.1818 122.996C23.7907 123.672 23.5935 124.645 23.5902 125.914C23.5902 126.763 23.678 127.48 23.8537 128.067C24.0327 128.65 24.2862 129.093 24.6143 129.394C24.9425 129.692 25.3369 129.842 25.7976 129.842ZM34.8347 131.169C34.0492 131.166 33.378 130.959 32.8212 130.548C32.2644 130.137 31.8385 129.538 31.5435 128.753C31.2485 127.967 31.101 127.021 31.101 125.914C31.101 124.81 31.2485 123.867 31.5435 123.085C31.8418 122.303 32.2694 121.706 32.8262 121.295C33.3863 120.884 34.0558 120.679 34.8347 120.679C35.6136 120.679 36.2814 120.886 36.8382 121.3C37.3951 121.711 37.821 122.308 38.1159 123.09C38.4142 123.869 38.5634 124.81 38.5634 125.914C38.5634 127.024 38.4159 127.972 38.1209 128.758C37.8259 129.54 37.4 130.138 36.8432 130.553C36.2864 130.964 35.6169 131.169 34.8347 131.169ZM34.8347 129.842C35.5241 129.842 36.0627 129.505 36.4505 128.832C36.8416 128.16 37.0371 127.187 37.0371 125.914C37.0371 125.069 36.9476 124.355 36.7686 123.771C36.593 123.185 36.3394 122.741 36.008 122.439C35.6799 122.134 35.2888 121.982 34.8347 121.982C34.1486 121.982 33.61 122.32 33.2189 122.996C32.8278 123.672 32.6306 124.645 32.6273 125.914C32.6273 126.763 32.7151 127.48 32.8908 128.067C33.0698 128.65 33.3233 129.093 33.6515 129.394C33.9796 129.692 34.374 129.842 34.8347 129.842Z" fill="#0A0A18"/>
    <path opacity="0.5" d="M0.765625 89.0114V87.7685L5.16548 80.8182H6.14489V82.6477H5.52344L2.37642 87.6293V87.7088H8.40696V89.0114H0.765625ZM5.59304 91V88.6335L5.60298 88.0668V80.8182H7.05966V91H5.59304ZM11.7106 89.608L11.636 90.1499C11.5863 90.5476 11.5018 90.9619 11.3825 91.3928C11.2665 91.8269 11.1455 92.2296 11.0195 92.6009C10.8969 92.9721 10.7958 93.267 10.7163 93.4858H9.66229C9.70537 93.2803 9.76503 93.0019 9.84126 92.6506C9.9175 92.3026 9.99207 91.9131 10.065 91.4822C10.1379 91.0514 10.1926 90.6122 10.229 90.1648L10.2788 89.608H11.7106ZM16.9656 91.169C16.18 91.1657 15.5089 90.9586 14.9521 90.5476C14.3952 90.1366 13.9693 89.5384 13.6744 88.7528C13.3794 87.9673 13.2319 87.0211 13.2319 85.9141C13.2319 84.8104 13.3794 83.8674 13.6744 83.0852C13.9727 82.303 14.4002 81.7064 14.957 81.2955C15.5172 80.8845 16.1867 80.679 16.9656 80.679C17.7444 80.679 18.4123 80.8861 18.9691 81.3004C19.5259 81.7114 19.9518 82.308 20.2468 83.0902C20.5451 83.8691 20.6942 84.8104 20.6942 85.9141C20.6942 87.0244 20.5468 87.9723 20.2518 88.7578C19.9568 89.54 19.5309 90.1383 18.9741 90.5526C18.4173 90.9635 17.7478 91.169 16.9656 91.169ZM16.9656 89.8416C17.6549 89.8416 18.1935 89.5052 18.5813 88.8324C18.9724 88.1596 19.168 87.1868 19.168 85.9141C19.168 85.0689 19.0785 84.3546 18.8995 83.7713C18.7238 83.1847 18.4703 82.7405 18.1388 82.4389C17.8107 82.134 17.4196 81.9815 16.9656 81.9815C16.2795 81.9815 15.7409 82.3196 15.3498 82.9957C14.9587 83.6719 14.7615 84.6446 14.7582 85.9141C14.7582 86.7625 14.846 87.4801 15.0217 88.0668C15.2006 88.6501 15.4542 89.0926 15.7823 89.3942C16.1104 89.6925 16.5049 89.8416 16.9656 89.8416ZM26.0027 91.169C25.2172 91.1657 24.546 90.9586 23.9892 90.5476C23.4324 90.1366 23.0065 89.5384 22.7115 88.7528C22.4165 87.9673 22.269 87.0211 22.269 85.9141C22.269 84.8104 22.4165 83.8674 22.7115 83.0852C23.0098 82.303 23.4373 81.7064 23.9941 81.2955C24.5543 80.8845 25.2238 80.679 26.0027 80.679C26.7815 80.679 27.4494 80.8861 28.0062 81.3004C28.563 81.7114 28.9889 82.308 29.2839 83.0902C29.5822 83.8691 29.7314 84.8104 29.7314 85.9141C29.7314 87.0244 29.5839 87.9723 29.2889 88.7578C28.9939 89.54 28.568 90.1383 28.0112 90.5526C27.4544 90.9635 26.7849 91.169 26.0027 91.169ZM26.0027 89.8416C26.6921 89.8416 27.2306 89.5052 27.6184 88.8324C28.0095 88.1596 28.2051 87.1868 28.2051 85.9141C28.2051 85.0689 28.1156 84.3546 27.9366 83.7713C27.7609 83.1847 27.5074 82.7405 27.176 82.4389C26.8478 82.134 26.4567 81.9815 26.0027 81.9815C25.3166 81.9815 24.778 82.3196 24.3869 82.9957C23.9958 83.6719 23.7986 84.6446 23.7953 85.9141C23.7953 86.7625 23.8831 87.4801 24.0588 88.0668C24.2377 88.6501 24.4913 89.0926 24.8194 89.3942C25.1475 89.6925 25.542 89.8416 26.0027 89.8416ZM35.0398 91.169C34.2543 91.1657 33.5831 90.9586 33.0263 90.5476C32.4695 90.1366 32.0436 89.5384 31.7486 88.7528C31.4536 87.9673 31.3061 87.0211 31.3061 85.9141C31.3061 84.8104 31.4536 83.8674 31.7486 83.0852C32.0469 82.303 32.4744 81.7064 33.0312 81.2955C33.5914 80.8845 34.2609 80.679 35.0398 80.679C35.8187 80.679 36.4865 80.8861 37.0433 81.3004C37.6001 81.7114 38.026 82.308 38.321 83.0902C38.6193 83.8691 38.7685 84.8104 38.7685 85.9141C38.7685 87.0244 38.621 87.9723 38.326 88.7578C38.031 89.54 37.6051 90.1383 37.0483 90.5526C36.4915 90.9635 35.822 91.169 35.0398 91.169ZM35.0398 89.8416C35.7292 89.8416 36.2678 89.5052 36.6555 88.8324C37.0466 88.1596 37.2422 87.1868 37.2422 85.9141C37.2422 85.0689 37.1527 84.3546 36.9737 83.7713C36.7981 83.1847 36.5445 82.7405 36.2131 82.4389C35.8849 82.134 35.4938 81.9815 35.0398 81.9815C34.3537 81.9815 33.8151 82.3196 33.424 82.9957C33.0329 83.6719 32.8357 84.6446 32.8324 85.9141C32.8324 86.7625 32.9202 87.4801 33.0959 88.0668C33.2749 88.6501 33.5284 89.0926 33.8565 89.3942C34.1847 89.6925 34.5791 89.8416 35.0398 89.8416Z" fill="#0A0A18"/>
    <path opacity="0.5" d="M0.765625 49.0114V47.7685L5.16548 40.8182H6.14489V42.6477H5.52344L2.37642 47.6293V47.7088H8.40696V49.0114H0.765625ZM5.59304 51V48.6335L5.60298 48.0668V40.8182H7.05966V51H5.59304ZM11.7106 49.608L11.636 50.1499C11.5863 50.5476 11.5018 50.9619 11.3825 51.3928C11.2665 51.8269 11.1455 52.2296 11.0195 52.6009C10.8969 52.9721 10.7958 53.267 10.7163 53.4858H9.66229C9.70537 53.2803 9.76503 53.0019 9.84126 52.6506C9.9175 52.3026 9.99207 51.9131 10.065 51.4822C10.1379 51.0514 10.1926 50.6122 10.229 50.1648L10.2788 49.608H11.7106ZM16.9867 51.1392C16.3636 51.1392 15.8034 51.0199 15.3063 50.7812C14.8124 50.5393 14.418 50.2079 14.123 49.7869C13.8281 49.366 13.6706 48.8854 13.6507 48.3452H15.1422C15.1787 48.7827 15.3726 49.1423 15.7239 49.424C16.0752 49.7057 16.4962 49.8466 16.9867 49.8466C17.3778 49.8466 17.7241 49.7571 18.0257 49.5781C18.3307 49.3958 18.5693 49.1456 18.7417 48.8274C18.9173 48.5092 19.0051 48.1463 19.0051 47.7386C19.0051 47.3243 18.9157 46.9548 18.7367 46.63C18.5577 46.3052 18.3108 46.05 17.9959 45.8643C17.6844 45.6787 17.3264 45.5843 16.9221 45.581C16.6138 45.581 16.3039 45.634 15.9924 45.7401C15.6808 45.8461 15.4289 45.9853 15.2367 46.1577L13.8297 45.9489L14.4015 40.8182H19.9995V42.1357H15.6792L15.356 44.9844H15.4157C15.6145 44.7921 15.878 44.6314 16.2061 44.5021C16.5376 44.3729 16.8922 44.3082 17.2701 44.3082C17.8899 44.3082 18.4417 44.4557 18.9256 44.7507C19.4128 45.0457 19.7956 45.4484 20.074 45.9588C20.3558 46.4659 20.495 47.0492 20.4917 47.7088C20.495 48.3684 20.3458 48.9567 20.0442 49.4737C19.7459 49.9908 19.3316 50.3984 18.8013 50.6967C18.2743 50.9917 17.6694 51.1392 16.9867 51.1392ZM25.8523 51.169C25.0668 51.1657 24.3956 50.9586 23.8388 50.5476C23.282 50.1366 22.8561 49.5384 22.5611 48.7528C22.2661 47.9673 22.1186 47.0211 22.1186 45.9141C22.1186 44.8104 22.2661 43.8674 22.5611 43.0852C22.8594 42.303 23.2869 41.7064 23.8438 41.2955C24.4039 40.8845 25.0734 40.679 25.8523 40.679C26.6312 40.679 27.299 40.8861 27.8558 41.3004C28.4126 41.7114 28.8385 42.308 29.1335 43.0902C29.4318 43.8691 29.581 44.8104 29.581 45.9141C29.581 47.0244 29.4335 47.9723 29.1385 48.7578C28.8435 49.54 28.4176 50.1383 27.8608 50.5526C27.304 50.9635 26.6345 51.169 25.8523 51.169ZM25.8523 49.8416C26.5417 49.8416 27.0803 49.5052 27.468 48.8324C27.8591 48.1596 28.0547 47.1868 28.0547 45.9141C28.0547 45.0689 27.9652 44.3546 27.7862 43.7713C27.6106 43.1847 27.357 42.7405 27.0256 42.4389C26.6974 42.134 26.3063 41.9815 25.8523 41.9815C25.1662 41.9815 24.6276 42.3196 24.2365 42.9957C23.8454 43.6719 23.6482 44.6446 23.6449 45.9141C23.6449 46.7625 23.7327 47.4801 23.9084 48.0668C24.0874 48.6501 24.3409 49.0926 24.669 49.3942C24.9972 49.6925 25.3916 49.8416 25.8523 49.8416ZM34.8894 51.169C34.1039 51.1657 33.4327 50.9586 32.8759 50.5476C32.3191 50.1366 31.8932 49.5384 31.5982 48.7528C31.3032 47.9673 31.1557 47.0211 31.1557 45.9141C31.1557 44.8104 31.3032 43.8674 31.5982 43.0852C31.8965 42.303 32.324 41.7064 32.8809 41.2955C33.441 40.8845 34.1105 40.679 34.8894 40.679C35.6683 40.679 36.3361 40.8861 36.8929 41.3004C37.4498 41.7114 37.8757 42.308 38.1706 43.0902C38.4689 43.8691 38.6181 44.8104 38.6181 45.9141C38.6181 47.0244 38.4706 47.9723 38.1756 48.7578C37.8806 49.54 37.4547 50.1383 36.8979 50.5526C36.3411 50.9635 35.6716 51.169 34.8894 51.169ZM34.8894 49.8416C35.5788 49.8416 36.1174 49.5052 36.5051 48.8324C36.8962 48.1596 37.0918 47.1868 37.0918 45.9141C37.0918 45.0689 37.0023 44.3546 36.8233 43.7713C36.6477 43.1847 36.3941 42.7405 36.0627 42.4389C35.7346 42.134 35.3435 41.9815 34.8894 41.9815C34.2033 41.9815 33.6647 42.3196 33.2736 42.9957C32.8825 43.6719 32.6853 44.6446 32.682 45.9141C32.682 46.7625 32.7698 47.4801 32.9455 48.0668C33.1245 48.6501 33.378 49.0926 33.7061 49.3942C34.0343 49.6925 34.4287 49.8416 34.8894 49.8416Z" fill="#0A0A18"/>
    <path opacity="0.5" d="M4.3402 11.1392C3.71709 11.1392 3.15696 11.0199 2.6598 10.7812C2.16596 10.5393 1.77154 10.2079 1.47656 9.78693C1.18158 9.366 1.02415 8.88542 1.00426 8.34517H2.49574C2.5322 8.78267 2.72609 9.14228 3.07741 9.42401C3.42874 9.70573 3.84967 9.84659 4.3402 9.84659C4.7313 9.84659 5.07765 9.7571 5.37926 9.57812C5.68419 9.39583 5.92282 9.1456 6.09517 8.82741C6.27083 8.50923 6.35866 8.14631 6.35866 7.73864C6.35866 7.32434 6.26918 6.95478 6.0902 6.62997C5.91122 6.30516 5.6643 6.04995 5.34943 5.86435C5.03788 5.67874 4.67992 5.58428 4.27557 5.58097C3.96733 5.58097 3.65743 5.634 3.34588 5.74006C3.03433 5.84612 2.78243 5.98532 2.5902 6.15767L1.18324 5.94886L1.75497 0.818182H7.35298V2.13565H3.03267L2.70952 4.98438H2.76918C2.96804 4.79214 3.23153 4.63139 3.55966 4.50213C3.8911 4.37287 4.24574 4.30824 4.62358 4.30824C5.24337 4.30824 5.79522 4.45573 6.27912 4.75071C6.76634 5.04569 7.14915 5.44839 7.42756 5.95881C7.70928 6.46591 7.84848 7.04924 7.84517 7.70881C7.84848 8.36837 7.69934 8.95668 7.39773 9.47372C7.09943 9.99077 6.68513 10.3984 6.15483 10.6967C5.62784 10.9917 5.02296 11.1392 4.3402 11.1392ZM11.2457 9.60795L11.1712 10.1499C11.1214 10.5476 11.0369 10.9619 10.9176 11.3928C10.8016 11.8269 10.6806 12.2296 10.5547 12.6009C10.4321 12.9721 10.331 13.267 10.2514 13.4858H9.19744C9.24053 13.2803 9.30019 13.0019 9.37642 12.6506C9.45265 12.3026 9.52723 11.9131 9.60014 11.4822C9.67306 11.0514 9.72775 10.6122 9.7642 10.1648L9.81392 9.60795H11.2457ZM16.5007 11.169C15.7152 11.1657 15.044 10.9586 14.4872 10.5476C13.9304 10.1366 13.5045 9.53835 13.2095 8.75284C12.9145 7.96733 12.767 7.02107 12.767 5.91406C12.767 4.81037 12.9145 3.86742 13.2095 3.08523C13.5078 2.30303 13.9354 1.70644 14.4922 1.29545C15.0523 0.884469 15.7218 0.678977 16.5007 0.678977C17.2796 0.678977 17.9474 0.886126 18.5043 1.30043C19.0611 1.71141 19.487 2.308 19.782 3.0902C20.0803 3.86908 20.2294 4.81037 20.2294 5.91406C20.2294 7.02438 20.0819 7.9723 19.7869 8.75781C19.492 9.54001 19.0661 10.1383 18.5092 10.5526C17.9524 10.9635 17.2829 11.169 16.5007 11.169ZM16.5007 9.84162C17.1901 9.84162 17.7287 9.50521 18.1165 8.83239C18.5076 8.15956 18.7031 7.18679 18.7031 5.91406C18.7031 5.06889 18.6136 4.35464 18.4347 3.77131C18.259 3.18466 18.0054 2.74053 17.674 2.43892C17.3459 2.134 16.9548 1.98153 16.5007 1.98153C15.8146 1.98153 15.276 2.3196 14.8849 2.99574C14.4938 3.67187 14.2966 4.64465 14.2933 5.91406C14.2933 6.76255 14.3812 7.48011 14.5568 8.06676C14.7358 8.65009 14.9893 9.09257 15.3175 9.39418C15.6456 9.69247 16.04 9.84162 16.5007 9.84162ZM25.5378 11.169C24.7523 11.1657 24.0811 10.9586 23.5243 10.5476C22.9675 10.1366 22.5416 9.53835 22.2466 8.75284C21.9516 7.96733 21.8042 7.02107 21.8042 5.91406C21.8042 4.81037 21.9516 3.86742 22.2466 3.08523C22.5449 2.30303 22.9725 1.70644 23.5293 1.29545C24.0894 0.884469 24.7589 0.678977 25.5378 0.678977C26.3167 0.678977 26.9846 0.886126 27.5414 1.30043C28.0982 1.71141 28.5241 2.308 28.8191 3.0902C29.1174 3.86908 29.2665 4.81037 29.2665 5.91406C29.2665 7.02438 29.119 7.9723 28.824 8.75781C28.5291 9.54001 28.1032 10.1383 27.5463 10.5526C26.9895 10.9635 26.32 11.169 25.5378 11.169ZM25.5378 9.84162C26.2272 9.84162 26.7658 9.50521 27.1536 8.83239C27.5447 8.15956 27.7402 7.18679 27.7402 5.91406C27.7402 5.06889 27.6507 4.35464 27.4718 3.77131C27.2961 3.18466 27.0426 2.74053 26.7111 2.43892C26.383 2.134 25.9919 1.98153 25.5378 1.98153C24.8517 1.98153 24.3132 2.3196 23.9221 2.99574C23.531 3.67187 23.3337 4.64465 23.3304 5.91406C23.3304 6.76255 23.4183 7.48011 23.5939 8.06676C23.7729 8.65009 24.0265 9.09257 24.3546 9.39418C24.6827 9.69247 25.0771 9.84162 25.5378 9.84162ZM34.5749 11.169C33.7894 11.1657 33.1183 10.9586 32.5614 10.5476C32.0046 10.1366 31.5787 9.53835 31.2837 8.75284C30.9888 7.96733 30.8413 7.02107 30.8413 5.91406C30.8413 4.81037 30.9888 3.86742 31.2837 3.08523C31.582 2.30303 32.0096 1.70644 32.5664 1.29545C33.1265 0.884469 33.796 0.678977 34.5749 0.678977C35.3538 0.678977 36.0217 0.886126 36.5785 1.30043C37.1353 1.71141 37.5612 2.308 37.8562 3.0902C38.1545 3.86908 38.3036 4.81037 38.3036 5.91406C38.3036 7.02438 38.1561 7.9723 37.8612 8.75781C37.5662 9.54001 37.1403 10.1383 36.5835 10.5526C36.0266 10.9635 35.3571 11.169 34.5749 11.169ZM34.5749 9.84162C35.2643 9.84162 35.8029 9.50521 36.1907 8.83239C36.5818 8.15956 36.7773 7.18679 36.7773 5.91406C36.7773 5.06889 36.6879 4.35464 36.5089 3.77131C36.3332 3.18466 36.0797 2.74053 35.7482 2.43892C35.4201 2.134 35.029 1.98153 34.5749 1.98153C33.8888 1.98153 33.3503 2.3196 32.9592 2.99574C32.5681 3.67187 32.3709 4.64465 32.3675 5.91406C32.3675 6.76255 32.4554 7.48011 32.631 8.06676C32.81 8.65009 33.0636 9.09257 33.3917 9.39418C33.7198 9.69247 34.1142 9.84162 34.5749 9.84162Z" fill="#0A0A18"/>
    <path opacity="0.5" d="M4.52415 171.139C3.84138 171.139 3.23153 171.022 2.6946 170.786C2.16098 170.551 1.7384 170.224 1.42685 169.807C1.11861 169.386 0.952888 168.899 0.929688 168.345H2.49077C2.51065 168.647 2.61174 168.909 2.79403 169.131C2.97964 169.349 3.22159 169.518 3.51989 169.638C3.81818 169.757 4.14962 169.817 4.5142 169.817C4.91525 169.817 5.26989 169.747 5.57812 169.608C5.88968 169.469 6.13329 169.275 6.30895 169.026C6.48461 168.774 6.57244 168.484 6.57244 168.156C6.57244 167.815 6.48461 167.515 6.30895 167.256C6.1366 166.995 5.88305 166.789 5.5483 166.64C5.21686 166.491 4.81581 166.416 4.34517 166.416H3.48509V165.163H4.34517C4.72301 165.163 5.05445 165.095 5.33949 164.96C5.62784 164.824 5.85322 164.635 6.01562 164.393C6.17803 164.147 6.25923 163.861 6.25923 163.533C6.25923 163.218 6.18797 162.944 6.04545 162.712C5.90625 162.477 5.70739 162.293 5.44886 162.161C5.19366 162.028 4.89205 161.962 4.54403 161.962C4.21259 161.962 3.9027 162.023 3.61435 162.146C3.32931 162.265 3.0973 162.437 2.91832 162.663C2.73935 162.885 2.64323 163.152 2.62997 163.463H1.14347C1.16004 162.913 1.32244 162.429 1.63068 162.011C1.94223 161.594 2.35322 161.267 2.86364 161.032C3.37405 160.797 3.94081 160.679 4.56392 160.679C5.21686 160.679 5.7803 160.807 6.25426 161.062C6.73153 161.314 7.09943 161.65 7.35795 162.071C7.61979 162.492 7.74905 162.953 7.74574 163.453C7.74905 164.023 7.58996 164.507 7.26847 164.905C6.95028 165.303 6.52604 165.569 5.99574 165.705V165.785C6.67188 165.888 7.19555 166.156 7.56676 166.59C7.94129 167.024 8.12689 167.563 8.12358 168.206C8.12689 168.766 7.97112 169.268 7.65625 169.712C7.3447 170.156 6.9188 170.506 6.37855 170.761C5.83831 171.013 5.22017 171.139 4.52415 171.139ZM11.6559 169.608L11.5813 170.15C11.5316 170.548 11.4471 170.962 11.3278 171.393C11.2118 171.827 11.0908 172.23 10.9648 172.601C10.8422 172.972 10.7411 173.267 10.6616 173.486H9.6076C9.65069 173.28 9.71035 173.002 9.78658 172.651C9.86281 172.303 9.93738 171.913 10.0103 171.482C10.0832 171.051 10.1379 170.612 10.1744 170.165L10.2241 169.608H11.6559ZM16.9109 171.169C16.1254 171.166 15.4542 170.959 14.8974 170.548C14.3406 170.137 13.9147 169.538 13.6197 168.753C13.3247 167.967 13.1772 167.021 13.1772 165.914C13.1772 164.81 13.3247 163.867 13.6197 163.085C13.918 162.303 14.3455 161.706 14.9023 161.295C15.4625 160.884 16.132 160.679 16.9109 160.679C17.6897 160.679 18.3576 160.886 18.9144 161.3C19.4712 161.711 19.8971 162.308 20.1921 163.09C20.4904 163.869 20.6396 164.81 20.6396 165.914C20.6396 167.024 20.4921 167.972 20.1971 168.758C19.9021 169.54 19.4762 170.138 18.9194 170.553C18.3626 170.964 17.6931 171.169 16.9109 171.169ZM16.9109 169.842C17.6003 169.842 18.1388 169.505 18.5266 168.832C18.9177 168.16 19.1133 167.187 19.1133 165.914C19.1133 165.069 19.0238 164.355 18.8448 163.771C18.6692 163.185 18.4156 162.741 18.0842 162.439C17.756 162.134 17.3649 161.982 16.9109 161.982C16.2248 161.982 15.6862 162.32 15.2951 162.996C14.904 163.672 14.7068 164.645 14.7035 165.914C14.7035 166.763 14.7913 167.48 14.967 168.067C15.146 168.65 15.3995 169.093 15.7276 169.394C16.0558 169.692 16.4502 169.842 16.9109 169.842ZM25.948 171.169C25.1625 171.166 24.4913 170.959 23.9345 170.548C23.3777 170.137 22.9518 169.538 22.6568 168.753C22.3618 167.967 22.2143 167.021 22.2143 165.914C22.2143 164.81 22.3618 163.867 22.6568 163.085C22.9551 162.303 23.3826 161.706 23.9395 161.295C24.4996 160.884 25.1691 160.679 25.948 160.679C26.7269 160.679 27.3947 160.886 27.9515 161.3C28.5083 161.711 28.9342 162.308 29.2292 163.09C29.5275 163.869 29.6767 164.81 29.6767 165.914C29.6767 167.024 29.5292 167.972 29.2342 168.758C28.9392 169.54 28.5133 170.138 27.9565 170.553C27.3997 170.964 26.7302 171.169 25.948 171.169ZM25.948 169.842C26.6374 169.842 27.176 169.505 27.5637 168.832C27.9548 168.16 28.1504 167.187 28.1504 165.914C28.1504 165.069 28.0609 164.355 27.8819 163.771C27.7063 163.185 27.4527 162.741 27.1213 162.439C26.7931 162.134 26.402 161.982 25.948 161.982C25.2619 161.982 24.7233 162.32 24.3322 162.996C23.9411 163.672 23.7439 164.645 23.7406 165.914C23.7406 166.763 23.8284 167.48 24.0041 168.067C24.1831 168.65 24.4366 169.093 24.7647 169.394C25.0929 169.692 25.4873 169.842 25.948 169.842ZM34.9851 171.169C34.1996 171.166 33.5284 170.959 32.9716 170.548C32.4148 170.137 31.9889 169.538 31.6939 168.753C31.3989 167.967 31.2514 167.021 31.2514 165.914C31.2514 164.81 31.3989 163.867 31.6939 163.085C31.9922 162.303 32.4197 161.706 32.9766 161.295C33.5367 160.884 34.2062 160.679 34.9851 160.679C35.764 160.679 36.4318 160.886 36.9886 161.3C37.5455 161.711 37.9714 162.308 38.2663 163.09C38.5646 163.869 38.7138 164.81 38.7138 165.914C38.7138 167.024 38.5663 167.972 38.2713 168.758C37.9763 169.54 37.5504 170.138 36.9936 170.553C36.4368 170.964 35.7673 171.169 34.9851 171.169ZM34.9851 169.842C35.6745 169.842 36.2131 169.505 36.6009 168.832C36.992 168.16 37.1875 167.187 37.1875 165.914C37.1875 165.069 37.098 164.355 36.919 163.771C36.7434 163.185 36.4898 162.741 36.1584 162.439C35.8303 162.134 35.4392 161.982 34.9851 161.982C34.299 161.982 33.7604 162.32 33.3693 162.996C32.9782 163.672 32.781 164.645 32.7777 165.914C32.7777 166.763 32.8655 167.48 33.0412 168.067C33.2202 168.65 33.4737 169.093 33.8018 169.394C34.13 169.692 34.5244 169.842 34.9851 169.842Z" fill="#0A0A18"/>
    <path opacity="0.5" d="M0.979403 211V209.886L4.42472 206.317C4.79261 205.929 5.09588 205.589 5.33452 205.298C5.57647 205.003 5.7571 204.723 5.87642 204.457C5.99574 204.192 6.0554 203.911 6.0554 203.612C6.0554 203.274 5.97585 202.982 5.81676 202.737C5.65767 202.489 5.44058 202.298 5.16548 202.165C4.89039 202.03 4.58049 201.962 4.2358 201.962C3.87121 201.962 3.55303 202.036 3.28125 202.185C3.00947 202.335 2.80066 202.545 2.65483 202.817C2.509 203.089 2.43608 203.407 2.43608 203.771H0.96946C0.96946 203.152 1.11198 202.61 1.39702 202.146C1.68205 201.682 2.07315 201.322 2.57031 201.067C3.06747 200.808 3.63258 200.679 4.26562 200.679C4.9053 200.679 5.46875 200.807 5.95597 201.062C6.4465 201.314 6.82931 201.658 7.1044 202.096C7.3795 202.53 7.51705 203.021 7.51705 203.567C7.51705 203.945 7.44579 204.315 7.30327 204.676C7.16406 205.037 6.92045 205.44 6.57244 205.884C6.22443 206.325 5.74053 206.86 5.12074 207.49L3.0973 209.608V209.683H7.68111V211H0.979403ZM11.5192 209.608L11.4446 210.15C11.3949 210.548 11.3104 210.962 11.1911 211.393C11.075 211.827 10.9541 212.23 10.8281 212.601C10.7055 212.972 10.6044 213.267 10.5249 213.486H9.47088C9.51397 213.28 9.57363 213.002 9.64986 212.651C9.72609 212.303 9.80066 211.913 9.87358 211.482C9.9465 211.051 10.0012 210.612 10.0376 210.165L10.0874 209.608H11.5192ZM16.7953 211.139C16.1722 211.139 15.612 211.02 15.1149 210.781C14.621 210.539 14.2266 210.208 13.9316 209.787C13.6367 209.366 13.4792 208.885 13.4593 208.345H14.9508C14.9873 208.783 15.1812 209.142 15.5325 209.424C15.8838 209.706 16.3047 209.847 16.7953 209.847C17.1864 209.847 17.5327 209.757 17.8343 209.578C18.1393 209.396 18.3779 209.146 18.5502 208.827C18.7259 208.509 18.8137 208.146 18.8137 207.739C18.8137 207.324 18.7243 206.955 18.5453 206.63C18.3663 206.305 18.1194 206.05 17.8045 205.864C17.493 205.679 17.135 205.584 16.7306 205.581C16.4224 205.581 16.1125 205.634 15.801 205.74C15.4894 205.846 15.2375 205.985 15.0453 206.158L13.6383 205.949L14.21 200.818H19.8081V202.136H15.4877L15.1646 204.984H15.2243C15.4231 204.792 15.6866 204.631 16.0147 204.502C16.3462 204.373 16.7008 204.308 17.0787 204.308C17.6984 204.308 18.2503 204.456 18.7342 204.751C19.2214 205.046 19.6042 205.448 19.8826 205.959C20.1644 206.466 20.3036 207.049 20.3002 207.709C20.3036 208.368 20.1544 208.957 19.8528 209.474C19.5545 209.991 19.1402 210.398 18.6099 210.697C18.0829 210.992 17.478 211.139 16.7953 211.139ZM25.6609 211.169C24.8754 211.166 24.2042 210.959 23.6474 210.548C23.0906 210.137 22.6647 209.538 22.3697 208.753C22.0747 207.967 21.9272 207.021 21.9272 205.914C21.9272 204.81 22.0747 203.867 22.3697 203.085C22.668 202.303 23.0955 201.706 23.6523 201.295C24.2125 200.884 24.882 200.679 25.6609 200.679C26.4397 200.679 27.1076 200.886 27.6644 201.3C28.2212 201.711 28.6471 202.308 28.9421 203.09C29.2404 203.869 29.3896 204.81 29.3896 205.914C29.3896 207.024 29.2421 207.972 28.9471 208.758C28.6521 209.54 28.2262 210.138 27.6694 210.553C27.1126 210.964 26.4431 211.169 25.6609 211.169ZM25.6609 209.842C26.3503 209.842 26.8888 209.505 27.2766 208.832C27.6677 208.16 27.8633 207.187 27.8633 205.914C27.8633 205.069 27.7738 204.355 27.5948 203.771C27.4192 203.185 27.1656 202.741 26.8342 202.439C26.506 202.134 26.1149 201.982 25.6609 201.982C24.9748 201.982 24.4362 202.32 24.0451 202.996C23.654 203.672 23.4568 204.645 23.4535 205.914C23.4535 206.763 23.5413 207.48 23.717 208.067C23.896 208.65 24.1495 209.093 24.4776 209.394C24.8058 209.692 25.2002 209.842 25.6609 209.842ZM34.698 211.169C33.9125 211.166 33.2413 210.959 32.6845 210.548C32.1277 210.137 31.7018 209.538 31.4068 208.753C31.1118 207.967 30.9643 207.021 30.9643 205.914C30.9643 204.81 31.1118 203.867 31.4068 203.085C31.7051 202.303 32.1326 201.706 32.6895 201.295C33.2496 200.884 33.9191 200.679 34.698 200.679C35.4769 200.679 36.1447 200.886 36.7015 201.3C37.2583 201.711 37.6842 202.308 37.9792 203.09C38.2775 203.869 38.4267 204.81 38.4267 205.914C38.4267 207.024 38.2792 207.972 37.9842 208.758C37.6892 209.54 37.2633 210.138 36.7065 210.553C36.1497 210.964 35.4802 211.169 34.698 211.169ZM34.698 209.842C35.3874 209.842 35.926 209.505 36.3137 208.832C36.7048 208.16 36.9004 207.187 36.9004 205.914C36.9004 205.069 36.8109 204.355 36.6319 203.771C36.4563 203.185 36.2027 202.741 35.8713 202.439C35.5431 202.134 35.152 201.982 34.698 201.982C34.0119 201.982 33.4733 202.32 33.0822 202.996C32.6911 203.672 32.4939 204.645 32.4906 205.914C32.4906 206.763 32.5784 207.48 32.7541 208.067C32.9331 208.65 33.1866 209.093 33.5147 209.394C33.8429 209.692 34.2373 209.842 34.698 209.842Z" fill="#0A0A18"/>
    <path opacity="0.5" d="M0.979403 251V249.886L4.42472 246.317C4.79261 245.929 5.09588 245.589 5.33452 245.298C5.57647 245.003 5.7571 244.723 5.87642 244.457C5.99574 244.192 6.0554 243.911 6.0554 243.612C6.0554 243.274 5.97585 242.982 5.81676 242.737C5.65767 242.489 5.44058 242.298 5.16548 242.165C4.89039 242.03 4.58049 241.962 4.2358 241.962C3.87121 241.962 3.55303 242.036 3.28125 242.185C3.00947 242.335 2.80066 242.545 2.65483 242.817C2.509 243.089 2.43608 243.407 2.43608 243.771H0.96946C0.96946 243.152 1.11198 242.61 1.39702 242.146C1.68205 241.682 2.07315 241.322 2.57031 241.067C3.06747 240.808 3.63258 240.679 4.26562 240.679C4.9053 240.679 5.46875 240.807 5.95597 241.062C6.4465 241.314 6.82931 241.658 7.1044 242.096C7.3795 242.53 7.51705 243.021 7.51705 243.567C7.51705 243.945 7.44579 244.315 7.30327 244.676C7.16406 245.037 6.92045 245.44 6.57244 245.884C6.22443 246.325 5.74053 246.86 5.12074 247.49L3.0973 249.608V249.683H7.68111V251H0.979403ZM11.5192 249.608L11.4446 250.15C11.3949 250.548 11.3104 250.962 11.1911 251.393C11.075 251.827 10.9541 252.23 10.8281 252.601C10.7055 252.972 10.6044 253.267 10.5249 253.486H9.47088C9.51397 253.28 9.57363 253.002 9.64986 252.651C9.72609 252.303 9.80066 251.913 9.87358 251.482C9.9465 251.051 10.0012 250.612 10.0376 250.165L10.0874 249.608H11.5192ZM16.7741 251.169C15.9886 251.166 15.3175 250.959 14.7607 250.548C14.2038 250.137 13.7779 249.538 13.483 248.753C13.188 247.967 13.0405 247.021 13.0405 245.914C13.0405 244.81 13.188 243.867 13.483 243.085C13.7813 242.303 14.2088 241.706 14.7656 241.295C15.3258 240.884 15.9953 240.679 16.7741 240.679C17.553 240.679 18.2209 240.886 18.7777 241.3C19.3345 241.711 19.7604 242.308 20.0554 243.09C20.3537 243.869 20.5028 244.81 20.5028 245.914C20.5028 247.024 20.3554 247.972 20.0604 248.758C19.7654 249.54 19.3395 250.138 18.7827 250.553C18.2259 250.964 17.5563 251.169 16.7741 251.169ZM16.7741 249.842C17.4635 249.842 18.0021 249.505 18.3899 248.832C18.781 248.16 18.9766 247.187 18.9766 245.914C18.9766 245.069 18.8871 244.355 18.7081 243.771C18.5324 243.185 18.2789 242.741 17.9474 242.439C17.6193 242.134 17.2282 241.982 16.7741 241.982C16.0881 241.982 15.5495 242.32 15.1584 242.996C14.7673 243.672 14.5701 244.645 14.5668 245.914C14.5668 246.763 14.6546 247.48 14.8303 248.067C15.0092 248.65 15.2628 249.093 15.5909 249.394C15.919 249.692 16.3134 249.842 16.7741 249.842ZM25.8113 251.169C25.0257 251.166 24.3546 250.959 23.7978 250.548C23.2409 250.137 22.815 249.538 22.5201 248.753C22.2251 247.967 22.0776 247.021 22.0776 245.914C22.0776 244.81 22.2251 243.867 22.5201 243.085C22.8184 242.303 23.2459 241.706 23.8027 241.295C24.3629 240.884 25.0324 240.679 25.8113 240.679C26.5901 240.679 27.258 240.886 27.8148 241.3C28.3716 241.711 28.7975 242.308 29.0925 243.09C29.3908 243.869 29.54 244.81 29.54 245.914C29.54 247.024 29.3925 247.972 29.0975 248.758C28.8025 249.54 28.3766 250.138 27.8198 250.553C27.263 250.964 26.5935 251.169 25.8113 251.169ZM25.8113 249.842C26.5007 249.842 27.0392 249.505 27.427 248.832C27.8181 248.16 28.0137 247.187 28.0137 245.914C28.0137 245.069 27.9242 244.355 27.7452 243.771C27.5695 243.185 27.316 242.741 26.9846 242.439C26.6564 242.134 26.2653 241.982 25.8113 241.982C25.1252 241.982 24.5866 242.32 24.1955 242.996C23.8044 243.672 23.6072 244.645 23.6039 245.914C23.6039 246.763 23.6917 247.48 23.8674 248.067C24.0463 248.65 24.2999 249.093 24.628 249.394C24.9561 249.692 25.3506 249.842 25.8113 249.842ZM34.8484 251.169C34.0629 251.166 33.3917 250.959 32.8349 250.548C32.2781 250.137 31.8522 249.538 31.5572 248.753C31.2622 247.967 31.1147 247.021 31.1147 245.914C31.1147 244.81 31.2622 243.867 31.5572 243.085C31.8555 242.303 32.283 241.706 32.8398 241.295C33.4 240.884 34.0695 240.679 34.8484 240.679C35.6272 240.679 36.2951 240.886 36.8519 241.3C37.4087 241.711 37.8346 242.308 38.1296 243.09C38.4279 243.869 38.5771 244.81 38.5771 245.914C38.5771 247.024 38.4296 247.972 38.1346 248.758C37.8396 249.54 37.4137 250.138 36.8569 250.553C36.3001 250.964 35.6306 251.169 34.8484 251.169ZM34.8484 249.842C35.5378 249.842 36.0763 249.505 36.4641 248.832C36.8552 248.16 37.0508 247.187 37.0508 245.914C37.0508 245.069 36.9613 244.355 36.7823 243.771C36.6067 243.185 36.3531 242.741 36.0217 242.439C35.6935 242.134 35.3024 241.982 34.8484 241.982C34.1623 241.982 33.6237 242.32 33.2326 242.996C32.8415 243.672 32.6443 244.645 32.641 245.914C32.641 246.763 32.7288 247.48 32.9045 248.067C33.0835 248.65 33.337 249.093 33.6651 249.394C33.9933 249.692 34.3877 249.842 34.8484 249.842Z" fill="#0A0A18"/>
    <path opacity="0.5" d="M4.84233 280.818V291H3.30114V282.359H3.24148L0.805398 283.95V282.479L3.34588 280.818H4.84233ZM8.96254 289.608L8.88796 290.15C8.83825 290.548 8.75373 290.962 8.63441 291.393C8.51841 291.827 8.39743 292.23 8.27148 292.601C8.14885 292.972 8.04776 293.267 7.96822 293.486H6.91424C6.95733 293.28 7.01699 293.002 7.09322 292.651C7.16945 292.303 7.24402 291.913 7.31694 291.482C7.38986 291.051 7.44454 290.612 7.481 290.165L7.53072 289.608H8.96254ZM14.2386 291.139C13.6155 291.139 13.0554 291.02 12.5582 290.781C12.0644 290.539 11.67 290.208 11.375 289.787C11.08 289.366 10.9226 288.885 10.9027 288.345H12.3942C12.4306 288.783 12.6245 289.142 12.9759 289.424C13.3272 289.706 13.7481 289.847 14.2386 289.847C14.6297 289.847 14.9761 289.757 15.2777 289.578C15.5826 289.396 15.8213 289.146 15.9936 288.827C16.1693 288.509 16.2571 288.146 16.2571 287.739C16.2571 287.324 16.1676 286.955 15.9886 286.63C15.8097 286.305 15.5627 286.05 15.2479 285.864C14.9363 285.679 14.5784 285.584 14.174 285.581C13.8658 285.581 13.5559 285.634 13.2443 285.74C12.9328 285.846 12.6809 285.985 12.4886 286.158L11.0817 285.949L11.6534 280.818H17.2514V282.136H12.9311L12.608 284.984H12.6676C12.8665 284.792 13.13 284.631 13.4581 284.502C13.7895 284.373 14.1442 284.308 14.522 284.308C15.1418 284.308 15.6937 284.456 16.1776 284.751C16.6648 285.046 17.0476 285.448 17.326 285.959C17.6077 286.466 17.7469 287.049 17.7436 287.709C17.7469 288.368 17.5978 288.957 17.2962 289.474C16.9979 289.991 16.5836 290.398 16.0533 290.697C15.5263 290.992 14.9214 291.139 14.2386 291.139ZM23.1042 291.169C22.3187 291.166 21.6475 290.959 21.0907 290.548C20.5339 290.137 20.108 289.538 19.813 288.753C19.5181 287.967 19.3706 287.021 19.3706 285.914C19.3706 284.81 19.5181 283.867 19.813 283.085C20.1113 282.303 20.5389 281.706 21.0957 281.295C21.6558 280.884 22.3253 280.679 23.1042 280.679C23.8831 280.679 24.551 280.886 25.1078 281.3C25.6646 281.711 26.0905 282.308 26.3855 283.09C26.6838 283.869 26.8329 284.81 26.8329 285.914C26.8329 287.024 26.6854 287.972 26.3904 288.758C26.0955 289.54 25.6696 290.138 25.1127 290.553C24.5559 290.964 23.8864 291.169 23.1042 291.169ZM23.1042 289.842C23.7936 289.842 24.3322 289.505 24.72 288.832C25.1111 288.16 25.3066 287.187 25.3066 285.914C25.3066 285.069 25.2172 284.355 25.0382 283.771C24.8625 283.185 24.609 282.741 24.2775 282.439C23.9494 282.134 23.5583 281.982 23.1042 281.982C22.4181 281.982 21.8796 282.32 21.4885 282.996C21.0974 283.672 20.9002 284.645 20.8968 285.914C20.8968 286.763 20.9847 287.48 21.1603 288.067C21.3393 288.65 21.5929 289.093 21.921 289.394C22.2491 289.692 22.6435 289.842 23.1042 289.842ZM32.1413 291.169C31.3558 291.166 30.6847 290.959 30.1278 290.548C29.571 290.137 29.1451 289.538 28.8501 288.753C28.5552 287.967 28.4077 287.021 28.4077 285.914C28.4077 284.81 28.5552 283.867 28.8501 283.085C29.1484 282.303 29.576 281.706 30.1328 281.295C30.6929 280.884 31.3625 280.679 32.1413 280.679C32.9202 280.679 33.5881 280.886 34.1449 281.3C34.7017 281.711 35.1276 282.308 35.4226 283.09C35.7209 283.869 35.87 284.81 35.87 285.914C35.87 287.024 35.7225 287.972 35.4276 288.758C35.1326 289.54 34.7067 290.138 34.1499 290.553C33.593 290.964 32.9235 291.169 32.1413 291.169ZM32.1413 289.842C32.8307 289.842 33.3693 289.505 33.7571 288.832C34.1482 288.16 34.3438 287.187 34.3438 285.914C34.3438 285.069 34.2543 284.355 34.0753 283.771C33.8996 283.185 33.6461 282.741 33.3146 282.439C32.9865 282.134 32.5954 281.982 32.1413 281.982C31.4553 281.982 30.9167 282.32 30.5256 282.996C30.1345 283.672 29.9373 284.645 29.9339 285.914C29.9339 286.763 30.0218 287.48 30.1974 288.067C30.3764 288.65 30.63 289.093 30.9581 289.394C31.2862 289.692 31.6806 289.842 32.1413 289.842Z" fill="#0A0A18"/>
    <path opacity="0.5" d="M4.84233 320.818V331H3.30114V322.359H3.24148L0.805398 323.95V322.479L3.34588 320.818H4.84233ZM8.96254 329.608L8.88796 330.15C8.83825 330.548 8.75373 330.962 8.63441 331.393C8.51841 331.827 8.39743 332.23 8.27148 332.601C8.14885 332.972 8.04776 333.267 7.96822 333.486H6.91424C6.95733 333.28 7.01699 333.002 7.09322 332.651C7.16945 332.303 7.24402 331.913 7.31694 331.482C7.38986 331.051 7.44454 330.612 7.481 330.165L7.53072 329.608H8.96254ZM14.2175 331.169C13.432 331.166 12.7608 330.959 12.204 330.548C11.6472 330.137 11.2213 329.538 10.9263 328.753C10.6313 327.967 10.4838 327.021 10.4838 325.914C10.4838 324.81 10.6313 323.867 10.9263 323.085C11.2246 322.303 11.6522 321.706 12.209 321.295C12.7691 320.884 13.4386 320.679 14.2175 320.679C14.9964 320.679 15.6642 320.886 16.2211 321.3C16.7779 321.711 17.2038 322.308 17.4988 323.09C17.7971 323.869 17.9462 324.81 17.9462 325.914C17.9462 327.024 17.7987 327.972 17.5037 328.758C17.2087 329.54 16.7828 330.138 16.226 330.553C15.6692 330.964 14.9997 331.169 14.2175 331.169ZM14.2175 329.842C14.9069 329.842 15.4455 329.505 15.8333 328.832C16.2244 328.16 16.4199 327.187 16.4199 325.914C16.4199 325.069 16.3304 324.355 16.1515 323.771C15.9758 323.185 15.7222 322.741 15.3908 322.439C15.0627 322.134 14.6716 321.982 14.2175 321.982C13.5314 321.982 12.9928 322.32 12.6017 322.996C12.2106 323.672 12.0134 324.645 12.0101 325.914C12.0101 326.763 12.098 327.48 12.2736 328.067C12.4526 328.65 12.7061 329.093 13.0343 329.394C13.3624 329.692 13.7568 329.842 14.2175 329.842ZM23.2546 331.169C22.4691 331.166 21.7979 330.959 21.2411 330.548C20.6843 330.137 20.2584 329.538 19.9634 328.753C19.6684 327.967 19.521 327.021 19.521 325.914C19.521 324.81 19.6684 323.867 19.9634 323.085C20.2617 322.303 20.6893 321.706 21.2461 321.295C21.8062 320.884 22.4757 320.679 23.2546 320.679C24.0335 320.679 24.7013 320.886 25.2582 321.3C25.815 321.711 26.2409 322.308 26.5359 323.09C26.8342 323.869 26.9833 324.81 26.9833 325.914C26.9833 327.024 26.8358 327.972 26.5408 328.758C26.2459 329.54 25.82 330.138 25.2631 330.553C24.7063 330.964 24.0368 331.169 23.2546 331.169ZM23.2546 329.842C23.944 329.842 24.4826 329.505 24.8704 328.832C25.2615 328.16 25.457 327.187 25.457 325.914C25.457 325.069 25.3675 324.355 25.1886 323.771C25.0129 323.185 24.7594 322.741 24.4279 322.439C24.0998 322.134 23.7087 321.982 23.2546 321.982C22.5685 321.982 22.0299 322.32 21.6388 322.996C21.2478 323.672 21.0505 324.645 21.0472 325.914C21.0472 326.763 21.1351 327.48 21.3107 328.067C21.4897 328.65 21.7433 329.093 22.0714 329.394C22.3995 329.692 22.7939 329.842 23.2546 329.842ZM32.2917 331.169C31.5062 331.166 30.835 330.959 30.2782 330.548C29.7214 330.137 29.2955 329.538 29.0005 328.753C28.7056 327.967 28.5581 327.021 28.5581 325.914C28.5581 324.81 28.7056 323.867 29.0005 323.085C29.2988 322.303 29.7264 321.706 30.2832 321.295C30.8433 320.884 31.5128 320.679 32.2917 320.679C33.0706 320.679 33.7385 320.886 34.2953 321.3C34.8521 321.711 35.278 322.308 35.573 323.09C35.8713 323.869 36.0204 324.81 36.0204 325.914C36.0204 327.024 35.8729 327.972 35.5779 328.758C35.283 329.54 34.8571 330.138 34.3002 330.553C33.7434 330.964 33.0739 331.169 32.2917 331.169ZM32.2917 329.842C32.9811 329.842 33.5197 329.505 33.9075 328.832C34.2986 328.16 34.4941 327.187 34.4941 325.914C34.4941 325.069 34.4047 324.355 34.2257 323.771C34.05 323.185 33.7965 322.741 33.465 322.439C33.1369 322.134 32.7458 321.982 32.2917 321.982C31.6056 321.982 31.0671 322.32 30.676 322.996C30.2849 323.672 30.0877 324.645 30.0843 325.914C30.0843 326.763 30.1722 327.48 30.3478 328.067C30.5268 328.65 30.7804 329.093 31.1085 329.394C31.4366 329.692 31.831 329.842 32.2917 329.842Z" fill="#0A0A18"/>
    <path opacity="0.5" d="M4.3402 371.139C3.71709 371.139 3.15696 371.02 2.6598 370.781C2.16596 370.539 1.77154 370.208 1.47656 369.787C1.18158 369.366 1.02415 368.885 1.00426 368.345H2.49574C2.5322 368.783 2.72609 369.142 3.07741 369.424C3.42874 369.706 3.84967 369.847 4.3402 369.847C4.7313 369.847 5.07765 369.757 5.37926 369.578C5.68419 369.396 5.92282 369.146 6.09517 368.827C6.27083 368.509 6.35866 368.146 6.35866 367.739C6.35866 367.324 6.26918 366.955 6.0902 366.63C5.91122 366.305 5.6643 366.05 5.34943 365.864C5.03788 365.679 4.67992 365.584 4.27557 365.581C3.96733 365.581 3.65743 365.634 3.34588 365.74C3.03433 365.846 2.78243 365.985 2.5902 366.158L1.18324 365.949L1.75497 360.818H7.35298V362.136H3.03267L2.70952 364.984H2.76918C2.96804 364.792 3.23153 364.631 3.55966 364.502C3.8911 364.373 4.24574 364.308 4.62358 364.308C5.24337 364.308 5.79522 364.456 6.27912 364.751C6.76634 365.046 7.14915 365.448 7.42756 365.959C7.70928 366.466 7.84848 367.049 7.84517 367.709C7.84848 368.368 7.69934 368.957 7.39773 369.474C7.09943 369.991 6.68513 370.398 6.15483 370.697C5.62784 370.992 5.02296 371.139 4.3402 371.139ZM13.2058 371.169C12.4203 371.166 11.7491 370.959 11.1923 370.548C10.6355 370.137 10.2096 369.538 9.9146 368.753C9.61961 367.967 9.47212 367.021 9.47212 365.914C9.47212 364.81 9.61961 363.867 9.9146 363.085C10.2129 362.303 10.6404 361.706 11.1973 361.295C11.7574 360.884 12.4269 360.679 13.2058 360.679C13.9847 360.679 14.6525 360.886 15.2093 361.3C15.7662 361.711 16.1921 362.308 16.487 363.09C16.7853 363.869 16.9345 364.81 16.9345 365.914C16.9345 367.024 16.787 367.972 16.492 368.758C16.197 369.54 15.7711 370.138 15.2143 370.553C14.6575 370.964 13.988 371.169 13.2058 371.169ZM13.2058 369.842C13.8952 369.842 14.4338 369.505 14.8216 368.832C15.2127 368.16 15.4082 367.187 15.4082 365.914C15.4082 365.069 15.3187 364.355 15.1397 363.771C14.9641 363.185 14.7105 362.741 14.3791 362.439C14.051 362.134 13.6599 361.982 13.2058 361.982C12.5197 361.982 11.9811 362.32 11.59 362.996C11.1989 363.672 11.0017 364.645 10.9984 365.914C10.9984 366.763 11.0862 367.48 11.2619 368.067C11.4409 368.65 11.6944 369.093 12.0225 369.394C12.3507 369.692 12.7451 369.842 13.2058 369.842ZM22.2429 371.169C21.4574 371.166 20.7862 370.959 20.2294 370.548C19.6726 370.137 19.2467 369.538 18.9517 368.753C18.6567 367.967 18.5092 367.021 18.5092 365.914C18.5092 364.81 18.6567 363.867 18.9517 363.085C19.25 362.303 19.6776 361.706 20.2344 361.295C20.7945 360.884 21.464 360.679 22.2429 360.679C23.0218 360.679 23.6896 360.886 24.2464 361.3C24.8033 361.711 25.2292 362.308 25.5241 363.09C25.8224 363.869 25.9716 364.81 25.9716 365.914C25.9716 367.024 25.8241 367.972 25.5291 368.758C25.2341 369.54 24.8082 370.138 24.2514 370.553C23.6946 370.964 23.0251 371.169 22.2429 371.169ZM22.2429 369.842C22.9323 369.842 23.4709 369.505 23.8587 368.832C24.2498 368.16 24.4453 367.187 24.4453 365.914C24.4453 365.069 24.3558 364.355 24.1768 363.771C24.0012 363.185 23.7476 362.741 23.4162 362.439C23.0881 362.134 22.697 361.982 22.2429 361.982C21.5568 361.982 21.0182 362.32 20.6271 362.996C20.236 363.672 20.0388 364.645 20.0355 365.914C20.0355 366.763 20.1233 367.48 20.299 368.067C20.478 368.65 20.7315 369.093 21.0597 369.394C21.3878 369.692 21.7822 369.842 22.2429 369.842Z" fill="#0A0A18"/>
    <path opacity="0.5" d="M56.8423 381.818V392H55.3011V383.359H55.2415L52.8054 384.95V383.479L55.3459 381.818H56.8423Z" fill="#0A0A18"/>
    <path opacity="0.5" d="M253.979 392V390.886L257.425 387.317C257.793 386.929 258.096 386.589 258.335 386.298C258.576 386.003 258.757 385.723 258.876 385.457C258.996 385.192 259.055 384.911 259.055 384.612C259.055 384.274 258.976 383.982 258.817 383.737C258.658 383.489 258.441 383.298 258.165 383.165C257.89 383.03 257.58 382.962 257.236 382.962C256.871 382.962 256.553 383.036 256.281 383.185C256.009 383.335 255.801 383.545 255.655 383.817C255.509 384.089 255.436 384.407 255.436 384.771H253.969C253.969 384.152 254.112 383.61 254.397 383.146C254.682 382.682 255.073 382.322 255.57 382.067C256.067 381.808 256.633 381.679 257.266 381.679C257.905 381.679 258.469 381.807 258.956 382.062C259.446 382.314 259.829 382.658 260.104 383.096C260.379 383.53 260.517 384.021 260.517 384.567C260.517 384.945 260.446 385.315 260.303 385.676C260.164 386.037 259.92 386.44 259.572 386.884C259.224 387.325 258.741 387.86 258.121 388.49L256.097 390.608V390.683H260.681V392H253.979ZM265.926 392.139C265.303 392.139 264.743 392.02 264.246 391.781C263.752 391.539 263.357 391.208 263.062 390.787C262.768 390.366 262.61 389.885 262.59 389.345H264.082C264.118 389.783 264.312 390.142 264.663 390.424C265.015 390.706 265.436 390.847 265.926 390.847C266.317 390.847 266.664 390.757 266.965 390.578C267.27 390.396 267.509 390.146 267.681 389.827C267.857 389.509 267.945 389.146 267.945 388.739C267.945 388.324 267.855 387.955 267.676 387.63C267.497 387.305 267.25 387.05 266.935 386.864C266.624 386.679 266.266 386.584 265.862 386.581C265.553 386.581 265.243 386.634 264.932 386.74C264.62 386.846 264.368 386.985 264.176 387.158L262.769 386.949L263.341 381.818H268.939V383.136H264.619L264.295 385.984H264.355C264.554 385.792 264.817 385.631 265.146 385.502C265.477 385.373 265.832 385.308 266.21 385.308C266.829 385.308 267.381 385.456 267.865 385.751C268.352 386.046 268.735 386.448 269.013 386.959C269.295 387.466 269.434 388.049 269.431 388.709C269.434 389.368 269.285 389.957 268.984 390.474C268.685 390.991 268.271 391.398 267.741 391.697C267.214 391.992 266.609 392.139 265.926 392.139Z" fill="#0A0A18"/>
    <path opacity="0.5" d="M90.3402 392.139C89.7171 392.139 89.157 392.02 88.6598 391.781C88.166 391.539 87.7715 391.208 87.4766 390.787C87.1816 390.366 87.0241 389.885 87.0043 389.345H88.4957C88.5322 389.783 88.7261 390.142 89.0774 390.424C89.4287 390.706 89.8497 390.847 90.3402 390.847C90.7313 390.847 91.0777 390.757 91.3793 390.578C91.6842 390.396 91.9228 390.146 92.0952 389.827C92.2708 389.509 92.3587 389.146 92.3587 388.739C92.3587 388.324 92.2692 387.955 92.0902 387.63C91.9112 387.305 91.6643 387.05 91.3494 386.864C91.0379 386.679 90.6799 386.584 90.2756 386.581C89.9673 386.581 89.6574 386.634 89.3459 386.74C89.0343 386.846 88.7824 386.985 88.5902 387.158L87.1832 386.949L87.755 381.818H93.353V383.136H89.0327L88.7095 385.984H88.7692C88.968 385.792 89.2315 385.631 89.5597 385.502C89.8911 385.373 90.2457 385.308 90.6236 385.308C91.2434 385.308 91.7952 385.456 92.2791 385.751C92.7663 386.046 93.1491 386.448 93.4276 386.959C93.7093 387.466 93.8485 388.049 93.8452 388.709C93.8485 389.368 93.6993 389.957 93.3977 390.474C93.0994 390.991 92.6851 391.398 92.1548 391.697C91.6278 391.992 91.023 392.139 90.3402 392.139Z" fill="#0A0A18"/>
    <path opacity="0.5" d="M302.524 392.139C301.841 392.139 301.232 392.022 300.695 391.786C300.161 391.551 299.738 391.224 299.427 390.807C299.119 390.386 298.953 389.899 298.93 389.345H300.491C300.511 389.647 300.612 389.909 300.794 390.131C300.98 390.349 301.222 390.518 301.52 390.638C301.818 390.757 302.15 390.817 302.514 390.817C302.915 390.817 303.27 390.747 303.578 390.608C303.89 390.469 304.133 390.275 304.309 390.026C304.485 389.774 304.572 389.484 304.572 389.156C304.572 388.815 304.485 388.515 304.309 388.256C304.137 387.995 303.883 387.789 303.548 387.64C303.217 387.491 302.816 387.416 302.345 387.416H301.485V386.163H302.345C302.723 386.163 303.054 386.095 303.339 385.96C303.628 385.824 303.853 385.635 304.016 385.393C304.178 385.147 304.259 384.861 304.259 384.533C304.259 384.218 304.188 383.944 304.045 383.712C303.906 383.477 303.707 383.293 303.449 383.161C303.194 383.028 302.892 382.962 302.544 382.962C302.213 382.962 301.903 383.023 301.614 383.146C301.329 383.265 301.097 383.437 300.918 383.663C300.739 383.885 300.643 384.152 300.63 384.463H299.143C299.16 383.913 299.322 383.429 299.631 383.011C299.942 382.594 300.353 382.267 300.864 382.032C301.374 381.797 301.941 381.679 302.564 381.679C303.217 381.679 303.78 381.807 304.254 382.062C304.732 382.314 305.099 382.65 305.358 383.071C305.62 383.492 305.749 383.953 305.746 384.453C305.749 385.023 305.59 385.507 305.268 385.905C304.95 386.303 304.526 386.569 303.996 386.705V386.785C304.672 386.888 305.196 387.156 305.567 387.59C305.941 388.024 306.127 388.563 306.124 389.206C306.127 389.766 305.971 390.268 305.656 390.712C305.345 391.156 304.919 391.506 304.379 391.761C303.838 392.013 303.22 392.139 302.524 392.139ZM311.548 392.169C310.762 392.166 310.091 391.959 309.534 391.548C308.977 391.137 308.551 390.538 308.256 389.753C307.961 388.967 307.814 388.021 307.814 386.914C307.814 385.81 307.961 384.867 308.256 384.085C308.555 383.303 308.982 382.706 309.539 382.295C310.099 381.884 310.769 381.679 311.548 381.679C312.326 381.679 312.994 381.886 313.551 382.3C314.108 382.711 314.534 383.308 314.829 384.09C315.127 384.869 315.276 385.81 315.276 386.914C315.276 388.024 315.129 388.972 314.834 389.758C314.539 390.54 314.113 391.138 313.556 391.553C312.999 391.964 312.33 392.169 311.548 392.169ZM311.548 390.842C312.237 390.842 312.776 390.505 313.163 389.832C313.554 389.16 313.75 388.187 313.75 386.914C313.75 386.069 313.661 385.355 313.482 384.771C313.306 384.185 313.052 383.741 312.721 383.439C312.393 383.134 312.002 382.982 311.548 382.982C310.862 382.982 310.323 383.32 309.932 383.996C309.541 384.672 309.344 385.645 309.34 386.914C309.34 387.763 309.428 388.48 309.604 389.067C309.783 389.65 310.036 390.093 310.364 390.394C310.692 390.692 311.087 390.842 311.548 390.842Z" fill="#0A0A18"/>
    <path opacity="0.5" d="M126.842 381.818V392H125.301V383.359H125.241L122.805 384.95V383.479L125.346 381.818H126.842ZM133.141 392.169C132.356 392.166 131.685 391.959 131.128 391.548C130.571 391.137 130.145 390.538 129.85 389.753C129.555 388.967 129.408 388.021 129.408 386.914C129.408 385.81 129.555 384.867 129.85 384.085C130.148 383.303 130.576 382.706 131.133 382.295C131.693 381.884 132.362 381.679 133.141 381.679C133.92 381.679 134.588 381.886 135.145 382.3C135.702 382.711 136.128 383.308 136.423 384.09C136.721 384.869 136.87 385.81 136.87 386.914C136.87 388.024 136.723 388.972 136.428 389.758C136.133 390.54 135.707 391.138 135.15 391.553C134.593 391.964 133.924 392.169 133.141 392.169ZM133.141 390.842C133.831 390.842 134.369 390.505 134.757 389.832C135.148 389.16 135.344 388.187 135.344 386.914C135.344 386.069 135.254 385.355 135.075 384.771C134.9 384.185 134.646 383.741 134.315 383.439C133.987 383.134 133.595 382.982 133.141 382.982C132.455 382.982 131.917 383.32 131.526 383.996C131.134 384.672 130.937 385.645 130.934 386.914C130.934 387.763 131.022 388.48 131.197 389.067C131.376 389.65 131.63 390.093 131.958 390.394C132.286 390.692 132.681 390.842 133.141 390.842Z" fill="#0A0A18"/>
    <path opacity="0.5" d="M169.842 381.818V392H168.301V383.359H168.241L165.805 384.95V383.479L168.346 381.818H169.842ZM175.957 392.139C175.334 392.139 174.774 392.02 174.277 391.781C173.783 391.539 173.389 391.208 173.094 390.787C172.799 390.366 172.641 389.885 172.621 389.345H174.113C174.149 389.783 174.343 390.142 174.695 390.424C175.046 390.706 175.467 390.847 175.957 390.847C176.348 390.847 176.695 390.757 176.996 390.578C177.301 390.396 177.54 390.146 177.712 389.827C177.888 389.509 177.976 389.146 177.976 388.739C177.976 388.324 177.886 387.955 177.707 387.63C177.528 387.305 177.281 387.05 176.967 386.864C176.655 386.679 176.297 386.584 175.893 386.581C175.585 386.581 175.275 386.634 174.963 386.74C174.652 386.846 174.4 386.985 174.207 387.158L172.8 386.949L173.372 381.818H178.97V383.136H174.65L174.327 385.984H174.386C174.585 385.792 174.849 385.631 175.177 385.502C175.508 385.373 175.863 385.308 176.241 385.308C176.861 385.308 177.412 385.456 177.896 385.751C178.384 386.046 178.766 386.448 179.045 386.959C179.326 387.466 179.466 388.049 179.462 388.709C179.466 389.368 179.317 389.957 179.015 390.474C178.717 390.991 178.302 391.398 177.772 391.697C177.245 391.992 176.64 392.139 175.957 392.139Z" fill="#0A0A18"/>
    <path opacity="0.5" d="M208.979 392V390.886L212.425 387.317C212.793 386.929 213.096 386.589 213.335 386.298C213.576 386.003 213.757 385.723 213.876 385.457C213.996 385.192 214.055 384.911 214.055 384.612C214.055 384.274 213.976 383.982 213.817 383.737C213.658 383.489 213.441 383.298 213.165 383.165C212.89 383.03 212.58 382.962 212.236 382.962C211.871 382.962 211.553 383.036 211.281 383.185C211.009 383.335 210.801 383.545 210.655 383.817C210.509 384.089 210.436 384.407 210.436 384.771H208.969C208.969 384.152 209.112 383.61 209.397 383.146C209.682 382.682 210.073 382.322 210.57 382.067C211.067 381.808 211.633 381.679 212.266 381.679C212.905 381.679 213.469 381.807 213.956 382.062C214.446 382.314 214.829 382.658 215.104 383.096C215.379 383.53 215.517 384.021 215.517 384.567C215.517 384.945 215.446 385.315 215.303 385.676C215.164 386.037 214.92 386.44 214.572 386.884C214.224 387.325 213.741 387.86 213.121 388.49L211.097 390.608V390.683H215.681V392H208.979ZM221.11 392.169C220.325 392.166 219.653 391.959 219.097 391.548C218.54 391.137 218.114 390.538 217.819 389.753C217.524 388.967 217.376 388.021 217.376 386.914C217.376 385.81 217.524 384.867 217.819 384.085C218.117 383.303 218.545 382.706 219.102 382.295C219.662 381.884 220.331 381.679 221.11 381.679C221.889 381.679 222.557 381.886 223.114 382.3C223.67 382.711 224.096 383.308 224.391 384.09C224.69 384.869 224.839 385.81 224.839 386.914C224.839 388.024 224.691 388.972 224.396 389.758C224.101 390.54 223.675 391.138 223.119 391.553C222.562 391.964 221.892 392.169 221.11 392.169ZM221.11 390.842C221.799 390.842 222.338 390.505 222.726 389.832C223.117 389.16 223.312 388.187 223.312 386.914C223.312 386.069 223.223 385.355 223.044 384.771C222.868 384.185 222.615 383.741 222.283 383.439C221.955 383.134 221.564 382.982 221.11 382.982C220.424 382.982 219.885 383.32 219.494 383.996C219.103 384.672 218.906 385.645 218.903 386.914C218.903 387.763 218.991 388.48 219.166 389.067C219.345 389.65 219.599 390.093 219.927 390.394C220.255 390.692 220.649 390.842 221.11 390.842Z" fill="#0A0A18"/>
    <rect x="52" y="5" width="274" height="1" fill="#EBEBEB"/>
    <rect x="52" y="45" width="274" height="1" fill="#EBEBEB"/>
    <rect x="52" y="85" width="274" height="1" fill="#EBEBEB"/>
    <rect x="52" y="125" width="274" height="1" fill="#EBEBEB"/>
    <rect x="52" y="165" width="274" height="1" fill="#EBEBEB"/>
    <rect x="52" y="205" width="274" height="1" fill="#EBEBEB"/>
    <rect x="52" y="245" width="274" height="1" fill="#EBEBEB"/>
    <rect x="52" y="285" width="274" height="1" fill="#EBEBEB"/>
    <rect x="52" y="325" width="274" height="1" fill="#EBEBEB"/>
    <rect x="52" y="365" width="274" height="1" fill="#EBEBEB"/>
    <path d="M60.0157 259.5L51.5 255.5V291H326V175L315.592 199.5L305.184 229L296.878 208.5L286.681 224.5L277.429 237L266.811 229L259.136 214.5L249.254 237L240.002 245L229.594 261L221.183 249.5L211.721 245L202.785 263.5L193.218 268L184.702 261L174.61 263.5L165.148 252L156.106 255.5L148.537 268H138.129L130.454 255.5L121.308 263.5L113.107 255.5L106.064 239.5L99.23 252H91.2399L82.8294 259.5L76.5214 252L67.6903 255.5L60.0157 259.5Z" fill="url(#paint0_linear_0_1)" fill-opacity="0.2"/>
    <path d="M51.5 255.5L60.0157 259.5L67.6903 255.5L76.5214 252L82.8294 259.5L91.2399 252H99.23L106.064 239.5L113.107 255.5L121.308 263.5L130.454 255.5L138.129 268H148.537L156.106 255.5L165.148 252L174.61 263.5L184.702 261L193.218 268L202.785 263.5L211.721 245L221.183 249.5L229.594 261L240.002 245L249.254 237L259.136 214.5L266.811 229L277.429 237L286.681 224.5L296.878 208.5L305.184 229L315.592 199.5L326 175" stroke="#D2D2D2" stroke-width="2"/>
    <path d="M60.9625 251L51.6057 268.5V291H325.685V241.5L315.908 257.5L306.236 261.5L296.984 237L286.681 255L277.43 241.5L266.811 251.5L257.665 234.5L248.834 202.5L239.792 212L230.856 171.5L220.763 195L211.407 171.5L202.365 118L193.849 89.5L187.226 48L176.818 130L165.569 182L157.894 150.5L148.643 195L139.706 212L130.77 218.5L121.519 238L113.318 229.5L105.959 238L98.81 264L90.1892 268.5L82.6197 254L75.681 261L67.2704 264L60.9625 251Z" fill="url(#paint1_linear_0_1)" fill-opacity="0.2"/>
    <path d="M51.6057 268.5L60.9625 251L67.2704 264L75.681 261L82.6197 254L90.1892 268.5L98.81 264L105.959 238L113.318 229.5L121.519 238L130.77 218.5L139.706 212L148.643 195L157.894 150.5L165.569 182L176.818 130L187.226 48L193.849 89.5L202.365 118L211.407 171.5L220.763 195L230.856 171.5L239.792 212L248.834 202.5L257.665 234.5L266.811 251.5L277.43 241.5L286.681 255L296.984 237L306.236 261.5L315.908 257.5L325.685 241.5" stroke="#38F8AC" stroke-width="2"/>
    <defs>
    <linearGradient id="paint0_linear_0_1" x1="188.75" y1="175" x2="188.75" y2="291" gradientUnits="userSpaceOnUse">
    <stop stop-color="#D2D2D2"/>
    <stop offset="1" stop-color="#D2D2D2" stop-opacity="0"/>
    </linearGradient>
    <linearGradient id="paint1_linear_0_1" x1="188.645" y1="48" x2="188.645" y2="291" gradientUnits="userSpaceOnUse">
    <stop stop-color="#38F8AC"/>
    <stop offset="1" stop-color="#38F8AC" stop-opacity="0"/>
    </linearGradient>
    </defs>
    </svg>
    