<svg width="11" height="11" viewBox="0 0 11 11" fill="none" xmlns="http://www.w3.org/2000/svg">
<g id="Clip path group">
<mask id="mask0_39_975" style="mask-type:luminance" maskUnits="userSpaceOnUse" x="0" y="0" width="11" height="11">
<g id="clip0_246_1849">
<path id="Vector" d="M0 11H11V0H0V11Z" fill="white"/>
</g>
</mask>
<g mask="url(#mask0_39_975)">
<g id="Group">
<path id="Vector_2" fill-rule="evenodd" clip-rule="evenodd" d="M10.8658 8.5741C11.0447 8.39511 11.0447 8.10491 10.8658 7.92592L6.51159 3.57176C6.33261 3.39278 6.04239 3.39278 5.86341 3.57176L3.89583 5.53934L0.782426 2.42592C0.603433 2.24694 0.313233 2.24694 0.134243 2.42592C-0.0447476 2.6049 -0.0447476 2.89512 0.134243 3.0741L3.57174 6.5116C3.75073 6.69059 4.04093 6.69059 4.21993 6.5116L6.1875 4.54402L10.2176 8.5741C10.3966 8.75309 10.6868 8.75309 10.8658 8.5741Z" fill="#FF004D"/>
<path id="Vector_3" fill-rule="evenodd" clip-rule="evenodd" d="M7.33325 8.25001C7.33325 8.50314 7.53845 8.70834 7.79159 8.70834H10.5416C10.7947 8.70834 10.9999 8.50314 10.9999 8.25001V5.50001C10.9999 5.24687 10.7947 5.04168 10.5416 5.04168C10.2884 5.04168 10.0833 5.24687 10.0833 5.50001V7.79168H7.79159C7.53845 7.79168 7.33325 7.99688 7.33325 8.25001Z" fill="#FF004D"/>
</g>
</g>
</g>
</svg>
