<svg width="20" height="20" viewBox="0 0 20 20" fill="none" xmlns="http://www.w3.org/2000/svg">
<path id="Icon" d="M15.1708 13.6C15.8826 12.5795 16.3 11.3385 16.3 10C16.3 9.5366 16.25 9.08488 16.155 8.64996M4.82922 13.6C4.11743 12.5795 3.7 11.3385 3.7 10C3.7 6.52061 6.52061 3.7 10 3.7C10.3799 3.7 10.752 3.73363 11.1134 3.79807M14.0499 5.95L9.99992 10M19 10C19 14.9706 14.9706 19 10 19C5.02944 19 1 14.9706 1 10C1 5.02944 5.02944 1 10 1C14.9706 1 19 5.02944 19 10ZM10.9 10C10.9 10.4971 10.4971 10.9 10 10.9C9.50294 10.9 9.1 10.4971 9.1 10C9.1 9.50294 9.50294 9.1 10 9.1C10.4971 9.1 10.9 9.50294 10.9 10Z" stroke="#38F8AC" stroke-width="2" stroke-linecap="round" stroke-linejoin="round"/>
</svg>
