<svg width="12" height="13" viewBox="0 0 12 13" fill="none" xmlns="http://www.w3.org/2000/svg">
<path id="Icon" d="M9.125 5.27778V4.05556C9.125 2.36802 7.72589 1 6 1C4.27411 1 2.875 2.36802 2.875 4.05556V5.27778M6 8.02778V9.25M4 12H8C9.0501 12 9.57515 12 9.97623 11.8002C10.329 11.6244 10.6159 11.3439 10.7956 10.999C11 10.6068 11 10.0934 11 9.06667V8.21111C11 7.18435 11 6.67097 10.7956 6.27879C10.6159 5.93383 10.329 5.65337 9.97623 5.4776C9.57515 5.27778 9.0501 5.27778 8 5.27778H4C2.9499 5.27778 2.42485 5.27778 2.02377 5.4776C1.67096 5.65337 1.38413 5.93383 1.20436 6.27879C1 6.67097 1 7.18435 1 8.21111V9.06667C1 10.0934 1 10.6068 1.20436 10.999C1.38413 11.3439 1.67096 11.6244 2.02377 11.8002C2.42485 12 2.9499 12 4 12Z" stroke="#0FE38F" stroke-width="1.5" stroke-linecap="round" stroke-linejoin="round"/>
</svg>
