<svg width="10" height="12" viewBox="0 0 10 12" fill="none" xmlns="http://www.w3.org/2000/svg">
<path id="Solid" fill-rule="evenodd" clip-rule="evenodd" d="M2.47341 0.552601C2.4808 0.557321 2.4882 0.562058 2.49563 0.566808L9.0083 4.73185C9.19675 4.85234 9.37147 4.96406 9.50566 5.06787C9.64571 5.17622 9.81079 5.32646 9.90581 5.54625C10.0314 5.83675 10.0314 6.16325 9.90581 6.45375C9.81079 6.67354 9.64571 6.82378 9.50566 6.93213C9.37148 7.03594 9.19677 7.14765 9.00834 7.26813L2.47344 11.4474C2.2431 11.5947 2.03598 11.7272 1.86023 11.8186C1.68435 11.91 1.44295 12.0145 1.16119 11.9983C0.800784 11.9777 0.467853 11.8068 0.250033 11.5306C0.0797422 11.3146 0.0364566 11.064 0.0182046 10.8729C-3.42176e-05 10.6819 -1.74366e-05 10.4431 1.18382e-06 10.1776L2.3614e-06 1.84806C2.3614e-06 1.83949 1.77261e-06 1.83096 1.18382e-06 1.82244C-1.74366e-05 1.55688 -3.42176e-05 1.31808 0.0182046 1.12713C0.0364566 0.93603 0.0797422 0.68539 0.250033 0.469446C0.467853 0.19323 0.800784 0.0223048 1.16119 0.00166189C1.44295 -0.0144766 1.68435 0.0900039 1.86023 0.181436C2.03597 0.272802 2.24308 0.405276 2.47341 0.552601Z" fill="black"/>
</svg>
