<svg width="20" height="20" viewBox="0 0 20 20" fill="none" xmlns="http://www.w3.org/2000/svg">
<path id="Icon" d="M10 1C12.2512 3.46452 13.5305 6.66283 13.6 10C13.5305 13.3372 12.2512 16.5355 10 19M10 1C7.74885 3.46452 6.46952 6.66283 6.4 10C6.46952 13.3372 7.74885 16.5355 10 19M10 1C5.02944 1 1 5.02944 1 10C1 14.9706 5.02944 19 10 19M10 1C14.9706 1 19 5.02944 19 10C19 14.9706 14.9706 19 10 19M1.45002 7.3H18.55M1.45 12.7H18.55" stroke="#38F8AC" stroke-width="2" stroke-linecap="round" stroke-linejoin="round"/>
</svg>
