<svg width="18" height="18" viewBox="0 0 18 18" fill="none" xmlns="http://www.w3.org/2000/svg">
<g id="credit-card-check">
<g id="Solid">
<path fill-rule="evenodd" clip-rule="evenodd" d="M17.0303 11.4697C17.3232 11.7626 17.3232 12.2374 17.0303 12.5303L14.0303 15.5303C13.7374 15.8232 13.2626 15.8232 12.9697 15.5303L11.4697 14.0303C11.1768 13.7374 11.1768 13.2626 11.4697 12.9697C11.7626 12.6768 12.2374 12.6768 12.5303 12.9697L13.5 13.9393L15.9697 11.4697C16.2626 11.1768 16.7374 11.1768 17.0303 11.4697Z" fill="#6C6C74"/>
<path d="M3.8711 3L14.1289 3C14.5243 2.99999 14.8653 2.99998 15.1463 3.02293C15.4428 3.04716 15.7377 3.10064 16.0215 3.24524C16.4448 3.46095 16.7891 3.80516 17.0048 4.22853C17.1494 4.51231 17.2028 4.80722 17.2271 5.10373C17.25 5.38466 17.25 5.72572 17.25 6.12108C17.25 6.46842 16.9684 6.75 16.6211 6.75H1.37894C1.03159 6.75 0.750001 6.46841 0.750001 6.12106C0.749989 5.72573 0.749979 5.38464 0.77293 5.10373C0.797156 4.80722 0.850643 4.51231 0.995239 4.22852C1.21095 3.80516 1.55516 3.46095 1.97852 3.24524C2.26231 3.10064 2.55722 3.04716 2.85373 3.02293C3.13465 2.99998 3.47576 2.99999 3.8711 3Z" fill="#6C6C74"/>
<path d="M1.95 8.25C1.52996 8.25 1.31994 8.25 1.15951 8.33175C1.01839 8.40365 0.903651 8.51839 0.831746 8.65951C0.750001 8.81994 0.750001 9.02996 0.750001 9.45V11.8789C0.749989 12.2742 0.749979 12.6154 0.77293 12.8963C0.797156 13.1928 0.850643 13.4877 0.995238 13.7715C1.21095 14.1948 1.55516 14.5391 1.97852 14.7548C2.26231 14.8994 2.55722 14.9528 2.85373 14.9771C3.13461 15 3.47562 15 3.8709 15L8.97968 15C9.39268 15 9.59918 15 9.6846 14.9521C9.78679 14.8948 9.80635 14.8725 9.84967 14.7637C9.88588 14.6727 9.84715 14.3811 9.76969 13.7979C9.68062 13.1273 9.89373 12.4243 10.409 11.909C11.2572 11.0609 12.6139 11.0314 13.4974 11.8206L14.909 10.409C15.4338 9.88418 16.1534 9.67283 16.8351 9.77495C17.0418 9.80592 17.25 9.65901 17.25 9.45C17.25 9.02996 17.25 8.81994 17.1683 8.65951C17.0964 8.51839 16.9816 8.40365 16.8405 8.33175C16.6801 8.25 16.47 8.25 16.05 8.25H1.95Z" fill="#6C6C74"/>
</g>
</g>
</svg>
