<svg width="18" height="18" viewBox="0 0 18 18" fill="none" xmlns="http://www.w3.org/2000/svg">
<g id="rocket-02 1">
<path id="Vector" d="M11.4233 2.03823C12.9795 1.18234 14.7287 0.738819 16.5046 0.749834C16.9171 0.752392 17.25 1.08742 17.25 1.49982C17.25 3.60754 16.6587 7.2806 12.8607 10.0623C12.9246 10.3305 12.9973 10.6834 13.0476 11.0735C13.1024 11.4991 13.1333 11.9889 13.0885 12.4709C13.0443 12.9464 12.9215 13.4698 12.6241 13.916L12.6234 13.917C12.1141 14.6782 11.1538 15.1196 10.4829 15.3629C10.1224 15.4937 9.78937 15.5863 9.54697 15.6465C9.36435 15.6918 9.23032 15.7193 9.1695 15.7312C8.93835 15.7751 8.70285 15.7289 8.51932 15.5758C8.3487 15.4333 8.25 15.2224 8.25 15V11.5605L6.43954 9.75H3.00001C2.77765 9.75 2.56676 9.65137 2.42426 9.48067C2.28176 9.30997 2.22235 9.08482 2.26207 8.86605C2.28736 8.72737 2.31958 8.58975 2.35351 8.45303C2.41363 8.21063 2.50638 7.87763 2.63714 7.5171C2.88049 6.84622 3.3218 5.88584 4.08299 5.37664L4.08398 5.37598C4.53022 5.07848 5.05357 4.95571 5.52911 4.91152C6.01112 4.86671 6.50097 4.89757 6.9265 4.95241C7.32064 5.00321 7.67692 5.07691 7.9461 5.14131C8.85427 3.85958 10.0423 2.79774 11.4233 2.03823Z" fill="#6C6C74"/>
<path id="Vector_2" fill-rule="evenodd" clip-rule="evenodd" d="M4.50233 11.2412C3.91495 11.2231 3.34157 11.4224 2.89212 11.8009C2.49704 12.133 2.20694 12.5904 1.99208 13.0303C1.77294 13.4789 1.60641 13.9631 1.48202 14.398C1.35694 14.8353 1.27001 15.2386 1.21431 15.5319C1.18636 15.6791 1.16603 15.7999 1.15253 15.8851C1.14521 15.9313 1.13834 15.9776 1.1318 16.024L1.13162 16.0252C1.10066 16.2568 1.1794 16.4899 1.34464 16.6552C1.50989 16.8205 1.74336 16.8991 1.97499 16.8682C2.02164 16.8616 2.06824 16.8547 2.11477 16.8473C2.19992 16.8338 2.32073 16.8135 2.46792 16.7855C2.76128 16.7299 3.16458 16.6429 3.60185 16.5178C4.03674 16.3934 4.5209 16.2269 4.96953 16.0078C5.40926 15.793 5.86651 15.503 6.19852 15.1081C6.96429 14.2012 6.97572 12.7887 6.08441 11.9086L6.0753 11.8998C5.65006 11.494 5.0899 11.2594 4.50233 11.2412Z" fill="#6C6C74"/>
</g>
</svg>
