<svg width="18" height="18" viewBox="0 0 18 18" fill="none" xmlns="http://www.w3.org/2000/svg">
<g id="settings-02">
<path id="Solid" fill-rule="evenodd" clip-rule="evenodd" d="M7.30668 16.1656L6.8173 15.0812C6.64293 14.6941 6.34845 14.3716 5.97622 14.1599C5.60378 13.9482 5.17292 13.8581 4.74531 13.9023L3.5479 14.0279C3.19149 14.0648 2.83186 13.9992 2.51252 13.8389C2.19317 13.6787 1.92781 13.4307 1.74852 13.125C1.56917 12.8193 1.48373 12.4689 1.50256 12.1163C1.52138 11.7637 1.64367 11.4241 1.85458 11.1386L2.56354 10.1788C2.81637 9.83626 2.95252 9.42356 2.95244 9C2.95252 8.57644 2.81637 8.16374 2.56354 7.82117L1.85458 6.86142C1.64367 6.57595 1.52138 6.23631 1.50256 5.88371C1.48373 5.5311 1.56917 5.1807 1.74852 4.875C1.92763 4.56912 2.19297 4.321 2.51235 4.16074C2.83174 4.00047 3.19146 3.93494 3.5479 3.97208L4.74903 4.09767C5.17664 4.14191 5.6075 4.05175 5.97994 3.84008C6.35079 3.62781 6.64391 3.30532 6.8173 2.91883L7.30668 1.83442C7.45217 1.51162 7.68959 1.23734 7.99015 1.04485C8.29072 0.852368 8.64152 0.749942 9 0.75C9.35848 0.749942 9.70928 0.852368 10.0098 1.04485C10.3104 1.23734 10.5478 1.51162 10.6933 1.83442L11.1864 2.91883C11.3598 3.30532 11.6529 3.62781 12.0238 3.84008C12.3962 4.05175 12.8271 4.14191 13.2547 4.09767L14.4521 3.97208C14.8085 3.93494 15.1683 4.00047 15.4876 4.16074C15.807 4.321 16.0724 4.56912 16.2515 4.875C16.4308 5.1807 16.5163 5.5311 16.4974 5.88371C16.4786 6.23631 16.3563 6.57595 16.1454 6.86142L15.4365 7.82117C15.1836 8.16374 15.0475 8.57644 15.0476 9C15.0454 9.42472 15.1803 9.83913 15.4327 10.1834L16.1417 11.1432C16.3526 11.4286 16.4749 11.7683 16.4937 12.1209C16.5125 12.4735 16.4271 12.8239 16.2478 13.1296C16.0686 13.4355 15.8033 13.6836 15.4839 13.8438C15.1645 14.0041 14.8048 14.0696 14.4484 14.0325L13.251 13.9069C12.8234 13.8627 12.3925 13.9528 12.0201 14.1645C11.65 14.3756 11.3569 14.6964 11.1827 15.0812L10.6933 16.1656C10.5478 16.4884 10.3104 16.7627 10.0098 16.9551C9.70928 17.1476 9.35848 17.2501 9 17.25C8.64152 17.2501 8.29072 17.1476 7.99015 16.9551C7.68959 16.7627 7.45217 16.4884 7.30668 16.1656ZM11.25 9C11.25 10.2426 10.2426 11.25 9 11.25C7.75736 11.25 6.75 10.2426 6.75 9C6.75 7.75736 7.75736 6.75 9 6.75C10.2426 6.75 11.25 7.75736 11.25 9Z" fill="#6C6C74"/>
</g>
</svg>
