<svg width="18" height="18" viewBox="0 0 18 18" fill="none" xmlns="http://www.w3.org/2000/svg">
<g id="zap-fast 1">
<path id="Vector" fill-rule="evenodd" clip-rule="evenodd" d="M1.875 13.1251C1.875 12.7108 2.21079 12.3751 2.625 12.3751H6.75C7.16421 12.3751 7.5 12.7108 7.5 13.1251C7.5 13.5393 7.16421 13.8751 6.75 13.8751H2.625C2.21079 13.8751 1.875 13.5393 1.875 13.1251Z" fill="#6C6C74"/>
<path id="Vector_2" fill-rule="evenodd" clip-rule="evenodd" d="M0.75 9.00006C0.75 8.58584 1.08579 8.25006 1.5 8.25006H4.875C5.28921 8.25006 5.625 8.58584 5.625 9.00006C5.625 9.41429 5.28921 9.75006 4.875 9.75006H1.5C1.08579 9.75006 0.75 9.41429 0.75 9.00006Z" fill="#6C6C74"/>
<path id="Vector_3" fill-rule="evenodd" clip-rule="evenodd" d="M2.25 4.87506C2.25 4.46085 2.58579 4.12506 3 4.12506H6.75C7.16421 4.12506 7.5 4.46085 7.5 4.87506C7.5 5.28928 7.16421 5.62506 6.75 5.62506H3C2.58579 5.62506 2.25 5.28928 2.25 4.87506Z" fill="#6C6C74"/>
<path id="Vector_4" fill-rule="evenodd" clip-rule="evenodd" d="M13.0259 1.55257C13.3462 1.67918 13.5391 2.00774 13.4936 2.34919L12.8568 7.12506H15.7092C15.7179 7.12506 15.7265 7.12506 15.7351 7.12506C15.9007 7.12502 16.0723 7.12498 16.2141 7.13794C16.3535 7.15069 16.6071 7.18447 16.8339 7.35947C17.0983 7.56352 17.2584 7.87455 17.2707 8.20837C17.2813 8.49457 17.1614 8.72062 17.0907 8.84152C17.0189 8.96437 16.9191 9.10395 16.8228 9.23865C16.8178 9.2457 16.8128 9.25275 16.8078 9.25972L11.8605 16.186C11.6603 16.4663 11.2949 16.5742 10.9745 16.4476C10.6542 16.321 10.4613 15.9924 10.5068 15.6509L11.1435 10.8751H8.29114C8.28252 10.8751 8.27389 10.8751 8.26527 10.8751C8.09967 10.8751 7.92807 10.8751 7.78632 10.8622C7.64689 10.8494 7.39326 10.8157 7.16652 10.6406C6.9021 10.4365 6.74204 10.1255 6.72966 9.79177C6.71904 9.5055 6.83899 9.27945 6.90966 9.15862C6.9815 9.03577 7.08126 8.89612 7.17752 8.76142C7.18254 8.75445 7.18756 8.7474 7.19257 8.74042L12.1399 1.81414C12.3401 1.53383 12.7055 1.42595 13.0259 1.55257Z" fill="#6C6C74"/>
</g>
</svg>
