<svg width="16" height="17" viewBox="0 0 16 17" fill="none" xmlns="http://www.w3.org/2000/svg">
<path id="Vector" fill-rule="evenodd" clip-rule="evenodd" d="M7.60809 1.00233C7.86481 0.932818 8.13541 0.932818 8.39214 1.00233C8.69011 1.08302 8.94106 1.28001 9.14131 1.43723C10.8689 2.79352 12.6071 4.13609 14.3423 5.48264C14.6248 5.70186 14.8736 5.89498 15.059 6.14572C15.2218 6.36575 15.3431 6.61363 15.4168 6.87718C15.5009 7.1775 15.5006 7.49251 15.5002 7.85008C15.4982 9.69306 15.5001 11.536 15.5001 13.379C15.5001 13.7743 15.5001 14.1154 15.4772 14.3963C15.4529 14.6929 15.3995 14.9878 15.2549 15.2716C15.0392 15.6949 14.6949 16.0391 14.2716 16.2548C13.9878 16.3994 13.6929 16.4529 13.3964 16.4771C12.7952 16.5262 12.1855 16.4998 11.5827 16.5001C11.4934 16.5001 11.3867 16.5001 11.2928 16.4925C11.1838 16.4836 11.0278 16.4607 10.8644 16.3774C10.6527 16.2696 10.4806 16.0975 10.3727 15.8858C10.2894 15.7223 10.2666 15.5663 10.2577 15.4574C10.25 15.3634 10.25 15.2567 10.2501 15.1674L10.256 10.9702C10.2566 10.5496 10.2569 10.3393 10.1753 10.1787C10.1034 10.0374 9.98866 9.92241 9.84744 9.85041C9.68686 9.76851 9.47656 9.76851 9.05604 9.76851H6.95611C6.53664 9.76851 6.32687 9.76851 6.16655 9.85011C6.02553 9.92188 5.91082 10.0364 5.83884 10.1773C5.75701 10.3375 5.75671 10.5473 5.75611 10.9668L5.7501 15.1674C5.75014 15.2567 5.75018 15.3634 5.7425 15.4574C5.7336 15.5663 5.71077 15.7223 5.62749 15.8858C5.51963 16.0975 5.34753 16.2696 5.13584 16.3774C4.97238 16.4607 4.81638 16.4836 4.70748 16.4925C4.61349 16.5001 4.5068 16.5001 4.41747 16.5001C3.8147 16.4998 3.20497 16.5262 2.60383 16.4771C2.30732 16.4529 2.01241 16.3994 1.72863 16.2548C1.30526 16.0391 0.961055 15.6949 0.74534 15.2716C0.60074 14.9878 0.547257 14.6929 0.523032 14.3963C0.500075 14.1154 0.50009 13.7743 0.500105 13.3789C0.500105 11.536 0.50204 9.69298 0.500052 7.85008C0.499662 7.49251 0.499325 7.1775 0.583385 6.87718C0.657155 6.61363 0.778392 6.36575 0.941135 6.14572C1.12658 5.89499 1.37544 5.70186 1.65791 5.48265C3.39298 4.13615 5.13143 2.79349 6.85891 1.43723C7.05916 1.28001 7.31004 1.08302 7.60809 1.00233Z" fill="#6C6C74"/>
</svg>
