<svg width="18" height="18" viewBox="0 0 18 18" fill="none" xmlns="http://www.w3.org/2000/svg">
<g id="moon-01">
<path id="Solid" d="M6.8002 1.80907C6.92881 1.52469 6.86785 1.19039 6.64716 0.969692C6.42647 0.748998 6.09216 0.688047 5.80779 0.816654C2.8267 2.16482 0.75 5.16573 0.75 8.65329C0.75 13.4011 4.59889 17.25 9.34673 17.25C12.8343 17.25 15.8352 15.1733 17.1834 12.1922C17.312 11.9079 17.251 11.5736 17.0303 11.3529C16.8096 11.1322 16.4753 11.0712 16.191 11.1998C15.3011 11.6023 14.3128 11.8267 13.2701 11.8267C9.35068 11.8267 6.17337 8.64934 6.17337 4.72992C6.17337 3.68721 6.39777 2.69893 6.8002 1.80907Z" fill="#DBDBDB"/>
</g>
</svg>
