<svg xmlns="http://www.w3.org/2000/svg" width="12" height="12" viewBox="0 0 12 12" fill="none">
    <path d="M5.57574 0.175736C5.81005 -0.0585787 6.18995 -0.0585787 6.42426 0.175736L8.82426 2.57574C9.05858 2.81005 9.05858 3.18995 8.82426 3.42426C8.58995 3.65858 8.21005 3.65858 7.97574 3.42426L6.6 2.04853L6.6 7.8C6.6 8.13137 6.33137 8.4 6 8.4C5.66863 8.4 5.4 8.13137 5.4 7.8L5.4 2.04853L4.02426 3.42426C3.78995 3.65858 3.41005 3.65858 3.17574 3.42426C2.94142 3.18995 2.94142 2.81005 3.17574 2.57574L5.57574 0.175736Z" fill="#754FFE"/>
    <path d="M0.600001 5.4C0.931372 5.4 1.2 5.66863 1.2 6V8.52C1.2 9.03395 1.20047 9.38332 1.22253 9.65338C1.24402 9.91643 1.28298 10.0509 1.33079 10.1448C1.44584 10.3706 1.62942 10.5542 1.85521 10.6692C1.94905 10.717 2.08357 10.756 2.34662 10.7775C2.61668 10.7995 2.96605 10.8 3.48 10.8H8.52C9.03395 10.8 9.38332 10.7995 9.65338 10.7775C9.91643 10.756 10.0509 10.717 10.1448 10.6692C10.3706 10.5542 10.5542 10.3706 10.6692 10.1448C10.717 10.0509 10.756 9.91643 10.7775 9.65338C10.7995 9.38332 10.8 9.03395 10.8 8.52V6C10.8 5.66863 11.0686 5.4 11.4 5.4C11.7314 5.4 12 5.66863 12 6V8.5448C12 9.02777 12 9.42638 11.9735 9.7511C11.9459 10.0884 11.8868 10.3984 11.7384 10.6896C11.5083 11.1412 11.1412 11.5083 10.6896 11.7384C10.3984 11.8868 10.0884 11.9459 9.7511 11.9735C9.42638 12 9.02775 12 8.54477 12H3.45524C2.97225 12 2.57363 12 2.24891 11.9735C1.91165 11.9459 1.60162 11.8868 1.31042 11.7384C0.858835 11.5083 0.491681 11.1412 0.261585 10.6896C0.113211 10.3984 0.0540721 10.0884 0.0265169 9.7511C-1.32993e-05 9.42638 -7.1747e-06 9.02777 2.47166e-07 8.54479V6C2.47166e-07 5.66863 0.26863 5.4 0.600001 5.4Z" fill="#754FFE"/>
</svg>