<svg width="327" height="393" viewBox="0 0 327 393" fill="none" xmlns="http://www.w3.org/2000/svg">
    <path opacity="0.5" d="M4.84233 120.818V131H3.30114V122.359H3.24148L0.805398 123.95V122.479L3.34588 120.818H4.84233ZM8.96254 129.608L8.88796 130.15C8.83825 130.548 8.75373 130.962 8.63441 131.393C8.51841 131.827 8.39743 132.23 8.27148 132.601C8.14885 132.972 8.04776 133.267 7.96822 133.486H6.91424C6.95733 133.28 7.01699 133.002 7.09322 132.651C7.16945 132.303 7.24402 131.913 7.31694 131.482C7.38986 131.051 7.44454 130.612 7.481 130.165L7.53072 129.608H8.96254ZM11.0419 131V129.886L14.4872 126.317C14.8551 125.929 15.1584 125.589 15.397 125.298C15.639 125.003 15.8196 124.723 15.9389 124.457C16.0582 124.192 16.1179 123.911 16.1179 123.612C16.1179 123.274 16.0384 122.982 15.8793 122.737C15.7202 122.489 15.5031 122.298 15.228 122.165C14.9529 122.03 14.643 121.962 14.2983 121.962C13.9337 121.962 13.6155 122.036 13.3438 122.185C13.072 122.335 12.8632 122.545 12.7173 122.817C12.5715 123.089 12.4986 123.407 12.4986 123.771H11.032C11.032 123.152 11.1745 122.61 11.4595 122.146C11.7446 121.682 12.1357 121.322 12.6328 121.067C13.13 120.808 13.6951 120.679 14.3281 120.679C14.9678 120.679 15.5313 120.807 16.0185 121.062C16.509 121.314 16.8918 121.658 17.1669 122.096C17.442 122.53 17.5795 123.021 17.5795 123.567C17.5795 123.945 17.5083 124.315 17.3658 124.676C17.2266 125.037 16.983 125.44 16.6349 125.884C16.2869 126.325 15.803 126.86 15.1832 127.49L13.1598 129.608V129.683H17.7436V131H11.0419ZM23.1726 131.169C22.3871 131.166 21.7159 130.959 21.1591 130.548C20.6023 130.137 20.1764 129.538 19.8814 128.753C19.5864 127.967 19.4389 127.021 19.4389 125.914C19.4389 124.81 19.5864 123.867 19.8814 123.085C20.1797 122.303 20.6072 121.706 21.1641 121.295C21.7242 120.884 22.3937 120.679 23.1726 120.679C23.9515 120.679 24.6193 120.886 25.1761 121.3C25.733 121.711 26.1589 122.308 26.4538 123.09C26.7521 123.869 26.9013 124.81 26.9013 125.914C26.9013 127.024 26.7538 127.972 26.4588 128.758C26.1638 129.54 25.7379 130.138 25.1811 130.553C24.6243 130.964 23.9548 131.169 23.1726 131.169ZM23.1726 129.842C23.862 129.842 24.4006 129.505 24.7884 128.832C25.1795 128.16 25.375 127.187 25.375 125.914C25.375 125.069 25.2855 124.355 25.1065 123.771C24.9309 123.185 24.6773 122.741 24.3459 122.439C24.0178 122.134 23.6267 121.982 23.1726 121.982C22.4865 121.982 21.9479 122.32 21.5568 122.996C21.1657 123.672 20.9685 124.645 20.9652 125.914C20.9652 126.763 21.053 127.48 21.2287 128.067C21.4077 128.65 21.6612 129.093 21.9893 129.394C22.3175 129.692 22.7119 129.842 23.1726 129.842ZM32.2097 131.169C31.4242 131.166 30.753 130.959 30.1962 130.548C29.6394 130.137 29.2135 129.538 28.9185 128.753C28.6235 127.967 28.476 127.021 28.476 125.914C28.476 124.81 28.6235 123.867 28.9185 123.085C29.2168 122.303 29.6444 121.706 30.2012 121.295C30.7613 120.884 31.4308 120.679 32.2097 120.679C32.9886 120.679 33.6564 120.886 34.2132 121.3C34.7701 121.711 35.196 122.308 35.4909 123.09C35.7892 123.869 35.9384 124.81 35.9384 125.914C35.9384 127.024 35.7909 127.972 35.4959 128.758C35.2009 129.54 34.775 130.138 34.2182 130.553C33.6614 130.964 32.9919 131.169 32.2097 131.169ZM32.2097 129.842C32.8991 129.842 33.4377 129.505 33.8255 128.832C34.2166 128.16 34.4121 127.187 34.4121 125.914C34.4121 125.069 34.3226 124.355 34.1436 123.771C33.968 123.185 33.7144 122.741 33.383 122.439C33.0549 122.134 32.6638 121.982 32.2097 121.982C31.5236 121.982 30.985 122.32 30.5939 122.996C30.2028 123.672 30.0056 124.645 30.0023 125.914C30.0023 126.763 30.0901 127.48 30.2658 128.067C30.4448 128.65 30.6983 129.093 31.0265 129.394C31.3546 129.692 31.749 129.842 32.2097 129.842Z" fill="#0A0A18"/>
    <path opacity="0.5" d="M4.84233 80.8182V91H3.30114V82.3594H3.24148L0.805398 83.9503V82.4787L3.34588 80.8182H4.84233ZM8.96254 89.608L8.88796 90.1499C8.83825 90.5476 8.75373 90.9619 8.63441 91.3928C8.51841 91.8269 8.39743 92.2296 8.27148 92.6009C8.14885 92.9721 8.04776 93.267 7.96822 93.4858H6.91424C6.95733 93.2803 7.01699 93.0019 7.09322 92.6506C7.16945 92.3026 7.24402 91.9131 7.31694 91.4822C7.38986 91.0514 7.44454 90.6122 7.481 90.1648L7.53072 89.608H8.96254ZM10.8281 89.0114V87.7685L15.228 80.8182H16.2074V82.6477H15.5859L12.4389 87.6293V87.7088H18.4695V89.0114H10.8281ZM15.6555 91V88.6335L15.6655 88.0668V80.8182H17.1222V91H15.6555ZM23.7468 91.169C22.9613 91.1657 22.2901 90.9586 21.7333 90.5476C21.1765 90.1366 20.7506 89.5384 20.4556 88.7528C20.1606 87.9673 20.0131 87.0211 20.0131 85.9141C20.0131 84.8104 20.1606 83.8674 20.4556 83.0852C20.7539 82.303 21.1815 81.7064 21.7383 81.2955C22.2984 80.8845 22.9679 80.679 23.7468 80.679C24.5257 80.679 25.1935 80.8861 25.7504 81.3004C26.3072 81.7114 26.7331 82.308 27.0281 83.0902C27.3263 83.8691 27.4755 84.8104 27.4755 85.9141C27.4755 87.0244 27.328 87.9723 27.033 88.7578C26.738 89.54 26.3121 90.1383 25.7553 90.5526C25.1985 90.9635 24.529 91.169 23.7468 91.169ZM23.7468 89.8416C24.4362 89.8416 24.9748 89.5052 25.3626 88.8324C25.7537 88.1596 25.9492 87.1868 25.9492 85.9141C25.9492 85.0689 25.8597 84.3546 25.6808 83.7713C25.5051 83.1847 25.2515 82.7405 24.9201 82.4389C24.592 82.134 24.2009 81.9815 23.7468 81.9815C23.0607 81.9815 22.5221 82.3196 22.131 82.9957C21.7399 83.6719 21.5427 84.6446 21.5394 85.9141C21.5394 86.7625 21.6272 87.4801 21.8029 88.0668C21.9819 88.6501 22.2354 89.0926 22.5636 89.3942C22.8917 89.6925 23.2861 89.8416 23.7468 89.8416ZM32.7839 91.169C31.9984 91.1657 31.3272 90.9586 30.7704 90.5476C30.2136 90.1366 29.7877 89.5384 29.4927 88.7528C29.1977 87.9673 29.0502 87.0211 29.0502 85.9141C29.0502 84.8104 29.1977 83.8674 29.4927 83.0852C29.791 82.303 30.2186 81.7064 30.7754 81.2955C31.3355 80.8845 32.005 80.679 32.7839 80.679C33.5628 80.679 34.2306 80.8861 34.7875 81.3004C35.3443 81.7114 35.7702 82.308 36.0652 83.0902C36.3635 83.8691 36.5126 84.8104 36.5126 85.9141C36.5126 87.0244 36.3651 87.9723 36.0701 88.7578C35.7752 89.54 35.3493 90.1383 34.7924 90.5526C34.2356 90.9635 33.5661 91.169 32.7839 91.169ZM32.7839 89.8416C33.4733 89.8416 34.0119 89.5052 34.3997 88.8324C34.7908 88.1596 34.9863 87.1868 34.9863 85.9141C34.9863 85.0689 34.8968 84.3546 34.7179 83.7713C34.5422 83.1847 34.2886 82.7405 33.9572 82.4389C33.6291 82.134 33.238 81.9815 32.7839 81.9815C32.0978 81.9815 31.5592 82.3196 31.1681 82.9957C30.777 83.6719 30.5798 84.6446 30.5765 85.9141C30.5765 86.7625 30.6644 87.4801 30.84 88.0668C31.019 88.6501 31.2725 89.0926 31.6007 89.3942C31.9288 89.6925 32.3232 89.8416 32.7839 89.8416Z" fill="#0A0A18"/>
    <path opacity="0.5" d="M4.84233 40.8182V51H3.30114V42.3594H3.24148L0.805398 43.9503V42.4787L3.34588 40.8182H4.84233ZM11.1513 51.1392C10.6972 51.1326 10.2498 51.0497 9.80895 50.8906C9.37145 50.7315 8.97372 50.4664 8.61577 50.0952C8.25781 49.724 7.97112 49.2251 7.75568 48.5987C7.54356 47.9723 7.4375 47.1901 7.4375 46.2521C7.4375 45.3639 7.52533 44.575 7.70099 43.8857C7.87997 43.1963 8.13684 42.6146 8.47159 42.1406C8.80634 41.6634 9.2107 41.3004 9.68466 41.0518C10.1586 40.8033 10.6906 40.679 11.2805 40.679C11.8871 40.679 12.4257 40.7983 12.8963 41.0369C13.367 41.2756 13.7481 41.6054 14.0398 42.0263C14.3348 42.4472 14.522 42.9261 14.6016 43.4631H13.0852C12.9825 43.0388 12.7786 42.6925 12.4737 42.424C12.1688 42.1555 11.7711 42.0213 11.2805 42.0213C10.5348 42.0213 9.95313 42.3461 9.53551 42.9957C9.12121 43.6454 8.91241 44.5485 8.90909 45.7053H8.98366C9.15933 45.4169 9.37476 45.1716 9.62997 44.9695C9.88849 44.764 10.1768 44.6065 10.495 44.4972C10.8165 44.3845 11.1546 44.3281 11.5092 44.3281C12.0992 44.3281 12.6328 44.4723 13.1101 44.7607C13.5907 45.0457 13.9735 45.4401 14.2585 45.9439C14.5436 46.4477 14.6861 47.0244 14.6861 47.674C14.6861 48.3236 14.5386 48.9119 14.2436 49.4389C13.9519 49.9659 13.541 50.3835 13.0107 50.6918C12.4804 50.9967 11.8606 51.1458 11.1513 51.1392ZM11.1463 49.8466C11.5374 49.8466 11.8871 49.7505 12.1953 49.5582C12.5036 49.366 12.7472 49.1075 12.9261 48.7827C13.1051 48.4579 13.1946 48.0949 13.1946 47.6939C13.1946 47.3028 13.1068 46.9465 12.9311 46.625C12.7588 46.3035 12.5201 46.0483 12.2152 45.8594C11.9136 45.6705 11.5689 45.576 11.1811 45.576C10.8861 45.576 10.6127 45.6323 10.3608 45.745C10.1122 45.8577 9.89347 46.0135 9.70455 46.2124C9.51563 46.4112 9.36648 46.6399 9.2571 46.8984C9.15104 47.1536 9.09801 47.4238 9.09801 47.7088C9.09801 48.09 9.18584 48.4429 9.36151 48.7678C9.54048 49.0926 9.78409 49.3544 10.0923 49.5533C10.4039 49.7488 10.7552 49.8466 11.1463 49.8466ZM20.0417 51.169C19.2562 51.1657 18.585 50.9586 18.0282 50.5476C17.4714 50.1366 17.0455 49.5384 16.7505 48.7528C16.4556 47.9673 16.3081 47.0211 16.3081 45.9141C16.3081 44.8104 16.4556 43.8674 16.7505 43.0852C17.0488 42.303 17.4764 41.7064 18.0332 41.2955C18.5933 40.8845 19.2628 40.679 20.0417 40.679C20.8206 40.679 21.4885 40.8861 22.0453 41.3004C22.6021 41.7114 23.028 42.308 23.323 43.0902C23.6213 43.8691 23.7704 44.8104 23.7704 45.9141C23.7704 47.0244 23.6229 47.9723 23.3279 48.7578C23.033 49.54 22.6071 50.1383 22.0502 50.5526C21.4934 50.9635 20.8239 51.169 20.0417 51.169ZM20.0417 49.8416C20.7311 49.8416 21.2697 49.5052 21.6575 48.8324C22.0486 48.1596 22.2441 47.1868 22.2441 45.9141C22.2441 45.0689 22.1547 44.3546 21.9757 43.7713C21.8 43.1847 21.5465 42.7405 21.215 42.4389C20.8869 42.134 20.4958 41.9815 20.0417 41.9815C19.3556 41.9815 18.8171 42.3196 18.426 42.9957C18.0349 43.6719 17.8377 44.6446 17.8343 45.9141C17.8343 46.7625 17.9222 47.4801 18.0978 48.0668C18.2768 48.6501 18.5304 49.0926 18.8585 49.3942C19.1866 49.6925 19.581 49.8416 20.0417 49.8416ZM29.0788 51.169C28.2933 51.1657 27.6222 50.9586 27.0653 50.5476C26.5085 50.1366 26.0826 49.5384 25.7876 48.7528C25.4927 47.9673 25.3452 47.0211 25.3452 45.9141C25.3452 44.8104 25.4927 43.8674 25.7876 43.0852C26.0859 42.303 26.5135 41.7064 27.0703 41.2955C27.6304 40.8845 28.3 40.679 29.0788 40.679C29.8577 40.679 30.5256 40.8861 31.0824 41.3004C31.6392 41.7114 32.0651 42.308 32.3601 43.0902C32.6584 43.8691 32.8075 44.8104 32.8075 45.9141C32.8075 47.0244 32.66 47.9723 32.3651 48.7578C32.0701 49.54 31.6442 50.1383 31.0874 50.5526C30.5305 50.9635 29.861 51.169 29.0788 51.169ZM29.0788 49.8416C29.7682 49.8416 30.3068 49.5052 30.6946 48.8324C31.0857 48.1596 31.2812 47.1868 31.2812 45.9141C31.2812 45.0689 31.1918 44.3546 31.0128 43.7713C30.8371 43.1847 30.5836 42.7405 30.2521 42.4389C29.924 42.134 29.5329 41.9815 29.0788 41.9815C28.3928 41.9815 27.8542 42.3196 27.4631 42.9957C27.072 43.6719 26.8748 44.6446 26.8714 45.9141C26.8714 46.7625 26.9593 47.4801 27.1349 48.0668C27.3139 48.6501 27.5675 49.0926 27.8956 49.3942C28.2237 49.6925 28.6181 49.8416 29.0788 49.8416Z" fill="#0A0A18"/>
    <path opacity="0.5" d="M4.84233 0.818182V11H3.30114V2.35938H3.24148L0.805398 3.95028V2.47869L3.34588 0.818182H4.84233ZM8.96254 9.60795L8.88796 10.1499C8.83825 10.5476 8.75373 10.9619 8.63441 11.3928C8.51841 11.8269 8.39743 12.2296 8.27148 12.6009C8.14885 12.9721 8.04776 13.267 7.96822 13.4858H6.91424C6.95733 13.2803 7.01699 13.0019 7.09322 12.6506C7.16945 12.3026 7.24402 11.9131 7.31694 11.4822C7.38986 11.0514 7.44454 10.6122 7.481 10.1648L7.53072 9.60795H8.96254ZM14.1404 11.1392C13.4279 11.1392 12.7981 11.0166 12.2512 10.7713C11.7077 10.526 11.2818 10.188 10.9735 9.7571C10.6653 9.32623 10.5128 8.8357 10.5162 8.28551C10.5128 7.85464 10.6007 7.45857 10.7797 7.0973C10.9619 6.73272 11.2089 6.42945 11.5204 6.1875C11.832 5.94223 12.18 5.78646 12.5645 5.72017V5.66051C12.0574 5.53788 11.6513 5.2661 11.3464 4.84517C11.0415 4.42424 10.8907 3.94034 10.894 3.39347C10.8907 2.87311 11.0282 2.40909 11.3066 2.00142C11.5884 1.59044 11.9745 1.26728 12.465 1.03196C12.9556 0.796638 13.514 0.678977 14.1404 0.678977C14.7602 0.678977 15.3137 0.798295 15.801 1.03693C16.2915 1.27225 16.6776 1.59541 16.9593 2.00639C17.2411 2.41406 17.3836 2.87642 17.3869 3.39347C17.3836 3.94034 17.2278 4.42424 16.9196 4.84517C16.6113 5.2661 16.2103 5.53788 15.7164 5.66051V5.72017C16.0976 5.78646 16.4406 5.94223 16.7456 6.1875C17.0538 6.42945 17.2991 6.73272 17.4814 7.0973C17.667 7.45857 17.7614 7.85464 17.7647 8.28551C17.7614 8.8357 17.6056 9.32623 17.2974 9.7571C16.9892 10.188 16.5616 10.526 16.0147 10.7713C15.4712 11.0166 14.8464 11.1392 14.1404 11.1392ZM14.1404 9.88139C14.5614 9.88139 14.926 9.81179 15.2342 9.67259C15.5424 9.53007 15.7811 9.33286 15.9501 9.08097C16.1191 8.82576 16.2053 8.52746 16.2086 8.18608C16.2053 7.83144 16.1125 7.51823 15.9302 7.24645C15.7512 6.97467 15.5076 6.76089 15.1994 6.60511C14.8912 6.44934 14.5382 6.37145 14.1404 6.37145C13.7394 6.37145 13.3831 6.44934 13.0716 6.60511C12.76 6.76089 12.5147 6.97467 12.3358 7.24645C12.1568 7.51823 12.069 7.83144 12.0723 8.18608C12.069 8.52746 12.1502 8.82576 12.3159 9.08097C12.4849 9.33286 12.7252 9.53007 13.0368 9.67259C13.3483 9.81179 13.7162 9.88139 14.1404 9.88139ZM14.1404 5.14347C14.4785 5.14347 14.7785 5.07552 15.0403 4.93963C15.3021 4.80374 15.5076 4.61482 15.6568 4.37287C15.8092 4.13092 15.8871 3.84754 15.8904 3.52273C15.8871 3.20455 15.8109 2.92614 15.6618 2.6875C15.5159 2.44886 15.3121 2.26491 15.0502 2.13565C14.7884 2.00308 14.4851 1.93679 14.1404 1.93679C13.7891 1.93679 13.4809 2.00308 13.2157 2.13565C12.9539 2.26491 12.7501 2.44886 12.6042 2.6875C12.4584 2.92614 12.3871 3.20455 12.3904 3.52273C12.3871 3.84754 12.46 4.13092 12.6092 4.37287C12.7583 4.61482 12.9638 4.80374 13.2257 4.93963C13.4908 5.07552 13.7958 5.14347 14.1404 5.14347ZM23.0906 11.169C22.305 11.1657 21.6339 10.9586 21.0771 10.5476C20.5202 10.1366 20.0943 9.53835 19.7994 8.75284C19.5044 7.96733 19.3569 7.02107 19.3569 5.91406C19.3569 4.81037 19.5044 3.86742 19.7994 3.08523C20.0977 2.30303 20.5252 1.70644 21.082 1.29545C21.6422 0.884469 22.3117 0.678977 23.0906 0.678977C23.8694 0.678977 24.5373 0.886126 25.0941 1.30043C25.6509 1.71141 26.0768 2.308 26.3718 3.0902C26.6701 3.86908 26.8192 4.81037 26.8192 5.91406C26.8192 7.02438 26.6718 7.9723 26.3768 8.75781C26.0818 9.54001 25.6559 10.1383 25.0991 10.5526C24.5423 10.9635 23.8728 11.169 23.0906 11.169ZM23.0906 9.84162C23.7799 9.84162 24.3185 9.50521 24.7063 8.83239C25.0974 8.15956 25.293 7.18679 25.293 5.91406C25.293 5.06889 25.2035 4.35464 25.0245 3.77131C24.8488 3.18466 24.5953 2.74053 24.2638 2.43892C23.9357 2.134 23.5446 1.98153 23.0906 1.98153C22.4045 1.98153 21.8659 2.3196 21.4748 2.99574C21.0837 3.67187 20.8865 4.64465 20.8832 5.91406C20.8832 6.76255 20.971 7.48011 21.1467 8.06676C21.3256 8.65009 21.5792 9.09257 21.9073 9.39418C22.2354 9.69247 22.6299 9.84162 23.0906 9.84162ZM32.1277 11.169C31.3422 11.1657 30.671 10.9586 30.1142 10.5476C29.5574 10.1366 29.1315 9.53835 28.8365 8.75284C28.5415 7.96733 28.394 7.02107 28.394 5.91406C28.394 4.81037 28.5415 3.86742 28.8365 3.08523C29.1348 2.30303 29.5623 1.70644 30.1191 1.29545C30.6793 0.884469 31.3488 0.678977 32.1277 0.678977C32.9065 0.678977 33.5744 0.886126 34.1312 1.30043C34.688 1.71141 35.1139 2.308 35.4089 3.0902C35.7072 3.86908 35.8564 4.81037 35.8564 5.91406C35.8564 7.02438 35.7089 7.9723 35.4139 8.75781C35.1189 9.54001 34.693 10.1383 34.1362 10.5526C33.5794 10.9635 32.9099 11.169 32.1277 11.169ZM32.1277 9.84162C32.8171 9.84162 33.3556 9.50521 33.7434 8.83239C34.1345 8.15956 34.3301 7.18679 34.3301 5.91406C34.3301 5.06889 34.2406 4.35464 34.0616 3.77131C33.8859 3.18466 33.6324 2.74053 33.301 2.43892C32.9728 2.134 32.5817 1.98153 32.1277 1.98153C31.4416 1.98153 30.903 2.3196 30.5119 2.99574C30.1208 3.67187 29.9236 4.64465 29.9203 5.91406C29.9203 6.76255 30.0081 7.48011 30.1838 8.06676C30.3627 8.65009 30.6163 9.09257 30.9444 9.39418C31.2725 9.69247 31.667 9.84162 32.1277 9.84162Z" fill="#0A0A18"/>
    <path opacity="0.5" d="M4.84233 160.818V171H3.30114V162.359H3.24148L0.805398 163.95V162.479L3.34588 160.818H4.84233ZM8.96254 169.608L8.88796 170.15C8.83825 170.548 8.75373 170.962 8.63441 171.393C8.51841 171.827 8.39743 172.23 8.27148 172.601C8.14885 172.972 8.04776 173.267 7.96822 173.486H6.91424C6.95733 173.28 7.01699 173.002 7.09322 172.651C7.16945 172.303 7.24402 171.913 7.31694 171.482C7.38986 171.051 7.44454 170.612 7.481 170.165L7.53072 169.608H8.96254ZM14.2175 171.169C13.432 171.166 12.7608 170.959 12.204 170.548C11.6472 170.137 11.2213 169.538 10.9263 168.753C10.6313 167.967 10.4838 167.021 10.4838 165.914C10.4838 164.81 10.6313 163.867 10.9263 163.085C11.2246 162.303 11.6522 161.706 12.209 161.295C12.7691 160.884 13.4386 160.679 14.2175 160.679C14.9964 160.679 15.6642 160.886 16.2211 161.3C16.7779 161.711 17.2038 162.308 17.4988 163.09C17.7971 163.869 17.9462 164.81 17.9462 165.914C17.9462 167.024 17.7987 167.972 17.5037 168.758C17.2087 169.54 16.7828 170.138 16.226 170.553C15.6692 170.964 14.9997 171.169 14.2175 171.169ZM14.2175 169.842C14.9069 169.842 15.4455 169.505 15.8333 168.832C16.2244 168.16 16.4199 167.187 16.4199 165.914C16.4199 165.069 16.3304 164.355 16.1515 163.771C15.9758 163.185 15.7222 162.741 15.3908 162.439C15.0627 162.134 14.6716 161.982 14.2175 161.982C13.5314 161.982 12.9928 162.32 12.6017 162.996C12.2106 163.672 12.0134 164.645 12.0101 165.914C12.0101 166.763 12.098 167.48 12.2736 168.067C12.4526 168.65 12.7061 169.093 13.0343 169.394C13.3624 169.692 13.7568 169.842 14.2175 169.842ZM23.2546 171.169C22.4691 171.166 21.7979 170.959 21.2411 170.548C20.6843 170.137 20.2584 169.538 19.9634 168.753C19.6684 167.967 19.521 167.021 19.521 165.914C19.521 164.81 19.6684 163.867 19.9634 163.085C20.2617 162.303 20.6893 161.706 21.2461 161.295C21.8062 160.884 22.4757 160.679 23.2546 160.679C24.0335 160.679 24.7013 160.886 25.2582 161.3C25.815 161.711 26.2409 162.308 26.5359 163.09C26.8342 163.869 26.9833 164.81 26.9833 165.914C26.9833 167.024 26.8358 167.972 26.5408 168.758C26.2459 169.54 25.82 170.138 25.2631 170.553C24.7063 170.964 24.0368 171.169 23.2546 171.169ZM23.2546 169.842C23.944 169.842 24.4826 169.505 24.8704 168.832C25.2615 168.16 25.457 167.187 25.457 165.914C25.457 165.069 25.3675 164.355 25.1886 163.771C25.0129 163.185 24.7594 162.741 24.4279 162.439C24.0998 162.134 23.7087 161.982 23.2546 161.982C22.5685 161.982 22.0299 162.32 21.6388 162.996C21.2478 163.672 21.0505 164.645 21.0472 165.914C21.0472 166.763 21.1351 167.48 21.3107 168.067C21.4897 168.65 21.7433 169.093 22.0714 169.394C22.3995 169.692 22.7939 169.842 23.2546 169.842ZM32.2917 171.169C31.5062 171.166 30.835 170.959 30.2782 170.548C29.7214 170.137 29.2955 169.538 29.0005 168.753C28.7056 167.967 28.5581 167.021 28.5581 165.914C28.5581 164.81 28.7056 163.867 29.0005 163.085C29.2988 162.303 29.7264 161.706 30.2832 161.295C30.8433 160.884 31.5128 160.679 32.2917 160.679C33.0706 160.679 33.7385 160.886 34.2953 161.3C34.8521 161.711 35.278 162.308 35.573 163.09C35.8713 163.869 36.0204 164.81 36.0204 165.914C36.0204 167.024 35.8729 167.972 35.5779 168.758C35.283 169.54 34.8571 170.138 34.3002 170.553C33.7434 170.964 33.0739 171.169 32.2917 171.169ZM32.2917 169.842C32.9811 169.842 33.5197 169.505 33.9075 168.832C34.2986 168.16 34.4941 167.187 34.4941 165.914C34.4941 165.069 34.4047 164.355 34.2257 163.771C34.05 163.185 33.7965 162.741 33.465 162.439C33.1369 162.134 32.7458 161.982 32.2917 161.982C31.6056 161.982 31.0671 162.32 30.676 162.996C30.2849 163.672 30.0877 164.645 30.0843 165.914C30.0843 166.763 30.1722 167.48 30.3478 168.067C30.5268 168.65 30.7804 169.093 31.1085 169.394C31.4366 169.692 31.831 169.842 32.2917 169.842Z" fill="#0A0A18"/>
    <path opacity="0.5" d="M4.41974 211.139C3.70715 211.139 3.07741 211.017 2.53054 210.771C1.98698 210.526 1.56108 210.188 1.25284 209.757C0.944602 209.326 0.79214 208.836 0.795455 208.286C0.79214 207.855 0.879972 207.459 1.05895 207.097C1.24124 206.733 1.48816 206.429 1.79972 206.188C2.11127 205.942 2.45928 205.786 2.84375 205.72V205.661C2.33665 205.538 1.93063 205.266 1.62571 204.845C1.32079 204.424 1.16998 203.94 1.1733 203.393C1.16998 202.873 1.30753 202.409 1.58594 202.001C1.86766 201.59 2.25379 201.267 2.74432 201.032C3.23485 200.797 3.79332 200.679 4.41974 200.679C5.03954 200.679 5.59304 200.798 6.08026 201.037C6.57079 201.272 6.95691 201.595 7.23864 202.006C7.52036 202.414 7.66288 202.876 7.66619 203.393C7.66288 203.94 7.5071 204.424 7.19886 204.845C6.89063 205.266 6.48958 205.538 5.99574 205.661V205.72C6.37689 205.786 6.71993 205.942 7.02486 206.188C7.3331 206.429 7.57836 206.733 7.76065 207.097C7.94626 207.459 8.04072 207.855 8.04403 208.286C8.04072 208.836 7.88494 209.326 7.5767 209.757C7.26847 210.188 6.84091 210.526 6.29403 210.771C5.75047 211.017 5.12571 211.139 4.41974 211.139ZM4.41974 209.881C4.84067 209.881 5.20526 209.812 5.51349 209.673C5.82173 209.53 6.06037 209.333 6.2294 209.081C6.39844 208.826 6.48461 208.527 6.48793 208.186C6.48461 207.831 6.39181 207.518 6.20952 207.246C6.03054 206.975 5.78693 206.761 5.47869 206.605C5.17045 206.449 4.81747 206.371 4.41974 206.371C4.0187 206.371 3.66241 206.449 3.35085 206.605C3.0393 206.761 2.79403 206.975 2.61506 207.246C2.43608 207.518 2.34825 207.831 2.35156 208.186C2.34825 208.527 2.42945 208.826 2.59517 209.081C2.7642 209.333 3.0045 209.53 3.31605 209.673C3.6276 209.812 3.9955 209.881 4.41974 209.881ZM4.41974 205.143C4.75781 205.143 5.05777 205.076 5.3196 204.94C5.58144 204.804 5.78693 204.615 5.93608 204.373C6.08854 204.131 6.16643 203.848 6.16974 203.523C6.16643 203.205 6.0902 202.926 5.94105 202.688C5.79522 202.449 5.59138 202.265 5.32955 202.136C5.06771 202.003 4.76444 201.937 4.41974 201.937C4.06842 201.937 3.76018 202.003 3.49503 202.136C3.23319 202.265 3.02936 202.449 2.88352 202.688C2.73769 202.926 2.66643 203.205 2.66974 203.523C2.66643 203.848 2.73935 204.131 2.88849 204.373C3.03764 204.615 3.24313 204.804 3.50497 204.94C3.77012 205.076 4.07505 205.143 4.41974 205.143ZM13.3699 211.169C12.5843 211.166 11.9132 210.959 11.3564 210.548C10.7995 210.137 10.3736 209.538 10.0787 208.753C9.78368 207.967 9.63619 207.021 9.63619 205.914C9.63619 204.81 9.78368 203.867 10.0787 203.085C10.377 202.303 10.8045 201.706 11.3613 201.295C11.9215 200.884 12.591 200.679 13.3699 200.679C14.1487 200.679 14.8166 200.886 15.3734 201.3C15.9302 201.711 16.3561 202.308 16.6511 203.09C16.9494 203.869 17.0985 204.81 17.0985 205.914C17.0985 207.024 16.9511 207.972 16.6561 208.758C16.3611 209.54 15.9352 210.138 15.3784 210.553C14.8216 210.964 14.152 211.169 13.3699 211.169ZM13.3699 209.842C14.0592 209.842 14.5978 209.505 14.9856 208.832C15.3767 208.16 15.5723 207.187 15.5723 205.914C15.5723 205.069 15.4828 204.355 15.3038 203.771C15.1281 203.185 14.8746 202.741 14.5431 202.439C14.215 202.134 13.8239 201.982 13.3699 201.982C12.6838 201.982 12.1452 202.32 11.7541 202.996C11.363 203.672 11.1658 204.645 11.1625 205.914C11.1625 206.763 11.2503 207.48 11.426 208.067C11.6049 208.65 11.8585 209.093 12.1866 209.394C12.5147 209.692 12.9092 209.842 13.3699 209.842ZM22.407 211.169C21.6214 211.166 20.9503 210.959 20.3935 210.548C19.8366 210.137 19.4107 209.538 19.1158 208.753C18.8208 207.967 18.6733 207.021 18.6733 205.914C18.6733 204.81 18.8208 203.867 19.1158 203.085C19.4141 202.303 19.8416 201.706 20.3984 201.295C20.9586 200.884 21.6281 200.679 22.407 200.679C23.1858 200.679 23.8537 200.886 24.4105 201.3C24.9673 201.711 25.3932 202.308 25.6882 203.09C25.9865 203.869 26.1357 204.81 26.1357 205.914C26.1357 207.024 25.9882 207.972 25.6932 208.758C25.3982 209.54 24.9723 210.138 24.4155 210.553C23.8587 210.964 23.1892 211.169 22.407 211.169ZM22.407 209.842C23.0964 209.842 23.6349 209.505 24.0227 208.832C24.4138 208.16 24.6094 207.187 24.6094 205.914C24.6094 205.069 24.5199 204.355 24.3409 203.771C24.1652 203.185 23.9117 202.741 23.5803 202.439C23.2521 202.134 22.861 201.982 22.407 201.982C21.7209 201.982 21.1823 202.32 20.7912 202.996C20.4001 203.672 20.2029 204.645 20.1996 205.914C20.1996 206.763 20.2874 207.48 20.4631 208.067C20.642 208.65 20.8956 209.093 21.2237 209.394C21.5518 209.692 21.9463 209.842 22.407 209.842Z" fill="#0A0A18"/>
    <path opacity="0.5" d="M4.53409 251.139C4.08002 251.133 3.63258 251.05 3.19176 250.891C2.75426 250.732 2.35653 250.466 1.99858 250.095C1.64063 249.724 1.35393 249.225 1.13849 248.599C0.926373 247.972 0.820312 247.19 0.820312 246.252C0.820312 245.364 0.908144 244.575 1.08381 243.886C1.26278 243.196 1.51965 242.615 1.8544 242.141C2.18916 241.663 2.59351 241.3 3.06747 241.052C3.54143 240.803 4.07339 240.679 4.66335 240.679C5.26989 240.679 5.80848 240.798 6.27912 241.037C6.74976 241.276 7.13092 241.605 7.42259 242.026C7.71757 242.447 7.90483 242.926 7.98438 243.463H6.46804C6.36529 243.039 6.16146 242.692 5.85653 242.424C5.55161 242.156 5.15388 242.021 4.66335 242.021C3.91761 242.021 3.33594 242.346 2.91832 242.996C2.50402 243.645 2.29522 244.549 2.2919 245.705H2.36648C2.54214 245.417 2.75758 245.172 3.01278 244.969C3.27131 244.764 3.55966 244.607 3.87784 244.497C4.19934 244.384 4.53741 244.328 4.89205 244.328C5.48201 244.328 6.01563 244.472 6.4929 244.761C6.97348 245.046 7.3563 245.44 7.64134 245.944C7.92637 246.448 8.06889 247.024 8.06889 247.674C8.06889 248.324 7.9214 248.912 7.62642 249.439C7.33475 249.966 6.92377 250.384 6.39347 250.692C5.86316 250.997 5.24337 251.146 4.53409 251.139ZM4.52912 249.847C4.92022 249.847 5.26989 249.75 5.57812 249.558C5.88636 249.366 6.12997 249.107 6.30895 248.783C6.48793 248.458 6.57741 248.095 6.57741 247.694C6.57741 247.303 6.48958 246.946 6.31392 246.625C6.14157 246.304 5.90294 246.048 5.59801 245.859C5.2964 245.67 4.9517 245.576 4.56392 245.576C4.26894 245.576 3.9955 245.632 3.74361 245.745C3.49503 245.858 3.27628 246.013 3.08736 246.212C2.89844 246.411 2.74929 246.64 2.63991 246.898C2.53385 247.154 2.48082 247.424 2.48082 247.709C2.48082 248.09 2.56866 248.443 2.74432 248.768C2.9233 249.093 3.1669 249.354 3.47514 249.553C3.7867 249.749 4.13802 249.847 4.52912 249.847ZM13.4245 251.169C12.639 251.166 11.9679 250.959 11.411 250.548C10.8542 250.137 10.4283 249.538 10.1333 248.753C9.83836 247.967 9.69087 247.021 9.69087 245.914C9.69087 244.81 9.83836 243.867 10.1333 243.085C10.4316 242.303 10.8592 241.706 11.416 241.295C11.9761 240.884 12.6457 240.679 13.4245 240.679C14.2034 240.679 14.8713 240.886 15.4281 241.3C15.9849 241.711 16.4108 242.308 16.7058 243.09C17.0041 243.869 17.1532 244.81 17.1532 245.914C17.1532 247.024 17.0057 247.972 16.7108 248.758C16.4158 249.54 15.9899 250.138 15.4331 250.553C14.8762 250.964 14.2067 251.169 13.4245 251.169ZM13.4245 249.842C14.1139 249.842 14.6525 249.505 15.0403 248.832C15.4314 248.16 15.627 247.187 15.627 245.914C15.627 245.069 15.5375 244.355 15.3585 243.771C15.1828 243.185 14.9293 242.741 14.5978 242.439C14.2697 242.134 13.8786 241.982 13.4245 241.982C12.7385 241.982 12.1999 242.32 11.8088 242.996C11.4177 243.672 11.2205 244.645 11.2172 245.914C11.2172 246.763 11.305 247.48 11.4806 248.067C11.6596 248.65 11.9132 249.093 12.2413 249.394C12.5694 249.692 12.9638 249.842 13.4245 249.842ZM22.4616 251.169C21.6761 251.166 21.005 250.959 20.4482 250.548C19.8913 250.137 19.4654 249.538 19.1705 248.753C18.8755 247.967 18.728 247.021 18.728 245.914C18.728 244.81 18.8755 243.867 19.1705 243.085C19.4688 242.303 19.8963 241.706 20.4531 241.295C21.0133 240.884 21.6828 240.679 22.4616 240.679C23.2405 240.679 23.9084 240.886 24.4652 241.3C25.022 241.711 25.4479 242.308 25.7429 243.09C26.0412 243.869 26.1903 244.81 26.1903 245.914C26.1903 247.024 26.0429 247.972 25.7479 248.758C25.4529 249.54 25.027 250.138 24.4702 250.553C23.9134 250.964 23.2438 251.169 22.4616 251.169ZM22.4616 249.842C23.151 249.842 23.6896 249.505 24.0774 248.832C24.4685 248.16 24.6641 247.187 24.6641 245.914C24.6641 245.069 24.5746 244.355 24.3956 243.771C24.2199 243.185 23.9664 242.741 23.6349 242.439C23.3068 242.134 22.9157 241.982 22.4616 241.982C21.7756 241.982 21.237 242.32 20.8459 242.996C20.4548 243.672 20.2576 244.645 20.2543 245.914C20.2543 246.763 20.3421 247.48 20.5178 248.067C20.6967 248.65 20.9503 249.093 21.2784 249.394C21.6065 249.692 22.0009 249.842 22.4616 249.842Z" fill="#0A0A18"/>
    <path opacity="0.5" d="M0.765625 289.011V287.768L5.16548 280.818H6.14489V282.648H5.52344L2.37642 287.629V287.709H8.40696V289.011H0.765625ZM5.59304 291V288.634L5.60298 288.067V280.818H7.05966V291H5.59304ZM13.6843 291.169C12.8988 291.166 12.2276 290.959 11.6708 290.548C11.114 290.137 10.6881 289.538 10.3931 288.753C10.0981 287.967 9.95064 287.021 9.95064 285.914C9.95064 284.81 10.0981 283.867 10.3931 283.085C10.6914 282.303 11.119 281.706 11.6758 281.295C12.2359 280.884 12.9054 280.679 13.6843 280.679C14.4632 280.679 15.131 280.886 15.6879 281.3C16.2447 281.711 16.6706 282.308 16.9656 283.09C17.2638 283.869 17.413 284.81 17.413 285.914C17.413 287.024 17.2655 287.972 16.9705 288.758C16.6755 289.54 16.2496 290.138 15.6928 290.553C15.136 290.964 14.4665 291.169 13.6843 291.169ZM13.6843 289.842C14.3737 289.842 14.9123 289.505 15.3001 288.832C15.6912 288.16 15.8867 287.187 15.8867 285.914C15.8867 285.069 15.7972 284.355 15.6183 283.771C15.4426 283.185 15.189 282.741 14.8576 282.439C14.5295 282.134 14.1384 281.982 13.6843 281.982C12.9982 281.982 12.4596 282.32 12.0685 282.996C11.6774 283.672 11.4802 284.645 11.4769 285.914C11.4769 286.763 11.5647 287.48 11.7404 288.067C11.9194 288.65 12.1729 289.093 12.5011 289.394C12.8292 289.692 13.2236 289.842 13.6843 289.842ZM22.7214 291.169C21.9359 291.166 21.2647 290.959 20.7079 290.548C20.1511 290.137 19.7252 289.538 19.4302 288.753C19.1352 287.967 18.9877 287.021 18.9877 285.914C18.9877 284.81 19.1352 283.867 19.4302 283.085C19.7285 282.303 20.1561 281.706 20.7129 281.295C21.273 280.884 21.9425 280.679 22.7214 280.679C23.5003 280.679 24.1681 280.886 24.725 281.3C25.2818 281.711 25.7077 282.308 26.0027 283.09C26.301 283.869 26.4501 284.81 26.4501 285.914C26.4501 287.024 26.3026 287.972 26.0076 288.758C25.7127 289.54 25.2868 290.138 24.7299 290.553C24.1731 290.964 23.5036 291.169 22.7214 291.169ZM22.7214 289.842C23.4108 289.842 23.9494 289.505 24.3372 288.832C24.7283 288.16 24.9238 287.187 24.9238 285.914C24.9238 285.069 24.8343 284.355 24.6554 283.771C24.4797 283.185 24.2261 282.741 23.8947 282.439C23.5666 282.134 23.1755 281.982 22.7214 281.982C22.0353 281.982 21.4967 282.32 21.1056 282.996C20.7145 283.672 20.5173 284.645 20.514 285.914C20.514 286.763 20.6019 287.48 20.7775 288.067C20.9565 288.65 21.21 289.093 21.5382 289.394C21.8663 289.692 22.2607 289.842 22.7214 289.842Z" fill="#0A0A18"/>
    <path opacity="0.5" d="M0.979403 331V329.886L4.42472 326.317C4.79261 325.929 5.09588 325.589 5.33452 325.298C5.57647 325.003 5.7571 324.723 5.87642 324.457C5.99574 324.192 6.0554 323.911 6.0554 323.612C6.0554 323.274 5.97585 322.982 5.81676 322.737C5.65767 322.489 5.44058 322.298 5.16548 322.165C4.89039 322.03 4.58049 321.962 4.2358 321.962C3.87121 321.962 3.55303 322.036 3.28125 322.185C3.00947 322.335 2.80066 322.545 2.65483 322.817C2.509 323.089 2.43608 323.407 2.43608 323.771H0.96946C0.96946 323.152 1.11198 322.61 1.39702 322.146C1.68205 321.682 2.07315 321.322 2.57031 321.067C3.06747 320.808 3.63258 320.679 4.26562 320.679C4.9053 320.679 5.46875 320.807 5.95597 321.062C6.4465 321.314 6.82931 321.658 7.1044 322.096C7.3795 322.53 7.51705 323.021 7.51705 323.567C7.51705 323.945 7.44579 324.315 7.30327 324.676C7.16406 325.037 6.92045 325.44 6.57244 325.884C6.22443 326.325 5.74053 326.86 5.12074 327.49L3.0973 329.608V329.683H7.68111V331H0.979403ZM13.1101 331.169C12.3246 331.166 11.6534 330.959 11.0966 330.548C10.5398 330.137 10.1139 329.538 9.81889 328.753C9.52391 327.967 9.37642 327.021 9.37642 325.914C9.37642 324.81 9.52391 323.867 9.81889 323.085C10.1172 322.303 10.5447 321.706 11.1016 321.295C11.6617 320.884 12.3312 320.679 13.1101 320.679C13.889 320.679 14.5568 320.886 15.1136 321.3C15.6705 321.711 16.0964 322.308 16.3913 323.09C16.6896 323.869 16.8388 324.81 16.8388 325.914C16.8388 327.024 16.6913 327.972 16.3963 328.758C16.1013 329.54 15.6754 330.138 15.1186 330.553C14.5618 330.964 13.8923 331.169 13.1101 331.169ZM13.1101 329.842C13.7995 329.842 14.3381 329.505 14.7259 328.832C15.117 328.16 15.3125 327.187 15.3125 325.914C15.3125 325.069 15.223 324.355 15.044 323.771C14.8684 323.185 14.6148 322.741 14.2834 322.439C13.9553 322.134 13.5642 321.982 13.1101 321.982C12.424 321.982 11.8854 322.32 11.4943 322.996C11.1032 323.672 10.906 324.645 10.9027 325.914C10.9027 326.763 10.9905 327.48 11.1662 328.067C11.3452 328.65 11.5987 329.093 11.9268 329.394C12.255 329.692 12.6494 329.842 13.1101 329.842ZM22.1472 331.169C21.3617 331.166 20.6905 330.959 20.1337 330.548C19.5769 330.137 19.151 329.538 18.856 328.753C18.561 327.967 18.4135 327.021 18.4135 325.914C18.4135 324.81 18.561 323.867 18.856 323.085C19.1543 322.303 19.5819 321.706 20.1387 321.295C20.6988 320.884 21.3683 320.679 22.1472 320.679C22.9261 320.679 23.5939 320.886 24.1507 321.3C24.7076 321.711 25.1335 322.308 25.4284 323.09C25.7267 323.869 25.8759 324.81 25.8759 325.914C25.8759 327.024 25.7284 327.972 25.4334 328.758C25.1384 329.54 24.7125 330.138 24.1557 330.553C23.5989 330.964 22.9294 331.169 22.1472 331.169ZM22.1472 329.842C22.8366 329.842 23.3752 329.505 23.763 328.832C24.1541 328.16 24.3496 327.187 24.3496 325.914C24.3496 325.069 24.2601 324.355 24.0811 323.771C23.9055 323.185 23.6519 322.741 23.3205 322.439C22.9924 322.134 22.6013 321.982 22.1472 321.982C21.4611 321.982 20.9225 322.32 20.5314 322.996C20.1403 323.672 19.9431 324.645 19.9398 325.914C19.9398 326.763 20.0276 327.48 20.2033 328.067C20.3823 328.65 20.6358 329.093 20.964 329.394C21.2921 329.692 21.6865 329.842 22.1472 329.842Z" fill="#0A0A18"/>
    <path opacity="0.5" d="M4.52415 371.169C3.73864 371.166 3.06747 370.959 2.51065 370.548C1.95384 370.137 1.52794 369.538 1.23295 368.753C0.937974 367.967 0.790483 367.021 0.790483 365.914C0.790483 364.81 0.937974 363.867 1.23295 363.085C1.53125 362.303 1.95881 361.706 2.51562 361.295C3.07576 360.884 3.74527 360.679 4.52415 360.679C5.30303 360.679 5.97088 360.886 6.5277 361.3C7.08452 361.711 7.51042 362.308 7.8054 363.09C8.10369 363.869 8.25284 364.81 8.25284 365.914C8.25284 367.024 8.10535 367.972 7.81037 368.758C7.51539 369.54 7.08949 370.138 6.53267 370.553C5.97585 370.964 5.30634 371.169 4.52415 371.169ZM4.52415 369.842C5.21354 369.842 5.75213 369.505 6.13991 368.832C6.53101 368.16 6.72656 367.187 6.72656 365.914C6.72656 365.069 6.63707 364.355 6.4581 363.771C6.28243 363.185 6.02888 362.741 5.69744 362.439C5.36932 362.134 4.97822 361.982 4.52415 361.982C3.83807 361.982 3.29948 362.32 2.90838 362.996C2.51728 363.672 2.32008 364.645 2.31676 365.914C2.31676 366.763 2.40459 367.48 2.58026 368.067C2.75923 368.65 3.01278 369.093 3.34091 369.394C3.66903 369.692 4.06345 369.842 4.52415 369.842Z" fill="#0A0A18"/>
    <path opacity="0.5" d="M56.8423 381.818V392H55.3011V383.359H55.2415L52.8054 384.95V383.479L55.3459 381.818H56.8423Z" fill="#0A0A18"/>
    <path opacity="0.5" d="M253.979 392V390.886L257.425 387.317C257.793 386.929 258.096 386.589 258.335 386.298C258.576 386.003 258.757 385.723 258.876 385.457C258.996 385.192 259.055 384.911 259.055 384.612C259.055 384.274 258.976 383.982 258.817 383.737C258.658 383.489 258.441 383.298 258.165 383.165C257.89 383.03 257.58 382.962 257.236 382.962C256.871 382.962 256.553 383.036 256.281 383.185C256.009 383.335 255.801 383.545 255.655 383.817C255.509 384.089 255.436 384.407 255.436 384.771H253.969C253.969 384.152 254.112 383.61 254.397 383.146C254.682 382.682 255.073 382.322 255.57 382.067C256.067 381.808 256.633 381.679 257.266 381.679C257.905 381.679 258.469 381.807 258.956 382.062C259.446 382.314 259.829 382.658 260.104 383.096C260.379 383.53 260.517 384.021 260.517 384.567C260.517 384.945 260.446 385.315 260.303 385.676C260.164 386.037 259.92 386.44 259.572 386.884C259.224 387.325 258.741 387.86 258.121 388.49L256.097 390.608V390.683H260.681V392H253.979ZM265.926 392.139C265.303 392.139 264.743 392.02 264.246 391.781C263.752 391.539 263.357 391.208 263.062 390.787C262.768 390.366 262.61 389.885 262.59 389.345H264.082C264.118 389.783 264.312 390.142 264.663 390.424C265.015 390.706 265.436 390.847 265.926 390.847C266.317 390.847 266.664 390.757 266.965 390.578C267.27 390.396 267.509 390.146 267.681 389.827C267.857 389.509 267.945 389.146 267.945 388.739C267.945 388.324 267.855 387.955 267.676 387.63C267.497 387.305 267.25 387.05 266.935 386.864C266.624 386.679 266.266 386.584 265.862 386.581C265.553 386.581 265.243 386.634 264.932 386.74C264.62 386.846 264.368 386.985 264.176 387.158L262.769 386.949L263.341 381.818H268.939V383.136H264.619L264.295 385.984H264.355C264.554 385.792 264.817 385.631 265.146 385.502C265.477 385.373 265.832 385.308 266.21 385.308C266.829 385.308 267.381 385.456 267.865 385.751C268.352 386.046 268.735 386.448 269.013 386.959C269.295 387.466 269.434 388.049 269.431 388.709C269.434 389.368 269.285 389.957 268.984 390.474C268.685 390.991 268.271 391.398 267.741 391.697C267.214 391.992 266.609 392.139 265.926 392.139Z" fill="#0A0A18"/>
    <path opacity="0.5" d="M90.3402 392.139C89.7171 392.139 89.157 392.02 88.6598 391.781C88.166 391.539 87.7715 391.208 87.4766 390.787C87.1816 390.366 87.0241 389.885 87.0043 389.345H88.4957C88.5322 389.783 88.7261 390.142 89.0774 390.424C89.4287 390.706 89.8497 390.847 90.3402 390.847C90.7313 390.847 91.0777 390.757 91.3793 390.578C91.6842 390.396 91.9228 390.146 92.0952 389.827C92.2708 389.509 92.3587 389.146 92.3587 388.739C92.3587 388.324 92.2692 387.955 92.0902 387.63C91.9112 387.305 91.6643 387.05 91.3494 386.864C91.0379 386.679 90.6799 386.584 90.2756 386.581C89.9673 386.581 89.6574 386.634 89.3459 386.74C89.0343 386.846 88.7824 386.985 88.5902 387.158L87.1832 386.949L87.755 381.818H93.353V383.136H89.0327L88.7095 385.984H88.7692C88.968 385.792 89.2315 385.631 89.5597 385.502C89.8911 385.373 90.2457 385.308 90.6236 385.308C91.2434 385.308 91.7952 385.456 92.2791 385.751C92.7663 386.046 93.1491 386.448 93.4276 386.959C93.7093 387.466 93.8485 388.049 93.8452 388.709C93.8485 389.368 93.6993 389.957 93.3977 390.474C93.0994 390.991 92.6851 391.398 92.1548 391.697C91.6278 391.992 91.023 392.139 90.3402 392.139Z" fill="#0A0A18"/>
    <path opacity="0.5" d="M302.524 392.139C301.841 392.139 301.232 392.022 300.695 391.786C300.161 391.551 299.738 391.224 299.427 390.807C299.119 390.386 298.953 389.899 298.93 389.345H300.491C300.511 389.647 300.612 389.909 300.794 390.131C300.98 390.349 301.222 390.518 301.52 390.638C301.818 390.757 302.15 390.817 302.514 390.817C302.915 390.817 303.27 390.747 303.578 390.608C303.89 390.469 304.133 390.275 304.309 390.026C304.485 389.774 304.572 389.484 304.572 389.156C304.572 388.815 304.485 388.515 304.309 388.256C304.137 387.995 303.883 387.789 303.548 387.64C303.217 387.491 302.816 387.416 302.345 387.416H301.485V386.163H302.345C302.723 386.163 303.054 386.095 303.339 385.96C303.628 385.824 303.853 385.635 304.016 385.393C304.178 385.147 304.259 384.861 304.259 384.533C304.259 384.218 304.188 383.944 304.045 383.712C303.906 383.477 303.707 383.293 303.449 383.161C303.194 383.028 302.892 382.962 302.544 382.962C302.213 382.962 301.903 383.023 301.614 383.146C301.329 383.265 301.097 383.437 300.918 383.663C300.739 383.885 300.643 384.152 300.63 384.463H299.143C299.16 383.913 299.322 383.429 299.631 383.011C299.942 382.594 300.353 382.267 300.864 382.032C301.374 381.797 301.941 381.679 302.564 381.679C303.217 381.679 303.78 381.807 304.254 382.062C304.732 382.314 305.099 382.65 305.358 383.071C305.62 383.492 305.749 383.953 305.746 384.453C305.749 385.023 305.59 385.507 305.268 385.905C304.95 386.303 304.526 386.569 303.996 386.705V386.785C304.672 386.888 305.196 387.156 305.567 387.59C305.941 388.024 306.127 388.563 306.124 389.206C306.127 389.766 305.971 390.268 305.656 390.712C305.345 391.156 304.919 391.506 304.379 391.761C303.838 392.013 303.22 392.139 302.524 392.139ZM311.548 392.169C310.762 392.166 310.091 391.959 309.534 391.548C308.977 391.137 308.551 390.538 308.256 389.753C307.961 388.967 307.814 388.021 307.814 386.914C307.814 385.81 307.961 384.867 308.256 384.085C308.555 383.303 308.982 382.706 309.539 382.295C310.099 381.884 310.769 381.679 311.548 381.679C312.326 381.679 312.994 381.886 313.551 382.3C314.108 382.711 314.534 383.308 314.829 384.09C315.127 384.869 315.276 385.81 315.276 386.914C315.276 388.024 315.129 388.972 314.834 389.758C314.539 390.54 314.113 391.138 313.556 391.553C312.999 391.964 312.33 392.169 311.548 392.169ZM311.548 390.842C312.237 390.842 312.776 390.505 313.163 389.832C313.554 389.16 313.75 388.187 313.75 386.914C313.75 386.069 313.661 385.355 313.482 384.771C313.306 384.185 313.052 383.741 312.721 383.439C312.393 383.134 312.002 382.982 311.548 382.982C310.862 382.982 310.323 383.32 309.932 383.996C309.541 384.672 309.344 385.645 309.34 386.914C309.34 387.763 309.428 388.48 309.604 389.067C309.783 389.65 310.036 390.093 310.364 390.394C310.692 390.692 311.087 390.842 311.548 390.842Z" fill="#0A0A18"/>
    <path opacity="0.5" d="M126.842 381.818V392H125.301V383.359H125.241L122.805 384.95V383.479L125.346 381.818H126.842ZM133.141 392.169C132.356 392.166 131.685 391.959 131.128 391.548C130.571 391.137 130.145 390.538 129.85 389.753C129.555 388.967 129.408 388.021 129.408 386.914C129.408 385.81 129.555 384.867 129.85 384.085C130.148 383.303 130.576 382.706 131.133 382.295C131.693 381.884 132.362 381.679 133.141 381.679C133.92 381.679 134.588 381.886 135.145 382.3C135.702 382.711 136.128 383.308 136.423 384.09C136.721 384.869 136.87 385.81 136.87 386.914C136.87 388.024 136.723 388.972 136.428 389.758C136.133 390.54 135.707 391.138 135.15 391.553C134.593 391.964 133.924 392.169 133.141 392.169ZM133.141 390.842C133.831 390.842 134.369 390.505 134.757 389.832C135.148 389.16 135.344 388.187 135.344 386.914C135.344 386.069 135.254 385.355 135.075 384.771C134.9 384.185 134.646 383.741 134.315 383.439C133.987 383.134 133.595 382.982 133.141 382.982C132.455 382.982 131.917 383.32 131.526 383.996C131.134 384.672 130.937 385.645 130.934 386.914C130.934 387.763 131.022 388.48 131.197 389.067C131.376 389.65 131.63 390.093 131.958 390.394C132.286 390.692 132.681 390.842 133.141 390.842Z" fill="#0A0A18"/>
    <path opacity="0.5" d="M169.842 381.818V392H168.301V383.359H168.241L165.805 384.95V383.479L168.346 381.818H169.842ZM175.957 392.139C175.334 392.139 174.774 392.02 174.277 391.781C173.783 391.539 173.389 391.208 173.094 390.787C172.799 390.366 172.641 389.885 172.621 389.345H174.113C174.149 389.783 174.343 390.142 174.695 390.424C175.046 390.706 175.467 390.847 175.957 390.847C176.348 390.847 176.695 390.757 176.996 390.578C177.301 390.396 177.54 390.146 177.712 389.827C177.888 389.509 177.976 389.146 177.976 388.739C177.976 388.324 177.886 387.955 177.707 387.63C177.528 387.305 177.281 387.05 176.967 386.864C176.655 386.679 176.297 386.584 175.893 386.581C175.585 386.581 175.275 386.634 174.963 386.74C174.652 386.846 174.4 386.985 174.207 387.158L172.8 386.949L173.372 381.818H178.97V383.136H174.65L174.327 385.984H174.386C174.585 385.792 174.849 385.631 175.177 385.502C175.508 385.373 175.863 385.308 176.241 385.308C176.861 385.308 177.412 385.456 177.896 385.751C178.384 386.046 178.766 386.448 179.045 386.959C179.326 387.466 179.466 388.049 179.462 388.709C179.466 389.368 179.317 389.957 179.015 390.474C178.717 390.991 178.302 391.398 177.772 391.697C177.245 391.992 176.64 392.139 175.957 392.139Z" fill="#0A0A18"/>
    <path opacity="0.5" d="M208.979 392V390.886L212.425 387.317C212.793 386.929 213.096 386.589 213.335 386.298C213.576 386.003 213.757 385.723 213.876 385.457C213.996 385.192 214.055 384.911 214.055 384.612C214.055 384.274 213.976 383.982 213.817 383.737C213.658 383.489 213.441 383.298 213.165 383.165C212.89 383.03 212.58 382.962 212.236 382.962C211.871 382.962 211.553 383.036 211.281 383.185C211.009 383.335 210.801 383.545 210.655 383.817C210.509 384.089 210.436 384.407 210.436 384.771H208.969C208.969 384.152 209.112 383.61 209.397 383.146C209.682 382.682 210.073 382.322 210.57 382.067C211.067 381.808 211.633 381.679 212.266 381.679C212.905 381.679 213.469 381.807 213.956 382.062C214.446 382.314 214.829 382.658 215.104 383.096C215.379 383.53 215.517 384.021 215.517 384.567C215.517 384.945 215.446 385.315 215.303 385.676C215.164 386.037 214.92 386.44 214.572 386.884C214.224 387.325 213.741 387.86 213.121 388.49L211.097 390.608V390.683H215.681V392H208.979ZM221.11 392.169C220.325 392.166 219.653 391.959 219.097 391.548C218.54 391.137 218.114 390.538 217.819 389.753C217.524 388.967 217.376 388.021 217.376 386.914C217.376 385.81 217.524 384.867 217.819 384.085C218.117 383.303 218.545 382.706 219.102 382.295C219.662 381.884 220.331 381.679 221.11 381.679C221.889 381.679 222.557 381.886 223.114 382.3C223.67 382.711 224.096 383.308 224.391 384.09C224.69 384.869 224.839 385.81 224.839 386.914C224.839 388.024 224.691 388.972 224.396 389.758C224.101 390.54 223.675 391.138 223.119 391.553C222.562 391.964 221.892 392.169 221.11 392.169ZM221.11 390.842C221.799 390.842 222.338 390.505 222.726 389.832C223.117 389.16 223.312 388.187 223.312 386.914C223.312 386.069 223.223 385.355 223.044 384.771C222.868 384.185 222.615 383.741 222.283 383.439C221.955 383.134 221.564 382.982 221.11 382.982C220.424 382.982 219.885 383.32 219.494 383.996C219.103 384.672 218.906 385.645 218.903 386.914C218.903 387.763 218.991 388.48 219.166 389.067C219.345 389.65 219.599 390.093 219.927 390.394C220.255 390.692 220.649 390.842 221.11 390.842Z" fill="#0A0A18"/>
    <rect x="52" y="5" width="274" height="1" fill="#EBEBEB"/>
    <rect x="52" y="45" width="274" height="1" fill="#EBEBEB"/>
    <rect x="52" y="85" width="274" height="1" fill="#EBEBEB"/>
    <rect x="52" y="125" width="274" height="1" fill="#EBEBEB"/>
    <rect x="52" y="165" width="274" height="1" fill="#EBEBEB"/>
    <rect x="52" y="205" width="274" height="1" fill="#EBEBEB"/>
    <rect x="52" y="245" width="274" height="1" fill="#EBEBEB"/>
    <rect x="52" y="285" width="274" height="1" fill="#EBEBEB"/>
    <rect x="52" y="325" width="274" height="1" fill="#EBEBEB"/>
    <rect x="52" y="365" width="274" height="1" fill="#EBEBEB"/>
    <path d="M60.5002 333.5L52 329.5V365H326V249L315.611 273.5L305.222 303L296.931 282.5L286.752 298.5L277.517 311L266.918 303L259.258 288.5L249.393 311L240.159 319L229.769 335L221.374 323.5L211.93 319L203.01 337.5L193.46 342L184.96 335L174.885 337.5L165.441 326L156.416 329.5L148.86 342H138.471L130.81 329.5L121.681 337.5L113.495 329.5L106.464 313.5L99.6431 326H91.6676L83.2723 333.5L76.9759 326L68.1609 329.5L60.5002 333.5Z" fill="url(#paint0_linear_0_1)" fill-opacity="0.2"/>
    <path d="M52 329.5L60.5002 333.5L68.1609 329.5L76.9759 326L83.2723 333.5L91.6676 326H99.643L106.464 313.5L113.495 329.5L121.681 337.5L130.81 329.5L138.471 342H148.86L156.416 329.5L165.441 326L174.885 337.5L184.96 335L193.46 342L203.01 337.5L211.93 319L221.374 323.5L229.769 335L240.159 319L249.393 311L259.258 288.5L266.918 303L277.517 311L286.752 298.5L296.931 282.5L305.222 303L315.611 273.5L326 249" stroke="#9866FD" stroke-width="2"/>
    <path d="M52 329.5L60.5002 333.5L68.1609 329.5L76.9759 326L83.2723 333.5L91.6676 326H99.643L106.464 313.5L113.495 329.5L121.681 337.5L130.81 329.5L138.471 342H148.86L156.416 329.5L165.441 326L174.885 337.5L184.96 335L193.46 342L203.01 337.5L211.93 319L221.374 323.5L229.769 335L240.159 319L249.393 311L259.258 288.5L266.918 303L277.517 311L286.752 298.5L296.931 282.5L305.222 303L315.611 273.5L326 249" stroke="#9866FD" stroke-width="2"/>
    <path d="M52 329.5L60.5002 333.5L68.1609 329.5L76.9759 326L83.2723 333.5L91.6676 326H99.643L106.464 313.5L113.495 329.5L121.681 337.5L130.81 329.5L138.471 342H148.86L156.416 329.5L165.441 326L174.885 337.5L184.96 335L193.46 342L203.01 337.5L211.93 319L221.374 323.5L229.769 335L240.159 319L249.393 311L259.258 288.5L266.918 303L277.517 311L286.752 298.5L296.931 282.5L305.222 303L315.611 273.5L326 249" stroke="#9866FD" stroke-width="2"/>
    <path d="M61.354 325L52 342.5V365H326V315.5L316.226 331.5L306.556 335.5L297.307 311L287.007 329L277.758 315.5L267.143 325.5L257.999 308.5L249.171 276.5L240.132 286L231.198 245.5L221.109 269L211.755 245.5L202.716 192L194.203 163.5L187.581 122L177.176 204L165.93 256L158.258 224.5L149.009 269L140.075 286L131.142 292.5L121.893 312L113.695 303.5L106.338 312L99.1906 338L90.5723 342.5L83.005 328L76.0683 335L67.6601 338L61.354 325Z" fill="url(#paint1_linear_0_1)" fill-opacity="0.2"/>
    <path d="M52 342L61.354 324.54L67.6601 337.51L76.0683 334.517L83.005 327.533L90.5723 342L99.1906 337.51L106.338 311.569L113.695 303.088L121.893 311.569L131.142 292.113L140.075 285.628L149.009 268.667L158.258 224.268L165.93 255.696L177.176 203.814L187.581 122L194.203 163.406L202.716 191.841L211.755 245.22L221.109 268.667L231.198 245.22L240.132 285.628L249.171 276.15L257.999 308.077L267.143 325.039L277.758 315.061L287.007 328.531L297.307 310.571L306.556 335.016L316.226 331.025L326 315.061" stroke="#38F8AC" stroke-width="2"/>
    <defs>
    <linearGradient id="paint0_linear_0_1" x1="189" y1="249" x2="189" y2="365" gradientUnits="userSpaceOnUse">
    <stop stop-color="#9866FD"/>
    <stop offset="1" stop-color="#9866FD" stop-opacity="0"/>
    </linearGradient>
    <linearGradient id="paint1_linear_0_1" x1="189" y1="122" x2="189" y2="365" gradientUnits="userSpaceOnUse">
    <stop stop-color="#38F8AC"/>
    <stop offset="1" stop-color="#38F8AC" stop-opacity="0"/>
    </linearGradient>
    </defs>
    </svg>
    