<svg width="1358" height="497" viewBox="0 0 1358 497" fill="none"
    xmlns="http://www.w3.org/2000/svg">
    <path opacity="0.5" d="M57.8423 485.818V496H56.3011V487.359H56.2415L53.8054 488.95V487.479L56.3459 485.818H57.8423Z" fill="#0A0A18"/>
    <path opacity="0.5" d="M237.534 496.139C237.08 496.133 236.633 496.05 236.192 495.891C235.754 495.732 235.357 495.466 234.999 495.095C234.641 494.724 234.354 494.225 234.138 493.599C233.926 492.972 233.82 492.19 233.82 491.252C233.82 490.364 233.908 489.575 234.084 488.886C234.263 488.196 234.52 487.615 234.854 487.141C235.189 486.663 235.594 486.3 236.067 486.052C236.541 485.803 237.073 485.679 237.663 485.679C238.27 485.679 238.808 485.798 239.279 486.037C239.75 486.276 240.131 486.605 240.423 487.026C240.718 487.447 240.905 487.926 240.984 488.463H239.468C239.365 488.039 239.161 487.692 238.857 487.424C238.552 487.156 238.154 487.021 237.663 487.021C236.918 487.021 236.336 487.346 235.918 487.996C235.504 488.645 235.295 489.549 235.292 490.705H235.366C235.542 490.417 235.758 490.172 236.013 489.969C236.271 489.764 236.56 489.607 236.878 489.497C237.199 489.384 237.537 489.328 237.892 489.328C238.482 489.328 239.016 489.472 239.493 489.761C239.973 490.046 240.356 490.44 240.641 490.944C240.926 491.448 241.069 492.024 241.069 492.674C241.069 493.324 240.921 493.912 240.626 494.439C240.335 494.966 239.924 495.384 239.393 495.692C238.863 495.997 238.243 496.146 237.534 496.139ZM237.529 494.847C237.92 494.847 238.27 494.75 238.578 494.558C238.886 494.366 239.13 494.107 239.309 493.783C239.488 493.458 239.577 493.095 239.577 492.694C239.577 492.303 239.49 491.946 239.314 491.625C239.142 491.304 238.903 491.048 238.598 490.859C238.296 490.67 237.952 490.576 237.564 490.576C237.269 490.576 236.996 490.632 236.744 490.745C236.495 490.858 236.276 491.013 236.087 491.212C235.898 491.411 235.749 491.64 235.64 491.898C235.534 492.154 235.481 492.424 235.481 492.709C235.481 493.09 235.569 493.443 235.744 493.768C235.923 494.093 236.167 494.354 236.475 494.553C236.787 494.749 237.138 494.847 237.529 494.847Z" fill="#0A0A18"/>
    <path opacity="0.5" d="M424.842 485.818V496H423.301V487.359H423.241L420.805 488.95V487.479L423.346 485.818H424.842ZM431.46 485.818V496H429.918V487.359H429.859L427.423 488.95V487.479L429.963 485.818H431.46Z" fill="#0A0A18"/>
    <path opacity="0.5" d="M637.842 485.818V496H636.301V487.359H636.241L633.805 488.95V487.479L636.346 485.818H637.842ZM644.151 496.139C643.697 496.133 643.25 496.05 642.809 495.891C642.371 495.732 641.974 495.466 641.616 495.095C641.258 494.724 640.971 494.225 640.756 493.599C640.544 492.972 640.438 492.19 640.438 491.252C640.438 490.364 640.525 489.575 640.701 488.886C640.88 488.196 641.137 487.615 641.472 487.141C641.806 486.663 642.211 486.3 642.685 486.052C643.159 485.803 643.691 485.679 644.281 485.679C644.887 485.679 645.426 485.798 645.896 486.037C646.367 486.276 646.748 486.605 647.04 487.026C647.335 487.447 647.522 487.926 647.602 488.463H646.085C645.982 488.039 645.779 487.692 645.474 487.424C645.169 487.156 644.771 487.021 644.281 487.021C643.535 487.021 642.953 487.346 642.536 487.996C642.121 488.645 641.912 489.549 641.909 490.705H641.984C642.159 490.417 642.375 490.172 642.63 489.969C642.888 489.764 643.177 489.607 643.495 489.497C643.817 489.384 644.155 489.328 644.509 489.328C645.099 489.328 645.633 489.472 646.11 489.761C646.591 490.046 646.973 490.44 647.259 490.944C647.544 491.448 647.686 492.024 647.686 492.674C647.686 493.324 647.539 493.912 647.244 494.439C646.952 494.966 646.541 495.384 646.011 495.692C645.48 495.997 644.861 496.146 644.151 496.139ZM644.146 494.847C644.537 494.847 644.887 494.75 645.195 494.558C645.504 494.366 645.747 494.107 645.926 493.783C646.105 493.458 646.195 493.095 646.195 492.694C646.195 492.303 646.107 491.946 645.931 491.625C645.759 491.304 645.52 491.048 645.215 490.859C644.914 490.67 644.569 490.576 644.181 490.576C643.886 490.576 643.613 490.632 643.361 490.745C643.112 490.858 642.893 491.013 642.705 491.212C642.516 491.411 642.366 491.64 642.257 491.898C642.151 492.154 642.098 492.424 642.098 492.709C642.098 493.09 642.186 493.443 642.362 493.768C642.54 494.093 642.784 494.354 643.092 494.553C643.404 494.749 643.755 494.847 644.146 494.847Z" fill="#0A0A18"/>
    <path opacity="0.5" d="M849.979 496V494.886L853.425 491.317C853.793 490.929 854.096 490.589 854.335 490.298C854.576 490.003 854.757 489.723 854.876 489.457C854.996 489.192 855.055 488.911 855.055 488.612C855.055 488.274 854.976 487.982 854.817 487.737C854.658 487.489 854.441 487.298 854.165 487.165C853.89 487.03 853.58 486.962 853.236 486.962C852.871 486.962 852.553 487.036 852.281 487.185C852.009 487.335 851.801 487.545 851.655 487.817C851.509 488.089 851.436 488.407 851.436 488.771H849.969C849.969 488.152 850.112 487.61 850.397 487.146C850.682 486.682 851.073 486.322 851.57 486.067C852.067 485.808 852.633 485.679 853.266 485.679C853.905 485.679 854.469 485.807 854.956 486.062C855.446 486.314 855.829 486.658 856.104 487.096C856.379 487.53 856.517 488.021 856.517 488.567C856.517 488.945 856.446 489.315 856.303 489.676C856.164 490.037 855.92 490.44 855.572 490.884C855.224 491.325 854.741 491.86 854.121 492.49L852.097 494.608V494.683H856.681V496H849.979ZM862.428 485.818V496H860.887V487.359H860.827L858.391 488.95V487.479L860.932 485.818H862.428Z" fill="#0A0A18"/>
    <path opacity="0.5" d="M1072.98 496V494.886L1076.42 491.317C1076.79 490.929 1077.1 490.589 1077.33 490.298C1077.58 490.003 1077.76 489.723 1077.88 489.457C1078 489.192 1078.06 488.911 1078.06 488.612C1078.06 488.274 1077.98 487.982 1077.82 487.737C1077.66 487.489 1077.44 487.298 1077.17 487.165C1076.89 487.03 1076.58 486.962 1076.24 486.962C1075.87 486.962 1075.55 487.036 1075.28 487.185C1075.01 487.335 1074.8 487.545 1074.65 487.817C1074.51 488.089 1074.44 488.407 1074.44 488.771H1072.97C1072.97 488.152 1073.11 487.61 1073.4 487.146C1073.68 486.682 1074.07 486.322 1074.57 486.067C1075.07 485.808 1075.63 485.679 1076.27 485.679C1076.91 485.679 1077.47 485.807 1077.96 486.062C1078.45 486.314 1078.83 486.658 1079.1 487.096C1079.38 487.53 1079.52 488.021 1079.52 488.567C1079.52 488.945 1079.45 489.315 1079.3 489.676C1079.16 490.037 1078.92 490.44 1078.57 490.884C1078.22 491.325 1077.74 491.86 1077.12 492.49L1075.1 494.608V494.683H1079.68V496H1072.98ZM1085.12 496.139C1084.67 496.133 1084.22 496.05 1083.78 495.891C1083.34 495.732 1082.94 495.466 1082.58 495.095C1082.23 494.724 1081.94 494.225 1081.72 493.599C1081.51 492.972 1081.41 492.19 1081.41 491.252C1081.41 490.364 1081.49 489.575 1081.67 488.886C1081.85 488.196 1082.11 487.615 1082.44 487.141C1082.78 486.663 1083.18 486.3 1083.65 486.052C1084.13 485.803 1084.66 485.679 1085.25 485.679C1085.86 485.679 1086.39 485.798 1086.87 486.037C1087.34 486.276 1087.72 486.605 1088.01 487.026C1088.3 487.447 1088.49 487.926 1088.57 488.463H1087.05C1086.95 488.039 1086.75 487.692 1086.44 487.424C1086.14 487.156 1085.74 487.021 1085.25 487.021C1084.5 487.021 1083.92 487.346 1083.5 487.996C1083.09 488.645 1082.88 489.549 1082.88 490.705H1082.95C1083.13 490.417 1083.34 490.172 1083.6 489.969C1083.86 489.764 1084.15 489.607 1084.46 489.497C1084.79 489.384 1085.12 489.328 1085.48 489.328C1086.07 489.328 1086.6 489.472 1087.08 489.761C1087.56 490.046 1087.94 490.44 1088.23 490.944C1088.51 491.448 1088.65 492.024 1088.65 492.674C1088.65 493.324 1088.51 493.912 1088.21 494.439C1087.92 494.966 1087.51 495.384 1086.98 495.692C1086.45 495.997 1085.83 496.146 1085.12 496.139ZM1085.12 494.847C1085.51 494.847 1085.86 494.75 1086.16 494.558C1086.47 494.366 1086.72 494.107 1086.89 493.783C1087.07 493.458 1087.16 493.095 1087.16 492.694C1087.16 492.303 1087.08 491.946 1086.9 491.625C1086.73 491.304 1086.49 491.048 1086.18 490.859C1085.88 490.67 1085.54 490.576 1085.15 490.576C1084.85 490.576 1084.58 490.632 1084.33 490.745C1084.08 490.858 1083.86 491.013 1083.67 491.212C1083.48 491.411 1083.34 491.64 1083.23 491.898C1083.12 492.154 1083.07 492.424 1083.07 492.709C1083.07 493.09 1083.15 493.443 1083.33 493.768C1083.51 494.093 1083.75 494.354 1084.06 494.553C1084.37 494.749 1084.72 494.847 1085.12 494.847Z" fill="#0A0A18"/>
    <path opacity="0.5" d="M87.9794 496V494.886L91.4247 491.317C91.7926 490.929 92.0959 490.589 92.3345 490.298C92.5765 490.003 92.7571 489.723 92.8764 489.457C92.9957 489.192 93.0554 488.911 93.0554 488.612C93.0554 488.274 92.9759 487.982 92.8168 487.737C92.6577 487.489 92.4406 487.298 92.1655 487.165C91.8904 487.03 91.5805 486.962 91.2358 486.962C90.8712 486.962 90.553 487.036 90.2812 487.185C90.0095 487.335 89.8007 487.545 89.6548 487.817C89.509 488.089 89.4361 488.407 89.4361 488.771H87.9695C87.9695 488.152 88.112 487.61 88.397 487.146C88.6821 486.682 89.0732 486.322 89.5703 486.067C90.0675 485.808 90.6326 485.679 91.2656 485.679C91.9053 485.679 92.4688 485.807 92.956 486.062C93.4465 486.314 93.8293 486.658 94.1044 487.096C94.3795 487.53 94.517 488.021 94.517 488.567C94.517 488.945 94.4458 489.315 94.3033 489.676C94.1641 490.037 93.9205 490.44 93.5724 490.884C93.2244 491.325 92.7405 491.86 92.1207 492.49L90.0973 494.608V494.683H94.6811V496H87.9794Z" fill="#0A0A18"/>
    <path opacity="0.5" d="M270.322 496L274.767 487.21V487.136H269.626V485.818H276.358V487.18L271.928 496H270.322Z" fill="#0A0A18"/>
    <path opacity="0.5" d="M465.842 485.818V496H464.301V487.359H464.241L461.805 488.95V487.479L464.346 485.818H465.842ZM468.597 496V494.886L472.042 491.317C472.41 490.929 472.713 490.589 472.952 490.298C473.194 490.003 473.374 489.723 473.494 489.457C473.613 489.192 473.673 488.911 473.673 488.612C473.673 488.274 473.593 487.982 473.434 487.737C473.275 487.489 473.058 487.298 472.783 487.165C472.508 487.03 472.198 486.962 471.853 486.962C471.488 486.962 471.17 487.036 470.898 487.185C470.627 487.335 470.418 487.545 470.272 487.817C470.126 488.089 470.053 488.407 470.053 488.771H468.587C468.587 488.152 468.729 487.61 469.014 487.146C469.299 486.682 469.69 486.322 470.188 486.067C470.685 485.808 471.25 485.679 471.883 485.679C472.522 485.679 473.086 485.807 473.573 486.062C474.064 486.314 474.446 486.658 474.722 487.096C474.997 487.53 475.134 488.021 475.134 488.567C475.134 488.945 475.063 489.315 474.92 489.676C474.781 490.037 474.538 490.44 474.19 490.884C473.842 491.325 473.358 491.86 472.738 492.49L470.714 494.608V494.683H475.298V496H468.597Z" fill="#0A0A18"/>
    <path opacity="0.5" d="M680.842 485.818V496H679.301V487.359H679.241L676.805 488.95V487.479L679.346 485.818H680.842ZM683.94 496L688.384 487.21V487.136H683.244V485.818H689.975V487.18L685.545 496H683.94Z" fill="#0A0A18"/>
    <path opacity="0.5" d="M892.979 496V494.886L896.425 491.317C896.793 490.929 897.096 490.589 897.335 490.298C897.576 490.003 897.757 489.723 897.876 489.457C897.996 489.192 898.055 488.911 898.055 488.612C898.055 488.274 897.976 487.982 897.817 487.737C897.658 487.489 897.441 487.298 897.165 487.165C896.89 487.03 896.58 486.962 896.236 486.962C895.871 486.962 895.553 487.036 895.281 487.185C895.009 487.335 894.801 487.545 894.655 487.817C894.509 488.089 894.436 488.407 894.436 488.771H892.969C892.969 488.152 893.112 487.61 893.397 487.146C893.682 486.682 894.073 486.322 894.57 486.067C895.067 485.808 895.633 485.679 896.266 485.679C896.905 485.679 897.469 485.807 897.956 486.062C898.446 486.314 898.829 486.658 899.104 487.096C899.379 487.53 899.517 488.021 899.517 488.567C899.517 488.945 899.446 489.315 899.303 489.676C899.164 490.037 898.92 490.44 898.572 490.884C898.224 491.325 897.741 491.86 897.121 492.49L895.097 494.608V494.683H899.681V496H892.979ZM901.565 496V494.886L905.011 491.317C905.379 490.929 905.682 490.589 905.92 490.298C906.162 490.003 906.343 489.723 906.462 489.457C906.582 489.192 906.641 488.911 906.641 488.612C906.641 488.274 906.562 487.982 906.403 487.737C906.244 487.489 906.027 487.298 905.751 487.165C905.476 487.03 905.166 486.962 904.822 486.962C904.457 486.962 904.139 487.036 903.867 487.185C903.595 487.335 903.387 487.545 903.241 487.817C903.095 488.089 903.022 488.407 903.022 488.771H901.555C901.555 488.152 901.698 487.61 901.983 487.146C902.268 486.682 902.659 486.322 903.156 486.067C903.653 485.808 904.219 485.679 904.852 485.679C905.491 485.679 906.055 485.807 906.542 486.062C907.032 486.314 907.415 486.658 907.69 487.096C907.965 487.53 908.103 488.021 908.103 488.567C908.103 488.945 908.032 489.315 907.889 489.676C907.75 490.037 907.506 490.44 907.158 490.884C906.81 491.325 906.326 491.86 905.707 492.49L903.683 494.608V494.683H908.267V496H901.565Z" fill="#0A0A18"/>
    <path opacity="0.5" d="M1117.98 496V494.886L1121.42 491.317C1121.79 490.929 1122.1 490.589 1122.33 490.298C1122.58 490.003 1122.76 489.723 1122.88 489.457C1123 489.192 1123.06 488.911 1123.06 488.612C1123.06 488.274 1122.98 487.982 1122.82 487.737C1122.66 487.489 1122.44 487.298 1122.17 487.165C1121.89 487.03 1121.58 486.962 1121.24 486.962C1120.87 486.962 1120.55 487.036 1120.28 487.185C1120.01 487.335 1119.8 487.545 1119.65 487.817C1119.51 488.089 1119.44 488.407 1119.44 488.771H1117.97C1117.97 488.152 1118.11 487.61 1118.4 487.146C1118.68 486.682 1119.07 486.322 1119.57 486.067C1120.07 485.808 1120.63 485.679 1121.27 485.679C1121.91 485.679 1122.47 485.807 1122.96 486.062C1123.45 486.314 1123.83 486.658 1124.1 487.096C1124.38 487.53 1124.52 488.021 1124.52 488.567C1124.52 488.945 1124.45 489.315 1124.3 489.676C1124.16 490.037 1123.92 490.44 1123.57 490.884C1123.22 491.325 1122.74 491.86 1122.12 492.49L1120.1 494.608V494.683H1124.68V496H1117.98ZM1126.91 496L1131.35 487.21V487.136H1126.21V485.818H1132.94V487.18L1128.51 496H1126.91Z" fill="#0A0A18"/>
    <path opacity="0.5" d="M127.524 496.139C126.841 496.139 126.232 496.022 125.695 495.786C125.161 495.551 124.738 495.224 124.427 494.807C124.119 494.386 123.953 493.899 123.93 493.345H125.491C125.511 493.647 125.612 493.909 125.794 494.131C125.98 494.349 126.222 494.518 126.52 494.638C126.818 494.757 127.15 494.817 127.514 494.817C127.915 494.817 128.27 494.747 128.578 494.608C128.89 494.469 129.133 494.275 129.309 494.026C129.485 493.774 129.572 493.484 129.572 493.156C129.572 492.815 129.485 492.515 129.309 492.256C129.137 491.995 128.883 491.789 128.548 491.64C128.217 491.491 127.816 491.416 127.345 491.416H126.485V490.163H127.345C127.723 490.163 128.054 490.095 128.339 489.96C128.628 489.824 128.853 489.635 129.016 489.393C129.178 489.147 129.259 488.861 129.259 488.533C129.259 488.218 129.188 487.944 129.045 487.712C128.906 487.477 128.707 487.293 128.449 487.161C128.194 487.028 127.892 486.962 127.544 486.962C127.213 486.962 126.903 487.023 126.614 487.146C126.329 487.265 126.097 487.437 125.918 487.663C125.739 487.885 125.643 488.152 125.63 488.463H124.143C124.16 487.913 124.322 487.429 124.631 487.011C124.942 486.594 125.353 486.267 125.864 486.032C126.374 485.797 126.941 485.679 127.564 485.679C128.217 485.679 128.78 485.807 129.254 486.062C129.732 486.314 130.099 486.65 130.358 487.071C130.62 487.492 130.749 487.953 130.746 488.453C130.749 489.023 130.59 489.507 130.268 489.905C129.95 490.303 129.526 490.569 128.996 490.705V490.785C129.672 490.888 130.196 491.156 130.567 491.59C130.941 492.024 131.127 492.563 131.124 493.206C131.127 493.766 130.971 494.268 130.656 494.712C130.345 495.156 129.919 495.506 129.379 495.761C128.838 496.013 128.22 496.139 127.524 496.139Z" fill="#0A0A18"/>
    <path opacity="0.5" d="M309.42 496.139C308.707 496.139 308.077 496.017 307.531 495.771C306.987 495.526 306.561 495.188 306.253 494.757C305.945 494.326 305.792 493.836 305.795 493.286C305.792 492.855 305.88 492.459 306.059 492.097C306.241 491.733 306.488 491.429 306.8 491.188C307.111 490.942 307.459 490.786 307.844 490.72V490.661C307.337 490.538 306.931 490.266 306.626 489.845C306.321 489.424 306.17 488.94 306.173 488.393C306.17 487.873 306.308 487.409 306.586 487.001C306.868 486.59 307.254 486.267 307.744 486.032C308.235 485.797 308.793 485.679 309.42 485.679C310.04 485.679 310.593 485.798 311.08 486.037C311.571 486.272 311.957 486.595 312.239 487.006C312.52 487.414 312.663 487.876 312.666 488.393C312.663 488.94 312.507 489.424 312.199 489.845C311.891 490.266 311.49 490.538 310.996 490.661V490.72C311.377 490.786 311.72 490.942 312.025 491.188C312.333 491.429 312.578 491.733 312.761 492.097C312.946 492.459 313.041 492.855 313.044 493.286C313.041 493.836 312.885 494.326 312.577 494.757C312.268 495.188 311.841 495.526 311.294 495.771C310.75 496.017 310.126 496.139 309.42 496.139ZM309.42 494.881C309.841 494.881 310.205 494.812 310.513 494.673C310.822 494.53 311.06 494.333 311.229 494.081C311.398 493.826 311.485 493.527 311.488 493.186C311.485 492.831 311.392 492.518 311.21 492.246C311.031 491.975 310.787 491.761 310.479 491.605C310.17 491.449 309.817 491.371 309.42 491.371C309.019 491.371 308.662 491.449 308.351 491.605C308.039 491.761 307.794 491.975 307.615 492.246C307.436 492.518 307.348 492.831 307.352 493.186C307.348 493.527 307.429 493.826 307.595 494.081C307.764 494.333 308.004 494.53 308.316 494.673C308.628 494.812 308.996 494.881 309.42 494.881ZM309.42 490.143C309.758 490.143 310.058 490.076 310.32 489.94C310.581 489.804 310.787 489.615 310.936 489.373C311.089 489.131 311.166 488.848 311.17 488.523C311.166 488.205 311.09 487.926 310.941 487.688C310.795 487.449 310.591 487.265 310.33 487.136C310.068 487.003 309.764 486.937 309.42 486.937C309.068 486.937 308.76 487.003 308.495 487.136C308.233 487.265 308.029 487.449 307.884 487.688C307.738 487.926 307.666 488.205 307.67 488.523C307.666 488.848 307.739 489.131 307.888 489.373C308.038 489.615 308.243 489.804 308.505 489.94C308.77 490.076 309.075 490.143 309.42 490.143Z" fill="#0A0A18"/>
    <path opacity="0.5" d="M508.842 485.818V496H507.301V487.359H507.241L504.805 488.95V487.479L507.346 485.818H508.842ZM515.141 496.139C514.459 496.139 513.849 496.022 513.312 495.786C512.778 495.551 512.356 495.224 512.044 494.807C511.736 494.386 511.57 493.899 511.547 493.345H513.108C513.128 493.647 513.229 493.909 513.411 494.131C513.597 494.349 513.839 494.518 514.137 494.638C514.435 494.757 514.767 494.817 515.131 494.817C515.532 494.817 515.887 494.747 516.195 494.608C516.507 494.469 516.75 494.275 516.926 494.026C517.102 493.774 517.19 493.484 517.19 493.156C517.19 492.815 517.102 492.515 516.926 492.256C516.754 491.995 516.5 491.789 516.165 491.64C515.834 491.491 515.433 491.416 514.962 491.416H514.102V490.163H514.962C515.34 490.163 515.672 490.095 515.957 489.96C516.245 489.824 516.47 489.635 516.633 489.393C516.795 489.147 516.876 488.861 516.876 488.533C516.876 488.218 516.805 487.944 516.663 487.712C516.523 487.477 516.325 487.293 516.066 487.161C515.811 487.028 515.509 486.962 515.161 486.962C514.83 486.962 514.52 487.023 514.232 487.146C513.946 487.265 513.714 487.437 513.536 487.663C513.357 487.885 513.26 488.152 513.247 488.463H511.761C511.777 487.913 511.94 487.429 512.248 487.011C512.559 486.594 512.97 486.267 513.481 486.032C513.991 485.797 514.558 485.679 515.181 485.679C515.834 485.679 516.397 485.807 516.871 486.062C517.349 486.314 517.717 486.65 517.975 487.071C518.237 487.492 518.366 487.953 518.363 488.453C518.366 489.023 518.207 489.507 517.886 489.905C517.567 490.303 517.143 490.569 516.613 490.705V490.785C517.289 490.888 517.813 491.156 518.184 491.59C518.558 492.024 518.744 492.563 518.741 493.206C518.744 493.766 518.588 494.268 518.273 494.712C517.962 495.156 517.536 495.506 516.996 495.761C516.455 496.013 515.837 496.139 515.141 496.139Z" fill="#0A0A18"/>
    <path opacity="0.5" d="M722.842 485.818V496H721.301V487.359H721.241L718.805 488.95V487.479L721.346 485.818H722.842ZM729.037 496.139C728.324 496.139 727.695 496.017 727.148 495.771C726.604 495.526 726.178 495.188 725.87 494.757C725.562 494.326 725.409 493.836 725.413 493.286C725.409 492.855 725.497 492.459 725.676 492.097C725.858 491.733 726.105 491.429 726.417 491.188C726.728 490.942 727.076 490.786 727.461 490.72V490.661C726.954 490.538 726.548 490.266 726.243 489.845C725.938 489.424 725.787 488.94 725.79 488.393C725.787 487.873 725.925 487.409 726.203 487.001C726.485 486.59 726.871 486.267 727.362 486.032C727.852 485.797 728.411 485.679 729.037 485.679C729.657 485.679 730.21 485.798 730.697 486.037C731.188 486.272 731.574 486.595 731.856 487.006C732.138 487.414 732.28 487.876 732.283 488.393C732.28 488.94 732.124 489.424 731.816 489.845C731.508 490.266 731.107 490.538 730.613 490.661V490.72C730.994 490.786 731.337 490.942 731.642 491.188C731.95 491.429 732.196 491.733 732.378 492.097C732.563 492.459 732.658 492.855 732.661 493.286C732.658 493.836 732.502 494.326 732.194 494.757C731.886 495.188 731.458 495.526 730.911 495.771C730.368 496.017 729.743 496.139 729.037 496.139ZM729.037 494.881C729.458 494.881 729.822 494.812 730.131 494.673C730.439 494.53 730.678 494.333 730.847 494.081C731.016 493.826 731.102 493.527 731.105 493.186C731.102 492.831 731.009 492.518 730.827 492.246C730.648 491.975 730.404 491.761 730.096 491.605C729.788 491.449 729.435 491.371 729.037 491.371C728.636 491.371 728.28 491.449 727.968 491.605C727.656 491.761 727.411 491.975 727.232 492.246C727.053 492.518 726.965 492.831 726.969 493.186C726.965 493.527 727.047 493.826 727.212 494.081C727.381 494.333 727.622 494.53 727.933 494.673C728.245 494.812 728.613 494.881 729.037 494.881ZM729.037 490.143C729.375 490.143 729.675 490.076 729.937 489.94C730.199 489.804 730.404 489.615 730.553 489.373C730.706 489.131 730.784 488.848 730.787 488.523C730.784 488.205 730.707 487.926 730.558 487.688C730.412 487.449 730.209 487.265 729.947 487.136C729.685 487.003 729.382 486.937 729.037 486.937C728.686 486.937 728.377 487.003 728.112 487.136C727.85 487.265 727.647 487.449 727.501 487.688C727.355 487.926 727.284 488.205 727.287 488.523C727.284 488.848 727.357 489.131 727.506 489.373C727.655 489.615 727.86 489.804 728.122 489.94C728.387 490.076 728.692 490.143 729.037 490.143Z" fill="#0A0A18"/>
    <path opacity="0.5" d="M937.979 496V494.886L941.425 491.317C941.793 490.929 942.096 490.589 942.335 490.298C942.576 490.003 942.757 489.723 942.876 489.457C942.996 489.192 943.055 488.911 943.055 488.612C943.055 488.274 942.976 487.982 942.817 487.737C942.658 487.489 942.441 487.298 942.165 487.165C941.89 487.03 941.58 486.962 941.236 486.962C940.871 486.962 940.553 487.036 940.281 487.185C940.009 487.335 939.801 487.545 939.655 487.817C939.509 488.089 939.436 488.407 939.436 488.771H937.969C937.969 488.152 938.112 487.61 938.397 487.146C938.682 486.682 939.073 486.322 939.57 486.067C940.067 485.808 940.633 485.679 941.266 485.679C941.905 485.679 942.469 485.807 942.956 486.062C943.446 486.314 943.829 486.658 944.104 487.096C944.379 487.53 944.517 488.021 944.517 488.567C944.517 488.945 944.446 489.315 944.303 489.676C944.164 490.037 943.92 490.44 943.572 490.884C943.224 491.325 942.741 491.86 942.121 492.49L940.097 494.608V494.683H944.681V496H937.979ZM950.11 496.139C949.427 496.139 948.817 496.022 948.281 495.786C947.747 495.551 947.324 495.224 947.013 494.807C946.705 494.386 946.539 493.899 946.516 493.345H948.077C948.097 493.647 948.198 493.909 948.38 494.131C948.566 494.349 948.808 494.518 949.106 494.638C949.404 494.757 949.736 494.817 950.1 494.817C950.501 494.817 950.856 494.747 951.164 494.608C951.476 494.469 951.719 494.275 951.895 494.026C952.071 493.774 952.158 493.484 952.158 493.156C952.158 492.815 952.071 492.515 951.895 492.256C951.723 491.995 951.469 491.789 951.134 491.64C950.803 491.491 950.402 491.416 949.931 491.416H949.071V490.163H949.931C950.309 490.163 950.64 490.095 950.925 489.96C951.214 489.824 951.439 489.635 951.602 489.393C951.764 489.147 951.845 488.861 951.845 488.533C951.845 488.218 951.774 487.944 951.631 487.712C951.492 487.477 951.293 487.293 951.035 487.161C950.78 487.028 950.478 486.962 950.13 486.962C949.799 486.962 949.489 487.023 949.2 487.146C948.915 487.265 948.683 487.437 948.504 487.663C948.325 487.885 948.229 488.152 948.216 488.463H946.729C946.746 487.913 946.908 487.429 947.217 487.011C947.528 486.594 947.939 486.267 948.45 486.032C948.96 485.797 949.527 485.679 950.15 485.679C950.803 485.679 951.366 485.807 951.84 486.062C952.317 486.314 952.685 486.65 952.944 487.071C953.206 487.492 953.335 487.953 953.332 488.453C953.335 489.023 953.176 489.507 952.854 489.905C952.536 490.303 952.112 490.569 951.582 490.705V490.785C952.258 490.888 952.781 491.156 953.153 491.59C953.527 492.024 953.713 492.563 953.71 493.206C953.713 493.766 953.557 494.268 953.242 494.712C952.931 495.156 952.505 495.506 951.964 495.761C951.424 496.013 950.806 496.139 950.11 496.139Z" fill="#0A0A18"/>
    <path opacity="0.5" d="M1161.98 496V494.886L1165.42 491.317C1165.79 490.929 1166.1 490.589 1166.33 490.298C1166.58 490.003 1166.76 489.723 1166.88 489.457C1167 489.192 1167.06 488.911 1167.06 488.612C1167.06 488.274 1166.98 487.982 1166.82 487.737C1166.66 487.489 1166.44 487.298 1166.17 487.165C1165.89 487.03 1165.58 486.962 1165.24 486.962C1164.87 486.962 1164.55 487.036 1164.28 487.185C1164.01 487.335 1163.8 487.545 1163.65 487.817C1163.51 488.089 1163.44 488.407 1163.44 488.771H1161.97C1161.97 488.152 1162.11 487.61 1162.4 487.146C1162.68 486.682 1163.07 486.322 1163.57 486.067C1164.07 485.808 1164.63 485.679 1165.27 485.679C1165.91 485.679 1166.47 485.807 1166.96 486.062C1167.45 486.314 1167.83 486.658 1168.1 487.096C1168.38 487.53 1168.52 488.021 1168.52 488.567C1168.52 488.945 1168.45 489.315 1168.3 489.676C1168.16 490.037 1167.92 490.44 1167.57 490.884C1167.22 491.325 1166.74 491.86 1166.12 492.49L1164.1 494.608V494.683H1168.68V496H1161.98ZM1174.01 496.139C1173.29 496.139 1172.66 496.017 1172.12 495.771C1171.57 495.526 1171.15 495.188 1170.84 494.757C1170.53 494.326 1170.38 493.836 1170.38 493.286C1170.38 492.855 1170.47 492.459 1170.64 492.097C1170.83 491.733 1171.07 491.429 1171.39 491.188C1171.7 490.942 1172.05 490.786 1172.43 490.72V490.661C1171.92 490.538 1171.52 490.266 1171.21 489.845C1170.91 489.424 1170.76 488.94 1170.76 488.393C1170.76 487.873 1170.89 487.409 1171.17 487.001C1171.45 486.59 1171.84 486.267 1172.33 486.032C1172.82 485.797 1173.38 485.679 1174.01 485.679C1174.63 485.679 1175.18 485.798 1175.67 486.037C1176.16 486.272 1176.54 486.595 1176.82 487.006C1177.11 487.414 1177.25 487.876 1177.25 488.393C1177.25 488.94 1177.09 489.424 1176.78 489.845C1176.48 490.266 1176.08 490.538 1175.58 490.661V490.72C1175.96 490.786 1176.31 490.942 1176.61 491.188C1176.92 491.429 1177.16 491.733 1177.35 492.097C1177.53 492.459 1177.63 492.855 1177.63 493.286C1177.63 493.836 1177.47 494.326 1177.16 494.757C1176.85 495.188 1176.43 495.526 1175.88 495.771C1175.34 496.017 1174.71 496.139 1174.01 496.139ZM1174.01 494.881C1174.43 494.881 1174.79 494.812 1175.1 494.673C1175.41 494.53 1175.65 494.333 1175.82 494.081C1175.98 493.826 1176.07 493.527 1176.07 493.186C1176.07 492.831 1175.98 492.518 1175.8 492.246C1175.62 491.975 1175.37 491.761 1175.06 491.605C1174.76 491.449 1174.4 491.371 1174.01 491.371C1173.6 491.371 1173.25 491.449 1172.94 491.605C1172.63 491.761 1172.38 491.975 1172.2 492.246C1172.02 492.518 1171.93 492.831 1171.94 493.186C1171.93 493.527 1172.02 493.826 1172.18 494.081C1172.35 494.333 1172.59 494.53 1172.9 494.673C1173.21 494.812 1173.58 494.881 1174.01 494.881ZM1174.01 490.143C1174.34 490.143 1174.64 490.076 1174.91 489.94C1175.17 489.804 1175.37 489.615 1175.52 489.373C1175.67 489.131 1175.75 488.848 1175.76 488.523C1175.75 488.205 1175.68 487.926 1175.53 487.688C1175.38 487.449 1175.18 487.265 1174.92 487.136C1174.65 487.003 1174.35 486.937 1174.01 486.937C1173.65 486.937 1173.35 487.003 1173.08 487.136C1172.82 487.265 1172.62 487.449 1172.47 487.688C1172.32 487.926 1172.25 488.205 1172.26 488.523C1172.25 488.848 1172.33 489.131 1172.47 489.373C1172.62 489.615 1172.83 489.804 1173.09 489.94C1173.36 490.076 1173.66 490.143 1174.01 490.143Z" fill="#0A0A18"/>
    <path opacity="0.5" d="M160.766 494.011V492.768L165.165 485.818H166.145V487.648H165.523L162.376 492.629V492.709H168.407V494.011H160.766ZM165.593 496V493.634L165.603 493.067V485.818H167.06V496H165.593Z" fill="#0A0A18"/>
    <path opacity="0.5" d="M345.365 485.679C345.819 485.682 346.267 485.765 346.707 485.928C347.148 486.09 347.546 486.355 347.901 486.723C348.259 487.091 348.544 487.588 348.756 488.214C348.971 488.838 349.08 489.613 349.084 490.541C349.084 491.433 348.994 492.227 348.815 492.923C348.636 493.615 348.379 494.2 348.045 494.678C347.713 495.155 347.311 495.518 346.837 495.766C346.363 496.015 345.829 496.139 345.236 496.139C344.629 496.139 344.091 496.02 343.62 495.781C343.149 495.543 342.767 495.213 342.472 494.792C342.177 494.368 341.993 493.88 341.92 493.33H343.436C343.536 493.768 343.738 494.122 344.043 494.394C344.351 494.663 344.749 494.797 345.236 494.797C345.982 494.797 346.563 494.472 346.981 493.822C347.398 493.17 347.609 492.258 347.612 491.088H347.533C347.36 491.373 347.145 491.618 346.886 491.824C346.631 492.029 346.344 492.188 346.026 492.301C345.708 492.414 345.368 492.47 345.007 492.47C344.42 492.47 343.887 492.326 343.406 492.038C342.926 491.749 342.543 491.353 342.258 490.849C341.973 490.346 341.83 489.771 341.83 489.124C341.83 488.481 341.976 487.898 342.268 487.374C342.563 486.851 342.974 486.436 343.501 486.131C344.031 485.823 344.652 485.672 345.365 485.679ZM345.37 486.972C344.982 486.972 344.633 487.068 344.321 487.26C344.013 487.449 343.769 487.706 343.59 488.031C343.411 488.352 343.322 488.71 343.322 489.104C343.322 489.499 343.408 489.857 343.58 490.178C343.756 490.496 343.995 490.75 344.296 490.939C344.601 491.125 344.949 491.217 345.34 491.217C345.632 491.217 345.904 491.161 346.156 491.048C346.407 490.936 346.628 490.78 346.817 490.581C347.006 490.379 347.153 490.15 347.259 489.895C347.365 489.64 347.418 489.371 347.418 489.089C347.418 488.715 347.329 488.367 347.15 488.045C346.974 487.724 346.732 487.465 346.424 487.27C346.116 487.071 345.764 486.972 345.37 486.972Z" fill="#0A0A18"/>
    <path opacity="0.5" d="M551.842 485.818V496H550.301V487.359H550.241L547.805 488.95V487.479L550.346 485.818H551.842ZM554.383 494.011V492.768L558.783 485.818H559.762V487.648H559.141L555.994 492.629V492.709H562.024V494.011H554.383ZM559.21 496V493.634L559.22 493.067V485.818H560.677V496H559.21Z" fill="#0A0A18"/>
    <path opacity="0.5" d="M765.842 485.818V496H764.301V487.359H764.241L761.805 488.95V487.479L764.346 485.818H765.842ZM771.982 485.679C772.436 485.682 772.884 485.765 773.325 485.928C773.765 486.09 774.163 486.355 774.518 486.723C774.876 487.091 775.161 487.588 775.373 488.214C775.588 488.838 775.698 489.613 775.701 490.541C775.701 491.433 775.612 492.227 775.433 492.923C775.254 493.615 774.997 494.2 774.662 494.678C774.33 495.155 773.928 495.518 773.454 495.766C772.98 496.015 772.446 496.139 771.853 496.139C771.246 496.139 770.708 496.02 770.237 495.781C769.767 495.543 769.384 495.213 769.089 494.792C768.794 494.368 768.61 493.88 768.537 493.33H770.053C770.153 493.768 770.355 494.122 770.66 494.394C770.968 494.663 771.366 494.797 771.853 494.797C772.599 494.797 773.18 494.472 773.598 493.822C774.016 493.17 774.226 492.258 774.229 491.088H774.15C773.978 491.373 773.762 491.618 773.504 491.824C773.248 492.029 772.962 492.188 772.643 492.301C772.325 492.414 771.986 492.47 771.624 492.47C771.038 492.47 770.504 492.326 770.023 492.038C769.543 491.749 769.16 491.353 768.875 490.849C768.59 490.346 768.447 489.771 768.447 489.124C768.447 488.481 768.593 487.898 768.885 487.374C769.18 486.851 769.591 486.436 770.118 486.131C770.648 485.823 771.27 485.672 771.982 485.679ZM771.987 486.972C771.599 486.972 771.25 487.068 770.938 487.26C770.63 487.449 770.386 487.706 770.207 488.031C770.028 488.352 769.939 488.71 769.939 489.104C769.939 489.499 770.025 489.857 770.197 490.178C770.373 490.496 770.612 490.75 770.913 490.939C771.218 491.125 771.566 491.217 771.957 491.217C772.249 491.217 772.521 491.161 772.773 491.048C773.025 490.936 773.245 490.78 773.434 490.581C773.623 490.379 773.77 490.15 773.876 489.895C773.982 489.64 774.036 489.371 774.036 489.089C774.036 488.715 773.946 488.367 773.767 488.045C773.591 487.724 773.349 487.465 773.041 487.27C772.733 487.071 772.382 486.972 771.987 486.972Z" fill="#0A0A18"/>
    <path opacity="0.5" d="M982.979 496V494.886L986.425 491.317C986.793 490.929 987.096 490.589 987.335 490.298C987.576 490.003 987.757 489.723 987.876 489.457C987.996 489.192 988.055 488.911 988.055 488.612C988.055 488.274 987.976 487.982 987.817 487.737C987.658 487.489 987.441 487.298 987.165 487.165C986.89 487.03 986.58 486.962 986.236 486.962C985.871 486.962 985.553 487.036 985.281 487.185C985.009 487.335 984.801 487.545 984.655 487.817C984.509 488.089 984.436 488.407 984.436 488.771H982.969C982.969 488.152 983.112 487.61 983.397 487.146C983.682 486.682 984.073 486.322 984.57 486.067C985.067 485.808 985.633 485.679 986.266 485.679C986.905 485.679 987.469 485.807 987.956 486.062C988.446 486.314 988.829 486.658 989.104 487.096C989.379 487.53 989.517 488.021 989.517 488.567C989.517 488.945 989.446 489.315 989.303 489.676C989.164 490.037 988.92 490.44 988.572 490.884C988.224 491.325 987.741 491.86 987.121 492.49L985.097 494.608V494.683H989.681V496H982.979ZM991.133 494.011V492.768L995.533 485.818H996.512V487.648H995.891L992.744 492.629V492.709H998.774V494.011H991.133ZM995.96 496V493.634L995.97 493.067V485.818H997.427V496H995.96Z" fill="#0A0A18"/>
    <path opacity="0.5" d="M1206.98 496V494.886L1210.42 491.317C1210.79 490.929 1211.1 490.589 1211.33 490.298C1211.58 490.003 1211.76 489.723 1211.88 489.457C1212 489.192 1212.06 488.911 1212.06 488.612C1212.06 488.274 1211.98 487.982 1211.82 487.737C1211.66 487.489 1211.44 487.298 1211.17 487.165C1210.89 487.03 1210.58 486.962 1210.24 486.962C1209.87 486.962 1209.55 487.036 1209.28 487.185C1209.01 487.335 1208.8 487.545 1208.65 487.817C1208.51 488.089 1208.44 488.407 1208.44 488.771H1206.97C1206.97 488.152 1207.11 487.61 1207.4 487.146C1207.68 486.682 1208.07 486.322 1208.57 486.067C1209.07 485.808 1209.63 485.679 1210.27 485.679C1210.91 485.679 1211.47 485.807 1211.96 486.062C1212.45 486.314 1212.83 486.658 1213.1 487.096C1213.38 487.53 1213.52 488.021 1213.52 488.567C1213.52 488.945 1213.45 489.315 1213.3 489.676C1213.16 490.037 1212.92 490.44 1212.57 490.884C1212.22 491.325 1211.74 491.86 1211.12 492.49L1209.1 494.608V494.683H1213.68V496H1206.98ZM1218.95 485.679C1219.41 485.682 1219.85 485.765 1220.29 485.928C1220.73 486.09 1221.13 486.355 1221.49 486.723C1221.84 487.091 1222.13 487.588 1222.34 488.214C1222.56 488.838 1222.67 489.613 1222.67 490.541C1222.67 491.433 1222.58 492.227 1222.4 492.923C1222.22 493.615 1221.97 494.2 1221.63 494.678C1221.3 495.155 1220.9 495.518 1220.42 495.766C1219.95 496.015 1219.42 496.139 1218.82 496.139C1218.22 496.139 1217.68 496.02 1217.21 495.781C1216.74 495.543 1216.35 495.213 1216.06 494.792C1215.76 494.368 1215.58 493.88 1215.51 493.33H1217.02C1217.12 493.768 1217.32 494.122 1217.63 494.394C1217.94 494.663 1218.33 494.797 1218.82 494.797C1219.57 494.797 1220.15 494.472 1220.57 493.822C1220.98 493.17 1221.19 492.258 1221.2 491.088H1221.12C1220.95 491.373 1220.73 491.618 1220.47 491.824C1220.22 492.029 1219.93 492.188 1219.61 492.301C1219.29 492.414 1218.95 492.47 1218.59 492.47C1218.01 492.47 1217.47 492.326 1216.99 492.038C1216.51 491.749 1216.13 491.353 1215.84 490.849C1215.56 490.346 1215.42 489.771 1215.42 489.124C1215.42 488.481 1215.56 487.898 1215.85 487.374C1216.15 486.851 1216.56 486.436 1217.09 486.131C1217.62 485.823 1218.24 485.672 1218.95 485.679ZM1218.96 486.972C1218.57 486.972 1218.22 487.068 1217.91 487.26C1217.6 487.449 1217.36 487.706 1217.18 488.031C1217 488.352 1216.91 488.71 1216.91 489.104C1216.91 489.499 1216.99 489.857 1217.17 490.178C1217.34 490.496 1217.58 490.75 1217.88 490.939C1218.19 491.125 1218.54 491.217 1218.93 491.217C1219.22 491.217 1219.49 491.161 1219.74 491.048C1219.99 490.936 1220.21 490.78 1220.4 490.581C1220.59 490.379 1220.74 490.15 1220.85 489.895C1220.95 489.64 1221 489.371 1221 489.089C1221 488.715 1220.91 488.367 1220.74 488.045C1220.56 487.724 1220.32 487.465 1220.01 487.27C1219.7 487.071 1219.35 486.972 1218.96 486.972Z" fill="#0A0A18"/>
    <path opacity="0.5" d="M201.34 496.139C200.717 496.139 200.157 496.02 199.66 495.781C199.166 495.539 198.772 495.208 198.477 494.787C198.182 494.366 198.024 493.885 198.004 493.345H199.496C199.532 493.783 199.726 494.142 200.077 494.424C200.429 494.706 200.85 494.847 201.34 494.847C201.731 494.847 202.078 494.757 202.379 494.578C202.684 494.396 202.923 494.146 203.095 493.827C203.271 493.509 203.359 493.146 203.359 492.739C203.359 492.324 203.269 491.955 203.09 491.63C202.911 491.305 202.664 491.05 202.349 490.864C202.038 490.679 201.68 490.584 201.276 490.581C200.967 490.581 200.657 490.634 200.346 490.74C200.034 490.846 199.782 490.985 199.59 491.158L198.183 490.949L198.755 485.818H204.353V487.136H200.033L199.71 489.984H199.769C199.968 489.792 200.232 489.631 200.56 489.502C200.891 489.373 201.246 489.308 201.624 489.308C202.243 489.308 202.795 489.456 203.279 489.751C203.766 490.046 204.149 490.448 204.428 490.959C204.709 491.466 204.848 492.049 204.845 492.709C204.848 493.368 204.699 493.957 204.398 494.474C204.099 494.991 203.685 495.398 203.155 495.697C202.628 495.992 202.023 496.139 201.34 496.139Z" fill="#0A0A18"/>
    <path opacity="0.5" d="M381.842 485.818V496H380.301V487.359H380.241L377.805 488.95V487.479L380.346 485.818H381.842ZM388.141 496.169C387.356 496.166 386.685 495.959 386.128 495.548C385.571 495.137 385.145 494.538 384.85 493.753C384.555 492.967 384.408 492.021 384.408 490.914C384.408 489.81 384.555 488.867 384.85 488.085C385.148 487.303 385.576 486.706 386.133 486.295C386.693 485.884 387.362 485.679 388.141 485.679C388.92 485.679 389.588 485.886 390.145 486.3C390.702 486.711 391.128 487.308 391.423 488.09C391.721 488.869 391.87 489.81 391.87 490.914C391.87 492.024 391.723 492.972 391.428 493.758C391.133 494.54 390.707 495.138 390.15 495.553C389.593 495.964 388.924 496.169 388.141 496.169ZM388.141 494.842C388.831 494.842 389.369 494.505 389.757 493.832C390.148 493.16 390.344 492.187 390.344 490.914C390.344 490.069 390.254 489.355 390.075 488.771C389.9 488.185 389.646 487.741 389.315 487.439C388.987 487.134 388.595 486.982 388.141 486.982C387.455 486.982 386.917 487.32 386.526 487.996C386.134 488.672 385.937 489.645 385.934 490.914C385.934 491.763 386.022 492.48 386.197 493.067C386.376 493.65 386.63 494.093 386.958 494.394C387.286 494.692 387.681 494.842 388.141 494.842Z" fill="#0A0A18"/>
    <path opacity="0.5" d="M594.842 485.818V496H593.301V487.359H593.241L590.805 488.95V487.479L593.346 485.818H594.842ZM600.957 496.139C600.334 496.139 599.774 496.02 599.277 495.781C598.783 495.539 598.389 495.208 598.094 494.787C597.799 494.366 597.641 493.885 597.621 493.345H599.113C599.149 493.783 599.343 494.142 599.695 494.424C600.046 494.706 600.467 494.847 600.957 494.847C601.348 494.847 601.695 494.757 601.996 494.578C602.301 494.396 602.54 494.146 602.712 493.827C602.888 493.509 602.976 493.146 602.976 492.739C602.976 492.324 602.886 491.955 602.707 491.63C602.528 491.305 602.281 491.05 601.967 490.864C601.655 490.679 601.297 490.584 600.893 490.581C600.585 490.581 600.275 490.634 599.963 490.74C599.652 490.846 599.4 490.985 599.207 491.158L597.8 490.949L598.372 485.818H603.97V487.136H599.65L599.327 489.984H599.386C599.585 489.792 599.849 489.631 600.177 489.502C600.508 489.373 600.863 489.308 601.241 489.308C601.861 489.308 602.412 489.456 602.896 489.751C603.384 490.046 603.766 490.448 604.045 490.959C604.326 491.466 604.466 492.049 604.462 492.709C604.466 493.368 604.317 493.957 604.015 494.474C603.717 494.991 603.302 495.398 602.772 495.697C602.245 495.992 601.64 496.139 600.957 496.139Z" fill="#0A0A18"/>
    <path opacity="0.5" d="M804.979 496V494.886L808.425 491.317C808.793 490.929 809.096 490.589 809.335 490.298C809.576 490.003 809.757 489.723 809.876 489.457C809.996 489.192 810.055 488.911 810.055 488.612C810.055 488.274 809.976 487.982 809.817 487.737C809.658 487.489 809.441 487.298 809.165 487.165C808.89 487.03 808.58 486.962 808.236 486.962C807.871 486.962 807.553 487.036 807.281 487.185C807.009 487.335 806.801 487.545 806.655 487.817C806.509 488.089 806.436 488.407 806.436 488.771H804.969C804.969 488.152 805.112 487.61 805.397 487.146C805.682 486.682 806.073 486.322 806.57 486.067C807.067 485.808 807.633 485.679 808.266 485.679C808.905 485.679 809.469 485.807 809.956 486.062C810.446 486.314 810.829 486.658 811.104 487.096C811.379 487.53 811.517 488.021 811.517 488.567C811.517 488.945 811.446 489.315 811.303 489.676C811.164 490.037 810.92 490.44 810.572 490.884C810.224 491.325 809.741 491.86 809.121 492.49L807.097 494.608V494.683H811.681V496H804.979ZM817.11 496.169C816.325 496.166 815.653 495.959 815.097 495.548C814.54 495.137 814.114 494.538 813.819 493.753C813.524 492.967 813.376 492.021 813.376 490.914C813.376 489.81 813.524 488.867 813.819 488.085C814.117 487.303 814.545 486.706 815.102 486.295C815.662 485.884 816.331 485.679 817.11 485.679C817.889 485.679 818.557 485.886 819.114 486.3C819.67 486.711 820.096 487.308 820.391 488.09C820.69 488.869 820.839 489.81 820.839 490.914C820.839 492.024 820.691 492.972 820.396 493.758C820.101 494.54 819.675 495.138 819.119 495.553C818.562 495.964 817.892 496.169 817.11 496.169ZM817.11 494.842C817.799 494.842 818.338 494.505 818.726 493.832C819.117 493.16 819.312 492.187 819.312 490.914C819.312 490.069 819.223 489.355 819.044 488.771C818.868 488.185 818.615 487.741 818.283 487.439C817.955 487.134 817.564 486.982 817.11 486.982C816.424 486.982 815.885 487.32 815.494 487.996C815.103 488.672 814.906 489.645 814.903 490.914C814.903 491.763 814.991 492.48 815.166 493.067C815.345 493.65 815.599 494.093 815.927 494.394C816.255 494.692 816.649 494.842 817.11 494.842Z" fill="#0A0A18"/>
    <path opacity="0.5" d="M1027.98 496V494.886L1031.42 491.317C1031.79 490.929 1032.1 490.589 1032.33 490.298C1032.58 490.003 1032.76 489.723 1032.88 489.457C1033 489.192 1033.06 488.911 1033.06 488.612C1033.06 488.274 1032.98 487.982 1032.82 487.737C1032.66 487.489 1032.44 487.298 1032.17 487.165C1031.89 487.03 1031.58 486.962 1031.24 486.962C1030.87 486.962 1030.55 487.036 1030.28 487.185C1030.01 487.335 1029.8 487.545 1029.65 487.817C1029.51 488.089 1029.44 488.407 1029.44 488.771H1027.97C1027.97 488.152 1028.11 487.61 1028.4 487.146C1028.68 486.682 1029.07 486.322 1029.57 486.067C1030.07 485.808 1030.63 485.679 1031.27 485.679C1031.91 485.679 1032.47 485.807 1032.96 486.062C1033.45 486.314 1033.83 486.658 1034.1 487.096C1034.38 487.53 1034.52 488.021 1034.52 488.567C1034.52 488.945 1034.45 489.315 1034.3 489.676C1034.16 490.037 1033.92 490.44 1033.57 490.884C1033.22 491.325 1032.74 491.86 1032.12 492.49L1030.1 494.608V494.683H1034.68V496H1027.98ZM1039.93 496.139C1039.3 496.139 1038.74 496.02 1038.25 495.781C1037.75 495.539 1037.36 495.208 1037.06 494.787C1036.77 494.366 1036.61 493.885 1036.59 493.345H1038.08C1038.12 493.783 1038.31 494.142 1038.66 494.424C1039.01 494.706 1039.44 494.847 1039.93 494.847C1040.32 494.847 1040.66 494.757 1040.97 494.578C1041.27 494.396 1041.51 494.146 1041.68 493.827C1041.86 493.509 1041.94 493.146 1041.94 492.739C1041.94 492.324 1041.86 491.955 1041.68 491.63C1041.5 491.305 1041.25 491.05 1040.94 490.864C1040.62 490.679 1040.27 490.584 1039.86 490.581C1039.55 490.581 1039.24 490.634 1038.93 490.74C1038.62 490.846 1038.37 490.985 1038.18 491.158L1036.77 490.949L1037.34 485.818H1042.94V487.136H1038.62L1038.3 489.984H1038.36C1038.55 489.792 1038.82 489.631 1039.15 489.502C1039.48 489.373 1039.83 489.308 1040.21 489.308C1040.83 489.308 1041.38 489.456 1041.87 489.751C1042.35 490.046 1042.74 490.448 1043.01 490.959C1043.3 491.466 1043.43 492.049 1043.43 492.709C1043.43 493.368 1043.29 493.957 1042.98 494.474C1042.69 494.991 1042.27 495.398 1041.74 495.697C1041.21 495.992 1040.61 496.139 1039.93 496.139Z" fill="#0A0A18"/>
    <path opacity="0.5" d="M1255.52 496.139C1254.84 496.139 1254.23 496.022 1253.69 495.786C1253.16 495.551 1252.74 495.224 1252.43 494.807C1252.12 494.386 1251.95 493.899 1251.93 493.345H1253.49C1253.51 493.647 1253.61 493.909 1253.79 494.131C1253.98 494.349 1254.22 494.518 1254.52 494.638C1254.82 494.757 1255.15 494.817 1255.51 494.817C1255.92 494.817 1256.27 494.747 1256.58 494.608C1256.89 494.469 1257.13 494.275 1257.31 494.026C1257.48 493.774 1257.57 493.484 1257.57 493.156C1257.57 492.815 1257.48 492.515 1257.31 492.256C1257.14 491.995 1256.88 491.789 1256.55 491.64C1256.22 491.491 1255.82 491.416 1255.35 491.416H1254.49V490.163H1255.35C1255.72 490.163 1256.05 490.095 1256.34 489.96C1256.63 489.824 1256.85 489.635 1257.02 489.393C1257.18 489.147 1257.26 488.861 1257.26 488.533C1257.26 488.218 1257.19 487.944 1257.05 487.712C1256.91 487.477 1256.71 487.293 1256.45 487.161C1256.19 487.028 1255.89 486.962 1255.54 486.962C1255.21 486.962 1254.9 487.023 1254.61 487.146C1254.33 487.265 1254.1 487.437 1253.92 487.663C1253.74 487.885 1253.64 488.152 1253.63 488.463H1252.14C1252.16 487.913 1252.32 487.429 1252.63 487.011C1252.94 486.594 1253.35 486.267 1253.86 486.032C1254.37 485.797 1254.94 485.679 1255.56 485.679C1256.22 485.679 1256.78 485.807 1257.25 486.062C1257.73 486.314 1258.1 486.65 1258.36 487.071C1258.62 487.492 1258.75 487.953 1258.75 488.453C1258.75 489.023 1258.59 489.507 1258.27 489.905C1257.95 490.303 1257.53 490.569 1257 490.705V490.785C1257.67 490.888 1258.2 491.156 1258.57 491.59C1258.94 492.024 1259.13 492.563 1259.12 493.206C1259.13 493.766 1258.97 494.268 1258.66 494.712C1258.34 495.156 1257.92 495.506 1257.38 495.761C1256.84 496.013 1256.22 496.139 1255.52 496.139ZM1264.55 496.169C1263.76 496.166 1263.09 495.959 1262.53 495.548C1261.98 495.137 1261.55 494.538 1261.26 493.753C1260.96 492.967 1260.81 492.021 1260.81 490.914C1260.81 489.81 1260.96 488.867 1261.26 488.085C1261.55 487.303 1261.98 486.706 1262.54 486.295C1263.1 485.884 1263.77 485.679 1264.55 485.679C1265.33 485.679 1265.99 485.886 1266.55 486.3C1267.11 486.711 1267.53 487.308 1267.83 488.09C1268.13 488.869 1268.28 489.81 1268.28 490.914C1268.28 492.024 1268.13 492.972 1267.83 493.758C1267.54 494.54 1267.11 495.138 1266.56 495.553C1266 495.964 1265.33 496.169 1264.55 496.169ZM1264.55 494.842C1265.24 494.842 1265.78 494.505 1266.16 493.832C1266.55 493.16 1266.75 492.187 1266.75 490.914C1266.75 490.069 1266.66 489.355 1266.48 488.771C1266.31 488.185 1266.05 487.741 1265.72 487.439C1265.39 487.134 1265 486.982 1264.55 486.982C1263.86 486.982 1263.32 487.32 1262.93 487.996C1262.54 488.672 1262.34 489.645 1262.34 490.914C1262.34 491.763 1262.43 492.48 1262.6 493.067C1262.78 493.65 1263.04 494.093 1263.36 494.394C1263.69 494.692 1264.09 494.842 1264.55 494.842Z" fill="#0A0A18"/>
    <path opacity="0.5" d="M1301.52 496.139C1300.84 496.139 1300.23 496.022 1299.69 495.786C1299.16 495.551 1298.74 495.224 1298.43 494.807C1298.12 494.386 1297.95 493.899 1297.93 493.345H1299.49C1299.51 493.647 1299.61 493.909 1299.79 494.131C1299.98 494.349 1300.22 494.518 1300.52 494.638C1300.82 494.757 1301.15 494.817 1301.51 494.817C1301.92 494.817 1302.27 494.747 1302.58 494.608C1302.89 494.469 1303.13 494.275 1303.31 494.026C1303.48 493.774 1303.57 493.484 1303.57 493.156C1303.57 492.815 1303.48 492.515 1303.31 492.256C1303.14 491.995 1302.88 491.789 1302.55 491.64C1302.22 491.491 1301.82 491.416 1301.35 491.416H1300.49V490.163H1301.35C1301.72 490.163 1302.05 490.095 1302.34 489.96C1302.63 489.824 1302.85 489.635 1303.02 489.393C1303.18 489.147 1303.26 488.861 1303.26 488.533C1303.26 488.218 1303.19 487.944 1303.05 487.712C1302.91 487.477 1302.71 487.293 1302.45 487.161C1302.19 487.028 1301.89 486.962 1301.54 486.962C1301.21 486.962 1300.9 487.023 1300.61 487.146C1300.33 487.265 1300.1 487.437 1299.92 487.663C1299.74 487.885 1299.64 488.152 1299.63 488.463H1298.14C1298.16 487.913 1298.32 487.429 1298.63 487.011C1298.94 486.594 1299.35 486.267 1299.86 486.032C1300.37 485.797 1300.94 485.679 1301.56 485.679C1302.22 485.679 1302.78 485.807 1303.25 486.062C1303.73 486.314 1304.1 486.65 1304.36 487.071C1304.62 487.492 1304.75 487.953 1304.75 488.453C1304.75 489.023 1304.59 489.507 1304.27 489.905C1303.95 490.303 1303.53 490.569 1303 490.705V490.785C1303.67 490.888 1304.2 491.156 1304.57 491.59C1304.94 492.024 1305.13 492.563 1305.12 493.206C1305.13 493.766 1304.97 494.268 1304.66 494.712C1304.34 495.156 1303.92 495.506 1303.38 495.761C1302.84 496.013 1302.22 496.139 1301.52 496.139ZM1310.87 485.818V496H1309.32V487.359H1309.26L1306.83 488.95V487.479L1309.37 485.818H1310.87Z" fill="#0A0A18"/>
    <path opacity="0.5" d="M1344.52 496.139C1343.84 496.139 1343.23 496.022 1342.69 495.786C1342.16 495.551 1341.74 495.224 1341.43 494.807C1341.12 494.386 1340.95 493.899 1340.93 493.345H1342.49C1342.51 493.647 1342.61 493.909 1342.79 494.131C1342.98 494.349 1343.22 494.518 1343.52 494.638C1343.82 494.757 1344.15 494.817 1344.51 494.817C1344.92 494.817 1345.27 494.747 1345.58 494.608C1345.89 494.469 1346.13 494.275 1346.31 494.026C1346.48 493.774 1346.57 493.484 1346.57 493.156C1346.57 492.815 1346.48 492.515 1346.31 492.256C1346.14 491.995 1345.88 491.789 1345.55 491.64C1345.22 491.491 1344.82 491.416 1344.35 491.416H1343.49V490.163H1344.35C1344.72 490.163 1345.05 490.095 1345.34 489.96C1345.63 489.824 1345.85 489.635 1346.02 489.393C1346.18 489.147 1346.26 488.861 1346.26 488.533C1346.26 488.218 1346.19 487.944 1346.05 487.712C1345.91 487.477 1345.71 487.293 1345.45 487.161C1345.19 487.028 1344.89 486.962 1344.54 486.962C1344.21 486.962 1343.9 487.023 1343.61 487.146C1343.33 487.265 1343.1 487.437 1342.92 487.663C1342.74 487.885 1342.64 488.152 1342.63 488.463H1341.14C1341.16 487.913 1341.32 487.429 1341.63 487.011C1341.94 486.594 1342.35 486.267 1342.86 486.032C1343.37 485.797 1343.94 485.679 1344.56 485.679C1345.22 485.679 1345.78 485.807 1346.25 486.062C1346.73 486.314 1347.1 486.65 1347.36 487.071C1347.62 487.492 1347.75 487.953 1347.75 488.453C1347.75 489.023 1347.59 489.507 1347.27 489.905C1346.95 490.303 1346.53 490.569 1346 490.705V490.785C1346.67 490.888 1347.2 491.156 1347.57 491.59C1347.94 492.024 1348.13 492.563 1348.12 493.206C1348.13 493.766 1347.97 494.268 1347.66 494.712C1347.34 495.156 1346.92 495.506 1346.38 495.761C1345.84 496.013 1345.22 496.139 1344.52 496.139ZM1353.87 485.818V496H1352.32V487.359H1352.26L1349.83 488.95V487.479L1352.37 485.818H1353.87Z" fill="#0A0A18"/>
    <path opacity="0.5" d="M4.52415 226.169C3.73864 226.166 3.06747 225.959 2.51065 225.548C1.95384 225.137 1.52794 224.538 1.23295 223.753C0.937974 222.967 0.790483 222.021 0.790483 220.914C0.790483 219.81 0.937974 218.867 1.23295 218.085C1.53125 217.303 1.95881 216.706 2.51562 216.295C3.07576 215.884 3.74527 215.679 4.52415 215.679C5.30303 215.679 5.97088 215.886 6.5277 216.3C7.08452 216.711 7.51042 217.308 7.8054 218.09C8.10369 218.869 8.25284 219.81 8.25284 220.914C8.25284 222.024 8.10535 222.972 7.81037 223.758C7.51539 224.54 7.08949 225.138 6.53267 225.553C5.97585 225.964 5.30634 226.169 4.52415 226.169ZM4.52415 224.842C5.21354 224.842 5.75213 224.505 6.13991 223.832C6.53101 223.16 6.72656 222.187 6.72656 220.914C6.72656 220.069 6.63707 219.355 6.4581 218.771C6.28243 218.185 6.02888 217.741 5.69744 217.439C5.36932 217.134 4.97822 216.982 4.52415 216.982C3.83807 216.982 3.29948 217.32 2.90838 217.996C2.51728 218.672 2.32008 219.645 2.31676 220.914C2.31676 221.763 2.40459 222.48 2.58026 223.067C2.75923 223.65 3.01278 224.093 3.34091 224.394C3.66903 224.692 4.06345 224.842 4.52415 224.842ZM10.6467 226.094C10.3749 226.094 10.1412 225.998 9.94567 225.806C9.75012 225.611 9.65234 225.375 9.65234 225.1C9.65234 224.828 9.75012 224.596 9.94567 224.404C10.1412 224.209 10.3749 224.111 10.6467 224.111C10.9184 224.111 11.1521 224.209 11.3477 224.404C11.5432 224.596 11.641 224.828 11.641 225.1C11.641 225.282 11.5946 225.45 11.5018 225.602C11.4123 225.751 11.293 225.871 11.1438 225.96C10.9947 226.05 10.829 226.094 10.6467 226.094ZM16.7978 226.139C16.3437 226.133 15.8962 226.05 15.4554 225.891C15.0179 225.732 14.6202 225.466 14.2623 225.095C13.9043 224.724 13.6176 224.225 13.4022 223.599C13.19 222.972 13.084 222.19 13.084 221.252C13.084 220.364 13.1718 219.575 13.3475 218.886C13.5265 218.196 13.7833 217.615 14.1181 217.141C14.4528 216.663 14.8572 216.3 15.3311 216.052C15.8051 215.803 16.3371 215.679 16.927 215.679C17.5336 215.679 18.0721 215.798 18.5428 216.037C19.0134 216.276 19.3946 216.605 19.6863 217.026C19.9812 217.447 20.1685 217.926 20.248 218.463H18.7317C18.629 218.039 18.4251 217.692 18.1202 217.424C17.8153 217.156 17.4176 217.021 16.927 217.021C16.1813 217.021 15.5996 217.346 15.182 217.996C14.7677 218.645 14.5589 219.549 14.5556 220.705H14.6301C14.8058 220.417 15.0212 220.172 15.2765 219.969C15.535 219.764 15.8233 219.607 16.1415 219.497C16.463 219.384 16.8011 219.328 17.1557 219.328C17.7457 219.328 18.2793 219.472 18.7566 219.761C19.2372 220.046 19.62 220.44 19.905 220.944C20.19 221.448 20.3326 222.024 20.3326 222.674C20.3326 223.324 20.1851 223.912 19.8901 224.439C19.5984 224.966 19.1874 225.384 18.6571 225.692C18.1268 225.997 17.507 226.146 16.7978 226.139ZM16.7928 224.847C17.1839 224.847 17.5336 224.75 17.8418 224.558C18.15 224.366 18.3936 224.107 18.5726 223.783C18.7516 223.458 18.8411 223.095 18.8411 222.694C18.8411 222.303 18.7533 221.946 18.5776 221.625C18.4052 221.304 18.1666 221.048 17.8617 220.859C17.5601 220.67 17.2154 220.576 16.8276 220.576C16.5326 220.576 16.2592 220.632 16.0073 220.745C15.7587 220.858 15.54 221.013 15.351 221.212C15.1621 221.411 15.013 221.64 14.9036 221.898C14.7975 222.154 14.7445 222.424 14.7445 222.709C14.7445 223.09 14.8323 223.443 15.008 223.768C15.187 224.093 15.4306 224.354 15.7388 224.553C16.0504 224.749 16.4017 224.847 16.7928 224.847Z" fill="#0A0A18"/>
    <path opacity="0.5" d="M4.52415 186.169C3.73864 186.166 3.06747 185.959 2.51065 185.548C1.95384 185.137 1.52794 184.538 1.23295 183.753C0.937974 182.967 0.790483 182.021 0.790483 180.914C0.790483 179.81 0.937974 178.867 1.23295 178.085C1.53125 177.303 1.95881 176.706 2.51562 176.295C3.07576 175.884 3.74527 175.679 4.52415 175.679C5.30303 175.679 5.97088 175.886 6.5277 176.3C7.08452 176.711 7.51042 177.308 7.8054 178.09C8.10369 178.869 8.25284 179.81 8.25284 180.914C8.25284 182.024 8.10535 182.972 7.81037 183.758C7.51539 184.54 7.08949 185.138 6.53267 185.553C5.97585 185.964 5.30634 186.169 4.52415 186.169ZM4.52415 184.842C5.21354 184.842 5.75213 184.505 6.13991 183.832C6.53101 183.16 6.72656 182.187 6.72656 180.914C6.72656 180.069 6.63707 179.355 6.4581 178.771C6.28243 178.185 6.02888 177.741 5.69744 177.439C5.36932 177.134 4.97822 176.982 4.52415 176.982C3.83807 176.982 3.29948 177.32 2.90838 177.996C2.51728 178.672 2.32008 179.645 2.31676 180.914C2.31676 181.763 2.40459 182.48 2.58026 183.067C2.75923 183.65 3.01278 184.093 3.34091 184.394C3.66903 184.692 4.06345 184.842 4.52415 184.842ZM10.6467 186.094C10.3749 186.094 10.1412 185.998 9.94567 185.806C9.75012 185.611 9.65234 185.375 9.65234 185.1C9.65234 184.828 9.75012 184.596 9.94567 184.404C10.1412 184.209 10.3749 184.111 10.6467 184.111C10.9184 184.111 11.1521 184.209 11.3477 184.404C11.5432 184.596 11.641 184.828 11.641 185.1C11.641 185.282 11.5946 185.45 11.5018 185.602C11.4123 185.751 11.293 185.871 11.1438 185.96C10.9947 186.05 10.829 186.094 10.6467 186.094ZM13.6955 186L18.1401 177.21V177.136H12.9995V175.818H19.731V177.18L15.3013 186H13.6955Z" fill="#0A0A18"/>
    <path opacity="0.5" d="M4.52415 146.169C3.73864 146.166 3.06747 145.959 2.51065 145.548C1.95384 145.137 1.52794 144.538 1.23295 143.753C0.937974 142.967 0.790483 142.021 0.790483 140.914C0.790483 139.81 0.937974 138.867 1.23295 138.085C1.53125 137.303 1.95881 136.706 2.51562 136.295C3.07576 135.884 3.74527 135.679 4.52415 135.679C5.30303 135.679 5.97088 135.886 6.5277 136.3C7.08452 136.711 7.51042 137.308 7.8054 138.09C8.10369 138.869 8.25284 139.81 8.25284 140.914C8.25284 142.024 8.10535 142.972 7.81037 143.758C7.51539 144.54 7.08949 145.138 6.53267 145.553C5.97585 145.964 5.30634 146.169 4.52415 146.169ZM4.52415 144.842C5.21354 144.842 5.75213 144.505 6.13991 143.832C6.53101 143.16 6.72656 142.187 6.72656 140.914C6.72656 140.069 6.63707 139.355 6.4581 138.771C6.28243 138.185 6.02888 137.741 5.69744 137.439C5.36932 137.134 4.97822 136.982 4.52415 136.982C3.83807 136.982 3.29948 137.32 2.90838 137.996C2.51728 138.672 2.32008 139.645 2.31676 140.914C2.31676 141.763 2.40459 142.48 2.58026 143.067C2.75923 143.65 3.01278 144.093 3.34091 144.394C3.66903 144.692 4.06345 144.842 4.52415 144.842ZM10.6467 146.094C10.3749 146.094 10.1412 145.998 9.94567 145.806C9.75012 145.611 9.65234 145.375 9.65234 145.1C9.65234 144.828 9.75012 144.596 9.94567 144.404C10.1412 144.209 10.3749 144.111 10.6467 144.111C10.9184 144.111 11.1521 144.209 11.3477 144.404C11.5432 144.596 11.641 144.828 11.641 145.1C11.641 145.282 11.5946 145.45 11.5018 145.602C11.4123 145.751 11.293 145.871 11.1438 145.96C10.9947 146.05 10.829 146.094 10.6467 146.094ZM16.7108 146.139C15.9982 146.139 15.3684 146.017 14.8216 145.771C14.278 145.526 13.8521 145.188 13.5439 144.757C13.2356 144.326 13.0832 143.836 13.0865 143.286C13.0832 142.855 13.171 142.459 13.35 142.097C13.5323 141.733 13.7792 141.429 14.0907 141.188C14.4023 140.942 14.7503 140.786 15.1348 140.72V140.661C14.6277 140.538 14.2217 140.266 13.9167 139.845C13.6118 139.424 13.461 138.94 13.4643 138.393C13.461 137.873 13.5985 137.409 13.877 137.001C14.1587 136.59 14.5448 136.267 15.0353 136.032C15.5259 135.797 16.0843 135.679 16.7108 135.679C17.3306 135.679 17.8841 135.798 18.3713 136.037C18.8618 136.272 19.2479 136.595 19.5297 137.006C19.8114 137.414 19.9539 137.876 19.9572 138.393C19.9539 138.94 19.7981 139.424 19.4899 139.845C19.1816 140.266 18.7806 140.538 18.2868 140.661V140.72C18.6679 140.786 19.0109 140.942 19.3159 141.188C19.6241 141.429 19.8694 141.733 20.0517 142.097C20.2373 142.459 20.3317 142.855 20.335 143.286C20.3317 143.836 20.176 144.326 19.8677 144.757C19.5595 145.188 19.1319 145.526 18.585 145.771C18.0415 146.017 17.4167 146.139 16.7108 146.139ZM16.7108 144.881C17.1317 144.881 17.4963 144.812 17.8045 144.673C18.1127 144.53 18.3514 144.333 18.5204 144.081C18.6895 143.826 18.7756 143.527 18.7789 143.186C18.7756 142.831 18.6828 142.518 18.5005 142.246C18.3216 141.975 18.0779 141.761 17.7697 141.605C17.4615 141.449 17.1085 141.371 16.7108 141.371C16.3097 141.371 15.9534 141.449 15.6419 141.605C15.3303 141.761 15.085 141.975 14.9061 142.246C14.7271 142.518 14.6393 142.831 14.6426 143.186C14.6393 143.527 14.7205 143.826 14.8862 144.081C15.0552 144.333 15.2955 144.53 15.6071 144.673C15.9186 144.812 16.2865 144.881 16.7108 144.881ZM16.7108 140.143C17.0488 140.143 17.3488 140.076 17.6106 139.94C17.8725 139.804 18.0779 139.615 18.2271 139.373C18.3796 139.131 18.4574 138.848 18.4608 138.523C18.4574 138.205 18.3812 137.926 18.2321 137.688C18.0862 137.449 17.8824 137.265 17.6206 137.136C17.3587 137.003 17.0555 136.937 16.7108 136.937C16.3594 136.937 16.0512 137.003 15.786 137.136C15.5242 137.265 15.3204 137.449 15.1745 137.688C15.0287 137.926 14.9574 138.205 14.9608 138.523C14.9574 138.848 15.0304 139.131 15.1795 139.373C15.3287 139.615 15.5342 139.804 15.796 139.94C16.0611 140.076 16.3661 140.143 16.7108 140.143Z" fill="#0A0A18"/>
    <path opacity="0.5" d="M4.52415 106.169C3.73864 106.166 3.06747 105.959 2.51065 105.548C1.95384 105.137 1.52794 104.538 1.23295 103.753C0.937974 102.967 0.790483 102.021 0.790483 100.914C0.790483 99.8104 0.937974 98.8674 1.23295 98.0852C1.53125 97.303 1.95881 96.7064 2.51562 96.2955C3.07576 95.8845 3.74527 95.679 4.52415 95.679C5.30303 95.679 5.97088 95.8861 6.5277 96.3004C7.08452 96.7114 7.51042 97.308 7.8054 98.0902C8.10369 98.8691 8.25284 99.8104 8.25284 100.914C8.25284 102.024 8.10535 102.972 7.81037 103.758C7.51539 104.54 7.08949 105.138 6.53267 105.553C5.97585 105.964 5.30634 106.169 4.52415 106.169ZM4.52415 104.842C5.21354 104.842 5.75213 104.505 6.13991 103.832C6.53101 103.16 6.72656 102.187 6.72656 100.914C6.72656 100.069 6.63707 99.3546 6.4581 98.7713C6.28243 98.1847 6.02888 97.7405 5.69744 97.4389C5.36932 97.134 4.97822 96.9815 4.52415 96.9815C3.83807 96.9815 3.29948 97.3196 2.90838 97.9957C2.51728 98.6719 2.32008 99.6446 2.31676 100.914C2.31676 101.763 2.40459 102.48 2.58026 103.067C2.75923 103.65 3.01278 104.093 3.34091 104.394C3.66903 104.692 4.06345 104.842 4.52415 104.842ZM10.6467 106.094C10.3749 106.094 10.1412 105.998 9.94567 105.806C9.75012 105.611 9.65234 105.375 9.65234 105.1C9.65234 104.828 9.75012 104.596 9.94567 104.404C10.1412 104.209 10.3749 104.111 10.6467 104.111C10.9184 104.111 11.1521 104.209 11.3477 104.404C11.5432 104.596 11.641 104.828 11.641 105.1C11.641 105.282 11.5946 105.45 11.5018 105.602C11.4123 105.751 11.293 105.871 11.1438 105.96C10.9947 106.05 10.829 106.094 10.6467 106.094ZM16.8748 95.679C17.3289 95.6823 17.7763 95.7652 18.2172 95.9276C18.658 96.09 19.0557 96.3551 19.4103 96.723C19.7683 97.0909 20.0533 97.5881 20.2654 98.2145C20.4809 98.8376 20.5903 99.6132 20.5936 100.541C20.5936 101.433 20.5041 102.227 20.3251 102.923C20.1461 103.615 19.8893 104.2 19.5545 104.678C19.2231 105.155 18.8204 105.518 18.3464 105.766C17.8725 106.015 17.3388 106.139 16.7456 106.139C16.139 106.139 15.6004 106.02 15.1298 105.781C14.6592 105.543 14.2763 105.213 13.9814 104.792C13.6864 104.368 13.5024 103.88 13.4295 103.33H14.9458C15.0453 103.768 15.2475 104.122 15.5524 104.394C15.8606 104.663 16.2583 104.797 16.7456 104.797C17.4913 104.797 18.073 104.472 18.4906 103.822C18.9082 103.17 19.1187 102.258 19.122 101.088H19.0424C18.8701 101.373 18.6547 101.618 18.3961 101.824C18.1409 102.029 17.8542 102.188 17.536 102.301C17.2179 102.414 16.8781 102.47 16.5169 102.47C15.9302 102.47 15.3966 102.326 14.916 102.038C14.4354 101.749 14.0526 101.353 13.7676 100.849C13.4825 100.346 13.34 99.7706 13.34 99.1243C13.34 98.4813 13.4859 97.898 13.7775 97.3743C14.0725 96.8506 14.4835 96.4363 15.0105 96.1314C15.5408 95.8232 16.1622 95.6723 16.8748 95.679ZM16.8798 96.9716C16.492 96.9716 16.1423 97.0677 15.8308 97.2599C15.5225 97.4489 15.2789 97.7057 15.1 98.0305C14.921 98.352 14.8315 98.71 14.8315 99.1044C14.8315 99.4988 14.9177 99.8568 15.09 100.178C15.2657 100.496 15.5043 100.75 15.8059 100.939C16.1109 101.125 16.4589 101.217 16.85 101.217C17.1416 101.217 17.4134 101.161 17.6653 101.048C17.9172 100.936 18.1376 100.78 18.3265 100.581C18.5154 100.379 18.6629 100.15 18.769 99.8949C18.8751 99.6397 18.9281 99.3712 18.9281 99.0895C18.9281 98.715 18.8386 98.367 18.6596 98.0455C18.484 97.724 18.242 97.4654 17.9338 97.2699C17.6255 97.071 17.2742 96.9716 16.8798 96.9716Z" fill="#0A0A18"/>
    <path opacity="0.5" d="M4.84233 55.8182V66H3.30114V57.3594H3.24148L0.805398 58.9503V57.4787L3.34588 55.8182H4.84233ZM8.00799 66.0945C7.73621 66.0945 7.50255 65.9983 7.307 65.8061C7.11145 65.6106 7.01367 65.3752 7.01367 65.1001C7.01367 64.8284 7.11145 64.5964 7.307 64.4041C7.50255 64.2086 7.73621 64.1108 8.00799 64.1108C8.27977 64.1108 8.51344 64.2086 8.70898 64.4041C8.90453 64.5964 9.00231 64.8284 9.00231 65.1001C9.00231 65.2824 8.95591 65.4498 8.8631 65.6023C8.77362 65.7514 8.6543 65.8707 8.50515 65.9602C8.356 66.0497 8.19028 66.0945 8.00799 66.0945ZM14.1491 66.169C13.3636 66.1657 12.6925 65.9586 12.1357 65.5476C11.5788 65.1366 11.1529 64.5384 10.858 63.7528C10.563 62.9673 10.4155 62.0211 10.4155 60.9141C10.4155 59.8104 10.563 58.8674 10.858 58.0852C11.1563 57.303 11.5838 56.7064 12.1406 56.2955C12.7008 55.8845 13.3703 55.679 14.1491 55.679C14.928 55.679 15.5959 55.8861 16.1527 56.3004C16.7095 56.7114 17.1354 57.308 17.4304 58.0902C17.7287 58.8691 17.8778 59.8104 17.8778 60.9141C17.8778 62.0244 17.7304 62.9723 17.4354 63.7578C17.1404 64.54 16.7145 65.1383 16.1577 65.5526C15.6009 65.9635 14.9313 66.169 14.1491 66.169ZM14.1491 64.8416C14.8385 64.8416 15.3771 64.5052 15.7649 63.8324C16.156 63.1596 16.3516 62.1868 16.3516 60.9141C16.3516 60.0689 16.2621 59.3546 16.0831 58.7713C15.9074 58.1847 15.6539 57.7405 15.3224 57.4389C14.9943 57.134 14.6032 56.9815 14.1491 56.9815C13.4631 56.9815 12.9245 57.3196 12.5334 57.9957C12.1423 58.6719 11.9451 59.6446 11.9418 60.9141C11.9418 61.7625 12.0296 62.4801 12.2053 63.0668C12.3842 63.6501 12.6378 64.0926 12.9659 64.3942C13.294 64.6925 13.6884 64.8416 14.1491 64.8416Z" fill="#0A0A18"/>
    <path opacity="0.5" d="M4.52415 266.169C3.73864 266.166 3.06747 265.959 2.51065 265.548C1.95384 265.137 1.52794 264.538 1.23295 263.753C0.937974 262.967 0.790483 262.021 0.790483 260.914C0.790483 259.81 0.937974 258.867 1.23295 258.085C1.53125 257.303 1.95881 256.706 2.51562 256.295C3.07576 255.884 3.74527 255.679 4.52415 255.679C5.30303 255.679 5.97088 255.886 6.5277 256.3C7.08452 256.711 7.51042 257.308 7.8054 258.09C8.10369 258.869 8.25284 259.81 8.25284 260.914C8.25284 262.024 8.10535 262.972 7.81037 263.758C7.51539 264.54 7.08949 265.138 6.53267 265.553C5.97585 265.964 5.30634 266.169 4.52415 266.169ZM4.52415 264.842C5.21354 264.842 5.75213 264.505 6.13991 263.832C6.53101 263.16 6.72656 262.187 6.72656 260.914C6.72656 260.069 6.63707 259.355 6.4581 258.771C6.28243 258.185 6.02888 257.741 5.69744 257.439C5.36932 257.134 4.97822 256.982 4.52415 256.982C3.83807 256.982 3.29948 257.32 2.90838 257.996C2.51728 258.672 2.32008 259.645 2.31676 260.914C2.31676 261.763 2.40459 262.48 2.58026 263.067C2.75923 263.65 3.01278 264.093 3.34091 264.394C3.66903 264.692 4.06345 264.842 4.52415 264.842ZM10.6467 266.094C10.3749 266.094 10.1412 265.998 9.94567 265.806C9.75012 265.611 9.65234 265.375 9.65234 265.1C9.65234 264.828 9.75012 264.596 9.94567 264.404C10.1412 264.209 10.3749 264.111 10.6467 264.111C10.9184 264.111 11.1521 264.209 11.3477 264.404C11.5432 264.596 11.641 264.828 11.641 265.1C11.641 265.282 11.5946 265.45 11.5018 265.602C11.4123 265.751 11.293 265.871 11.1438 265.96C10.9947 266.05 10.829 266.094 10.6467 266.094ZM16.8089 266.139C16.1858 266.139 15.6257 266.02 15.1286 265.781C14.6347 265.539 14.2403 265.208 13.9453 264.787C13.6503 264.366 13.4929 263.885 13.473 263.345H14.9645C15.0009 263.783 15.1948 264.142 15.5462 264.424C15.8975 264.706 16.3184 264.847 16.8089 264.847C17.2 264.847 17.5464 264.757 17.848 264.578C18.1529 264.396 18.3916 264.146 18.5639 263.827C18.7396 263.509 18.8274 263.146 18.8274 262.739C18.8274 262.324 18.7379 261.955 18.5589 261.63C18.38 261.305 18.133 261.05 17.8182 260.864C17.5066 260.679 17.1487 260.584 16.7443 260.581C16.4361 260.581 16.1262 260.634 15.8146 260.74C15.5031 260.846 15.2512 260.985 15.0589 261.158L13.652 260.949L14.2237 255.818H19.8217V257.136H15.5014L15.1783 259.984H15.2379C15.4368 259.792 15.7003 259.631 16.0284 259.502C16.3598 259.373 16.7145 259.308 17.0923 259.308C17.7121 259.308 18.264 259.456 18.7479 259.751C19.2351 260.046 19.6179 260.448 19.8963 260.959C20.178 261.466 20.3172 262.049 20.3139 262.709C20.3172 263.368 20.1681 263.957 19.8665 264.474C19.5682 264.991 19.1539 265.398 18.6236 265.697C18.0966 265.992 17.4917 266.139 16.8089 266.139Z" fill="#0A0A18"/>
    <path opacity="0.5" d="M4.52415 306.169C3.73864 306.166 3.06747 305.959 2.51065 305.548C1.95384 305.137 1.52794 304.538 1.23295 303.753C0.937974 302.967 0.790483 302.021 0.790483 300.914C0.790483 299.81 0.937974 298.867 1.23295 298.085C1.53125 297.303 1.95881 296.706 2.51562 296.295C3.07576 295.884 3.74527 295.679 4.52415 295.679C5.30303 295.679 5.97088 295.886 6.5277 296.3C7.08452 296.711 7.51042 297.308 7.8054 298.09C8.10369 298.869 8.25284 299.81 8.25284 300.914C8.25284 302.024 8.10535 302.972 7.81037 303.758C7.51539 304.54 7.08949 305.138 6.53267 305.553C5.97585 305.964 5.30634 306.169 4.52415 306.169ZM4.52415 304.842C5.21354 304.842 5.75213 304.505 6.13991 303.832C6.53101 303.16 6.72656 302.187 6.72656 300.914C6.72656 300.069 6.63707 299.355 6.4581 298.771C6.28243 298.185 6.02888 297.741 5.69744 297.439C5.36932 297.134 4.97822 296.982 4.52415 296.982C3.83807 296.982 3.29948 297.32 2.90838 297.996C2.51728 298.672 2.32008 299.645 2.31676 300.914C2.31676 301.763 2.40459 302.48 2.58026 303.067C2.75923 303.65 3.01278 304.093 3.34091 304.394C3.66903 304.692 4.06345 304.842 4.52415 304.842ZM10.6467 306.094C10.3749 306.094 10.1412 305.998 9.94567 305.806C9.75012 305.611 9.65234 305.375 9.65234 305.1C9.65234 304.828 9.75012 304.596 9.94567 304.404C10.1412 304.209 10.3749 304.111 10.6467 304.111C10.9184 304.111 11.1521 304.209 11.3477 304.404C11.5432 304.596 11.641 304.828 11.641 305.1C11.641 305.282 11.5946 305.45 11.5018 305.602C11.4123 305.751 11.293 305.871 11.1438 305.96C10.9947 306.05 10.829 306.094 10.6467 306.094ZM13.3984 304.011V302.768L17.7983 295.818H18.7777V297.648H18.1562L15.0092 302.629V302.709H21.0398V304.011H13.3984ZM18.2259 306V303.634L18.2358 303.067V295.818H19.6925V306H18.2259Z" fill="#0A0A18"/>
    <path opacity="0.5" d="M4.52415 346.169C3.73864 346.166 3.06747 345.959 2.51065 345.548C1.95384 345.137 1.52794 344.538 1.23295 343.753C0.937974 342.967 0.790483 342.021 0.790483 340.914C0.790483 339.81 0.937974 338.867 1.23295 338.085C1.53125 337.303 1.95881 336.706 2.51562 336.295C3.07576 335.884 3.74527 335.679 4.52415 335.679C5.30303 335.679 5.97088 335.886 6.5277 336.3C7.08452 336.711 7.51042 337.308 7.8054 338.09C8.10369 338.869 8.25284 339.81 8.25284 340.914C8.25284 342.024 8.10535 342.972 7.81037 343.758C7.51539 344.54 7.08949 345.138 6.53267 345.553C5.97585 345.964 5.30634 346.169 4.52415 346.169ZM4.52415 344.842C5.21354 344.842 5.75213 344.505 6.13991 343.832C6.53101 343.16 6.72656 342.187 6.72656 340.914C6.72656 340.069 6.63707 339.355 6.4581 338.771C6.28243 338.185 6.02888 337.741 5.69744 337.439C5.36932 337.134 4.97822 336.982 4.52415 336.982C3.83807 336.982 3.29948 337.32 2.90838 337.996C2.51728 338.672 2.32008 339.645 2.31676 340.914C2.31676 341.763 2.40459 342.48 2.58026 343.067C2.75923 343.65 3.01278 344.093 3.34091 344.394C3.66903 344.692 4.06345 344.842 4.52415 344.842ZM10.6467 346.094C10.3749 346.094 10.1412 345.998 9.94567 345.806C9.75012 345.611 9.65234 345.375 9.65234 345.1C9.65234 344.828 9.75012 344.596 9.94567 344.404C10.1412 344.209 10.3749 344.111 10.6467 344.111C10.9184 344.111 11.1521 344.209 11.3477 344.404C11.5432 344.596 11.641 344.828 11.641 345.1C11.641 345.282 11.5946 345.45 11.5018 345.602C11.4123 345.751 11.293 345.871 11.1438 345.96C10.9947 346.05 10.829 346.094 10.6467 346.094ZM16.7878 346.139C16.1051 346.139 15.4952 346.022 14.9583 345.786C14.4247 345.551 14.0021 345.224 13.6905 344.807C13.3823 344.386 13.2166 343.899 13.1934 343.345H14.7544C14.7743 343.647 14.8754 343.909 15.0577 344.131C15.2433 344.349 15.4853 344.518 15.7836 344.638C16.0819 344.757 16.4133 344.817 16.7779 344.817C17.1789 344.817 17.5336 344.747 17.8418 344.608C18.1533 344.469 18.397 344.275 18.5726 344.026C18.7483 343.774 18.8361 343.484 18.8361 343.156C18.8361 342.815 18.7483 342.515 18.5726 342.256C18.4003 341.995 18.1467 341.789 17.812 341.64C17.4805 341.491 17.0795 341.416 16.6088 341.416H15.7488V340.163H16.6088C16.9867 340.163 17.3181 340.095 17.6032 339.96C17.8915 339.824 18.1169 339.635 18.2793 339.393C18.4417 339.147 18.5229 338.861 18.5229 338.533C18.5229 338.218 18.4516 337.944 18.3091 337.712C18.1699 337.477 17.9711 337.293 17.7125 337.161C17.4573 337.028 17.1557 336.962 16.8077 336.962C16.4763 336.962 16.1664 337.023 15.878 337.146C15.593 337.265 15.361 337.437 15.182 337.663C15.003 337.885 14.9069 338.152 14.8936 338.463H13.4071C13.4237 337.913 13.5861 337.429 13.8944 337.011C14.2059 336.594 14.6169 336.267 15.1273 336.032C15.6377 335.797 16.2045 335.679 16.8276 335.679C17.4805 335.679 18.044 335.807 18.5179 336.062C18.9952 336.314 19.3631 336.65 19.6216 337.071C19.8835 337.492 20.0127 337.953 20.0094 338.453C20.0127 339.023 19.8536 339.507 19.5321 339.905C19.214 340.303 18.7897 340.569 18.2594 340.705V340.785C18.9355 340.888 19.4592 341.156 19.8304 341.59C20.205 342.024 20.3906 342.563 20.3873 343.206C20.3906 343.766 20.2348 344.268 19.9199 344.712C19.6084 345.156 19.1825 345.506 18.6422 345.761C18.102 346.013 17.4838 346.139 16.7878 346.139Z" fill="#0A0A18"/>
    <path opacity="0.5" d="M4.52415 386.169C3.73864 386.166 3.06747 385.959 2.51065 385.548C1.95384 385.137 1.52794 384.538 1.23295 383.753C0.937974 382.967 0.790483 382.021 0.790483 380.914C0.790483 379.81 0.937974 378.867 1.23295 378.085C1.53125 377.303 1.95881 376.706 2.51562 376.295C3.07576 375.884 3.74527 375.679 4.52415 375.679C5.30303 375.679 5.97088 375.886 6.5277 376.3C7.08452 376.711 7.51042 377.308 7.8054 378.09C8.10369 378.869 8.25284 379.81 8.25284 380.914C8.25284 382.024 8.10535 382.972 7.81037 383.758C7.51539 384.54 7.08949 385.138 6.53267 385.553C5.97585 385.964 5.30634 386.169 4.52415 386.169ZM4.52415 384.842C5.21354 384.842 5.75213 384.505 6.13991 383.832C6.53101 383.16 6.72656 382.187 6.72656 380.914C6.72656 380.069 6.63707 379.355 6.4581 378.771C6.28243 378.185 6.02888 377.741 5.69744 377.439C5.36932 377.134 4.97822 376.982 4.52415 376.982C3.83807 376.982 3.29948 377.32 2.90838 377.996C2.51728 378.672 2.32008 379.645 2.31676 380.914C2.31676 381.763 2.40459 382.48 2.58026 383.067C2.75923 383.65 3.01278 384.093 3.34091 384.394C3.66903 384.692 4.06345 384.842 4.52415 384.842ZM10.6467 386.094C10.3749 386.094 10.1412 385.998 9.94567 385.806C9.75012 385.611 9.65234 385.375 9.65234 385.1C9.65234 384.828 9.75012 384.596 9.94567 384.404C10.1412 384.209 10.3749 384.111 10.6467 384.111C10.9184 384.111 11.1521 384.209 11.3477 384.404C11.5432 384.596 11.641 384.828 11.641 385.1C11.641 385.282 11.5946 385.45 11.5018 385.602C11.4123 385.751 11.293 385.871 11.1438 385.96C10.9947 386.05 10.829 386.094 10.6467 386.094ZM13.6122 386V384.886L17.0575 381.317C17.4254 380.929 17.7287 380.589 17.9673 380.298C18.2093 380.003 18.3899 379.723 18.5092 379.457C18.6286 379.192 18.6882 378.911 18.6882 378.612C18.6882 378.274 18.6087 377.982 18.4496 377.737C18.2905 377.489 18.0734 377.298 17.7983 377.165C17.5232 377.03 17.2133 376.962 16.8686 376.962C16.504 376.962 16.1858 377.036 15.9141 377.185C15.6423 377.335 15.4335 377.545 15.2876 377.817C15.1418 378.089 15.0689 378.407 15.0689 378.771H13.6023C13.6023 378.152 13.7448 377.61 14.0298 377.146C14.3149 376.682 14.706 376.322 15.2031 376.067C15.7003 375.808 16.2654 375.679 16.8984 375.679C17.5381 375.679 18.1016 375.807 18.5888 376.062C19.0793 376.314 19.4621 376.658 19.7372 377.096C20.0123 377.53 20.1499 378.021 20.1499 378.567C20.1499 378.945 20.0786 379.315 19.9361 379.676C19.7969 380.037 19.5533 380.44 19.2053 380.884C18.8572 381.325 18.3733 381.86 17.7536 382.49L15.7301 384.608V384.683H20.3139V386H13.6122Z" fill="#0A0A18"/>
    <path opacity="0.5" d="M4.52415 426.169C3.73864 426.166 3.06747 425.959 2.51065 425.548C1.95384 425.137 1.52794 424.538 1.23295 423.753C0.937974 422.967 0.790483 422.021 0.790483 420.914C0.790483 419.81 0.937974 418.867 1.23295 418.085C1.53125 417.303 1.95881 416.706 2.51562 416.295C3.07576 415.884 3.74527 415.679 4.52415 415.679C5.30303 415.679 5.97088 415.886 6.5277 416.3C7.08452 416.711 7.51042 417.308 7.8054 418.09C8.10369 418.869 8.25284 419.81 8.25284 420.914C8.25284 422.024 8.10535 422.972 7.81037 423.758C7.51539 424.54 7.08949 425.138 6.53267 425.553C5.97585 425.964 5.30634 426.169 4.52415 426.169ZM4.52415 424.842C5.21354 424.842 5.75213 424.505 6.13991 423.832C6.53101 423.16 6.72656 422.187 6.72656 420.914C6.72656 420.069 6.63707 419.355 6.4581 418.771C6.28243 418.185 6.02888 417.741 5.69744 417.439C5.36932 417.134 4.97822 416.982 4.52415 416.982C3.83807 416.982 3.29948 417.32 2.90838 417.996C2.51728 418.672 2.32008 419.645 2.31676 420.914C2.31676 421.763 2.40459 422.48 2.58026 423.067C2.75923 423.65 3.01278 424.093 3.34091 424.394C3.66903 424.692 4.06345 424.842 4.52415 424.842ZM10.6467 426.094C10.3749 426.094 10.1412 425.998 9.94567 425.806C9.75012 425.611 9.65234 425.375 9.65234 425.1C9.65234 424.828 9.75012 424.596 9.94567 424.404C10.1412 424.209 10.3749 424.111 10.6467 424.111C10.9184 424.111 11.1521 424.209 11.3477 424.404C11.5432 424.596 11.641 424.828 11.641 425.1C11.641 425.282 11.5946 425.45 11.5018 425.602C11.4123 425.751 11.293 425.871 11.1438 425.96C10.9947 426.05 10.829 426.094 10.6467 426.094ZM16.2447 415.818V426H14.7035V417.359H14.6438L12.2077 418.95V417.479L14.7482 415.818H16.2447Z" fill="#0A0A18"/>
    <path opacity="0.5" d="M4.52415 466.169C3.73864 466.166 3.06747 465.959 2.51065 465.548C1.95384 465.137 1.52794 464.538 1.23295 463.753C0.937974 462.967 0.790483 462.021 0.790483 460.914C0.790483 459.81 0.937974 458.867 1.23295 458.085C1.53125 457.303 1.95881 456.706 2.51562 456.295C3.07576 455.884 3.74527 455.679 4.52415 455.679C5.30303 455.679 5.97088 455.886 6.5277 456.3C7.08452 456.711 7.51042 457.308 7.8054 458.09C8.10369 458.869 8.25284 459.81 8.25284 460.914C8.25284 462.024 8.10535 462.972 7.81037 463.758C7.51539 464.54 7.08949 465.138 6.53267 465.553C5.97585 465.964 5.30634 466.169 4.52415 466.169ZM4.52415 464.842C5.21354 464.842 5.75213 464.505 6.13991 463.832C6.53101 463.16 6.72656 462.187 6.72656 460.914C6.72656 460.069 6.63707 459.355 6.4581 458.771C6.28243 458.185 6.02888 457.741 5.69744 457.439C5.36932 457.134 4.97822 456.982 4.52415 456.982C3.83807 456.982 3.29948 457.32 2.90838 457.996C2.51728 458.672 2.32008 459.645 2.31676 460.914C2.31676 461.763 2.40459 462.48 2.58026 463.067C2.75923 463.65 3.01278 464.093 3.34091 464.394C3.66903 464.692 4.06345 464.842 4.52415 464.842Z" fill="#0A0A18"/>
    <rect x="52" y="100" width="1304" height="1" fill="#EBEBEB"/>
    <rect x="52" y="60" width="1304" height="1" fill="#EBEBEB"/>
    <rect x="52" y="140" width="1304" height="1" fill="#EBEBEB"/>
    <rect x="52" y="180" width="1304" height="1" fill="#EBEBEB"/>
    <rect x="52" y="220" width="1304" height="1" fill="#EBEBEB"/>
    <rect x="52" y="260" width="1304" height="1" fill="#EBEBEB"/>
    <rect x="52" y="300" width="1304" height="1" fill="#EBEBEB"/>
    <rect x="52" y="340" width="1304" height="1" fill="#EBEBEB"/>
    <rect x="52" y="380" width="1304" height="1" fill="#EBEBEB"/>
    <rect x="52" y="420" width="1304" height="1" fill="#EBEBEB"/>
    <rect x="52" y="460" width="1304" height="1" fill="#EBEBEB"/>
    <rect x="52" y="458" width="1304" height="2" fill="#FF465C"/>
    <path d="M1316.5 427.5L1357 423.5V459H51.5V343L101 367.5L150.5 397L190 376.5L238.5 392.5L282.5 405L333 397L369.5 382.5L416.5 405L460.5 413L510 429L550 417.5L595 413L637.5 431.5L683 436L723.5 429L771.5 431.5L816.5 420L859.5 423.5L895.5 436H945L981.5 423.5L1025 431.5L1064 423.5L1097.5 407.5L1130 420H1168L1208 427.5L1238 420L1280 423.5L1316.5 427.5Z" fill="url(#paint0_linear_0_1)" fill-opacity="0.2"/>
    <path d="M1357 423.5L1316.5 427.5L1280 423.5L1238 420L1208 427.5L1168 420H1130L1097.5 407.5L1064 423.5L1025 431.5L981.5 423.5L945 436H895.5L859.5 423.5L816.5 420L771.5 431.5L723.5 429L683 436L637.5 431.5L595 413L550 417.5L510 429L460.5 413L416.5 405L369.5 382.5L333 397L282.5 405L238.5 392.5L190 376.5L150.5 397L101 367.5L51.5 343" stroke="#9866FD" stroke-width="2"/>
    <path d="M1357 423.5L1316.5 427.5L1280 423.5L1238 420L1208 427.5L1168 420H1130L1097.5 407.5L1064 423.5L1025 431.5L981.5 423.5L945 436H895.5L859.5 423.5L816.5 420L771.5 431.5L723.5 429L683 436L637.5 431.5L595 413L550 417.5L510 429L460.5 413L416.5 405L369.5 382.5L333 397L282.5 405L238.5 392.5L190 376.5L150.5 397L101 367.5L51.5 343" stroke="#9866FD" stroke-width="2"/>
    <path d="M1357 423.5L1316.5 427.5L1280 423.5L1238 420L1208 427.5L1168 420H1130L1097.5 407.5L1064 423.5L1025 431.5L981.5 423.5L945 436H895.5L859.5 423.5L816.5 420L771.5 431.5L723.5 429L683 436L637.5 431.5L595 413L550 417.5L510 429L460.5 413L416.5 405L369.5 382.5L333 397L282.5 405L238.5 392.5L190 376.5L150.5 397L101 367.5L51.5 343" stroke="#9866FD" stroke-width="2"/>
    <path opacity="0.2" d="M92 385.5L51.5 381.5V460H1357V301L1307.5 325.5L1258 355L1218.5 334.5L1170 350.5L1126 363L1075.5 355L1039 340.5L992 363L948 371L898.5 387L858.5 375.5L813.5 371L771 389.5L725.5 394L685 387L637 389.5L592 378L549 381.5L513 394H463.5L427 381.5L383.5 389.5L344.5 381.5L311 365.5L278.5 378H240.5L200.5 385.5L170.5 378L128.5 381.5L92 385.5Z" fill="url(#paint1_linear_0_1)"/>
    <path d="M51.5 381.5L92 385.5L128.5 381.5L170.5 378L200.5 385.5L240.5 378H278.5L311 365.5L344.5 381.5L383.5 389.5L427 381.5L463.5 394H513L549 381.5L592 378L637 389.5L685 387L725.5 394L771 389.5L813.5 371L858.5 375.5L898.5 387L948 371L992 363L1039 340.5L1075.5 355L1126 363L1170 350.5L1218.5 334.5L1258 355L1307.5 325.5L1357 301" stroke="#FF46CB" stroke-width="2"/>
    <path opacity="0.2" d="M1316.5 371.5L1357 367.5V446H51.5V287L101 311.5L150.5 341L190 320.5L238.5 336.5L282.5 349L333 341L369.5 326.5L416.5 349L460.5 357L510 373L550 361.5L595 357L637.5 375.5L683 380L723.5 373L771.5 375.5L816.5 364L859.5 367.5L895.5 380H945L981.5 367.5L1025 375.5L1064 367.5L1097.5 351.5L1130 364H1168L1208 371.5L1238 364L1280 367.5L1316.5 371.5Z" fill="url(#paint2_linear_0_1)"/>
    <path d="M1357 367.5L1316.5 371.5L1280 367.5L1238 364L1208 371.5L1168 364H1130L1097.5 351.5L1064 367.5L1025 375.5L981.5 367.5L945 380H895.5L859.5 367.5L816.5 364L771.5 375.5L723.5 373L683 380L637.5 375.5L595 357L550 361.5L510 373L460.5 357L416.5 349L369.5 326.5L333 341L282.5 349L238.5 336.5L190 320.5L150.5 341L101 311.5L51.5 287" stroke="#F8B738" stroke-width="2"/>
    <path opacity="0.2" d="M88.5 403.5L53.5 409H52V459.5H1357V329L1314 340.5L1246 299L1213.5 303.5L1171.5 274L1124 291.5L1078 303.5L1038 259.5L988 237.5L939.5 259.5L906.5 220L857.5 274L822.5 322L770.5 366.5L730 381.5L685.5 357L625.5 339L599.5 322L554 343L513.5 353L469.5 343L423.5 324.5L372 329L343.5 322H310.5L277.5 329L240.5 324.5L204 356.5L162.5 371L133.5 366.5L88.5 403.5Z" fill="url(#paint3_linear_0_1)"/>
    <path d="M53.5 409L88.5 403.5L133.5 366.5L162.5 371L204 356.5L240.5 324.5L277.5 329L310.5 322H343.5L372 329L423.5 324.5L469.5 343L513.5 353L554 343L599.5 322L625.5 339L685.5 357L730 381.5L770.5 366.5L822.5 322L857.5 274L906.5 220L939.5 259.5L988 237.5L1038 259.5L1078 303.5L1124 291.5L1171.5 274L1213.5 303.5L1246 299L1314 340.5L1357 329" stroke="#38F8AC" stroke-width="2"/>
    <defs>
        <linearGradient id="paint0_linear_0_1" x1="704.25" y1="343" x2="704.25" y2="459" gradientUnits="userSpaceOnUse">
            <stop stop-color="#9866FD"/>
            <stop offset="1" stop-color="#9866FD" stop-opacity="0"/>
        </linearGradient>
        <linearGradient id="paint1_linear_0_1" x1="704.25" y1="301" x2="704.25" y2="417" gradientUnits="userSpaceOnUse">
            <stop stop-color="#FF46CB"/>
            <stop offset="1" stop-color="#FF46CB" stop-opacity="0"/>
        </linearGradient>
        <linearGradient id="paint2_linear_0_1" x1="704.25" y1="287" x2="704.25" y2="403" gradientUnits="userSpaceOnUse">
            <stop stop-color="#F8B738"/>
            <stop offset="1" stop-color="#F8B738" stop-opacity="0"/>
        </linearGradient>
        <linearGradient id="paint3_linear_0_1" x1="704.5" y1="220" x2="704.5" y2="459.5" gradientUnits="userSpaceOnUse">
            <stop stop-color="#38F8AC"/>
            <stop offset="1" stop-color="#38F8AC" stop-opacity="0"/>
        </linearGradient>
    </defs>
</svg>
    