<svg width="1358" height="397" viewBox="0 0 1358 397" fill="none" xmlns="http://www.w3.org/2000/svg">
    <path opacity="0.5" d="M57.8423 385.818V396H56.3011V387.359H56.2415L53.8054 388.95V387.479L56.3459 385.818H57.8423Z" fill="#0A0A18"/>
    <path opacity="0.5" d="M237.534 396.139C237.08 396.133 236.633 396.05 236.192 395.891C235.754 395.732 235.357 395.466 234.999 395.095C234.641 394.724 234.354 394.225 234.138 393.599C233.926 392.972 233.82 392.19 233.82 391.252C233.82 390.364 233.908 389.575 234.084 388.886C234.263 388.196 234.52 387.615 234.854 387.141C235.189 386.663 235.594 386.3 236.067 386.052C236.541 385.803 237.073 385.679 237.663 385.679C238.27 385.679 238.808 385.798 239.279 386.037C239.75 386.276 240.131 386.605 240.423 387.026C240.718 387.447 240.905 387.926 240.984 388.463H239.468C239.365 388.039 239.161 387.692 238.857 387.424C238.552 387.156 238.154 387.021 237.663 387.021C236.918 387.021 236.336 387.346 235.918 387.996C235.504 388.645 235.295 389.549 235.292 390.705H235.366C235.542 390.417 235.758 390.172 236.013 389.969C236.271 389.764 236.56 389.607 236.878 389.497C237.199 389.384 237.537 389.328 237.892 389.328C238.482 389.328 239.016 389.472 239.493 389.761C239.973 390.046 240.356 390.44 240.641 390.944C240.926 391.448 241.069 392.024 241.069 392.674C241.069 393.324 240.921 393.912 240.626 394.439C240.335 394.966 239.924 395.384 239.393 395.692C238.863 395.997 238.243 396.146 237.534 396.139ZM237.529 394.847C237.92 394.847 238.27 394.75 238.578 394.558C238.886 394.366 239.13 394.107 239.309 393.783C239.488 393.458 239.577 393.095 239.577 392.694C239.577 392.303 239.49 391.946 239.314 391.625C239.142 391.304 238.903 391.048 238.598 390.859C238.296 390.67 237.952 390.576 237.564 390.576C237.269 390.576 236.996 390.632 236.744 390.745C236.495 390.858 236.276 391.013 236.087 391.212C235.898 391.411 235.749 391.64 235.64 391.898C235.534 392.154 235.481 392.424 235.481 392.709C235.481 393.09 235.569 393.443 235.744 393.768C235.923 394.093 236.167 394.354 236.475 394.553C236.787 394.749 237.138 394.847 237.529 394.847Z" fill="#0A0A18"/>
    <path opacity="0.5" d="M424.842 385.818V396H423.301V387.359H423.241L420.805 388.95V387.479L423.346 385.818H424.842ZM431.46 385.818V396H429.918V387.359H429.859L427.423 388.95V387.479L429.963 385.818H431.46Z" fill="#0A0A18"/>
    <path opacity="0.5" d="M637.842 385.818V396H636.301V387.359H636.241L633.805 388.95V387.479L636.346 385.818H637.842ZM644.151 396.139C643.697 396.133 643.25 396.05 642.809 395.891C642.371 395.732 641.974 395.466 641.616 395.095C641.258 394.724 640.971 394.225 640.756 393.599C640.544 392.972 640.438 392.19 640.438 391.252C640.438 390.364 640.525 389.575 640.701 388.886C640.88 388.196 641.137 387.615 641.472 387.141C641.806 386.663 642.211 386.3 642.685 386.052C643.159 385.803 643.691 385.679 644.281 385.679C644.887 385.679 645.426 385.798 645.896 386.037C646.367 386.276 646.748 386.605 647.04 387.026C647.335 387.447 647.522 387.926 647.602 388.463H646.085C645.982 388.039 645.779 387.692 645.474 387.424C645.169 387.156 644.771 387.021 644.281 387.021C643.535 387.021 642.953 387.346 642.536 387.996C642.121 388.645 641.912 389.549 641.909 390.705H641.984C642.159 390.417 642.375 390.172 642.63 389.969C642.888 389.764 643.177 389.607 643.495 389.497C643.817 389.384 644.155 389.328 644.509 389.328C645.099 389.328 645.633 389.472 646.11 389.761C646.591 390.046 646.973 390.44 647.259 390.944C647.544 391.448 647.686 392.024 647.686 392.674C647.686 393.324 647.539 393.912 647.244 394.439C646.952 394.966 646.541 395.384 646.011 395.692C645.48 395.997 644.861 396.146 644.151 396.139ZM644.146 394.847C644.537 394.847 644.887 394.75 645.195 394.558C645.504 394.366 645.747 394.107 645.926 393.783C646.105 393.458 646.195 393.095 646.195 392.694C646.195 392.303 646.107 391.946 645.931 391.625C645.759 391.304 645.52 391.048 645.215 390.859C644.914 390.67 644.569 390.576 644.181 390.576C643.886 390.576 643.613 390.632 643.361 390.745C643.112 390.858 642.893 391.013 642.705 391.212C642.516 391.411 642.366 391.64 642.257 391.898C642.151 392.154 642.098 392.424 642.098 392.709C642.098 393.09 642.186 393.443 642.362 393.768C642.54 394.093 642.784 394.354 643.092 394.553C643.404 394.749 643.755 394.847 644.146 394.847Z" fill="#0A0A18"/>
    <path opacity="0.5" d="M849.979 396V394.886L853.425 391.317C853.793 390.929 854.096 390.589 854.335 390.298C854.576 390.003 854.757 389.723 854.876 389.457C854.996 389.192 855.055 388.911 855.055 388.612C855.055 388.274 854.976 387.982 854.817 387.737C854.658 387.489 854.441 387.298 854.165 387.165C853.89 387.03 853.58 386.962 853.236 386.962C852.871 386.962 852.553 387.036 852.281 387.185C852.009 387.335 851.801 387.545 851.655 387.817C851.509 388.089 851.436 388.407 851.436 388.771H849.969C849.969 388.152 850.112 387.61 850.397 387.146C850.682 386.682 851.073 386.322 851.57 386.067C852.067 385.808 852.633 385.679 853.266 385.679C853.905 385.679 854.469 385.807 854.956 386.062C855.446 386.314 855.829 386.658 856.104 387.096C856.379 387.53 856.517 388.021 856.517 388.567C856.517 388.945 856.446 389.315 856.303 389.676C856.164 390.037 855.92 390.44 855.572 390.884C855.224 391.325 854.741 391.86 854.121 392.49L852.097 394.608V394.683H856.681V396H849.979ZM862.428 385.818V396H860.887V387.359H860.827L858.391 388.95V387.479L860.932 385.818H862.428Z" fill="#0A0A18"/>
    <path opacity="0.5" d="M1072.98 396V394.886L1076.42 391.317C1076.79 390.929 1077.1 390.589 1077.33 390.298C1077.58 390.003 1077.76 389.723 1077.88 389.457C1078 389.192 1078.06 388.911 1078.06 388.612C1078.06 388.274 1077.98 387.982 1077.82 387.737C1077.66 387.489 1077.44 387.298 1077.17 387.165C1076.89 387.03 1076.58 386.962 1076.24 386.962C1075.87 386.962 1075.55 387.036 1075.28 387.185C1075.01 387.335 1074.8 387.545 1074.65 387.817C1074.51 388.089 1074.44 388.407 1074.44 388.771H1072.97C1072.97 388.152 1073.11 387.61 1073.4 387.146C1073.68 386.682 1074.07 386.322 1074.57 386.067C1075.07 385.808 1075.63 385.679 1076.27 385.679C1076.91 385.679 1077.47 385.807 1077.96 386.062C1078.45 386.314 1078.83 386.658 1079.1 387.096C1079.38 387.53 1079.52 388.021 1079.52 388.567C1079.52 388.945 1079.45 389.315 1079.3 389.676C1079.16 390.037 1078.92 390.44 1078.57 390.884C1078.22 391.325 1077.74 391.86 1077.12 392.49L1075.1 394.608V394.683H1079.68V396H1072.98ZM1085.12 396.139C1084.67 396.133 1084.22 396.05 1083.78 395.891C1083.34 395.732 1082.94 395.466 1082.58 395.095C1082.23 394.724 1081.94 394.225 1081.72 393.599C1081.51 392.972 1081.41 392.19 1081.41 391.252C1081.41 390.364 1081.49 389.575 1081.67 388.886C1081.85 388.196 1082.11 387.615 1082.44 387.141C1082.78 386.663 1083.18 386.3 1083.65 386.052C1084.13 385.803 1084.66 385.679 1085.25 385.679C1085.86 385.679 1086.39 385.798 1086.87 386.037C1087.34 386.276 1087.72 386.605 1088.01 387.026C1088.3 387.447 1088.49 387.926 1088.57 388.463H1087.05C1086.95 388.039 1086.75 387.692 1086.44 387.424C1086.14 387.156 1085.74 387.021 1085.25 387.021C1084.5 387.021 1083.92 387.346 1083.5 387.996C1083.09 388.645 1082.88 389.549 1082.88 390.705H1082.95C1083.13 390.417 1083.34 390.172 1083.6 389.969C1083.86 389.764 1084.15 389.607 1084.46 389.497C1084.79 389.384 1085.12 389.328 1085.48 389.328C1086.07 389.328 1086.6 389.472 1087.08 389.761C1087.56 390.046 1087.94 390.44 1088.23 390.944C1088.51 391.448 1088.65 392.024 1088.65 392.674C1088.65 393.324 1088.51 393.912 1088.21 394.439C1087.92 394.966 1087.51 395.384 1086.98 395.692C1086.45 395.997 1085.83 396.146 1085.12 396.139ZM1085.12 394.847C1085.51 394.847 1085.86 394.75 1086.16 394.558C1086.47 394.366 1086.72 394.107 1086.89 393.783C1087.07 393.458 1087.16 393.095 1087.16 392.694C1087.16 392.303 1087.08 391.946 1086.9 391.625C1086.73 391.304 1086.49 391.048 1086.18 390.859C1085.88 390.67 1085.54 390.576 1085.15 390.576C1084.85 390.576 1084.58 390.632 1084.33 390.745C1084.08 390.858 1083.86 391.013 1083.67 391.212C1083.48 391.411 1083.34 391.64 1083.23 391.898C1083.12 392.154 1083.07 392.424 1083.07 392.709C1083.07 393.09 1083.15 393.443 1083.33 393.768C1083.51 394.093 1083.75 394.354 1084.06 394.553C1084.37 394.749 1084.72 394.847 1085.12 394.847Z" fill="#0A0A18"/>
    <path opacity="0.5" d="M87.9794 396V394.886L91.4247 391.317C91.7926 390.929 92.0959 390.589 92.3345 390.298C92.5765 390.003 92.7571 389.723 92.8764 389.457C92.9957 389.192 93.0554 388.911 93.0554 388.612C93.0554 388.274 92.9759 387.982 92.8168 387.737C92.6577 387.489 92.4406 387.298 92.1655 387.165C91.8904 387.03 91.5805 386.962 91.2358 386.962C90.8712 386.962 90.553 387.036 90.2812 387.185C90.0095 387.335 89.8007 387.545 89.6548 387.817C89.509 388.089 89.4361 388.407 89.4361 388.771H87.9695C87.9695 388.152 88.112 387.61 88.397 387.146C88.6821 386.682 89.0732 386.322 89.5703 386.067C90.0675 385.808 90.6326 385.679 91.2656 385.679C91.9053 385.679 92.4688 385.807 92.956 386.062C93.4465 386.314 93.8293 386.658 94.1044 387.096C94.3795 387.53 94.517 388.021 94.517 388.567C94.517 388.945 94.4458 389.315 94.3033 389.676C94.1641 390.037 93.9205 390.44 93.5724 390.884C93.2244 391.325 92.7405 391.86 92.1207 392.49L90.0973 394.608V394.683H94.6811V396H87.9794Z" fill="#0A0A18"/>
    <path opacity="0.5" d="M270.322 396L274.767 387.21V387.136H269.626V385.818H276.358V387.18L271.928 396H270.322Z" fill="#0A0A18"/>
    <path opacity="0.5" d="M465.842 385.818V396H464.301V387.359H464.241L461.805 388.95V387.479L464.346 385.818H465.842ZM468.597 396V394.886L472.042 391.317C472.41 390.929 472.713 390.589 472.952 390.298C473.194 390.003 473.374 389.723 473.494 389.457C473.613 389.192 473.673 388.911 473.673 388.612C473.673 388.274 473.593 387.982 473.434 387.737C473.275 387.489 473.058 387.298 472.783 387.165C472.508 387.03 472.198 386.962 471.853 386.962C471.488 386.962 471.17 387.036 470.898 387.185C470.627 387.335 470.418 387.545 470.272 387.817C470.126 388.089 470.053 388.407 470.053 388.771H468.587C468.587 388.152 468.729 387.61 469.014 387.146C469.299 386.682 469.69 386.322 470.188 386.067C470.685 385.808 471.25 385.679 471.883 385.679C472.522 385.679 473.086 385.807 473.573 386.062C474.064 386.314 474.446 386.658 474.722 387.096C474.997 387.53 475.134 388.021 475.134 388.567C475.134 388.945 475.063 389.315 474.92 389.676C474.781 390.037 474.538 390.44 474.19 390.884C473.842 391.325 473.358 391.86 472.738 392.49L470.714 394.608V394.683H475.298V396H468.597Z" fill="#0A0A18"/>
    <path opacity="0.5" d="M680.842 385.818V396H679.301V387.359H679.241L676.805 388.95V387.479L679.346 385.818H680.842ZM683.94 396L688.384 387.21V387.136H683.244V385.818H689.975V387.18L685.545 396H683.94Z" fill="#0A0A18"/>
    <path opacity="0.5" d="M892.979 396V394.886L896.425 391.317C896.793 390.929 897.096 390.589 897.335 390.298C897.576 390.003 897.757 389.723 897.876 389.457C897.996 389.192 898.055 388.911 898.055 388.612C898.055 388.274 897.976 387.982 897.817 387.737C897.658 387.489 897.441 387.298 897.165 387.165C896.89 387.03 896.58 386.962 896.236 386.962C895.871 386.962 895.553 387.036 895.281 387.185C895.009 387.335 894.801 387.545 894.655 387.817C894.509 388.089 894.436 388.407 894.436 388.771H892.969C892.969 388.152 893.112 387.61 893.397 387.146C893.682 386.682 894.073 386.322 894.57 386.067C895.067 385.808 895.633 385.679 896.266 385.679C896.905 385.679 897.469 385.807 897.956 386.062C898.446 386.314 898.829 386.658 899.104 387.096C899.379 387.53 899.517 388.021 899.517 388.567C899.517 388.945 899.446 389.315 899.303 389.676C899.164 390.037 898.92 390.44 898.572 390.884C898.224 391.325 897.741 391.86 897.121 392.49L895.097 394.608V394.683H899.681V396H892.979ZM901.565 396V394.886L905.011 391.317C905.379 390.929 905.682 390.589 905.92 390.298C906.162 390.003 906.343 389.723 906.462 389.457C906.582 389.192 906.641 388.911 906.641 388.612C906.641 388.274 906.562 387.982 906.403 387.737C906.244 387.489 906.027 387.298 905.751 387.165C905.476 387.03 905.166 386.962 904.822 386.962C904.457 386.962 904.139 387.036 903.867 387.185C903.595 387.335 903.387 387.545 903.241 387.817C903.095 388.089 903.022 388.407 903.022 388.771H901.555C901.555 388.152 901.698 387.61 901.983 387.146C902.268 386.682 902.659 386.322 903.156 386.067C903.653 385.808 904.219 385.679 904.852 385.679C905.491 385.679 906.055 385.807 906.542 386.062C907.032 386.314 907.415 386.658 907.69 387.096C907.965 387.53 908.103 388.021 908.103 388.567C908.103 388.945 908.032 389.315 907.889 389.676C907.75 390.037 907.506 390.44 907.158 390.884C906.81 391.325 906.326 391.86 905.707 392.49L903.683 394.608V394.683H908.267V396H901.565Z" fill="#0A0A18"/>
    <path opacity="0.5" d="M1117.98 396V394.886L1121.42 391.317C1121.79 390.929 1122.1 390.589 1122.33 390.298C1122.58 390.003 1122.76 389.723 1122.88 389.457C1123 389.192 1123.06 388.911 1123.06 388.612C1123.06 388.274 1122.98 387.982 1122.82 387.737C1122.66 387.489 1122.44 387.298 1122.17 387.165C1121.89 387.03 1121.58 386.962 1121.24 386.962C1120.87 386.962 1120.55 387.036 1120.28 387.185C1120.01 387.335 1119.8 387.545 1119.65 387.817C1119.51 388.089 1119.44 388.407 1119.44 388.771H1117.97C1117.97 388.152 1118.11 387.61 1118.4 387.146C1118.68 386.682 1119.07 386.322 1119.57 386.067C1120.07 385.808 1120.63 385.679 1121.27 385.679C1121.91 385.679 1122.47 385.807 1122.96 386.062C1123.45 386.314 1123.83 386.658 1124.1 387.096C1124.38 387.53 1124.52 388.021 1124.52 388.567C1124.52 388.945 1124.45 389.315 1124.3 389.676C1124.16 390.037 1123.92 390.44 1123.57 390.884C1123.22 391.325 1122.74 391.86 1122.12 392.49L1120.1 394.608V394.683H1124.68V396H1117.98ZM1126.91 396L1131.35 387.21V387.136H1126.21V385.818H1132.94V387.18L1128.51 396H1126.91Z" fill="#0A0A18"/>
    <path opacity="0.5" d="M127.524 396.139C126.841 396.139 126.232 396.022 125.695 395.786C125.161 395.551 124.738 395.224 124.427 394.807C124.119 394.386 123.953 393.899 123.93 393.345H125.491C125.511 393.647 125.612 393.909 125.794 394.131C125.98 394.349 126.222 394.518 126.52 394.638C126.818 394.757 127.15 394.817 127.514 394.817C127.915 394.817 128.27 394.747 128.578 394.608C128.89 394.469 129.133 394.275 129.309 394.026C129.485 393.774 129.572 393.484 129.572 393.156C129.572 392.815 129.485 392.515 129.309 392.256C129.137 391.995 128.883 391.789 128.548 391.64C128.217 391.491 127.816 391.416 127.345 391.416H126.485V390.163H127.345C127.723 390.163 128.054 390.095 128.339 389.96C128.628 389.824 128.853 389.635 129.016 389.393C129.178 389.147 129.259 388.861 129.259 388.533C129.259 388.218 129.188 387.944 129.045 387.712C128.906 387.477 128.707 387.293 128.449 387.161C128.194 387.028 127.892 386.962 127.544 386.962C127.213 386.962 126.903 387.023 126.614 387.146C126.329 387.265 126.097 387.437 125.918 387.663C125.739 387.885 125.643 388.152 125.63 388.463H124.143C124.16 387.913 124.322 387.429 124.631 387.011C124.942 386.594 125.353 386.267 125.864 386.032C126.374 385.797 126.941 385.679 127.564 385.679C128.217 385.679 128.78 385.807 129.254 386.062C129.732 386.314 130.099 386.65 130.358 387.071C130.62 387.492 130.749 387.953 130.746 388.453C130.749 389.023 130.59 389.507 130.268 389.905C129.95 390.303 129.526 390.569 128.996 390.705V390.785C129.672 390.888 130.196 391.156 130.567 391.59C130.941 392.024 131.127 392.563 131.124 393.206C131.127 393.766 130.971 394.268 130.656 394.712C130.345 395.156 129.919 395.506 129.379 395.761C128.838 396.013 128.22 396.139 127.524 396.139Z" fill="#0A0A18"/>
    <path opacity="0.5" d="M309.42 396.139C308.707 396.139 308.077 396.017 307.531 395.771C306.987 395.526 306.561 395.188 306.253 394.757C305.945 394.326 305.792 393.836 305.795 393.286C305.792 392.855 305.88 392.459 306.059 392.097C306.241 391.733 306.488 391.429 306.8 391.188C307.111 390.942 307.459 390.786 307.844 390.72V390.661C307.337 390.538 306.931 390.266 306.626 389.845C306.321 389.424 306.17 388.94 306.173 388.393C306.17 387.873 306.308 387.409 306.586 387.001C306.868 386.59 307.254 386.267 307.744 386.032C308.235 385.797 308.793 385.679 309.42 385.679C310.04 385.679 310.593 385.798 311.08 386.037C311.571 386.272 311.957 386.595 312.239 387.006C312.52 387.414 312.663 387.876 312.666 388.393C312.663 388.94 312.507 389.424 312.199 389.845C311.891 390.266 311.49 390.538 310.996 390.661V390.72C311.377 390.786 311.72 390.942 312.025 391.188C312.333 391.429 312.578 391.733 312.761 392.097C312.946 392.459 313.041 392.855 313.044 393.286C313.041 393.836 312.885 394.326 312.577 394.757C312.268 395.188 311.841 395.526 311.294 395.771C310.75 396.017 310.126 396.139 309.42 396.139ZM309.42 394.881C309.841 394.881 310.205 394.812 310.513 394.673C310.822 394.53 311.06 394.333 311.229 394.081C311.398 393.826 311.485 393.527 311.488 393.186C311.485 392.831 311.392 392.518 311.21 392.246C311.031 391.975 310.787 391.761 310.479 391.605C310.17 391.449 309.817 391.371 309.42 391.371C309.019 391.371 308.662 391.449 308.351 391.605C308.039 391.761 307.794 391.975 307.615 392.246C307.436 392.518 307.348 392.831 307.352 393.186C307.348 393.527 307.429 393.826 307.595 394.081C307.764 394.333 308.004 394.53 308.316 394.673C308.628 394.812 308.996 394.881 309.42 394.881ZM309.42 390.143C309.758 390.143 310.058 390.076 310.32 389.94C310.581 389.804 310.787 389.615 310.936 389.373C311.089 389.131 311.166 388.848 311.17 388.523C311.166 388.205 311.09 387.926 310.941 387.688C310.795 387.449 310.591 387.265 310.33 387.136C310.068 387.003 309.764 386.937 309.42 386.937C309.068 386.937 308.76 387.003 308.495 387.136C308.233 387.265 308.029 387.449 307.884 387.688C307.738 387.926 307.666 388.205 307.67 388.523C307.666 388.848 307.739 389.131 307.888 389.373C308.038 389.615 308.243 389.804 308.505 389.94C308.77 390.076 309.075 390.143 309.42 390.143Z" fill="#0A0A18"/>
    <path opacity="0.5" d="M508.842 385.818V396H507.301V387.359H507.241L504.805 388.95V387.479L507.346 385.818H508.842ZM515.141 396.139C514.459 396.139 513.849 396.022 513.312 395.786C512.778 395.551 512.356 395.224 512.044 394.807C511.736 394.386 511.57 393.899 511.547 393.345H513.108C513.128 393.647 513.229 393.909 513.411 394.131C513.597 394.349 513.839 394.518 514.137 394.638C514.435 394.757 514.767 394.817 515.131 394.817C515.532 394.817 515.887 394.747 516.195 394.608C516.507 394.469 516.75 394.275 516.926 394.026C517.102 393.774 517.19 393.484 517.19 393.156C517.19 392.815 517.102 392.515 516.926 392.256C516.754 391.995 516.5 391.789 516.165 391.64C515.834 391.491 515.433 391.416 514.962 391.416H514.102V390.163H514.962C515.34 390.163 515.672 390.095 515.957 389.96C516.245 389.824 516.47 389.635 516.633 389.393C516.795 389.147 516.876 388.861 516.876 388.533C516.876 388.218 516.805 387.944 516.663 387.712C516.523 387.477 516.325 387.293 516.066 387.161C515.811 387.028 515.509 386.962 515.161 386.962C514.83 386.962 514.52 387.023 514.232 387.146C513.946 387.265 513.714 387.437 513.536 387.663C513.357 387.885 513.26 388.152 513.247 388.463H511.761C511.777 387.913 511.94 387.429 512.248 387.011C512.559 386.594 512.97 386.267 513.481 386.032C513.991 385.797 514.558 385.679 515.181 385.679C515.834 385.679 516.397 385.807 516.871 386.062C517.349 386.314 517.717 386.65 517.975 387.071C518.237 387.492 518.366 387.953 518.363 388.453C518.366 389.023 518.207 389.507 517.886 389.905C517.567 390.303 517.143 390.569 516.613 390.705V390.785C517.289 390.888 517.813 391.156 518.184 391.59C518.558 392.024 518.744 392.563 518.741 393.206C518.744 393.766 518.588 394.268 518.273 394.712C517.962 395.156 517.536 395.506 516.996 395.761C516.455 396.013 515.837 396.139 515.141 396.139Z" fill="#0A0A18"/>
    <path opacity="0.5" d="M722.842 385.818V396H721.301V387.359H721.241L718.805 388.95V387.479L721.346 385.818H722.842ZM729.037 396.139C728.324 396.139 727.695 396.017 727.148 395.771C726.604 395.526 726.178 395.188 725.87 394.757C725.562 394.326 725.409 393.836 725.413 393.286C725.409 392.855 725.497 392.459 725.676 392.097C725.858 391.733 726.105 391.429 726.417 391.188C726.728 390.942 727.076 390.786 727.461 390.72V390.661C726.954 390.538 726.548 390.266 726.243 389.845C725.938 389.424 725.787 388.94 725.79 388.393C725.787 387.873 725.925 387.409 726.203 387.001C726.485 386.59 726.871 386.267 727.362 386.032C727.852 385.797 728.411 385.679 729.037 385.679C729.657 385.679 730.21 385.798 730.697 386.037C731.188 386.272 731.574 386.595 731.856 387.006C732.138 387.414 732.28 387.876 732.283 388.393C732.28 388.94 732.124 389.424 731.816 389.845C731.508 390.266 731.107 390.538 730.613 390.661V390.72C730.994 390.786 731.337 390.942 731.642 391.188C731.95 391.429 732.196 391.733 732.378 392.097C732.563 392.459 732.658 392.855 732.661 393.286C732.658 393.836 732.502 394.326 732.194 394.757C731.886 395.188 731.458 395.526 730.911 395.771C730.368 396.017 729.743 396.139 729.037 396.139ZM729.037 394.881C729.458 394.881 729.822 394.812 730.131 394.673C730.439 394.53 730.678 394.333 730.847 394.081C731.016 393.826 731.102 393.527 731.105 393.186C731.102 392.831 731.009 392.518 730.827 392.246C730.648 391.975 730.404 391.761 730.096 391.605C729.788 391.449 729.435 391.371 729.037 391.371C728.636 391.371 728.28 391.449 727.968 391.605C727.656 391.761 727.411 391.975 727.232 392.246C727.053 392.518 726.965 392.831 726.969 393.186C726.965 393.527 727.047 393.826 727.212 394.081C727.381 394.333 727.622 394.53 727.933 394.673C728.245 394.812 728.613 394.881 729.037 394.881ZM729.037 390.143C729.375 390.143 729.675 390.076 729.937 389.94C730.199 389.804 730.404 389.615 730.553 389.373C730.706 389.131 730.784 388.848 730.787 388.523C730.784 388.205 730.707 387.926 730.558 387.688C730.412 387.449 730.209 387.265 729.947 387.136C729.685 387.003 729.382 386.937 729.037 386.937C728.686 386.937 728.377 387.003 728.112 387.136C727.85 387.265 727.647 387.449 727.501 387.688C727.355 387.926 727.284 388.205 727.287 388.523C727.284 388.848 727.357 389.131 727.506 389.373C727.655 389.615 727.86 389.804 728.122 389.94C728.387 390.076 728.692 390.143 729.037 390.143Z" fill="#0A0A18"/>
    <path opacity="0.5" d="M937.979 396V394.886L941.425 391.317C941.793 390.929 942.096 390.589 942.335 390.298C942.576 390.003 942.757 389.723 942.876 389.457C942.996 389.192 943.055 388.911 943.055 388.612C943.055 388.274 942.976 387.982 942.817 387.737C942.658 387.489 942.441 387.298 942.165 387.165C941.89 387.03 941.58 386.962 941.236 386.962C940.871 386.962 940.553 387.036 940.281 387.185C940.009 387.335 939.801 387.545 939.655 387.817C939.509 388.089 939.436 388.407 939.436 388.771H937.969C937.969 388.152 938.112 387.61 938.397 387.146C938.682 386.682 939.073 386.322 939.57 386.067C940.067 385.808 940.633 385.679 941.266 385.679C941.905 385.679 942.469 385.807 942.956 386.062C943.446 386.314 943.829 386.658 944.104 387.096C944.379 387.53 944.517 388.021 944.517 388.567C944.517 388.945 944.446 389.315 944.303 389.676C944.164 390.037 943.92 390.44 943.572 390.884C943.224 391.325 942.741 391.86 942.121 392.49L940.097 394.608V394.683H944.681V396H937.979ZM950.11 396.139C949.427 396.139 948.817 396.022 948.281 395.786C947.747 395.551 947.324 395.224 947.013 394.807C946.705 394.386 946.539 393.899 946.516 393.345H948.077C948.097 393.647 948.198 393.909 948.38 394.131C948.566 394.349 948.808 394.518 949.106 394.638C949.404 394.757 949.736 394.817 950.1 394.817C950.501 394.817 950.856 394.747 951.164 394.608C951.476 394.469 951.719 394.275 951.895 394.026C952.071 393.774 952.158 393.484 952.158 393.156C952.158 392.815 952.071 392.515 951.895 392.256C951.723 391.995 951.469 391.789 951.134 391.64C950.803 391.491 950.402 391.416 949.931 391.416H949.071V390.163H949.931C950.309 390.163 950.64 390.095 950.925 389.96C951.214 389.824 951.439 389.635 951.602 389.393C951.764 389.147 951.845 388.861 951.845 388.533C951.845 388.218 951.774 387.944 951.631 387.712C951.492 387.477 951.293 387.293 951.035 387.161C950.78 387.028 950.478 386.962 950.13 386.962C949.799 386.962 949.489 387.023 949.2 387.146C948.915 387.265 948.683 387.437 948.504 387.663C948.325 387.885 948.229 388.152 948.216 388.463H946.729C946.746 387.913 946.908 387.429 947.217 387.011C947.528 386.594 947.939 386.267 948.45 386.032C948.96 385.797 949.527 385.679 950.15 385.679C950.803 385.679 951.366 385.807 951.84 386.062C952.317 386.314 952.685 386.65 952.944 387.071C953.206 387.492 953.335 387.953 953.332 388.453C953.335 389.023 953.176 389.507 952.854 389.905C952.536 390.303 952.112 390.569 951.582 390.705V390.785C952.258 390.888 952.781 391.156 953.153 391.59C953.527 392.024 953.713 392.563 953.71 393.206C953.713 393.766 953.557 394.268 953.242 394.712C952.931 395.156 952.505 395.506 951.964 395.761C951.424 396.013 950.806 396.139 950.11 396.139Z" fill="#0A0A18"/>
    <path opacity="0.5" d="M1161.98 396V394.886L1165.42 391.317C1165.79 390.929 1166.1 390.589 1166.33 390.298C1166.58 390.003 1166.76 389.723 1166.88 389.457C1167 389.192 1167.06 388.911 1167.06 388.612C1167.06 388.274 1166.98 387.982 1166.82 387.737C1166.66 387.489 1166.44 387.298 1166.17 387.165C1165.89 387.03 1165.58 386.962 1165.24 386.962C1164.87 386.962 1164.55 387.036 1164.28 387.185C1164.01 387.335 1163.8 387.545 1163.65 387.817C1163.51 388.089 1163.44 388.407 1163.44 388.771H1161.97C1161.97 388.152 1162.11 387.61 1162.4 387.146C1162.68 386.682 1163.07 386.322 1163.57 386.067C1164.07 385.808 1164.63 385.679 1165.27 385.679C1165.91 385.679 1166.47 385.807 1166.96 386.062C1167.45 386.314 1167.83 386.658 1168.1 387.096C1168.38 387.53 1168.52 388.021 1168.52 388.567C1168.52 388.945 1168.45 389.315 1168.3 389.676C1168.16 390.037 1167.92 390.44 1167.57 390.884C1167.22 391.325 1166.74 391.86 1166.12 392.49L1164.1 394.608V394.683H1168.68V396H1161.98ZM1174.01 396.139C1173.29 396.139 1172.66 396.017 1172.12 395.771C1171.57 395.526 1171.15 395.188 1170.84 394.757C1170.53 394.326 1170.38 393.836 1170.38 393.286C1170.38 392.855 1170.47 392.459 1170.64 392.097C1170.83 391.733 1171.07 391.429 1171.39 391.188C1171.7 390.942 1172.05 390.786 1172.43 390.72V390.661C1171.92 390.538 1171.52 390.266 1171.21 389.845C1170.91 389.424 1170.76 388.94 1170.76 388.393C1170.76 387.873 1170.89 387.409 1171.17 387.001C1171.45 386.59 1171.84 386.267 1172.33 386.032C1172.82 385.797 1173.38 385.679 1174.01 385.679C1174.63 385.679 1175.18 385.798 1175.67 386.037C1176.16 386.272 1176.54 386.595 1176.82 387.006C1177.11 387.414 1177.25 387.876 1177.25 388.393C1177.25 388.94 1177.09 389.424 1176.78 389.845C1176.48 390.266 1176.08 390.538 1175.58 390.661V390.72C1175.96 390.786 1176.31 390.942 1176.61 391.188C1176.92 391.429 1177.16 391.733 1177.35 392.097C1177.53 392.459 1177.63 392.855 1177.63 393.286C1177.63 393.836 1177.47 394.326 1177.16 394.757C1176.85 395.188 1176.43 395.526 1175.88 395.771C1175.34 396.017 1174.71 396.139 1174.01 396.139ZM1174.01 394.881C1174.43 394.881 1174.79 394.812 1175.1 394.673C1175.41 394.53 1175.65 394.333 1175.82 394.081C1175.98 393.826 1176.07 393.527 1176.07 393.186C1176.07 392.831 1175.98 392.518 1175.8 392.246C1175.62 391.975 1175.37 391.761 1175.06 391.605C1174.76 391.449 1174.4 391.371 1174.01 391.371C1173.6 391.371 1173.25 391.449 1172.94 391.605C1172.63 391.761 1172.38 391.975 1172.2 392.246C1172.02 392.518 1171.93 392.831 1171.94 393.186C1171.93 393.527 1172.02 393.826 1172.18 394.081C1172.35 394.333 1172.59 394.53 1172.9 394.673C1173.21 394.812 1173.58 394.881 1174.01 394.881ZM1174.01 390.143C1174.34 390.143 1174.64 390.076 1174.91 389.94C1175.17 389.804 1175.37 389.615 1175.52 389.373C1175.67 389.131 1175.75 388.848 1175.76 388.523C1175.75 388.205 1175.68 387.926 1175.53 387.688C1175.38 387.449 1175.18 387.265 1174.92 387.136C1174.65 387.003 1174.35 386.937 1174.01 386.937C1173.65 386.937 1173.35 387.003 1173.08 387.136C1172.82 387.265 1172.62 387.449 1172.47 387.688C1172.32 387.926 1172.25 388.205 1172.26 388.523C1172.25 388.848 1172.33 389.131 1172.47 389.373C1172.62 389.615 1172.83 389.804 1173.09 389.94C1173.36 390.076 1173.66 390.143 1174.01 390.143Z" fill="#0A0A18"/>
    <path opacity="0.5" d="M160.766 394.011V392.768L165.165 385.818H166.145V387.648H165.523L162.376 392.629V392.709H168.407V394.011H160.766ZM165.593 396V393.634L165.603 393.067V385.818H167.06V396H165.593Z" fill="#0A0A18"/>
    <path opacity="0.5" d="M345.365 385.679C345.819 385.682 346.267 385.765 346.707 385.928C347.148 386.09 347.546 386.355 347.901 386.723C348.259 387.091 348.544 387.588 348.756 388.214C348.971 388.838 349.08 389.613 349.084 390.541C349.084 391.433 348.994 392.227 348.815 392.923C348.636 393.615 348.379 394.2 348.045 394.678C347.713 395.155 347.311 395.518 346.837 395.766C346.363 396.015 345.829 396.139 345.236 396.139C344.629 396.139 344.091 396.02 343.62 395.781C343.149 395.543 342.767 395.213 342.472 394.792C342.177 394.368 341.993 393.88 341.92 393.33H343.436C343.536 393.768 343.738 394.122 344.043 394.394C344.351 394.663 344.749 394.797 345.236 394.797C345.982 394.797 346.563 394.472 346.981 393.822C347.398 393.17 347.609 392.258 347.612 391.088H347.533C347.36 391.373 347.145 391.618 346.886 391.824C346.631 392.029 346.344 392.188 346.026 392.301C345.708 392.414 345.368 392.47 345.007 392.47C344.42 392.47 343.887 392.326 343.406 392.038C342.926 391.749 342.543 391.353 342.258 390.849C341.973 390.346 341.83 389.771 341.83 389.124C341.83 388.481 341.976 387.898 342.268 387.374C342.563 386.851 342.974 386.436 343.501 386.131C344.031 385.823 344.652 385.672 345.365 385.679ZM345.37 386.972C344.982 386.972 344.633 387.068 344.321 387.26C344.013 387.449 343.769 387.706 343.59 388.031C343.411 388.352 343.322 388.71 343.322 389.104C343.322 389.499 343.408 389.857 343.58 390.178C343.756 390.496 343.995 390.75 344.296 390.939C344.601 391.125 344.949 391.217 345.34 391.217C345.632 391.217 345.904 391.161 346.156 391.048C346.407 390.936 346.628 390.78 346.817 390.581C347.006 390.379 347.153 390.15 347.259 389.895C347.365 389.64 347.418 389.371 347.418 389.089C347.418 388.715 347.329 388.367 347.15 388.045C346.974 387.724 346.732 387.465 346.424 387.27C346.116 387.071 345.764 386.972 345.37 386.972Z" fill="#0A0A18"/>
    <path opacity="0.5" d="M551.842 385.818V396H550.301V387.359H550.241L547.805 388.95V387.479L550.346 385.818H551.842ZM554.383 394.011V392.768L558.783 385.818H559.762V387.648H559.141L555.994 392.629V392.709H562.024V394.011H554.383ZM559.21 396V393.634L559.22 393.067V385.818H560.677V396H559.21Z" fill="#0A0A18"/>
    <path opacity="0.5" d="M765.842 385.818V396H764.301V387.359H764.241L761.805 388.95V387.479L764.346 385.818H765.842ZM771.982 385.679C772.436 385.682 772.884 385.765 773.325 385.928C773.765 386.09 774.163 386.355 774.518 386.723C774.876 387.091 775.161 387.588 775.373 388.214C775.588 388.838 775.698 389.613 775.701 390.541C775.701 391.433 775.612 392.227 775.433 392.923C775.254 393.615 774.997 394.2 774.662 394.678C774.33 395.155 773.928 395.518 773.454 395.766C772.98 396.015 772.446 396.139 771.853 396.139C771.246 396.139 770.708 396.02 770.237 395.781C769.767 395.543 769.384 395.213 769.089 394.792C768.794 394.368 768.61 393.88 768.537 393.33H770.053C770.153 393.768 770.355 394.122 770.66 394.394C770.968 394.663 771.366 394.797 771.853 394.797C772.599 394.797 773.18 394.472 773.598 393.822C774.016 393.17 774.226 392.258 774.229 391.088H774.15C773.978 391.373 773.762 391.618 773.504 391.824C773.248 392.029 772.962 392.188 772.643 392.301C772.325 392.414 771.986 392.47 771.624 392.47C771.038 392.47 770.504 392.326 770.023 392.038C769.543 391.749 769.16 391.353 768.875 390.849C768.59 390.346 768.447 389.771 768.447 389.124C768.447 388.481 768.593 387.898 768.885 387.374C769.18 386.851 769.591 386.436 770.118 386.131C770.648 385.823 771.27 385.672 771.982 385.679ZM771.987 386.972C771.599 386.972 771.25 387.068 770.938 387.26C770.63 387.449 770.386 387.706 770.207 388.031C770.028 388.352 769.939 388.71 769.939 389.104C769.939 389.499 770.025 389.857 770.197 390.178C770.373 390.496 770.612 390.75 770.913 390.939C771.218 391.125 771.566 391.217 771.957 391.217C772.249 391.217 772.521 391.161 772.773 391.048C773.025 390.936 773.245 390.78 773.434 390.581C773.623 390.379 773.77 390.15 773.876 389.895C773.982 389.64 774.036 389.371 774.036 389.089C774.036 388.715 773.946 388.367 773.767 388.045C773.591 387.724 773.349 387.465 773.041 387.27C772.733 387.071 772.382 386.972 771.987 386.972Z" fill="#0A0A18"/>
    <path opacity="0.5" d="M982.979 396V394.886L986.425 391.317C986.793 390.929 987.096 390.589 987.335 390.298C987.576 390.003 987.757 389.723 987.876 389.457C987.996 389.192 988.055 388.911 988.055 388.612C988.055 388.274 987.976 387.982 987.817 387.737C987.658 387.489 987.441 387.298 987.165 387.165C986.89 387.03 986.58 386.962 986.236 386.962C985.871 386.962 985.553 387.036 985.281 387.185C985.009 387.335 984.801 387.545 984.655 387.817C984.509 388.089 984.436 388.407 984.436 388.771H982.969C982.969 388.152 983.112 387.61 983.397 387.146C983.682 386.682 984.073 386.322 984.57 386.067C985.067 385.808 985.633 385.679 986.266 385.679C986.905 385.679 987.469 385.807 987.956 386.062C988.446 386.314 988.829 386.658 989.104 387.096C989.379 387.53 989.517 388.021 989.517 388.567C989.517 388.945 989.446 389.315 989.303 389.676C989.164 390.037 988.92 390.44 988.572 390.884C988.224 391.325 987.741 391.86 987.121 392.49L985.097 394.608V394.683H989.681V396H982.979ZM991.133 394.011V392.768L995.533 385.818H996.512V387.648H995.891L992.744 392.629V392.709H998.774V394.011H991.133ZM995.96 396V393.634L995.97 393.067V385.818H997.427V396H995.96Z" fill="#0A0A18"/>
    <path opacity="0.5" d="M1206.98 396V394.886L1210.42 391.317C1210.79 390.929 1211.1 390.589 1211.33 390.298C1211.58 390.003 1211.76 389.723 1211.88 389.457C1212 389.192 1212.06 388.911 1212.06 388.612C1212.06 388.274 1211.98 387.982 1211.82 387.737C1211.66 387.489 1211.44 387.298 1211.17 387.165C1210.89 387.03 1210.58 386.962 1210.24 386.962C1209.87 386.962 1209.55 387.036 1209.28 387.185C1209.01 387.335 1208.8 387.545 1208.65 387.817C1208.51 388.089 1208.44 388.407 1208.44 388.771H1206.97C1206.97 388.152 1207.11 387.61 1207.4 387.146C1207.68 386.682 1208.07 386.322 1208.57 386.067C1209.07 385.808 1209.63 385.679 1210.27 385.679C1210.91 385.679 1211.47 385.807 1211.96 386.062C1212.45 386.314 1212.83 386.658 1213.1 387.096C1213.38 387.53 1213.52 388.021 1213.52 388.567C1213.52 388.945 1213.45 389.315 1213.3 389.676C1213.16 390.037 1212.92 390.44 1212.57 390.884C1212.22 391.325 1211.74 391.86 1211.12 392.49L1209.1 394.608V394.683H1213.68V396H1206.98ZM1218.95 385.679C1219.41 385.682 1219.85 385.765 1220.29 385.928C1220.73 386.09 1221.13 386.355 1221.49 386.723C1221.84 387.091 1222.13 387.588 1222.34 388.214C1222.56 388.838 1222.67 389.613 1222.67 390.541C1222.67 391.433 1222.58 392.227 1222.4 392.923C1222.22 393.615 1221.97 394.2 1221.63 394.678C1221.3 395.155 1220.9 395.518 1220.42 395.766C1219.95 396.015 1219.42 396.139 1218.82 396.139C1218.22 396.139 1217.68 396.02 1217.21 395.781C1216.74 395.543 1216.35 395.213 1216.06 394.792C1215.76 394.368 1215.58 393.88 1215.51 393.33H1217.02C1217.12 393.768 1217.32 394.122 1217.63 394.394C1217.94 394.663 1218.33 394.797 1218.82 394.797C1219.57 394.797 1220.15 394.472 1220.57 393.822C1220.98 393.17 1221.19 392.258 1221.2 391.088H1221.12C1220.95 391.373 1220.73 391.618 1220.47 391.824C1220.22 392.029 1219.93 392.188 1219.61 392.301C1219.29 392.414 1218.95 392.47 1218.59 392.47C1218.01 392.47 1217.47 392.326 1216.99 392.038C1216.51 391.749 1216.13 391.353 1215.84 390.849C1215.56 390.346 1215.42 389.771 1215.42 389.124C1215.42 388.481 1215.56 387.898 1215.85 387.374C1216.15 386.851 1216.56 386.436 1217.09 386.131C1217.62 385.823 1218.24 385.672 1218.95 385.679ZM1218.96 386.972C1218.57 386.972 1218.22 387.068 1217.91 387.26C1217.6 387.449 1217.36 387.706 1217.18 388.031C1217 388.352 1216.91 388.71 1216.91 389.104C1216.91 389.499 1216.99 389.857 1217.17 390.178C1217.34 390.496 1217.58 390.75 1217.88 390.939C1218.19 391.125 1218.54 391.217 1218.93 391.217C1219.22 391.217 1219.49 391.161 1219.74 391.048C1219.99 390.936 1220.21 390.78 1220.4 390.581C1220.59 390.379 1220.74 390.15 1220.85 389.895C1220.95 389.64 1221 389.371 1221 389.089C1221 388.715 1220.91 388.367 1220.74 388.045C1220.56 387.724 1220.32 387.465 1220.01 387.27C1219.7 387.071 1219.35 386.972 1218.96 386.972Z" fill="#0A0A18"/>
    <path opacity="0.5" d="M201.34 396.139C200.717 396.139 200.157 396.02 199.66 395.781C199.166 395.539 198.772 395.208 198.477 394.787C198.182 394.366 198.024 393.885 198.004 393.345H199.496C199.532 393.783 199.726 394.142 200.077 394.424C200.429 394.706 200.85 394.847 201.34 394.847C201.731 394.847 202.078 394.757 202.379 394.578C202.684 394.396 202.923 394.146 203.095 393.827C203.271 393.509 203.359 393.146 203.359 392.739C203.359 392.324 203.269 391.955 203.09 391.63C202.911 391.305 202.664 391.05 202.349 390.864C202.038 390.679 201.68 390.584 201.276 390.581C200.967 390.581 200.657 390.634 200.346 390.74C200.034 390.846 199.782 390.985 199.59 391.158L198.183 390.949L198.755 385.818H204.353V387.136H200.033L199.71 389.984H199.769C199.968 389.792 200.232 389.631 200.56 389.502C200.891 389.373 201.246 389.308 201.624 389.308C202.243 389.308 202.795 389.456 203.279 389.751C203.766 390.046 204.149 390.448 204.428 390.959C204.709 391.466 204.848 392.049 204.845 392.709C204.848 393.368 204.699 393.957 204.398 394.474C204.099 394.991 203.685 395.398 203.155 395.697C202.628 395.992 202.023 396.139 201.34 396.139Z" fill="#0A0A18"/>
    <path opacity="0.5" d="M381.842 385.818V396H380.301V387.359H380.241L377.805 388.95V387.479L380.346 385.818H381.842ZM388.141 396.169C387.356 396.166 386.685 395.959 386.128 395.548C385.571 395.137 385.145 394.538 384.85 393.753C384.555 392.967 384.408 392.021 384.408 390.914C384.408 389.81 384.555 388.867 384.85 388.085C385.148 387.303 385.576 386.706 386.133 386.295C386.693 385.884 387.362 385.679 388.141 385.679C388.92 385.679 389.588 385.886 390.145 386.3C390.702 386.711 391.128 387.308 391.423 388.09C391.721 388.869 391.87 389.81 391.87 390.914C391.87 392.024 391.723 392.972 391.428 393.758C391.133 394.54 390.707 395.138 390.15 395.553C389.593 395.964 388.924 396.169 388.141 396.169ZM388.141 394.842C388.831 394.842 389.369 394.505 389.757 393.832C390.148 393.16 390.344 392.187 390.344 390.914C390.344 390.069 390.254 389.355 390.075 388.771C389.9 388.185 389.646 387.741 389.315 387.439C388.987 387.134 388.595 386.982 388.141 386.982C387.455 386.982 386.917 387.32 386.526 387.996C386.134 388.672 385.937 389.645 385.934 390.914C385.934 391.763 386.022 392.48 386.197 393.067C386.376 393.65 386.63 394.093 386.958 394.394C387.286 394.692 387.681 394.842 388.141 394.842Z" fill="#0A0A18"/>
    <path opacity="0.5" d="M594.842 385.818V396H593.301V387.359H593.241L590.805 388.95V387.479L593.346 385.818H594.842ZM600.957 396.139C600.334 396.139 599.774 396.02 599.277 395.781C598.783 395.539 598.389 395.208 598.094 394.787C597.799 394.366 597.641 393.885 597.621 393.345H599.113C599.149 393.783 599.343 394.142 599.695 394.424C600.046 394.706 600.467 394.847 600.957 394.847C601.348 394.847 601.695 394.757 601.996 394.578C602.301 394.396 602.54 394.146 602.712 393.827C602.888 393.509 602.976 393.146 602.976 392.739C602.976 392.324 602.886 391.955 602.707 391.63C602.528 391.305 602.281 391.05 601.967 390.864C601.655 390.679 601.297 390.584 600.893 390.581C600.585 390.581 600.275 390.634 599.963 390.74C599.652 390.846 599.4 390.985 599.207 391.158L597.8 390.949L598.372 385.818H603.97V387.136H599.65L599.327 389.984H599.386C599.585 389.792 599.849 389.631 600.177 389.502C600.508 389.373 600.863 389.308 601.241 389.308C601.861 389.308 602.412 389.456 602.896 389.751C603.384 390.046 603.766 390.448 604.045 390.959C604.326 391.466 604.466 392.049 604.462 392.709C604.466 393.368 604.317 393.957 604.015 394.474C603.717 394.991 603.302 395.398 602.772 395.697C602.245 395.992 601.64 396.139 600.957 396.139Z" fill="#0A0A18"/>
    <path opacity="0.5" d="M804.979 396V394.886L808.425 391.317C808.793 390.929 809.096 390.589 809.335 390.298C809.576 390.003 809.757 389.723 809.876 389.457C809.996 389.192 810.055 388.911 810.055 388.612C810.055 388.274 809.976 387.982 809.817 387.737C809.658 387.489 809.441 387.298 809.165 387.165C808.89 387.03 808.58 386.962 808.236 386.962C807.871 386.962 807.553 387.036 807.281 387.185C807.009 387.335 806.801 387.545 806.655 387.817C806.509 388.089 806.436 388.407 806.436 388.771H804.969C804.969 388.152 805.112 387.61 805.397 387.146C805.682 386.682 806.073 386.322 806.57 386.067C807.067 385.808 807.633 385.679 808.266 385.679C808.905 385.679 809.469 385.807 809.956 386.062C810.446 386.314 810.829 386.658 811.104 387.096C811.379 387.53 811.517 388.021 811.517 388.567C811.517 388.945 811.446 389.315 811.303 389.676C811.164 390.037 810.92 390.44 810.572 390.884C810.224 391.325 809.741 391.86 809.121 392.49L807.097 394.608V394.683H811.681V396H804.979ZM817.11 396.169C816.325 396.166 815.653 395.959 815.097 395.548C814.54 395.137 814.114 394.538 813.819 393.753C813.524 392.967 813.376 392.021 813.376 390.914C813.376 389.81 813.524 388.867 813.819 388.085C814.117 387.303 814.545 386.706 815.102 386.295C815.662 385.884 816.331 385.679 817.11 385.679C817.889 385.679 818.557 385.886 819.114 386.3C819.67 386.711 820.096 387.308 820.391 388.09C820.69 388.869 820.839 389.81 820.839 390.914C820.839 392.024 820.691 392.972 820.396 393.758C820.101 394.54 819.675 395.138 819.119 395.553C818.562 395.964 817.892 396.169 817.11 396.169ZM817.11 394.842C817.799 394.842 818.338 394.505 818.726 393.832C819.117 393.16 819.312 392.187 819.312 390.914C819.312 390.069 819.223 389.355 819.044 388.771C818.868 388.185 818.615 387.741 818.283 387.439C817.955 387.134 817.564 386.982 817.11 386.982C816.424 386.982 815.885 387.32 815.494 387.996C815.103 388.672 814.906 389.645 814.903 390.914C814.903 391.763 814.991 392.48 815.166 393.067C815.345 393.65 815.599 394.093 815.927 394.394C816.255 394.692 816.649 394.842 817.11 394.842Z" fill="#0A0A18"/>
    <path opacity="0.5" d="M1027.98 396V394.886L1031.42 391.317C1031.79 390.929 1032.1 390.589 1032.33 390.298C1032.58 390.003 1032.76 389.723 1032.88 389.457C1033 389.192 1033.06 388.911 1033.06 388.612C1033.06 388.274 1032.98 387.982 1032.82 387.737C1032.66 387.489 1032.44 387.298 1032.17 387.165C1031.89 387.03 1031.58 386.962 1031.24 386.962C1030.87 386.962 1030.55 387.036 1030.28 387.185C1030.01 387.335 1029.8 387.545 1029.65 387.817C1029.51 388.089 1029.44 388.407 1029.44 388.771H1027.97C1027.97 388.152 1028.11 387.61 1028.4 387.146C1028.68 386.682 1029.07 386.322 1029.57 386.067C1030.07 385.808 1030.63 385.679 1031.27 385.679C1031.91 385.679 1032.47 385.807 1032.96 386.062C1033.45 386.314 1033.83 386.658 1034.1 387.096C1034.38 387.53 1034.52 388.021 1034.52 388.567C1034.52 388.945 1034.45 389.315 1034.3 389.676C1034.16 390.037 1033.92 390.44 1033.57 390.884C1033.22 391.325 1032.74 391.86 1032.12 392.49L1030.1 394.608V394.683H1034.68V396H1027.98ZM1039.93 396.139C1039.3 396.139 1038.74 396.02 1038.25 395.781C1037.75 395.539 1037.36 395.208 1037.06 394.787C1036.77 394.366 1036.61 393.885 1036.59 393.345H1038.08C1038.12 393.783 1038.31 394.142 1038.66 394.424C1039.01 394.706 1039.44 394.847 1039.93 394.847C1040.32 394.847 1040.66 394.757 1040.97 394.578C1041.27 394.396 1041.51 394.146 1041.68 393.827C1041.86 393.509 1041.94 393.146 1041.94 392.739C1041.94 392.324 1041.86 391.955 1041.68 391.63C1041.5 391.305 1041.25 391.05 1040.94 390.864C1040.62 390.679 1040.27 390.584 1039.86 390.581C1039.55 390.581 1039.24 390.634 1038.93 390.74C1038.62 390.846 1038.37 390.985 1038.18 391.158L1036.77 390.949L1037.34 385.818H1042.94V387.136H1038.62L1038.3 389.984H1038.36C1038.55 389.792 1038.82 389.631 1039.15 389.502C1039.48 389.373 1039.83 389.308 1040.21 389.308C1040.83 389.308 1041.38 389.456 1041.87 389.751C1042.35 390.046 1042.74 390.448 1043.01 390.959C1043.3 391.466 1043.43 392.049 1043.43 392.709C1043.43 393.368 1043.29 393.957 1042.98 394.474C1042.69 394.991 1042.27 395.398 1041.74 395.697C1041.21 395.992 1040.61 396.139 1039.93 396.139Z" fill="#0A0A18"/>
    <path opacity="0.5" d="M1255.52 396.139C1254.84 396.139 1254.23 396.022 1253.69 395.786C1253.16 395.551 1252.74 395.224 1252.43 394.807C1252.12 394.386 1251.95 393.899 1251.93 393.345H1253.49C1253.51 393.647 1253.61 393.909 1253.79 394.131C1253.98 394.349 1254.22 394.518 1254.52 394.638C1254.82 394.757 1255.15 394.817 1255.51 394.817C1255.92 394.817 1256.27 394.747 1256.58 394.608C1256.89 394.469 1257.13 394.275 1257.31 394.026C1257.48 393.774 1257.57 393.484 1257.57 393.156C1257.57 392.815 1257.48 392.515 1257.31 392.256C1257.14 391.995 1256.88 391.789 1256.55 391.64C1256.22 391.491 1255.82 391.416 1255.35 391.416H1254.49V390.163H1255.35C1255.72 390.163 1256.05 390.095 1256.34 389.96C1256.63 389.824 1256.85 389.635 1257.02 389.393C1257.18 389.147 1257.26 388.861 1257.26 388.533C1257.26 388.218 1257.19 387.944 1257.05 387.712C1256.91 387.477 1256.71 387.293 1256.45 387.161C1256.19 387.028 1255.89 386.962 1255.54 386.962C1255.21 386.962 1254.9 387.023 1254.61 387.146C1254.33 387.265 1254.1 387.437 1253.92 387.663C1253.74 387.885 1253.64 388.152 1253.63 388.463H1252.14C1252.16 387.913 1252.32 387.429 1252.63 387.011C1252.94 386.594 1253.35 386.267 1253.86 386.032C1254.37 385.797 1254.94 385.679 1255.56 385.679C1256.22 385.679 1256.78 385.807 1257.25 386.062C1257.73 386.314 1258.1 386.65 1258.36 387.071C1258.62 387.492 1258.75 387.953 1258.75 388.453C1258.75 389.023 1258.59 389.507 1258.27 389.905C1257.95 390.303 1257.53 390.569 1257 390.705V390.785C1257.67 390.888 1258.2 391.156 1258.57 391.59C1258.94 392.024 1259.13 392.563 1259.12 393.206C1259.13 393.766 1258.97 394.268 1258.66 394.712C1258.34 395.156 1257.92 395.506 1257.38 395.761C1256.84 396.013 1256.22 396.139 1255.52 396.139ZM1264.55 396.169C1263.76 396.166 1263.09 395.959 1262.53 395.548C1261.98 395.137 1261.55 394.538 1261.26 393.753C1260.96 392.967 1260.81 392.021 1260.81 390.914C1260.81 389.81 1260.96 388.867 1261.26 388.085C1261.55 387.303 1261.98 386.706 1262.54 386.295C1263.1 385.884 1263.77 385.679 1264.55 385.679C1265.33 385.679 1265.99 385.886 1266.55 386.3C1267.11 386.711 1267.53 387.308 1267.83 388.09C1268.13 388.869 1268.28 389.81 1268.28 390.914C1268.28 392.024 1268.13 392.972 1267.83 393.758C1267.54 394.54 1267.11 395.138 1266.56 395.553C1266 395.964 1265.33 396.169 1264.55 396.169ZM1264.55 394.842C1265.24 394.842 1265.78 394.505 1266.16 393.832C1266.55 393.16 1266.75 392.187 1266.75 390.914C1266.75 390.069 1266.66 389.355 1266.48 388.771C1266.31 388.185 1266.05 387.741 1265.72 387.439C1265.39 387.134 1265 386.982 1264.55 386.982C1263.86 386.982 1263.32 387.32 1262.93 387.996C1262.54 388.672 1262.34 389.645 1262.34 390.914C1262.34 391.763 1262.43 392.48 1262.6 393.067C1262.78 393.65 1263.04 394.093 1263.36 394.394C1263.69 394.692 1264.09 394.842 1264.55 394.842Z" fill="#0A0A18"/>
    <path opacity="0.5" d="M1301.52 396.139C1300.84 396.139 1300.23 396.022 1299.69 395.786C1299.16 395.551 1298.74 395.224 1298.43 394.807C1298.12 394.386 1297.95 393.899 1297.93 393.345H1299.49C1299.51 393.647 1299.61 393.909 1299.79 394.131C1299.98 394.349 1300.22 394.518 1300.52 394.638C1300.82 394.757 1301.15 394.817 1301.51 394.817C1301.92 394.817 1302.27 394.747 1302.58 394.608C1302.89 394.469 1303.13 394.275 1303.31 394.026C1303.48 393.774 1303.57 393.484 1303.57 393.156C1303.57 392.815 1303.48 392.515 1303.31 392.256C1303.14 391.995 1302.88 391.789 1302.55 391.64C1302.22 391.491 1301.82 391.416 1301.35 391.416H1300.49V390.163H1301.35C1301.72 390.163 1302.05 390.095 1302.34 389.96C1302.63 389.824 1302.85 389.635 1303.02 389.393C1303.18 389.147 1303.26 388.861 1303.26 388.533C1303.26 388.218 1303.19 387.944 1303.05 387.712C1302.91 387.477 1302.71 387.293 1302.45 387.161C1302.19 387.028 1301.89 386.962 1301.54 386.962C1301.21 386.962 1300.9 387.023 1300.61 387.146C1300.33 387.265 1300.1 387.437 1299.92 387.663C1299.74 387.885 1299.64 388.152 1299.63 388.463H1298.14C1298.16 387.913 1298.32 387.429 1298.63 387.011C1298.94 386.594 1299.35 386.267 1299.86 386.032C1300.37 385.797 1300.94 385.679 1301.56 385.679C1302.22 385.679 1302.78 385.807 1303.25 386.062C1303.73 386.314 1304.1 386.65 1304.36 387.071C1304.62 387.492 1304.75 387.953 1304.75 388.453C1304.75 389.023 1304.59 389.507 1304.27 389.905C1303.95 390.303 1303.53 390.569 1303 390.705V390.785C1303.67 390.888 1304.2 391.156 1304.57 391.59C1304.94 392.024 1305.13 392.563 1305.12 393.206C1305.13 393.766 1304.97 394.268 1304.66 394.712C1304.34 395.156 1303.92 395.506 1303.38 395.761C1302.84 396.013 1302.22 396.139 1301.52 396.139ZM1310.87 385.818V396H1309.32V387.359H1309.26L1306.83 388.95V387.479L1309.37 385.818H1310.87Z" fill="#0A0A18"/>
    <path opacity="0.5" d="M1344.52 396.139C1343.84 396.139 1343.23 396.022 1342.69 395.786C1342.16 395.551 1341.74 395.224 1341.43 394.807C1341.12 394.386 1340.95 393.899 1340.93 393.345H1342.49C1342.51 393.647 1342.61 393.909 1342.79 394.131C1342.98 394.349 1343.22 394.518 1343.52 394.638C1343.82 394.757 1344.15 394.817 1344.51 394.817C1344.92 394.817 1345.27 394.747 1345.58 394.608C1345.89 394.469 1346.13 394.275 1346.31 394.026C1346.48 393.774 1346.57 393.484 1346.57 393.156C1346.57 392.815 1346.48 392.515 1346.31 392.256C1346.14 391.995 1345.88 391.789 1345.55 391.64C1345.22 391.491 1344.82 391.416 1344.35 391.416H1343.49V390.163H1344.35C1344.72 390.163 1345.05 390.095 1345.34 389.96C1345.63 389.824 1345.85 389.635 1346.02 389.393C1346.18 389.147 1346.26 388.861 1346.26 388.533C1346.26 388.218 1346.19 387.944 1346.05 387.712C1345.91 387.477 1345.71 387.293 1345.45 387.161C1345.19 387.028 1344.89 386.962 1344.54 386.962C1344.21 386.962 1343.9 387.023 1343.61 387.146C1343.33 387.265 1343.1 387.437 1342.92 387.663C1342.74 387.885 1342.64 388.152 1342.63 388.463H1341.14C1341.16 387.913 1341.32 387.429 1341.63 387.011C1341.94 386.594 1342.35 386.267 1342.86 386.032C1343.37 385.797 1343.94 385.679 1344.56 385.679C1345.22 385.679 1345.78 385.807 1346.25 386.062C1346.73 386.314 1347.1 386.65 1347.36 387.071C1347.62 387.492 1347.75 387.953 1347.75 388.453C1347.75 389.023 1347.59 389.507 1347.27 389.905C1346.95 390.303 1346.53 390.569 1346 390.705V390.785C1346.67 390.888 1347.2 391.156 1347.57 391.59C1347.94 392.024 1348.13 392.563 1348.12 393.206C1348.13 393.766 1347.97 394.268 1347.66 394.712C1347.34 395.156 1346.92 395.506 1346.38 395.761C1345.84 396.013 1345.22 396.139 1344.52 396.139ZM1353.87 385.818V396H1352.32V387.359H1352.26L1349.83 388.95V387.479L1352.37 385.818H1353.87Z" fill="#0A0A18"/>
    <path opacity="0.5" d="M4.84233 120.818V131H3.30114V122.359H3.24148L0.805398 123.95V122.479L3.34588 120.818H4.84233ZM8.96254 129.608L8.88796 130.15C8.83825 130.548 8.75373 130.962 8.63441 131.393C8.51841 131.827 8.39743 132.23 8.27148 132.601C8.14885 132.972 8.04776 133.267 7.96822 133.486H6.91424C6.95733 133.28 7.01699 133.002 7.09322 132.651C7.16945 132.303 7.24402 131.913 7.31694 131.482C7.38986 131.051 7.44454 130.612 7.481 130.165L7.53072 129.608H8.96254ZM11.0419 131V129.886L14.4872 126.317C14.8551 125.929 15.1584 125.589 15.397 125.298C15.639 125.003 15.8196 124.723 15.9389 124.457C16.0582 124.192 16.1179 123.911 16.1179 123.612C16.1179 123.274 16.0384 122.982 15.8793 122.737C15.7202 122.489 15.5031 122.298 15.228 122.165C14.9529 122.03 14.643 121.962 14.2983 121.962C13.9337 121.962 13.6155 122.036 13.3438 122.185C13.072 122.335 12.8632 122.545 12.7173 122.817C12.5715 123.089 12.4986 123.407 12.4986 123.771H11.032C11.032 123.152 11.1745 122.61 11.4595 122.146C11.7446 121.682 12.1357 121.322 12.6328 121.067C13.13 120.808 13.6951 120.679 14.3281 120.679C14.9678 120.679 15.5313 120.807 16.0185 121.062C16.509 121.314 16.8918 121.658 17.1669 122.096C17.442 122.53 17.5795 123.021 17.5795 123.567C17.5795 123.945 17.5083 124.315 17.3658 124.676C17.2266 125.037 16.983 125.44 16.6349 125.884C16.2869 126.325 15.803 126.86 15.1832 127.49L13.1598 129.608V129.683H17.7436V131H11.0419ZM23.1726 131.169C22.3871 131.166 21.7159 130.959 21.1591 130.548C20.6023 130.137 20.1764 129.538 19.8814 128.753C19.5864 127.967 19.4389 127.021 19.4389 125.914C19.4389 124.81 19.5864 123.867 19.8814 123.085C20.1797 122.303 20.6072 121.706 21.1641 121.295C21.7242 120.884 22.3937 120.679 23.1726 120.679C23.9515 120.679 24.6193 120.886 25.1761 121.3C25.733 121.711 26.1589 122.308 26.4538 123.09C26.7521 123.869 26.9013 124.81 26.9013 125.914C26.9013 127.024 26.7538 127.972 26.4588 128.758C26.1638 129.54 25.7379 130.138 25.1811 130.553C24.6243 130.964 23.9548 131.169 23.1726 131.169ZM23.1726 129.842C23.862 129.842 24.4006 129.505 24.7884 128.832C25.1795 128.16 25.375 127.187 25.375 125.914C25.375 125.069 25.2855 124.355 25.1065 123.771C24.9309 123.185 24.6773 122.741 24.3459 122.439C24.0178 122.134 23.6267 121.982 23.1726 121.982C22.4865 121.982 21.9479 122.32 21.5568 122.996C21.1657 123.672 20.9685 124.645 20.9652 125.914C20.9652 126.763 21.053 127.48 21.2287 128.067C21.4077 128.65 21.6612 129.093 21.9893 129.394C22.3175 129.692 22.7119 129.842 23.1726 129.842ZM32.2097 131.169C31.4242 131.166 30.753 130.959 30.1962 130.548C29.6394 130.137 29.2135 129.538 28.9185 128.753C28.6235 127.967 28.476 127.021 28.476 125.914C28.476 124.81 28.6235 123.867 28.9185 123.085C29.2168 122.303 29.6444 121.706 30.2012 121.295C30.7613 120.884 31.4308 120.679 32.2097 120.679C32.9886 120.679 33.6564 120.886 34.2132 121.3C34.7701 121.711 35.196 122.308 35.4909 123.09C35.7892 123.869 35.9384 124.81 35.9384 125.914C35.9384 127.024 35.7909 127.972 35.4959 128.758C35.2009 129.54 34.775 130.138 34.2182 130.553C33.6614 130.964 32.9919 131.169 32.2097 131.169ZM32.2097 129.842C32.8991 129.842 33.4377 129.505 33.8255 128.832C34.2166 128.16 34.4121 127.187 34.4121 125.914C34.4121 125.069 34.3226 124.355 34.1436 123.771C33.968 123.185 33.7144 122.741 33.383 122.439C33.0549 122.134 32.6638 121.982 32.2097 121.982C31.5236 121.982 30.985 122.32 30.5939 122.996C30.2028 123.672 30.0056 124.645 30.0023 125.914C30.0023 126.763 30.0901 127.48 30.2658 128.067C30.4448 128.65 30.6983 129.093 31.0265 129.394C31.3546 129.692 31.749 129.842 32.2097 129.842Z" fill="#0A0A18"/>
    <path opacity="0.5" d="M4.84233 80.8182V91H3.30114V82.3594H3.24148L0.805398 83.9503V82.4787L3.34588 80.8182H4.84233ZM8.96254 89.608L8.88796 90.1499C8.83825 90.5476 8.75373 90.9619 8.63441 91.3928C8.51841 91.8269 8.39743 92.2296 8.27148 92.6009C8.14885 92.9721 8.04776 93.267 7.96822 93.4858H6.91424C6.95733 93.2803 7.01699 93.0019 7.09322 92.6506C7.16945 92.3026 7.24402 91.9131 7.31694 91.4822C7.38986 91.0514 7.44454 90.6122 7.481 90.1648L7.53072 89.608H8.96254ZM10.8281 89.0114V87.7685L15.228 80.8182H16.2074V82.6477H15.5859L12.4389 87.6293V87.7088H18.4695V89.0114H10.8281ZM15.6555 91V88.6335L15.6655 88.0668V80.8182H17.1222V91H15.6555ZM23.7468 91.169C22.9613 91.1657 22.2901 90.9586 21.7333 90.5476C21.1765 90.1366 20.7506 89.5384 20.4556 88.7528C20.1606 87.9673 20.0131 87.0211 20.0131 85.9141C20.0131 84.8104 20.1606 83.8674 20.4556 83.0852C20.7539 82.303 21.1815 81.7064 21.7383 81.2955C22.2984 80.8845 22.9679 80.679 23.7468 80.679C24.5257 80.679 25.1935 80.8861 25.7504 81.3004C26.3072 81.7114 26.7331 82.308 27.0281 83.0902C27.3263 83.8691 27.4755 84.8104 27.4755 85.9141C27.4755 87.0244 27.328 87.9723 27.033 88.7578C26.738 89.54 26.3121 90.1383 25.7553 90.5526C25.1985 90.9635 24.529 91.169 23.7468 91.169ZM23.7468 89.8416C24.4362 89.8416 24.9748 89.5052 25.3626 88.8324C25.7537 88.1596 25.9492 87.1868 25.9492 85.9141C25.9492 85.0689 25.8597 84.3546 25.6808 83.7713C25.5051 83.1847 25.2515 82.7405 24.9201 82.4389C24.592 82.134 24.2009 81.9815 23.7468 81.9815C23.0607 81.9815 22.5221 82.3196 22.131 82.9957C21.7399 83.6719 21.5427 84.6446 21.5394 85.9141C21.5394 86.7625 21.6272 87.4801 21.8029 88.0668C21.9819 88.6501 22.2354 89.0926 22.5636 89.3942C22.8917 89.6925 23.2861 89.8416 23.7468 89.8416ZM32.7839 91.169C31.9984 91.1657 31.3272 90.9586 30.7704 90.5476C30.2136 90.1366 29.7877 89.5384 29.4927 88.7528C29.1977 87.9673 29.0502 87.0211 29.0502 85.9141C29.0502 84.8104 29.1977 83.8674 29.4927 83.0852C29.791 82.303 30.2186 81.7064 30.7754 81.2955C31.3355 80.8845 32.005 80.679 32.7839 80.679C33.5628 80.679 34.2306 80.8861 34.7875 81.3004C35.3443 81.7114 35.7702 82.308 36.0652 83.0902C36.3635 83.8691 36.5126 84.8104 36.5126 85.9141C36.5126 87.0244 36.3651 87.9723 36.0701 88.7578C35.7752 89.54 35.3493 90.1383 34.7924 90.5526C34.2356 90.9635 33.5661 91.169 32.7839 91.169ZM32.7839 89.8416C33.4733 89.8416 34.0119 89.5052 34.3997 88.8324C34.7908 88.1596 34.9863 87.1868 34.9863 85.9141C34.9863 85.0689 34.8968 84.3546 34.7179 83.7713C34.5422 83.1847 34.2886 82.7405 33.9572 82.4389C33.6291 82.134 33.238 81.9815 32.7839 81.9815C32.0978 81.9815 31.5592 82.3196 31.1681 82.9957C30.777 83.6719 30.5798 84.6446 30.5765 85.9141C30.5765 86.7625 30.6644 87.4801 30.84 88.0668C31.019 88.6501 31.2725 89.0926 31.6007 89.3942C31.9288 89.6925 32.3232 89.8416 32.7839 89.8416Z" fill="#0A0A18"/>
    <path opacity="0.5" d="M4.84233 40.8182V51H3.30114V42.3594H3.24148L0.805398 43.9503V42.4787L3.34588 40.8182H4.84233ZM11.1513 51.1392C10.6972 51.1326 10.2498 51.0497 9.80895 50.8906C9.37145 50.7315 8.97372 50.4664 8.61577 50.0952C8.25781 49.724 7.97112 49.2251 7.75568 48.5987C7.54356 47.9723 7.4375 47.1901 7.4375 46.2521C7.4375 45.3639 7.52533 44.575 7.70099 43.8857C7.87997 43.1963 8.13684 42.6146 8.47159 42.1406C8.80634 41.6634 9.2107 41.3004 9.68466 41.0518C10.1586 40.8033 10.6906 40.679 11.2805 40.679C11.8871 40.679 12.4257 40.7983 12.8963 41.0369C13.367 41.2756 13.7481 41.6054 14.0398 42.0263C14.3348 42.4472 14.522 42.9261 14.6016 43.4631H13.0852C12.9825 43.0388 12.7786 42.6925 12.4737 42.424C12.1688 42.1555 11.7711 42.0213 11.2805 42.0213C10.5348 42.0213 9.95313 42.3461 9.53551 42.9957C9.12121 43.6454 8.91241 44.5485 8.90909 45.7053H8.98366C9.15933 45.4169 9.37476 45.1716 9.62997 44.9695C9.88849 44.764 10.1768 44.6065 10.495 44.4972C10.8165 44.3845 11.1546 44.3281 11.5092 44.3281C12.0992 44.3281 12.6328 44.4723 13.1101 44.7607C13.5907 45.0457 13.9735 45.4401 14.2585 45.9439C14.5436 46.4477 14.6861 47.0244 14.6861 47.674C14.6861 48.3236 14.5386 48.9119 14.2436 49.4389C13.9519 49.9659 13.541 50.3835 13.0107 50.6918C12.4804 50.9967 11.8606 51.1458 11.1513 51.1392ZM11.1463 49.8466C11.5374 49.8466 11.8871 49.7505 12.1953 49.5582C12.5036 49.366 12.7472 49.1075 12.9261 48.7827C13.1051 48.4579 13.1946 48.0949 13.1946 47.6939C13.1946 47.3028 13.1068 46.9465 12.9311 46.625C12.7588 46.3035 12.5201 46.0483 12.2152 45.8594C11.9136 45.6705 11.5689 45.576 11.1811 45.576C10.8861 45.576 10.6127 45.6323 10.3608 45.745C10.1122 45.8577 9.89347 46.0135 9.70455 46.2124C9.51563 46.4112 9.36648 46.6399 9.2571 46.8984C9.15104 47.1536 9.09801 47.4238 9.09801 47.7088C9.09801 48.09 9.18584 48.4429 9.36151 48.7678C9.54048 49.0926 9.78409 49.3544 10.0923 49.5533C10.4039 49.7488 10.7552 49.8466 11.1463 49.8466ZM20.0417 51.169C19.2562 51.1657 18.585 50.9586 18.0282 50.5476C17.4714 50.1366 17.0455 49.5384 16.7505 48.7528C16.4556 47.9673 16.3081 47.0211 16.3081 45.9141C16.3081 44.8104 16.4556 43.8674 16.7505 43.0852C17.0488 42.303 17.4764 41.7064 18.0332 41.2955C18.5933 40.8845 19.2628 40.679 20.0417 40.679C20.8206 40.679 21.4885 40.8861 22.0453 41.3004C22.6021 41.7114 23.028 42.308 23.323 43.0902C23.6213 43.8691 23.7704 44.8104 23.7704 45.9141C23.7704 47.0244 23.6229 47.9723 23.3279 48.7578C23.033 49.54 22.6071 50.1383 22.0502 50.5526C21.4934 50.9635 20.8239 51.169 20.0417 51.169ZM20.0417 49.8416C20.7311 49.8416 21.2697 49.5052 21.6575 48.8324C22.0486 48.1596 22.2441 47.1868 22.2441 45.9141C22.2441 45.0689 22.1547 44.3546 21.9757 43.7713C21.8 43.1847 21.5465 42.7405 21.215 42.4389C20.8869 42.134 20.4958 41.9815 20.0417 41.9815C19.3556 41.9815 18.8171 42.3196 18.426 42.9957C18.0349 43.6719 17.8377 44.6446 17.8343 45.9141C17.8343 46.7625 17.9222 47.4801 18.0978 48.0668C18.2768 48.6501 18.5304 49.0926 18.8585 49.3942C19.1866 49.6925 19.581 49.8416 20.0417 49.8416ZM29.0788 51.169C28.2933 51.1657 27.6222 50.9586 27.0653 50.5476C26.5085 50.1366 26.0826 49.5384 25.7876 48.7528C25.4927 47.9673 25.3452 47.0211 25.3452 45.9141C25.3452 44.8104 25.4927 43.8674 25.7876 43.0852C26.0859 42.303 26.5135 41.7064 27.0703 41.2955C27.6304 40.8845 28.3 40.679 29.0788 40.679C29.8577 40.679 30.5256 40.8861 31.0824 41.3004C31.6392 41.7114 32.0651 42.308 32.3601 43.0902C32.6584 43.8691 32.8075 44.8104 32.8075 45.9141C32.8075 47.0244 32.66 47.9723 32.3651 48.7578C32.0701 49.54 31.6442 50.1383 31.0874 50.5526C30.5305 50.9635 29.861 51.169 29.0788 51.169ZM29.0788 49.8416C29.7682 49.8416 30.3068 49.5052 30.6946 48.8324C31.0857 48.1596 31.2812 47.1868 31.2812 45.9141C31.2812 45.0689 31.1918 44.3546 31.0128 43.7713C30.8371 43.1847 30.5836 42.7405 30.2521 42.4389C29.924 42.134 29.5329 41.9815 29.0788 41.9815C28.3928 41.9815 27.8542 42.3196 27.4631 42.9957C27.072 43.6719 26.8748 44.6446 26.8714 45.9141C26.8714 46.7625 26.9593 47.4801 27.1349 48.0668C27.3139 48.6501 27.5675 49.0926 27.8956 49.3942C28.2237 49.6925 28.6181 49.8416 29.0788 49.8416Z" fill="#0A0A18"/>
    <path opacity="0.5" d="M4.84233 0.818182V11H3.30114V2.35938H3.24148L0.805398 3.95028V2.47869L3.34588 0.818182H4.84233ZM8.96254 9.60795L8.88796 10.1499C8.83825 10.5476 8.75373 10.9619 8.63441 11.3928C8.51841 11.8269 8.39743 12.2296 8.27148 12.6009C8.14885 12.9721 8.04776 13.267 7.96822 13.4858H6.91424C6.95733 13.2803 7.01699 13.0019 7.09322 12.6506C7.16945 12.3026 7.24402 11.9131 7.31694 11.4822C7.38986 11.0514 7.44454 10.6122 7.481 10.1648L7.53072 9.60795H8.96254ZM14.1404 11.1392C13.4279 11.1392 12.7981 11.0166 12.2512 10.7713C11.7077 10.526 11.2818 10.188 10.9735 9.7571C10.6653 9.32623 10.5128 8.8357 10.5162 8.28551C10.5128 7.85464 10.6007 7.45857 10.7797 7.0973C10.9619 6.73272 11.2089 6.42945 11.5204 6.1875C11.832 5.94223 12.18 5.78646 12.5645 5.72017V5.66051C12.0574 5.53788 11.6513 5.2661 11.3464 4.84517C11.0415 4.42424 10.8907 3.94034 10.894 3.39347C10.8907 2.87311 11.0282 2.40909 11.3066 2.00142C11.5884 1.59044 11.9745 1.26728 12.465 1.03196C12.9556 0.796638 13.514 0.678977 14.1404 0.678977C14.7602 0.678977 15.3137 0.798295 15.801 1.03693C16.2915 1.27225 16.6776 1.59541 16.9593 2.00639C17.2411 2.41406 17.3836 2.87642 17.3869 3.39347C17.3836 3.94034 17.2278 4.42424 16.9196 4.84517C16.6113 5.2661 16.2103 5.53788 15.7164 5.66051V5.72017C16.0976 5.78646 16.4406 5.94223 16.7456 6.1875C17.0538 6.42945 17.2991 6.73272 17.4814 7.0973C17.667 7.45857 17.7614 7.85464 17.7647 8.28551C17.7614 8.8357 17.6056 9.32623 17.2974 9.7571C16.9892 10.188 16.5616 10.526 16.0147 10.7713C15.4712 11.0166 14.8464 11.1392 14.1404 11.1392ZM14.1404 9.88139C14.5614 9.88139 14.926 9.81179 15.2342 9.67259C15.5424 9.53007 15.7811 9.33286 15.9501 9.08097C16.1191 8.82576 16.2053 8.52746 16.2086 8.18608C16.2053 7.83144 16.1125 7.51823 15.9302 7.24645C15.7512 6.97467 15.5076 6.76089 15.1994 6.60511C14.8912 6.44934 14.5382 6.37145 14.1404 6.37145C13.7394 6.37145 13.3831 6.44934 13.0716 6.60511C12.76 6.76089 12.5147 6.97467 12.3358 7.24645C12.1568 7.51823 12.069 7.83144 12.0723 8.18608C12.069 8.52746 12.1502 8.82576 12.3159 9.08097C12.4849 9.33286 12.7252 9.53007 13.0368 9.67259C13.3483 9.81179 13.7162 9.88139 14.1404 9.88139ZM14.1404 5.14347C14.4785 5.14347 14.7785 5.07552 15.0403 4.93963C15.3021 4.80374 15.5076 4.61482 15.6568 4.37287C15.8092 4.13092 15.8871 3.84754 15.8904 3.52273C15.8871 3.20455 15.8109 2.92614 15.6618 2.6875C15.5159 2.44886 15.3121 2.26491 15.0502 2.13565C14.7884 2.00308 14.4851 1.93679 14.1404 1.93679C13.7891 1.93679 13.4809 2.00308 13.2157 2.13565C12.9539 2.26491 12.7501 2.44886 12.6042 2.6875C12.4584 2.92614 12.3871 3.20455 12.3904 3.52273C12.3871 3.84754 12.46 4.13092 12.6092 4.37287C12.7583 4.61482 12.9638 4.80374 13.2257 4.93963C13.4908 5.07552 13.7958 5.14347 14.1404 5.14347ZM23.0906 11.169C22.305 11.1657 21.6339 10.9586 21.0771 10.5476C20.5202 10.1366 20.0943 9.53835 19.7994 8.75284C19.5044 7.96733 19.3569 7.02107 19.3569 5.91406C19.3569 4.81037 19.5044 3.86742 19.7994 3.08523C20.0977 2.30303 20.5252 1.70644 21.082 1.29545C21.6422 0.884469 22.3117 0.678977 23.0906 0.678977C23.8694 0.678977 24.5373 0.886126 25.0941 1.30043C25.6509 1.71141 26.0768 2.308 26.3718 3.0902C26.6701 3.86908 26.8192 4.81037 26.8192 5.91406C26.8192 7.02438 26.6718 7.9723 26.3768 8.75781C26.0818 9.54001 25.6559 10.1383 25.0991 10.5526C24.5423 10.9635 23.8728 11.169 23.0906 11.169ZM23.0906 9.84162C23.7799 9.84162 24.3185 9.50521 24.7063 8.83239C25.0974 8.15956 25.293 7.18679 25.293 5.91406C25.293 5.06889 25.2035 4.35464 25.0245 3.77131C24.8488 3.18466 24.5953 2.74053 24.2638 2.43892C23.9357 2.134 23.5446 1.98153 23.0906 1.98153C22.4045 1.98153 21.8659 2.3196 21.4748 2.99574C21.0837 3.67187 20.8865 4.64465 20.8832 5.91406C20.8832 6.76255 20.971 7.48011 21.1467 8.06676C21.3256 8.65009 21.5792 9.09257 21.9073 9.39418C22.2354 9.69247 22.6299 9.84162 23.0906 9.84162ZM32.1277 11.169C31.3422 11.1657 30.671 10.9586 30.1142 10.5476C29.5574 10.1366 29.1315 9.53835 28.8365 8.75284C28.5415 7.96733 28.394 7.02107 28.394 5.91406C28.394 4.81037 28.5415 3.86742 28.8365 3.08523C29.1348 2.30303 29.5623 1.70644 30.1191 1.29545C30.6793 0.884469 31.3488 0.678977 32.1277 0.678977C32.9065 0.678977 33.5744 0.886126 34.1312 1.30043C34.688 1.71141 35.1139 2.308 35.4089 3.0902C35.7072 3.86908 35.8564 4.81037 35.8564 5.91406C35.8564 7.02438 35.7089 7.9723 35.4139 8.75781C35.1189 9.54001 34.693 10.1383 34.1362 10.5526C33.5794 10.9635 32.9099 11.169 32.1277 11.169ZM32.1277 9.84162C32.8171 9.84162 33.3556 9.50521 33.7434 8.83239C34.1345 8.15956 34.3301 7.18679 34.3301 5.91406C34.3301 5.06889 34.2406 4.35464 34.0616 3.77131C33.8859 3.18466 33.6324 2.74053 33.301 2.43892C32.9728 2.134 32.5817 1.98153 32.1277 1.98153C31.4416 1.98153 30.903 2.3196 30.5119 2.99574C30.1208 3.67187 29.9236 4.64465 29.9203 5.91406C29.9203 6.76255 30.0081 7.48011 30.1838 8.06676C30.3627 8.65009 30.6163 9.09257 30.9444 9.39418C31.2725 9.69247 31.667 9.84162 32.1277 9.84162Z" fill="#0A0A18"/>
    <path opacity="0.5" d="M4.84233 160.818V171H3.30114V162.359H3.24148L0.805398 163.95V162.479L3.34588 160.818H4.84233ZM8.96254 169.608L8.88796 170.15C8.83825 170.548 8.75373 170.962 8.63441 171.393C8.51841 171.827 8.39743 172.23 8.27148 172.601C8.14885 172.972 8.04776 173.267 7.96822 173.486H6.91424C6.95733 173.28 7.01699 173.002 7.09322 172.651C7.16945 172.303 7.24402 171.913 7.31694 171.482C7.38986 171.051 7.44454 170.612 7.481 170.165L7.53072 169.608H8.96254ZM14.2175 171.169C13.432 171.166 12.7608 170.959 12.204 170.548C11.6472 170.137 11.2213 169.538 10.9263 168.753C10.6313 167.967 10.4838 167.021 10.4838 165.914C10.4838 164.81 10.6313 163.867 10.9263 163.085C11.2246 162.303 11.6522 161.706 12.209 161.295C12.7691 160.884 13.4386 160.679 14.2175 160.679C14.9964 160.679 15.6642 160.886 16.2211 161.3C16.7779 161.711 17.2038 162.308 17.4988 163.09C17.7971 163.869 17.9462 164.81 17.9462 165.914C17.9462 167.024 17.7987 167.972 17.5037 168.758C17.2087 169.54 16.7828 170.138 16.226 170.553C15.6692 170.964 14.9997 171.169 14.2175 171.169ZM14.2175 169.842C14.9069 169.842 15.4455 169.505 15.8333 168.832C16.2244 168.16 16.4199 167.187 16.4199 165.914C16.4199 165.069 16.3304 164.355 16.1515 163.771C15.9758 163.185 15.7222 162.741 15.3908 162.439C15.0627 162.134 14.6716 161.982 14.2175 161.982C13.5314 161.982 12.9928 162.32 12.6017 162.996C12.2106 163.672 12.0134 164.645 12.0101 165.914C12.0101 166.763 12.098 167.48 12.2736 168.067C12.4526 168.65 12.7061 169.093 13.0343 169.394C13.3624 169.692 13.7568 169.842 14.2175 169.842ZM23.2546 171.169C22.4691 171.166 21.7979 170.959 21.2411 170.548C20.6843 170.137 20.2584 169.538 19.9634 168.753C19.6684 167.967 19.521 167.021 19.521 165.914C19.521 164.81 19.6684 163.867 19.9634 163.085C20.2617 162.303 20.6893 161.706 21.2461 161.295C21.8062 160.884 22.4757 160.679 23.2546 160.679C24.0335 160.679 24.7013 160.886 25.2582 161.3C25.815 161.711 26.2409 162.308 26.5359 163.09C26.8342 163.869 26.9833 164.81 26.9833 165.914C26.9833 167.024 26.8358 167.972 26.5408 168.758C26.2459 169.54 25.82 170.138 25.2631 170.553C24.7063 170.964 24.0368 171.169 23.2546 171.169ZM23.2546 169.842C23.944 169.842 24.4826 169.505 24.8704 168.832C25.2615 168.16 25.457 167.187 25.457 165.914C25.457 165.069 25.3675 164.355 25.1886 163.771C25.0129 163.185 24.7594 162.741 24.4279 162.439C24.0998 162.134 23.7087 161.982 23.2546 161.982C22.5685 161.982 22.0299 162.32 21.6388 162.996C21.2478 163.672 21.0505 164.645 21.0472 165.914C21.0472 166.763 21.1351 167.48 21.3107 168.067C21.4897 168.65 21.7433 169.093 22.0714 169.394C22.3995 169.692 22.7939 169.842 23.2546 169.842ZM32.2917 171.169C31.5062 171.166 30.835 170.959 30.2782 170.548C29.7214 170.137 29.2955 169.538 29.0005 168.753C28.7056 167.967 28.5581 167.021 28.5581 165.914C28.5581 164.81 28.7056 163.867 29.0005 163.085C29.2988 162.303 29.7264 161.706 30.2832 161.295C30.8433 160.884 31.5128 160.679 32.2917 160.679C33.0706 160.679 33.7385 160.886 34.2953 161.3C34.8521 161.711 35.278 162.308 35.573 163.09C35.8713 163.869 36.0204 164.81 36.0204 165.914C36.0204 167.024 35.8729 167.972 35.5779 168.758C35.283 169.54 34.8571 170.138 34.3002 170.553C33.7434 170.964 33.0739 171.169 32.2917 171.169ZM32.2917 169.842C32.9811 169.842 33.5197 169.505 33.9075 168.832C34.2986 168.16 34.4941 167.187 34.4941 165.914C34.4941 165.069 34.4047 164.355 34.2257 163.771C34.05 163.185 33.7965 162.741 33.465 162.439C33.1369 162.134 32.7458 161.982 32.2917 161.982C31.6056 161.982 31.0671 162.32 30.676 162.996C30.2849 163.672 30.0877 164.645 30.0843 165.914C30.0843 166.763 30.1722 167.48 30.3478 168.067C30.5268 168.65 30.7804 169.093 31.1085 169.394C31.4366 169.692 31.831 169.842 32.2917 169.842Z" fill="#0A0A18"/>
    <path opacity="0.5" d="M4.41974 211.139C3.70715 211.139 3.07741 211.017 2.53054 210.771C1.98698 210.526 1.56108 210.188 1.25284 209.757C0.944602 209.326 0.79214 208.836 0.795455 208.286C0.79214 207.855 0.879972 207.459 1.05895 207.097C1.24124 206.733 1.48816 206.429 1.79972 206.188C2.11127 205.942 2.45928 205.786 2.84375 205.72V205.661C2.33665 205.538 1.93063 205.266 1.62571 204.845C1.32079 204.424 1.16998 203.94 1.1733 203.393C1.16998 202.873 1.30753 202.409 1.58594 202.001C1.86766 201.59 2.25379 201.267 2.74432 201.032C3.23485 200.797 3.79332 200.679 4.41974 200.679C5.03954 200.679 5.59304 200.798 6.08026 201.037C6.57079 201.272 6.95691 201.595 7.23864 202.006C7.52036 202.414 7.66288 202.876 7.66619 203.393C7.66288 203.94 7.5071 204.424 7.19886 204.845C6.89063 205.266 6.48958 205.538 5.99574 205.661V205.72C6.37689 205.786 6.71993 205.942 7.02486 206.188C7.3331 206.429 7.57836 206.733 7.76065 207.097C7.94626 207.459 8.04072 207.855 8.04403 208.286C8.04072 208.836 7.88494 209.326 7.5767 209.757C7.26847 210.188 6.84091 210.526 6.29403 210.771C5.75047 211.017 5.12571 211.139 4.41974 211.139ZM4.41974 209.881C4.84067 209.881 5.20526 209.812 5.51349 209.673C5.82173 209.53 6.06037 209.333 6.2294 209.081C6.39844 208.826 6.48461 208.527 6.48793 208.186C6.48461 207.831 6.39181 207.518 6.20952 207.246C6.03054 206.975 5.78693 206.761 5.47869 206.605C5.17045 206.449 4.81747 206.371 4.41974 206.371C4.0187 206.371 3.66241 206.449 3.35085 206.605C3.0393 206.761 2.79403 206.975 2.61506 207.246C2.43608 207.518 2.34825 207.831 2.35156 208.186C2.34825 208.527 2.42945 208.826 2.59517 209.081C2.7642 209.333 3.0045 209.53 3.31605 209.673C3.6276 209.812 3.9955 209.881 4.41974 209.881ZM4.41974 205.143C4.75781 205.143 5.05777 205.076 5.3196 204.94C5.58144 204.804 5.78693 204.615 5.93608 204.373C6.08854 204.131 6.16643 203.848 6.16974 203.523C6.16643 203.205 6.0902 202.926 5.94105 202.688C5.79522 202.449 5.59138 202.265 5.32955 202.136C5.06771 202.003 4.76444 201.937 4.41974 201.937C4.06842 201.937 3.76018 202.003 3.49503 202.136C3.23319 202.265 3.02936 202.449 2.88352 202.688C2.73769 202.926 2.66643 203.205 2.66974 203.523C2.66643 203.848 2.73935 204.131 2.88849 204.373C3.03764 204.615 3.24313 204.804 3.50497 204.94C3.77012 205.076 4.07505 205.143 4.41974 205.143ZM13.3699 211.169C12.5843 211.166 11.9132 210.959 11.3564 210.548C10.7995 210.137 10.3736 209.538 10.0787 208.753C9.78368 207.967 9.63619 207.021 9.63619 205.914C9.63619 204.81 9.78368 203.867 10.0787 203.085C10.377 202.303 10.8045 201.706 11.3613 201.295C11.9215 200.884 12.591 200.679 13.3699 200.679C14.1487 200.679 14.8166 200.886 15.3734 201.3C15.9302 201.711 16.3561 202.308 16.6511 203.09C16.9494 203.869 17.0985 204.81 17.0985 205.914C17.0985 207.024 16.9511 207.972 16.6561 208.758C16.3611 209.54 15.9352 210.138 15.3784 210.553C14.8216 210.964 14.152 211.169 13.3699 211.169ZM13.3699 209.842C14.0592 209.842 14.5978 209.505 14.9856 208.832C15.3767 208.16 15.5723 207.187 15.5723 205.914C15.5723 205.069 15.4828 204.355 15.3038 203.771C15.1281 203.185 14.8746 202.741 14.5431 202.439C14.215 202.134 13.8239 201.982 13.3699 201.982C12.6838 201.982 12.1452 202.32 11.7541 202.996C11.363 203.672 11.1658 204.645 11.1625 205.914C11.1625 206.763 11.2503 207.48 11.426 208.067C11.6049 208.65 11.8585 209.093 12.1866 209.394C12.5147 209.692 12.9092 209.842 13.3699 209.842ZM22.407 211.169C21.6214 211.166 20.9503 210.959 20.3935 210.548C19.8366 210.137 19.4107 209.538 19.1158 208.753C18.8208 207.967 18.6733 207.021 18.6733 205.914C18.6733 204.81 18.8208 203.867 19.1158 203.085C19.4141 202.303 19.8416 201.706 20.3984 201.295C20.9586 200.884 21.6281 200.679 22.407 200.679C23.1858 200.679 23.8537 200.886 24.4105 201.3C24.9673 201.711 25.3932 202.308 25.6882 203.09C25.9865 203.869 26.1357 204.81 26.1357 205.914C26.1357 207.024 25.9882 207.972 25.6932 208.758C25.3982 209.54 24.9723 210.138 24.4155 210.553C23.8587 210.964 23.1892 211.169 22.407 211.169ZM22.407 209.842C23.0964 209.842 23.6349 209.505 24.0227 208.832C24.4138 208.16 24.6094 207.187 24.6094 205.914C24.6094 205.069 24.5199 204.355 24.3409 203.771C24.1652 203.185 23.9117 202.741 23.5803 202.439C23.2521 202.134 22.861 201.982 22.407 201.982C21.7209 201.982 21.1823 202.32 20.7912 202.996C20.4001 203.672 20.2029 204.645 20.1996 205.914C20.1996 206.763 20.2874 207.48 20.4631 208.067C20.642 208.65 20.8956 209.093 21.2237 209.394C21.5518 209.692 21.9463 209.842 22.407 209.842Z" fill="#0A0A18"/>
    <path opacity="0.5" d="M4.53409 251.139C4.08002 251.133 3.63258 251.05 3.19176 250.891C2.75426 250.732 2.35653 250.466 1.99858 250.095C1.64063 249.724 1.35393 249.225 1.13849 248.599C0.926373 247.972 0.820312 247.19 0.820312 246.252C0.820312 245.364 0.908144 244.575 1.08381 243.886C1.26278 243.196 1.51965 242.615 1.8544 242.141C2.18916 241.663 2.59351 241.3 3.06747 241.052C3.54143 240.803 4.07339 240.679 4.66335 240.679C5.26989 240.679 5.80848 240.798 6.27912 241.037C6.74976 241.276 7.13092 241.605 7.42259 242.026C7.71757 242.447 7.90483 242.926 7.98438 243.463H6.46804C6.36529 243.039 6.16146 242.692 5.85653 242.424C5.55161 242.156 5.15388 242.021 4.66335 242.021C3.91761 242.021 3.33594 242.346 2.91832 242.996C2.50402 243.645 2.29522 244.549 2.2919 245.705H2.36648C2.54214 245.417 2.75758 245.172 3.01278 244.969C3.27131 244.764 3.55966 244.607 3.87784 244.497C4.19934 244.384 4.53741 244.328 4.89205 244.328C5.48201 244.328 6.01563 244.472 6.4929 244.761C6.97348 245.046 7.3563 245.44 7.64134 245.944C7.92637 246.448 8.06889 247.024 8.06889 247.674C8.06889 248.324 7.9214 248.912 7.62642 249.439C7.33475 249.966 6.92377 250.384 6.39347 250.692C5.86316 250.997 5.24337 251.146 4.53409 251.139ZM4.52912 249.847C4.92022 249.847 5.26989 249.75 5.57812 249.558C5.88636 249.366 6.12997 249.107 6.30895 248.783C6.48793 248.458 6.57741 248.095 6.57741 247.694C6.57741 247.303 6.48958 246.946 6.31392 246.625C6.14157 246.304 5.90294 246.048 5.59801 245.859C5.2964 245.67 4.9517 245.576 4.56392 245.576C4.26894 245.576 3.9955 245.632 3.74361 245.745C3.49503 245.858 3.27628 246.013 3.08736 246.212C2.89844 246.411 2.74929 246.64 2.63991 246.898C2.53385 247.154 2.48082 247.424 2.48082 247.709C2.48082 248.09 2.56866 248.443 2.74432 248.768C2.9233 249.093 3.1669 249.354 3.47514 249.553C3.7867 249.749 4.13802 249.847 4.52912 249.847ZM13.4245 251.169C12.639 251.166 11.9679 250.959 11.411 250.548C10.8542 250.137 10.4283 249.538 10.1333 248.753C9.83836 247.967 9.69087 247.021 9.69087 245.914C9.69087 244.81 9.83836 243.867 10.1333 243.085C10.4316 242.303 10.8592 241.706 11.416 241.295C11.9761 240.884 12.6457 240.679 13.4245 240.679C14.2034 240.679 14.8713 240.886 15.4281 241.3C15.9849 241.711 16.4108 242.308 16.7058 243.09C17.0041 243.869 17.1532 244.81 17.1532 245.914C17.1532 247.024 17.0057 247.972 16.7108 248.758C16.4158 249.54 15.9899 250.138 15.4331 250.553C14.8762 250.964 14.2067 251.169 13.4245 251.169ZM13.4245 249.842C14.1139 249.842 14.6525 249.505 15.0403 248.832C15.4314 248.16 15.627 247.187 15.627 245.914C15.627 245.069 15.5375 244.355 15.3585 243.771C15.1828 243.185 14.9293 242.741 14.5978 242.439C14.2697 242.134 13.8786 241.982 13.4245 241.982C12.7385 241.982 12.1999 242.32 11.8088 242.996C11.4177 243.672 11.2205 244.645 11.2172 245.914C11.2172 246.763 11.305 247.48 11.4806 248.067C11.6596 248.65 11.9132 249.093 12.2413 249.394C12.5694 249.692 12.9638 249.842 13.4245 249.842ZM22.4616 251.169C21.6761 251.166 21.005 250.959 20.4482 250.548C19.8913 250.137 19.4654 249.538 19.1705 248.753C18.8755 247.967 18.728 247.021 18.728 245.914C18.728 244.81 18.8755 243.867 19.1705 243.085C19.4688 242.303 19.8963 241.706 20.4531 241.295C21.0133 240.884 21.6828 240.679 22.4616 240.679C23.2405 240.679 23.9084 240.886 24.4652 241.3C25.022 241.711 25.4479 242.308 25.7429 243.09C26.0412 243.869 26.1903 244.81 26.1903 245.914C26.1903 247.024 26.0429 247.972 25.7479 248.758C25.4529 249.54 25.027 250.138 24.4702 250.553C23.9134 250.964 23.2438 251.169 22.4616 251.169ZM22.4616 249.842C23.151 249.842 23.6896 249.505 24.0774 248.832C24.4685 248.16 24.6641 247.187 24.6641 245.914C24.6641 245.069 24.5746 244.355 24.3956 243.771C24.2199 243.185 23.9664 242.741 23.6349 242.439C23.3068 242.134 22.9157 241.982 22.4616 241.982C21.7756 241.982 21.237 242.32 20.8459 242.996C20.4548 243.672 20.2576 244.645 20.2543 245.914C20.2543 246.763 20.3421 247.48 20.5178 248.067C20.6967 248.65 20.9503 249.093 21.2784 249.394C21.6065 249.692 22.0009 249.842 22.4616 249.842Z" fill="#0A0A18"/>
    <path opacity="0.5" d="M0.765625 289.011V287.768L5.16548 280.818H6.14489V282.648H5.52344L2.37642 287.629V287.709H8.40696V289.011H0.765625ZM5.59304 291V288.634L5.60298 288.067V280.818H7.05966V291H5.59304ZM13.6843 291.169C12.8988 291.166 12.2276 290.959 11.6708 290.548C11.114 290.137 10.6881 289.538 10.3931 288.753C10.0981 287.967 9.95064 287.021 9.95064 285.914C9.95064 284.81 10.0981 283.867 10.3931 283.085C10.6914 282.303 11.119 281.706 11.6758 281.295C12.2359 280.884 12.9054 280.679 13.6843 280.679C14.4632 280.679 15.131 280.886 15.6879 281.3C16.2447 281.711 16.6706 282.308 16.9656 283.09C17.2638 283.869 17.413 284.81 17.413 285.914C17.413 287.024 17.2655 287.972 16.9705 288.758C16.6755 289.54 16.2496 290.138 15.6928 290.553C15.136 290.964 14.4665 291.169 13.6843 291.169ZM13.6843 289.842C14.3737 289.842 14.9123 289.505 15.3001 288.832C15.6912 288.16 15.8867 287.187 15.8867 285.914C15.8867 285.069 15.7972 284.355 15.6183 283.771C15.4426 283.185 15.189 282.741 14.8576 282.439C14.5295 282.134 14.1384 281.982 13.6843 281.982C12.9982 281.982 12.4596 282.32 12.0685 282.996C11.6774 283.672 11.4802 284.645 11.4769 285.914C11.4769 286.763 11.5647 287.48 11.7404 288.067C11.9194 288.65 12.1729 289.093 12.5011 289.394C12.8292 289.692 13.2236 289.842 13.6843 289.842ZM22.7214 291.169C21.9359 291.166 21.2647 290.959 20.7079 290.548C20.1511 290.137 19.7252 289.538 19.4302 288.753C19.1352 287.967 18.9877 287.021 18.9877 285.914C18.9877 284.81 19.1352 283.867 19.4302 283.085C19.7285 282.303 20.1561 281.706 20.7129 281.295C21.273 280.884 21.9425 280.679 22.7214 280.679C23.5003 280.679 24.1681 280.886 24.725 281.3C25.2818 281.711 25.7077 282.308 26.0027 283.09C26.301 283.869 26.4501 284.81 26.4501 285.914C26.4501 287.024 26.3026 287.972 26.0076 288.758C25.7127 289.54 25.2868 290.138 24.7299 290.553C24.1731 290.964 23.5036 291.169 22.7214 291.169ZM22.7214 289.842C23.4108 289.842 23.9494 289.505 24.3372 288.832C24.7283 288.16 24.9238 287.187 24.9238 285.914C24.9238 285.069 24.8343 284.355 24.6554 283.771C24.4797 283.185 24.2261 282.741 23.8947 282.439C23.5666 282.134 23.1755 281.982 22.7214 281.982C22.0353 281.982 21.4967 282.32 21.1056 282.996C20.7145 283.672 20.5173 284.645 20.514 285.914C20.514 286.763 20.6019 287.48 20.7775 288.067C20.9565 288.65 21.21 289.093 21.5382 289.394C21.8663 289.692 22.2607 289.842 22.7214 289.842Z" fill="#0A0A18"/>
    <path opacity="0.5" d="M0.979403 331V329.886L4.42472 326.317C4.79261 325.929 5.09588 325.589 5.33452 325.298C5.57647 325.003 5.7571 324.723 5.87642 324.457C5.99574 324.192 6.0554 323.911 6.0554 323.612C6.0554 323.274 5.97585 322.982 5.81676 322.737C5.65767 322.489 5.44058 322.298 5.16548 322.165C4.89039 322.03 4.58049 321.962 4.2358 321.962C3.87121 321.962 3.55303 322.036 3.28125 322.185C3.00947 322.335 2.80066 322.545 2.65483 322.817C2.509 323.089 2.43608 323.407 2.43608 323.771H0.96946C0.96946 323.152 1.11198 322.61 1.39702 322.146C1.68205 321.682 2.07315 321.322 2.57031 321.067C3.06747 320.808 3.63258 320.679 4.26562 320.679C4.9053 320.679 5.46875 320.807 5.95597 321.062C6.4465 321.314 6.82931 321.658 7.1044 322.096C7.3795 322.53 7.51705 323.021 7.51705 323.567C7.51705 323.945 7.44579 324.315 7.30327 324.676C7.16406 325.037 6.92045 325.44 6.57244 325.884C6.22443 326.325 5.74053 326.86 5.12074 327.49L3.0973 329.608V329.683H7.68111V331H0.979403ZM13.1101 331.169C12.3246 331.166 11.6534 330.959 11.0966 330.548C10.5398 330.137 10.1139 329.538 9.81889 328.753C9.52391 327.967 9.37642 327.021 9.37642 325.914C9.37642 324.81 9.52391 323.867 9.81889 323.085C10.1172 322.303 10.5447 321.706 11.1016 321.295C11.6617 320.884 12.3312 320.679 13.1101 320.679C13.889 320.679 14.5568 320.886 15.1136 321.3C15.6705 321.711 16.0964 322.308 16.3913 323.09C16.6896 323.869 16.8388 324.81 16.8388 325.914C16.8388 327.024 16.6913 327.972 16.3963 328.758C16.1013 329.54 15.6754 330.138 15.1186 330.553C14.5618 330.964 13.8923 331.169 13.1101 331.169ZM13.1101 329.842C13.7995 329.842 14.3381 329.505 14.7259 328.832C15.117 328.16 15.3125 327.187 15.3125 325.914C15.3125 325.069 15.223 324.355 15.044 323.771C14.8684 323.185 14.6148 322.741 14.2834 322.439C13.9553 322.134 13.5642 321.982 13.1101 321.982C12.424 321.982 11.8854 322.32 11.4943 322.996C11.1032 323.672 10.906 324.645 10.9027 325.914C10.9027 326.763 10.9905 327.48 11.1662 328.067C11.3452 328.65 11.5987 329.093 11.9268 329.394C12.255 329.692 12.6494 329.842 13.1101 329.842ZM22.1472 331.169C21.3617 331.166 20.6905 330.959 20.1337 330.548C19.5769 330.137 19.151 329.538 18.856 328.753C18.561 327.967 18.4135 327.021 18.4135 325.914C18.4135 324.81 18.561 323.867 18.856 323.085C19.1543 322.303 19.5819 321.706 20.1387 321.295C20.6988 320.884 21.3683 320.679 22.1472 320.679C22.9261 320.679 23.5939 320.886 24.1507 321.3C24.7076 321.711 25.1335 322.308 25.4284 323.09C25.7267 323.869 25.8759 324.81 25.8759 325.914C25.8759 327.024 25.7284 327.972 25.4334 328.758C25.1384 329.54 24.7125 330.138 24.1557 330.553C23.5989 330.964 22.9294 331.169 22.1472 331.169ZM22.1472 329.842C22.8366 329.842 23.3752 329.505 23.763 328.832C24.1541 328.16 24.3496 327.187 24.3496 325.914C24.3496 325.069 24.2601 324.355 24.0811 323.771C23.9055 323.185 23.6519 322.741 23.3205 322.439C22.9924 322.134 22.6013 321.982 22.1472 321.982C21.4611 321.982 20.9225 322.32 20.5314 322.996C20.1403 323.672 19.9431 324.645 19.9398 325.914C19.9398 326.763 20.0276 327.48 20.2033 328.067C20.3823 328.65 20.6358 329.093 20.964 329.394C21.2921 329.692 21.6865 329.842 22.1472 329.842Z" fill="#0A0A18"/>
    <path opacity="0.5" d="M4.52415 371.169C3.73864 371.166 3.06747 370.959 2.51065 370.548C1.95384 370.137 1.52794 369.538 1.23295 368.753C0.937974 367.967 0.790483 367.021 0.790483 365.914C0.790483 364.81 0.937974 363.867 1.23295 363.085C1.53125 362.303 1.95881 361.706 2.51562 361.295C3.07576 360.884 3.74527 360.679 4.52415 360.679C5.30303 360.679 5.97088 360.886 6.5277 361.3C7.08452 361.711 7.51042 362.308 7.8054 363.09C8.10369 363.869 8.25284 364.81 8.25284 365.914C8.25284 367.024 8.10535 367.972 7.81037 368.758C7.51539 369.54 7.08949 370.138 6.53267 370.553C5.97585 370.964 5.30634 371.169 4.52415 371.169ZM4.52415 369.842C5.21354 369.842 5.75213 369.505 6.13991 368.832C6.53101 368.16 6.72656 367.187 6.72656 365.914C6.72656 365.069 6.63707 364.355 6.4581 363.771C6.28243 363.185 6.02888 362.741 5.69744 362.439C5.36932 362.134 4.97822 361.982 4.52415 361.982C3.83807 361.982 3.29948 362.32 2.90838 362.996C2.51728 363.672 2.32008 364.645 2.31676 365.914C2.31676 366.763 2.40459 367.48 2.58026 368.067C2.75923 368.65 3.01278 369.093 3.34091 369.394C3.66903 369.692 4.06345 369.842 4.52415 369.842Z" fill="#0A0A18"/>
    <rect x="52" y="5" width="1304" height="1" fill="#EBEBEB"/>
    <rect x="52" y="45" width="1304" height="1" fill="#EBEBEB"/>
    <rect x="52" y="85" width="1304" height="1" fill="#EBEBEB"/>
    <rect x="52" y="125" width="1304" height="1" fill="#EBEBEB"/>
    <rect x="52" y="165" width="1304" height="1" fill="#EBEBEB"/>
    <rect x="52" y="205" width="1304" height="1" fill="#EBEBEB"/>
    <rect x="52" y="245" width="1304" height="1" fill="#EBEBEB"/>
    <rect x="52" y="285" width="1304" height="1" fill="#EBEBEB"/>
    <rect x="52" y="325" width="1304" height="1" fill="#EBEBEB"/>
    <rect x="52" y="365" width="1304" height="1" fill="#EBEBEB"/>
    <path d="M92 334L51.5 330V365.5H1357V249.5L1307.5 274L1258 303.5L1218.5 283L1170 299L1126 311.5L1075.5 303.5L1039 289L992 311.5L948 319.5L898.5 335.5L858.5 324L813.5 319.5L771 338L725.5 342.5L685 335.5L637 338L592 326.5L549 330L513 342.5H463.5L427 330L383.5 338L344.5 330L311 314L278.5 326.5H240.5L200.5 334L170.5 326.5L128.5 330L92 334Z" fill="url(#paint0_linear_0_1)" fill-opacity="0.2"/>
    <path d="M51.5 330L92 334L128.5 330L170.5 326.5L200.5 334L240.5 326.5H278.5L311 314L344.5 330L383.5 338L427 330L463.5 342.5H513L549 330L592 326.5L637 338L685 335.5L725.5 342.5L771 338L813.5 319.5L858.5 324L898.5 335.5L948 319.5L992 311.5L1039 289L1075.5 303.5L1126 311.5L1170 299L1218.5 283L1258 303.5L1307.5 274L1357 249.5" stroke="#9866FD" stroke-width="2"/>
    <path d="M51.5 330L92 334L128.5 330L170.5 326.5L200.5 334L240.5 326.5H278.5L311 314L344.5 330L383.5 338L427 330L463.5 342.5H513L549 330L592 326.5L637 338L685 335.5L725.5 342.5L771 338L813.5 319.5L858.5 324L898.5 335.5L948 319.5L992 311.5L1039 289L1075.5 303.5L1126 311.5L1170 299L1218.5 283L1258 303.5L1307.5 274L1357 249.5" stroke="#9866FD" stroke-width="2"/>
    <path d="M51.5 330L92 334L128.5 330L170.5 326.5L200.5 334L240.5 326.5H278.5L311 314L344.5 330L383.5 338L427 330L463.5 342.5H513L549 330L592 326.5L637 338L685 335.5L725.5 342.5L771 338L813.5 319.5L858.5 324L898.5 335.5L948 319.5L992 311.5L1039 289L1075.5 303.5L1126 311.5L1170 299L1218.5 283L1258 303.5L1307.5 274L1357 249.5" stroke="#9866FD" stroke-width="2"/>
    <path d="M96.5 325.5L52 343V365.5H1355.5V316L1309 332L1263 336L1219 311.5L1170 329.5L1126 316L1075.5 326L1032 309L990 277L947 286.5L904.5 246L856.5 269.5L812 246L769 192.5L728.5 164L697 122.5L647.5 204.5L594 256.5L557.5 225L513.5 269.5L471 286.5L428.5 293L384.5 312.5L345.5 304L310.5 312.5L276.5 338.5L235.5 343L199.5 328.5L166.5 335.5L126.5 338.5L96.5 325.5Z" fill="url(#paint1_linear_0_1)" fill-opacity="0.2"/>
    <path d="M52 343L96.5 325.5L126.5 338.5L166.5 335.5L199.5 328.5L235.5 343L276.5 338.5L310.5 312.5L345.5 304L384.5 312.5L428.5 293L471 286.5L513.5 269.5L557.5 225L594 256.5L647.5 204.5L697 122.5L728.5 164L769 192.5L812 246L856.5 269.5L904.5 246L947 286.5L990 277L1032 309L1075.5 326L1126 316L1170 329.5L1219 311.5L1263 336L1309 332L1355.5 316" stroke="#38F8AC" stroke-width="2"/>
    <defs>
    <linearGradient id="paint0_linear_0_1" x1="704.25" y1="249.5" x2="704.25" y2="365.5" gradientUnits="userSpaceOnUse">
    <stop stop-color="#9866FD"/>
    <stop offset="1" stop-color="#9866FD" stop-opacity="0"/>
    </linearGradient>
    <linearGradient id="paint1_linear_0_1" x1="703.75" y1="122.5" x2="703.75" y2="365.5" gradientUnits="userSpaceOnUse">
    <stop stop-color="#38F8AC"/>
    <stop offset="1" stop-color="#38F8AC" stop-opacity="0"/>
    </linearGradient>
    </defs>
    </svg>
    