<svg width="327" height="505" viewBox="0 0 327 505" fill="none" xmlns="http://www.w3.org/2000/svg">
    <path opacity="0.5" d="M4.52415 244.169C3.73864 244.166 3.06747 243.959 2.51065 243.548C1.95384 243.137 1.52794 242.538 1.23295 241.753C0.937974 240.967 0.790483 240.021 0.790483 238.914C0.790483 237.81 0.937974 236.867 1.23295 236.085C1.53125 235.303 1.95881 234.706 2.51562 234.295C3.07576 233.884 3.74527 233.679 4.52415 233.679C5.30303 233.679 5.97088 233.886 6.5277 234.3C7.08452 234.711 7.51042 235.308 7.8054 236.09C8.10369 236.869 8.25284 237.81 8.25284 238.914C8.25284 240.024 8.10535 240.972 7.81037 241.758C7.51539 242.54 7.08949 243.138 6.53267 243.553C5.97585 243.964 5.30634 244.169 4.52415 244.169ZM4.52415 242.842C5.21354 242.842 5.75213 242.505 6.13991 241.832C6.53101 241.16 6.72656 240.187 6.72656 238.914C6.72656 238.069 6.63707 237.355 6.4581 236.771C6.28243 236.185 6.02888 235.741 5.69744 235.439C5.36932 235.134 4.97822 234.982 4.52415 234.982C3.83807 234.982 3.29948 235.32 2.90838 235.996C2.51728 236.672 2.32008 237.645 2.31676 238.914C2.31676 239.763 2.40459 240.48 2.58026 241.067C2.75923 241.65 3.01278 242.093 3.34091 242.394C3.66903 242.692 4.06345 242.842 4.52415 242.842ZM10.6467 244.094C10.3749 244.094 10.1412 243.998 9.94567 243.806C9.75012 243.611 9.65234 243.375 9.65234 243.1C9.65234 242.828 9.75012 242.596 9.94567 242.404C10.1412 242.209 10.3749 242.111 10.6467 242.111C10.9184 242.111 11.1521 242.209 11.3477 242.404C11.5432 242.596 11.641 242.828 11.641 243.1C11.641 243.282 11.5946 243.45 11.5018 243.602C11.4123 243.751 11.293 243.871 11.1438 243.96C10.9947 244.05 10.829 244.094 10.6467 244.094ZM16.7978 244.139C16.3437 244.133 15.8962 244.05 15.4554 243.891C15.0179 243.732 14.6202 243.466 14.2623 243.095C13.9043 242.724 13.6176 242.225 13.4022 241.599C13.19 240.972 13.084 240.19 13.084 239.252C13.084 238.364 13.1718 237.575 13.3475 236.886C13.5265 236.196 13.7833 235.615 14.1181 235.141C14.4528 234.663 14.8572 234.3 15.3311 234.052C15.8051 233.803 16.3371 233.679 16.927 233.679C17.5336 233.679 18.0721 233.798 18.5428 234.037C19.0134 234.276 19.3946 234.605 19.6863 235.026C19.9812 235.447 20.1685 235.926 20.248 236.463H18.7317C18.629 236.039 18.4251 235.692 18.1202 235.424C17.8153 235.156 17.4176 235.021 16.927 235.021C16.1813 235.021 15.5996 235.346 15.182 235.996C14.7677 236.645 14.5589 237.549 14.5556 238.705H14.6301C14.8058 238.417 15.0212 238.172 15.2765 237.969C15.535 237.764 15.8233 237.607 16.1415 237.497C16.463 237.384 16.8011 237.328 17.1557 237.328C17.7457 237.328 18.2793 237.472 18.7566 237.761C19.2372 238.046 19.62 238.44 19.905 238.944C20.19 239.448 20.3326 240.024 20.3326 240.674C20.3326 241.324 20.1851 241.912 19.8901 242.439C19.5984 242.966 19.1874 243.384 18.6571 243.692C18.1268 243.997 17.507 244.146 16.7978 244.139ZM16.7928 242.847C17.1839 242.847 17.5336 242.75 17.8418 242.558C18.15 242.366 18.3936 242.107 18.5726 241.783C18.7516 241.458 18.8411 241.095 18.8411 240.694C18.8411 240.303 18.7533 239.946 18.5776 239.625C18.4052 239.304 18.1666 239.048 17.8617 238.859C17.5601 238.67 17.2154 238.576 16.8276 238.576C16.5326 238.576 16.2592 238.632 16.0073 238.745C15.7587 238.858 15.54 239.013 15.351 239.212C15.1621 239.411 15.013 239.64 14.9036 239.898C14.7975 240.154 14.7445 240.424 14.7445 240.709C14.7445 241.09 14.8323 241.443 15.008 241.768C15.187 242.093 15.4306 242.354 15.7388 242.553C16.0504 242.749 16.4017 242.847 16.7928 242.847Z" fill="#0A0A18"/>
    <path opacity="0.5" d="M4.52415 204.169C3.73864 204.166 3.06747 203.959 2.51065 203.548C1.95384 203.137 1.52794 202.538 1.23295 201.753C0.937974 200.967 0.790483 200.021 0.790483 198.914C0.790483 197.81 0.937974 196.867 1.23295 196.085C1.53125 195.303 1.95881 194.706 2.51562 194.295C3.07576 193.884 3.74527 193.679 4.52415 193.679C5.30303 193.679 5.97088 193.886 6.5277 194.3C7.08452 194.711 7.51042 195.308 7.8054 196.09C8.10369 196.869 8.25284 197.81 8.25284 198.914C8.25284 200.024 8.10535 200.972 7.81037 201.758C7.51539 202.54 7.08949 203.138 6.53267 203.553C5.97585 203.964 5.30634 204.169 4.52415 204.169ZM4.52415 202.842C5.21354 202.842 5.75213 202.505 6.13991 201.832C6.53101 201.16 6.72656 200.187 6.72656 198.914C6.72656 198.069 6.63707 197.355 6.4581 196.771C6.28243 196.185 6.02888 195.741 5.69744 195.439C5.36932 195.134 4.97822 194.982 4.52415 194.982C3.83807 194.982 3.29948 195.32 2.90838 195.996C2.51728 196.672 2.32008 197.645 2.31676 198.914C2.31676 199.763 2.40459 200.48 2.58026 201.067C2.75923 201.65 3.01278 202.093 3.34091 202.394C3.66903 202.692 4.06345 202.842 4.52415 202.842ZM10.6467 204.094C10.3749 204.094 10.1412 203.998 9.94567 203.806C9.75012 203.611 9.65234 203.375 9.65234 203.1C9.65234 202.828 9.75012 202.596 9.94567 202.404C10.1412 202.209 10.3749 202.111 10.6467 202.111C10.9184 202.111 11.1521 202.209 11.3477 202.404C11.5432 202.596 11.641 202.828 11.641 203.1C11.641 203.282 11.5946 203.45 11.5018 203.602C11.4123 203.751 11.293 203.871 11.1438 203.96C10.9947 204.05 10.829 204.094 10.6467 204.094ZM13.6955 204L18.1401 195.21V195.136H12.9995V193.818H19.731V195.18L15.3013 204H13.6955Z" fill="#0A0A18"/>
    <path opacity="0.5" d="M4.52415 164.169C3.73864 164.166 3.06747 163.959 2.51065 163.548C1.95384 163.137 1.52794 162.538 1.23295 161.753C0.937974 160.967 0.790483 160.021 0.790483 158.914C0.790483 157.81 0.937974 156.867 1.23295 156.085C1.53125 155.303 1.95881 154.706 2.51562 154.295C3.07576 153.884 3.74527 153.679 4.52415 153.679C5.30303 153.679 5.97088 153.886 6.5277 154.3C7.08452 154.711 7.51042 155.308 7.8054 156.09C8.10369 156.869 8.25284 157.81 8.25284 158.914C8.25284 160.024 8.10535 160.972 7.81037 161.758C7.51539 162.54 7.08949 163.138 6.53267 163.553C5.97585 163.964 5.30634 164.169 4.52415 164.169ZM4.52415 162.842C5.21354 162.842 5.75213 162.505 6.13991 161.832C6.53101 161.16 6.72656 160.187 6.72656 158.914C6.72656 158.069 6.63707 157.355 6.4581 156.771C6.28243 156.185 6.02888 155.741 5.69744 155.439C5.36932 155.134 4.97822 154.982 4.52415 154.982C3.83807 154.982 3.29948 155.32 2.90838 155.996C2.51728 156.672 2.32008 157.645 2.31676 158.914C2.31676 159.763 2.40459 160.48 2.58026 161.067C2.75923 161.65 3.01278 162.093 3.34091 162.394C3.66903 162.692 4.06345 162.842 4.52415 162.842ZM10.6467 164.094C10.3749 164.094 10.1412 163.998 9.94567 163.806C9.75012 163.611 9.65234 163.375 9.65234 163.1C9.65234 162.828 9.75012 162.596 9.94567 162.404C10.1412 162.209 10.3749 162.111 10.6467 162.111C10.9184 162.111 11.1521 162.209 11.3477 162.404C11.5432 162.596 11.641 162.828 11.641 163.1C11.641 163.282 11.5946 163.45 11.5018 163.602C11.4123 163.751 11.293 163.871 11.1438 163.96C10.9947 164.05 10.829 164.094 10.6467 164.094ZM16.7108 164.139C15.9982 164.139 15.3684 164.017 14.8216 163.771C14.278 163.526 13.8521 163.188 13.5439 162.757C13.2356 162.326 13.0832 161.836 13.0865 161.286C13.0832 160.855 13.171 160.459 13.35 160.097C13.5323 159.733 13.7792 159.429 14.0907 159.188C14.4023 158.942 14.7503 158.786 15.1348 158.72V158.661C14.6277 158.538 14.2217 158.266 13.9167 157.845C13.6118 157.424 13.461 156.94 13.4643 156.393C13.461 155.873 13.5985 155.409 13.877 155.001C14.1587 154.59 14.5448 154.267 15.0353 154.032C15.5259 153.797 16.0843 153.679 16.7108 153.679C17.3306 153.679 17.8841 153.798 18.3713 154.037C18.8618 154.272 19.2479 154.595 19.5297 155.006C19.8114 155.414 19.9539 155.876 19.9572 156.393C19.9539 156.94 19.7981 157.424 19.4899 157.845C19.1816 158.266 18.7806 158.538 18.2868 158.661V158.72C18.6679 158.786 19.0109 158.942 19.3159 159.188C19.6241 159.429 19.8694 159.733 20.0517 160.097C20.2373 160.459 20.3317 160.855 20.335 161.286C20.3317 161.836 20.176 162.326 19.8677 162.757C19.5595 163.188 19.1319 163.526 18.585 163.771C18.0415 164.017 17.4167 164.139 16.7108 164.139ZM16.7108 162.881C17.1317 162.881 17.4963 162.812 17.8045 162.673C18.1127 162.53 18.3514 162.333 18.5204 162.081C18.6895 161.826 18.7756 161.527 18.7789 161.186C18.7756 160.831 18.6828 160.518 18.5005 160.246C18.3216 159.975 18.0779 159.761 17.7697 159.605C17.4615 159.449 17.1085 159.371 16.7108 159.371C16.3097 159.371 15.9534 159.449 15.6419 159.605C15.3303 159.761 15.085 159.975 14.9061 160.246C14.7271 160.518 14.6393 160.831 14.6426 161.186C14.6393 161.527 14.7205 161.826 14.8862 162.081C15.0552 162.333 15.2955 162.53 15.6071 162.673C15.9186 162.812 16.2865 162.881 16.7108 162.881ZM16.7108 158.143C17.0488 158.143 17.3488 158.076 17.6106 157.94C17.8725 157.804 18.0779 157.615 18.2271 157.373C18.3796 157.131 18.4574 156.848 18.4608 156.523C18.4574 156.205 18.3812 155.926 18.2321 155.688C18.0862 155.449 17.8824 155.265 17.6206 155.136C17.3587 155.003 17.0555 154.937 16.7108 154.937C16.3594 154.937 16.0512 155.003 15.786 155.136C15.5242 155.265 15.3204 155.449 15.1745 155.688C15.0287 155.926 14.9574 156.205 14.9608 156.523C14.9574 156.848 15.0304 157.131 15.1795 157.373C15.3287 157.615 15.5342 157.804 15.796 157.94C16.0611 158.076 16.3661 158.143 16.7108 158.143Z" fill="#0A0A18"/>
    <path opacity="0.5" d="M4.52415 124.169C3.73864 124.166 3.06747 123.959 2.51065 123.548C1.95384 123.137 1.52794 122.538 1.23295 121.753C0.937974 120.967 0.790483 120.021 0.790483 118.914C0.790483 117.81 0.937974 116.867 1.23295 116.085C1.53125 115.303 1.95881 114.706 2.51562 114.295C3.07576 113.884 3.74527 113.679 4.52415 113.679C5.30303 113.679 5.97088 113.886 6.5277 114.3C7.08452 114.711 7.51042 115.308 7.8054 116.09C8.10369 116.869 8.25284 117.81 8.25284 118.914C8.25284 120.024 8.10535 120.972 7.81037 121.758C7.51539 122.54 7.08949 123.138 6.53267 123.553C5.97585 123.964 5.30634 124.169 4.52415 124.169ZM4.52415 122.842C5.21354 122.842 5.75213 122.505 6.13991 121.832C6.53101 121.16 6.72656 120.187 6.72656 118.914C6.72656 118.069 6.63707 117.355 6.4581 116.771C6.28243 116.185 6.02888 115.741 5.69744 115.439C5.36932 115.134 4.97822 114.982 4.52415 114.982C3.83807 114.982 3.29948 115.32 2.90838 115.996C2.51728 116.672 2.32008 117.645 2.31676 118.914C2.31676 119.763 2.40459 120.48 2.58026 121.067C2.75923 121.65 3.01278 122.093 3.34091 122.394C3.66903 122.692 4.06345 122.842 4.52415 122.842ZM10.6467 124.094C10.3749 124.094 10.1412 123.998 9.94567 123.806C9.75012 123.611 9.65234 123.375 9.65234 123.1C9.65234 122.828 9.75012 122.596 9.94567 122.404C10.1412 122.209 10.3749 122.111 10.6467 122.111C10.9184 122.111 11.1521 122.209 11.3477 122.404C11.5432 122.596 11.641 122.828 11.641 123.1C11.641 123.282 11.5946 123.45 11.5018 123.602C11.4123 123.751 11.293 123.871 11.1438 123.96C10.9947 124.05 10.829 124.094 10.6467 124.094ZM16.8748 113.679C17.3289 113.682 17.7763 113.765 18.2172 113.928C18.658 114.09 19.0557 114.355 19.4103 114.723C19.7683 115.091 20.0533 115.588 20.2654 116.214C20.4809 116.838 20.5903 117.613 20.5936 118.541C20.5936 119.433 20.5041 120.227 20.3251 120.923C20.1461 121.615 19.8893 122.2 19.5545 122.678C19.2231 123.155 18.8204 123.518 18.3464 123.766C17.8725 124.015 17.3388 124.139 16.7456 124.139C16.139 124.139 15.6004 124.02 15.1298 123.781C14.6592 123.543 14.2763 123.213 13.9814 122.792C13.6864 122.368 13.5024 121.88 13.4295 121.33H14.9458C15.0453 121.768 15.2475 122.122 15.5524 122.394C15.8606 122.663 16.2583 122.797 16.7456 122.797C17.4913 122.797 18.073 122.472 18.4906 121.822C18.9082 121.17 19.1187 120.258 19.122 119.088H19.0424C18.8701 119.373 18.6547 119.618 18.3961 119.824C18.1409 120.029 17.8542 120.188 17.536 120.301C17.2179 120.414 16.8781 120.47 16.5169 120.47C15.9302 120.47 15.3966 120.326 14.916 120.038C14.4354 119.749 14.0526 119.353 13.7676 118.849C13.4825 118.346 13.34 117.771 13.34 117.124C13.34 116.481 13.4859 115.898 13.7775 115.374C14.0725 114.851 14.4835 114.436 15.0105 114.131C15.5408 113.823 16.1622 113.672 16.8748 113.679ZM16.8798 114.972C16.492 114.972 16.1423 115.068 15.8308 115.26C15.5225 115.449 15.2789 115.706 15.1 116.031C14.921 116.352 14.8315 116.71 14.8315 117.104C14.8315 117.499 14.9177 117.857 15.09 118.178C15.2657 118.496 15.5043 118.75 15.8059 118.939C16.1109 119.125 16.4589 119.217 16.85 119.217C17.1416 119.217 17.4134 119.161 17.6653 119.048C17.9172 118.936 18.1376 118.78 18.3265 118.581C18.5154 118.379 18.6629 118.15 18.769 117.895C18.8751 117.64 18.9281 117.371 18.9281 117.089C18.9281 116.715 18.8386 116.367 18.6596 116.045C18.484 115.724 18.242 115.465 17.9338 115.27C17.6255 115.071 17.2742 114.972 16.8798 114.972Z" fill="#0A0A18"/>
    <path opacity="0.5" d="M4.84233 73.8182V84H3.30114V75.3594H3.24148L0.805398 76.9503V75.4787L3.34588 73.8182H4.84233ZM8.00799 84.0945C7.73621 84.0945 7.50255 83.9983 7.307 83.8061C7.11145 83.6106 7.01367 83.3752 7.01367 83.1001C7.01367 82.8284 7.11145 82.5964 7.307 82.4041C7.50255 82.2086 7.73621 82.1108 8.00799 82.1108C8.27977 82.1108 8.51344 82.2086 8.70898 82.4041C8.90453 82.5964 9.00231 82.8284 9.00231 83.1001C9.00231 83.2824 8.95591 83.4498 8.8631 83.6023C8.77362 83.7514 8.6543 83.8707 8.50515 83.9602C8.356 84.0497 8.19028 84.0945 8.00799 84.0945ZM14.1491 84.169C13.3636 84.1657 12.6925 83.9586 12.1357 83.5476C11.5788 83.1366 11.1529 82.5384 10.858 81.7528C10.563 80.9673 10.4155 80.0211 10.4155 78.9141C10.4155 77.8104 10.563 76.8674 10.858 76.0852C11.1563 75.303 11.5838 74.7064 12.1406 74.2955C12.7008 73.8845 13.3703 73.679 14.1491 73.679C14.928 73.679 15.5959 73.8861 16.1527 74.3004C16.7095 74.7114 17.1354 75.308 17.4304 76.0902C17.7287 76.8691 17.8778 77.8104 17.8778 78.9141C17.8778 80.0244 17.7304 80.9723 17.4354 81.7578C17.1404 82.54 16.7145 83.1383 16.1577 83.5526C15.6009 83.9635 14.9313 84.169 14.1491 84.169ZM14.1491 82.8416C14.8385 82.8416 15.3771 82.5052 15.7649 81.8324C16.156 81.1596 16.3516 80.1868 16.3516 78.9141C16.3516 78.0689 16.2621 77.3546 16.0831 76.7713C15.9074 76.1847 15.6539 75.7405 15.3224 75.4389C14.9943 75.134 14.6032 74.9815 14.1491 74.9815C13.4631 74.9815 12.9245 75.3196 12.5334 75.9957C12.1423 76.6719 11.9451 77.6446 11.9418 78.9141C11.9418 79.7625 12.0296 80.4801 12.2053 81.0668C12.3842 81.6501 12.6378 82.0926 12.9659 82.3942C13.294 82.6925 13.6884 82.8416 14.1491 82.8416Z" fill="#0A0A18"/>
    <path opacity="0.5" d="M4.52415 284.169C3.73864 284.166 3.06747 283.959 2.51065 283.548C1.95384 283.137 1.52794 282.538 1.23295 281.753C0.937974 280.967 0.790483 280.021 0.790483 278.914C0.790483 277.81 0.937974 276.867 1.23295 276.085C1.53125 275.303 1.95881 274.706 2.51562 274.295C3.07576 273.884 3.74527 273.679 4.52415 273.679C5.30303 273.679 5.97088 273.886 6.5277 274.3C7.08452 274.711 7.51042 275.308 7.8054 276.09C8.10369 276.869 8.25284 277.81 8.25284 278.914C8.25284 280.024 8.10535 280.972 7.81037 281.758C7.51539 282.54 7.08949 283.138 6.53267 283.553C5.97585 283.964 5.30634 284.169 4.52415 284.169ZM4.52415 282.842C5.21354 282.842 5.75213 282.505 6.13991 281.832C6.53101 281.16 6.72656 280.187 6.72656 278.914C6.72656 278.069 6.63707 277.355 6.4581 276.771C6.28243 276.185 6.02888 275.741 5.69744 275.439C5.36932 275.134 4.97822 274.982 4.52415 274.982C3.83807 274.982 3.29948 275.32 2.90838 275.996C2.51728 276.672 2.32008 277.645 2.31676 278.914C2.31676 279.763 2.40459 280.48 2.58026 281.067C2.75923 281.65 3.01278 282.093 3.34091 282.394C3.66903 282.692 4.06345 282.842 4.52415 282.842ZM10.6467 284.094C10.3749 284.094 10.1412 283.998 9.94567 283.806C9.75012 283.611 9.65234 283.375 9.65234 283.1C9.65234 282.828 9.75012 282.596 9.94567 282.404C10.1412 282.209 10.3749 282.111 10.6467 282.111C10.9184 282.111 11.1521 282.209 11.3477 282.404C11.5432 282.596 11.641 282.828 11.641 283.1C11.641 283.282 11.5946 283.45 11.5018 283.602C11.4123 283.751 11.293 283.871 11.1438 283.96C10.9947 284.05 10.829 284.094 10.6467 284.094ZM16.8089 284.139C16.1858 284.139 15.6257 284.02 15.1286 283.781C14.6347 283.539 14.2403 283.208 13.9453 282.787C13.6503 282.366 13.4929 281.885 13.473 281.345H14.9645C15.0009 281.783 15.1948 282.142 15.5462 282.424C15.8975 282.706 16.3184 282.847 16.8089 282.847C17.2 282.847 17.5464 282.757 17.848 282.578C18.1529 282.396 18.3916 282.146 18.5639 281.827C18.7396 281.509 18.8274 281.146 18.8274 280.739C18.8274 280.324 18.7379 279.955 18.5589 279.63C18.38 279.305 18.133 279.05 17.8182 278.864C17.5066 278.679 17.1487 278.584 16.7443 278.581C16.4361 278.581 16.1262 278.634 15.8146 278.74C15.5031 278.846 15.2512 278.985 15.0589 279.158L13.652 278.949L14.2237 273.818H19.8217V275.136H15.5014L15.1783 277.984H15.2379C15.4368 277.792 15.7003 277.631 16.0284 277.502C16.3598 277.373 16.7145 277.308 17.0923 277.308C17.7121 277.308 18.264 277.456 18.7479 277.751C19.2351 278.046 19.6179 278.448 19.8963 278.959C20.178 279.466 20.3172 280.049 20.3139 280.709C20.3172 281.368 20.1681 281.957 19.8665 282.474C19.5682 282.991 19.1539 283.398 18.6236 283.697C18.0966 283.992 17.4917 284.139 16.8089 284.139Z" fill="#0A0A18"/>
    <path opacity="0.5" d="M4.52415 324.169C3.73864 324.166 3.06747 323.959 2.51065 323.548C1.95384 323.137 1.52794 322.538 1.23295 321.753C0.937974 320.967 0.790483 320.021 0.790483 318.914C0.790483 317.81 0.937974 316.867 1.23295 316.085C1.53125 315.303 1.95881 314.706 2.51562 314.295C3.07576 313.884 3.74527 313.679 4.52415 313.679C5.30303 313.679 5.97088 313.886 6.5277 314.3C7.08452 314.711 7.51042 315.308 7.8054 316.09C8.10369 316.869 8.25284 317.81 8.25284 318.914C8.25284 320.024 8.10535 320.972 7.81037 321.758C7.51539 322.54 7.08949 323.138 6.53267 323.553C5.97585 323.964 5.30634 324.169 4.52415 324.169ZM4.52415 322.842C5.21354 322.842 5.75213 322.505 6.13991 321.832C6.53101 321.16 6.72656 320.187 6.72656 318.914C6.72656 318.069 6.63707 317.355 6.4581 316.771C6.28243 316.185 6.02888 315.741 5.69744 315.439C5.36932 315.134 4.97822 314.982 4.52415 314.982C3.83807 314.982 3.29948 315.32 2.90838 315.996C2.51728 316.672 2.32008 317.645 2.31676 318.914C2.31676 319.763 2.40459 320.48 2.58026 321.067C2.75923 321.65 3.01278 322.093 3.34091 322.394C3.66903 322.692 4.06345 322.842 4.52415 322.842ZM10.6467 324.094C10.3749 324.094 10.1412 323.998 9.94567 323.806C9.75012 323.611 9.65234 323.375 9.65234 323.1C9.65234 322.828 9.75012 322.596 9.94567 322.404C10.1412 322.209 10.3749 322.111 10.6467 322.111C10.9184 322.111 11.1521 322.209 11.3477 322.404C11.5432 322.596 11.641 322.828 11.641 323.1C11.641 323.282 11.5946 323.45 11.5018 323.602C11.4123 323.751 11.293 323.871 11.1438 323.96C10.9947 324.05 10.829 324.094 10.6467 324.094ZM13.3984 322.011V320.768L17.7983 313.818H18.7777V315.648H18.1562L15.0092 320.629V320.709H21.0398V322.011H13.3984ZM18.2259 324V321.634L18.2358 321.067V313.818H19.6925V324H18.2259Z" fill="#0A0A18"/>
    <path opacity="0.5" d="M4.52415 364.169C3.73864 364.166 3.06747 363.959 2.51065 363.548C1.95384 363.137 1.52794 362.538 1.23295 361.753C0.937974 360.967 0.790483 360.021 0.790483 358.914C0.790483 357.81 0.937974 356.867 1.23295 356.085C1.53125 355.303 1.95881 354.706 2.51562 354.295C3.07576 353.884 3.74527 353.679 4.52415 353.679C5.30303 353.679 5.97088 353.886 6.5277 354.3C7.08452 354.711 7.51042 355.308 7.8054 356.09C8.10369 356.869 8.25284 357.81 8.25284 358.914C8.25284 360.024 8.10535 360.972 7.81037 361.758C7.51539 362.54 7.08949 363.138 6.53267 363.553C5.97585 363.964 5.30634 364.169 4.52415 364.169ZM4.52415 362.842C5.21354 362.842 5.75213 362.505 6.13991 361.832C6.53101 361.16 6.72656 360.187 6.72656 358.914C6.72656 358.069 6.63707 357.355 6.4581 356.771C6.28243 356.185 6.02888 355.741 5.69744 355.439C5.36932 355.134 4.97822 354.982 4.52415 354.982C3.83807 354.982 3.29948 355.32 2.90838 355.996C2.51728 356.672 2.32008 357.645 2.31676 358.914C2.31676 359.763 2.40459 360.48 2.58026 361.067C2.75923 361.65 3.01278 362.093 3.34091 362.394C3.66903 362.692 4.06345 362.842 4.52415 362.842ZM10.6467 364.094C10.3749 364.094 10.1412 363.998 9.94567 363.806C9.75012 363.611 9.65234 363.375 9.65234 363.1C9.65234 362.828 9.75012 362.596 9.94567 362.404C10.1412 362.209 10.3749 362.111 10.6467 362.111C10.9184 362.111 11.1521 362.209 11.3477 362.404C11.5432 362.596 11.641 362.828 11.641 363.1C11.641 363.282 11.5946 363.45 11.5018 363.602C11.4123 363.751 11.293 363.871 11.1438 363.96C10.9947 364.05 10.829 364.094 10.6467 364.094ZM16.7878 364.139C16.1051 364.139 15.4952 364.022 14.9583 363.786C14.4247 363.551 14.0021 363.224 13.6905 362.807C13.3823 362.386 13.2166 361.899 13.1934 361.345H14.7544C14.7743 361.647 14.8754 361.909 15.0577 362.131C15.2433 362.349 15.4853 362.518 15.7836 362.638C16.0819 362.757 16.4133 362.817 16.7779 362.817C17.1789 362.817 17.5336 362.747 17.8418 362.608C18.1533 362.469 18.397 362.275 18.5726 362.026C18.7483 361.774 18.8361 361.484 18.8361 361.156C18.8361 360.815 18.7483 360.515 18.5726 360.256C18.4003 359.995 18.1467 359.789 17.812 359.64C17.4805 359.491 17.0795 359.416 16.6088 359.416H15.7488V358.163H16.6088C16.9867 358.163 17.3181 358.095 17.6032 357.96C17.8915 357.824 18.1169 357.635 18.2793 357.393C18.4417 357.147 18.5229 356.861 18.5229 356.533C18.5229 356.218 18.4516 355.944 18.3091 355.712C18.1699 355.477 17.9711 355.293 17.7125 355.161C17.4573 355.028 17.1557 354.962 16.8077 354.962C16.4763 354.962 16.1664 355.023 15.878 355.146C15.593 355.265 15.361 355.437 15.182 355.663C15.003 355.885 14.9069 356.152 14.8936 356.463H13.4071C13.4237 355.913 13.5861 355.429 13.8944 355.011C14.2059 354.594 14.6169 354.267 15.1273 354.032C15.6377 353.797 16.2045 353.679 16.8276 353.679C17.4805 353.679 18.044 353.807 18.5179 354.062C18.9952 354.314 19.3631 354.65 19.6216 355.071C19.8835 355.492 20.0127 355.953 20.0094 356.453C20.0127 357.023 19.8536 357.507 19.5321 357.905C19.214 358.303 18.7897 358.569 18.2594 358.705V358.785C18.9355 358.888 19.4592 359.156 19.8304 359.59C20.205 360.024 20.3906 360.563 20.3873 361.206C20.3906 361.766 20.2348 362.268 19.9199 362.712C19.6084 363.156 19.1825 363.506 18.6422 363.761C18.102 364.013 17.4838 364.139 16.7878 364.139Z" fill="#0A0A18"/>
    <path opacity="0.5" d="M4.52415 404.169C3.73864 404.166 3.06747 403.959 2.51065 403.548C1.95384 403.137 1.52794 402.538 1.23295 401.753C0.937974 400.967 0.790483 400.021 0.790483 398.914C0.790483 397.81 0.937974 396.867 1.23295 396.085C1.53125 395.303 1.95881 394.706 2.51562 394.295C3.07576 393.884 3.74527 393.679 4.52415 393.679C5.30303 393.679 5.97088 393.886 6.5277 394.3C7.08452 394.711 7.51042 395.308 7.8054 396.09C8.10369 396.869 8.25284 397.81 8.25284 398.914C8.25284 400.024 8.10535 400.972 7.81037 401.758C7.51539 402.54 7.08949 403.138 6.53267 403.553C5.97585 403.964 5.30634 404.169 4.52415 404.169ZM4.52415 402.842C5.21354 402.842 5.75213 402.505 6.13991 401.832C6.53101 401.16 6.72656 400.187 6.72656 398.914C6.72656 398.069 6.63707 397.355 6.4581 396.771C6.28243 396.185 6.02888 395.741 5.69744 395.439C5.36932 395.134 4.97822 394.982 4.52415 394.982C3.83807 394.982 3.29948 395.32 2.90838 395.996C2.51728 396.672 2.32008 397.645 2.31676 398.914C2.31676 399.763 2.40459 400.48 2.58026 401.067C2.75923 401.65 3.01278 402.093 3.34091 402.394C3.66903 402.692 4.06345 402.842 4.52415 402.842ZM10.6467 404.094C10.3749 404.094 10.1412 403.998 9.94567 403.806C9.75012 403.611 9.65234 403.375 9.65234 403.1C9.65234 402.828 9.75012 402.596 9.94567 402.404C10.1412 402.209 10.3749 402.111 10.6467 402.111C10.9184 402.111 11.1521 402.209 11.3477 402.404C11.5432 402.596 11.641 402.828 11.641 403.1C11.641 403.282 11.5946 403.45 11.5018 403.602C11.4123 403.751 11.293 403.871 11.1438 403.96C10.9947 404.05 10.829 404.094 10.6467 404.094ZM13.6122 404V402.886L17.0575 399.317C17.4254 398.929 17.7287 398.589 17.9673 398.298C18.2093 398.003 18.3899 397.723 18.5092 397.457C18.6286 397.192 18.6882 396.911 18.6882 396.612C18.6882 396.274 18.6087 395.982 18.4496 395.737C18.2905 395.489 18.0734 395.298 17.7983 395.165C17.5232 395.03 17.2133 394.962 16.8686 394.962C16.504 394.962 16.1858 395.036 15.9141 395.185C15.6423 395.335 15.4335 395.545 15.2876 395.817C15.1418 396.089 15.0689 396.407 15.0689 396.771H13.6023C13.6023 396.152 13.7448 395.61 14.0298 395.146C14.3149 394.682 14.706 394.322 15.2031 394.067C15.7003 393.808 16.2654 393.679 16.8984 393.679C17.5381 393.679 18.1016 393.807 18.5888 394.062C19.0793 394.314 19.4621 394.658 19.7372 395.096C20.0123 395.53 20.1499 396.021 20.1499 396.567C20.1499 396.945 20.0786 397.315 19.9361 397.676C19.7969 398.037 19.5533 398.44 19.2053 398.884C18.8572 399.325 18.3733 399.86 17.7536 400.49L15.7301 402.608V402.683H20.3139V404H13.6122Z" fill="#0A0A18"/>
    <path opacity="0.5" d="M4.52415 444.169C3.73864 444.166 3.06747 443.959 2.51065 443.548C1.95384 443.137 1.52794 442.538 1.23295 441.753C0.937974 440.967 0.790483 440.021 0.790483 438.914C0.790483 437.81 0.937974 436.867 1.23295 436.085C1.53125 435.303 1.95881 434.706 2.51562 434.295C3.07576 433.884 3.74527 433.679 4.52415 433.679C5.30303 433.679 5.97088 433.886 6.5277 434.3C7.08452 434.711 7.51042 435.308 7.8054 436.09C8.10369 436.869 8.25284 437.81 8.25284 438.914C8.25284 440.024 8.10535 440.972 7.81037 441.758C7.51539 442.54 7.08949 443.138 6.53267 443.553C5.97585 443.964 5.30634 444.169 4.52415 444.169ZM4.52415 442.842C5.21354 442.842 5.75213 442.505 6.13991 441.832C6.53101 441.16 6.72656 440.187 6.72656 438.914C6.72656 438.069 6.63707 437.355 6.4581 436.771C6.28243 436.185 6.02888 435.741 5.69744 435.439C5.36932 435.134 4.97822 434.982 4.52415 434.982C3.83807 434.982 3.29948 435.32 2.90838 435.996C2.51728 436.672 2.32008 437.645 2.31676 438.914C2.31676 439.763 2.40459 440.48 2.58026 441.067C2.75923 441.65 3.01278 442.093 3.34091 442.394C3.66903 442.692 4.06345 442.842 4.52415 442.842ZM10.6467 444.094C10.3749 444.094 10.1412 443.998 9.94567 443.806C9.75012 443.611 9.65234 443.375 9.65234 443.1C9.65234 442.828 9.75012 442.596 9.94567 442.404C10.1412 442.209 10.3749 442.111 10.6467 442.111C10.9184 442.111 11.1521 442.209 11.3477 442.404C11.5432 442.596 11.641 442.828 11.641 443.1C11.641 443.282 11.5946 443.45 11.5018 443.602C11.4123 443.751 11.293 443.871 11.1438 443.96C10.9947 444.05 10.829 444.094 10.6467 444.094ZM16.2447 433.818V444H14.7035V435.359H14.6438L12.2077 436.95V435.479L14.7482 433.818H16.2447Z" fill="#0A0A18"/>
    <path opacity="0.5" d="M4.52415 484.169C3.73864 484.166 3.06747 483.959 2.51065 483.548C1.95384 483.137 1.52794 482.538 1.23295 481.753C0.937974 480.967 0.790483 480.021 0.790483 478.914C0.790483 477.81 0.937974 476.867 1.23295 476.085C1.53125 475.303 1.95881 474.706 2.51562 474.295C3.07576 473.884 3.74527 473.679 4.52415 473.679C5.30303 473.679 5.97088 473.886 6.5277 474.3C7.08452 474.711 7.51042 475.308 7.8054 476.09C8.10369 476.869 8.25284 477.81 8.25284 478.914C8.25284 480.024 8.10535 480.972 7.81037 481.758C7.51539 482.54 7.08949 483.138 6.53267 483.553C5.97585 483.964 5.30634 484.169 4.52415 484.169ZM4.52415 482.842C5.21354 482.842 5.75213 482.505 6.13991 481.832C6.53101 481.16 6.72656 480.187 6.72656 478.914C6.72656 478.069 6.63707 477.355 6.4581 476.771C6.28243 476.185 6.02888 475.741 5.69744 475.439C5.36932 475.134 4.97822 474.982 4.52415 474.982C3.83807 474.982 3.29948 475.32 2.90838 475.996C2.51728 476.672 2.32008 477.645 2.31676 478.914C2.31676 479.763 2.40459 480.48 2.58026 481.067C2.75923 481.65 3.01278 482.093 3.34091 482.394C3.66903 482.692 4.06345 482.842 4.52415 482.842Z" fill="#0A0A18"/>
    <rect x="52" y="118" width="274" height="1" fill="#EBEBEB"/>
    <rect x="52" y="78" width="274" height="1" fill="#EBEBEB"/>
    <rect x="52" y="158" width="274" height="1" fill="#EBEBEB"/>
    <rect x="52" y="198" width="274" height="1" fill="#EBEBEB"/>
    <rect x="52" y="238" width="274" height="1" fill="#EBEBEB"/>
    <rect x="52" y="278" width="274" height="1" fill="#EBEBEB"/>
    <rect x="52" y="318" width="274" height="1" fill="#EBEBEB"/>
    <rect x="52" y="358" width="274" height="1" fill="#EBEBEB"/>
    <rect x="52" y="398" width="274" height="1" fill="#EBEBEB"/>
    <rect x="52" y="438" width="274" height="1" fill="#EBEBEB"/>
    <rect x="52" y="478" width="274" height="1" fill="#EBEBEB"/>
    <rect x="52" y="476" width="274" height="2" fill="#FF465C"/>
    <path d="M317.484 445.5L326 441.5V477H51.5V361L61.9081 385.5L72.3162 415L80.6216 394.5L90.8194 410.5L100.071 423L110.689 415L118.364 400.5L128.246 423L137.498 431L147.906 447L156.317 435.5L165.779 431L174.715 449.5L184.282 454L192.798 447L202.89 449.5L212.352 438L221.394 441.5L228.963 454H239.371L247.046 441.5L256.192 449.5L264.393 441.5L271.436 425.5L278.27 438H286.26L294.671 445.5L300.979 438L309.81 441.5L317.484 445.5Z" fill="url(#paint0_linear_0_1)" fill-opacity="0.2"/>
    <path d="M326 441.5L317.484 445.5L309.81 441.5L300.979 438L294.671 445.5L286.26 438H278.27L271.436 425.5L264.393 441.5L256.192 449.5L247.046 441.5L239.371 454H228.963L221.394 441.5L212.352 438L202.89 449.5L192.798 447L184.282 454L174.715 449.5L165.779 431L156.317 435.5L147.906 447L137.498 431L128.246 423L118.364 400.5L110.689 415L100.071 423L90.8194 410.5L80.6216 394.5L72.3162 415L61.9081 385.5L51.5 361" stroke="#9866FD" stroke-width="2"/>
    <path d="M326 441.5L317.484 445.5L309.81 441.5L300.979 438L294.671 445.5L286.26 438H278.27L271.436 425.5L264.393 441.5L256.192 449.5L247.046 441.5L239.371 454H228.963L221.394 441.5L212.352 438L202.89 449.5L192.798 447L184.282 454L174.715 449.5L165.779 431L156.317 435.5L147.906 447L137.498 431L128.246 423L118.364 400.5L110.689 415L100.071 423L90.8194 410.5L80.6216 394.5L72.3162 415L61.9081 385.5L51.5 361" stroke="#9866FD" stroke-width="2"/>
    <path d="M326 441.5L317.484 445.5L309.81 441.5L300.979 438L294.671 445.5L286.26 438H278.27L271.436 425.5L264.393 441.5L256.192 449.5L247.046 441.5L239.371 454H228.963L221.394 441.5L212.352 438L202.89 449.5L192.798 447L184.282 454L174.715 449.5L165.779 431L156.317 435.5L147.906 447L137.498 431L128.246 423L118.364 400.5L110.689 415L100.071 423L90.8194 410.5L80.6216 394.5L72.3162 415L61.9081 385.5L51.5 361" stroke="#9866FD" stroke-width="2"/>
    <path opacity="0.2" d="M60.0157 403.5L51.5 399.5V478H326V319L315.592 343.5L305.184 373L296.878 352.5L286.681 368.5L277.429 381L266.811 373L259.136 358.5L249.254 381L240.002 389L229.594 405L221.183 393.5L211.721 389L202.785 407.5L193.218 412L184.702 405L174.61 407.5L165.148 396L156.106 399.5L148.537 412H138.129L130.454 399.5L121.308 407.5L113.107 399.5L106.064 383.5L99.23 396H91.2399L82.8294 403.5L76.5214 396L67.6903 399.5L60.0157 403.5Z" fill="url(#paint1_linear_0_1)"/>
    <path d="M51.5 399.5L60.0157 403.5L67.6903 399.5L76.5214 396L82.8294 403.5L91.2399 396H99.23L106.064 383.5L113.107 399.5L121.308 407.5L130.454 399.5L138.129 412H148.537L156.106 399.5L165.148 396L174.61 407.5L184.702 405L193.218 412L202.785 407.5L211.721 389L221.183 393.5L229.594 405L240.002 389L249.254 381L259.136 358.5L266.811 373L277.429 381L286.681 368.5L296.878 352.5L305.184 373L315.592 343.5L326 319" stroke="#FF46CB" stroke-width="2"/>
    <path opacity="0.2" d="M317.484 389.5L326 385.5V464H51.5V305L61.9081 329.5L72.3162 359L80.6216 338.5L90.8194 354.5L100.071 367L110.689 359L118.364 344.5L128.246 367L137.498 375L147.906 391L156.317 379.5L165.779 375L174.715 393.5L184.282 398L192.798 391L202.89 393.5L212.352 382L221.394 385.5L228.963 398H239.371L247.046 385.5L256.192 393.5L264.393 385.5L271.436 369.5L278.27 382H286.26L294.671 389.5L300.979 382L309.81 385.5L317.484 389.5Z" fill="url(#paint2_linear_0_1)"/>
    <path d="M326 385.5L317.484 389.5L309.81 385.5L300.979 382L294.671 389.5L286.26 382H278.27L271.436 369.5L264.393 385.5L256.192 393.5L247.046 385.5L239.371 398H228.963L221.394 385.5L212.352 382L202.89 393.5L192.798 391L184.282 398L174.715 393.5L165.779 375L156.317 379.5L147.906 391L137.498 375L128.246 367L118.364 344.5L110.689 359L100.071 367L90.8194 354.5L80.6216 338.5L72.3162 359L61.9081 329.5L51.5 305" stroke="#F8B738" stroke-width="2"/>
    <path opacity="0.2" d="M59.2801 421.5L51.9209 427H51.6055V477.5H326V347L316.959 358.5L302.661 317L295.827 321.5L286.996 292L277.009 309.5L267.337 321.5L258.926 277.5L248.413 255.5L238.215 277.5L231.276 238L220.973 292L213.614 340L202.68 384.5L194.165 399.5L184.808 375L172.192 357L166.725 340L157.158 361L148.642 371L139.391 361L129.719 342.5L118.89 347L112.898 340H105.959L99.0201 347L91.2403 342.5L83.5656 374.5L74.8397 389L68.742 384.5L59.2801 421.5Z" fill="url(#paint3_linear_0_1)"/>
    <path d="M51.9209 427L59.2801 421.5L68.742 384.5L74.8397 389L83.5657 374.5L91.2403 342.5L99.0201 347L105.959 340H112.898L118.89 347L129.719 342.5L139.391 361L148.642 371L157.158 361L166.725 340L172.192 357L184.808 375L194.165 399.5L202.68 384.5L213.614 340L220.973 292L231.276 238L238.215 277.5L248.413 255.5L258.926 277.5L267.337 321.5L277.009 309.5L286.996 292L295.827 321.5L302.661 317L316.959 358.5L326 347" stroke="#38F8AC" stroke-width="2"/>
    <path opacity="0.5" d="M56.8423 493.818V504H55.3011V495.359H55.2415L52.8054 496.95V495.479L55.3459 493.818H56.8423Z" fill="#0A0A18"/>
    <path opacity="0.5" d="M253.979 504V502.886L257.425 499.317C257.793 498.929 258.096 498.589 258.335 498.298C258.576 498.003 258.757 497.723 258.876 497.457C258.996 497.192 259.055 496.911 259.055 496.612C259.055 496.274 258.976 495.982 258.817 495.737C258.658 495.489 258.441 495.298 258.165 495.165C257.89 495.03 257.58 494.962 257.236 494.962C256.871 494.962 256.553 495.036 256.281 495.185C256.009 495.335 255.801 495.545 255.655 495.817C255.509 496.089 255.436 496.407 255.436 496.771H253.969C253.969 496.152 254.112 495.61 254.397 495.146C254.682 494.682 255.073 494.322 255.57 494.067C256.067 493.808 256.633 493.679 257.266 493.679C257.905 493.679 258.469 493.807 258.956 494.062C259.446 494.314 259.829 494.658 260.104 495.096C260.379 495.53 260.517 496.021 260.517 496.567C260.517 496.945 260.446 497.315 260.303 497.676C260.164 498.037 259.92 498.44 259.572 498.884C259.224 499.325 258.741 499.86 258.121 500.49L256.097 502.608V502.683H260.681V504H253.979ZM265.926 504.139C265.303 504.139 264.743 504.02 264.246 503.781C263.752 503.539 263.357 503.208 263.062 502.787C262.768 502.366 262.61 501.885 262.59 501.345H264.082C264.118 501.783 264.312 502.142 264.663 502.424C265.015 502.706 265.436 502.847 265.926 502.847C266.317 502.847 266.664 502.757 266.965 502.578C267.27 502.396 267.509 502.146 267.681 501.827C267.857 501.509 267.945 501.146 267.945 500.739C267.945 500.324 267.855 499.955 267.676 499.63C267.497 499.305 267.25 499.05 266.935 498.864C266.624 498.679 266.266 498.584 265.862 498.581C265.553 498.581 265.243 498.634 264.932 498.74C264.62 498.846 264.368 498.985 264.176 499.158L262.769 498.949L263.341 493.818H268.939V495.136H264.619L264.295 497.984H264.355C264.554 497.792 264.817 497.631 265.146 497.502C265.477 497.373 265.832 497.308 266.21 497.308C266.829 497.308 267.381 497.456 267.865 497.751C268.352 498.046 268.735 498.448 269.013 498.959C269.295 499.466 269.434 500.049 269.431 500.709C269.434 501.368 269.285 501.957 268.984 502.474C268.685 502.991 268.271 503.398 267.741 503.697C267.214 503.992 266.609 504.139 265.926 504.139Z" fill="#0A0A18"/>
    <path opacity="0.5" d="M90.3402 504.139C89.7171 504.139 89.157 504.02 88.6598 503.781C88.166 503.539 87.7715 503.208 87.4766 502.787C87.1816 502.366 87.0241 501.885 87.0043 501.345H88.4957C88.5322 501.783 88.7261 502.142 89.0774 502.424C89.4287 502.706 89.8497 502.847 90.3402 502.847C90.7313 502.847 91.0777 502.757 91.3793 502.578C91.6842 502.396 91.9228 502.146 92.0952 501.827C92.2708 501.509 92.3587 501.146 92.3587 500.739C92.3587 500.324 92.2692 499.955 92.0902 499.63C91.9112 499.305 91.6643 499.05 91.3494 498.864C91.0379 498.679 90.6799 498.584 90.2756 498.581C89.9673 498.581 89.6574 498.634 89.3459 498.74C89.0343 498.846 88.7824 498.985 88.5902 499.158L87.1832 498.949L87.755 493.818H93.353V495.136H89.0327L88.7095 497.984H88.7692C88.968 497.792 89.2315 497.631 89.5597 497.502C89.8911 497.373 90.2457 497.308 90.6236 497.308C91.2434 497.308 91.7952 497.456 92.2791 497.751C92.7663 498.046 93.1491 498.448 93.4276 498.959C93.7093 499.466 93.8485 500.049 93.8452 500.709C93.8485 501.368 93.6993 501.957 93.3977 502.474C93.0994 502.991 92.6851 503.398 92.1548 503.697C91.6278 503.992 91.023 504.139 90.3402 504.139Z" fill="#0A0A18"/>
    <path opacity="0.5" d="M302.524 504.139C301.841 504.139 301.232 504.022 300.695 503.786C300.161 503.551 299.738 503.224 299.427 502.807C299.119 502.386 298.953 501.899 298.93 501.345H300.491C300.511 501.647 300.612 501.909 300.794 502.131C300.98 502.349 301.222 502.518 301.52 502.638C301.818 502.757 302.15 502.817 302.514 502.817C302.915 502.817 303.27 502.747 303.578 502.608C303.89 502.469 304.133 502.275 304.309 502.026C304.485 501.774 304.572 501.484 304.572 501.156C304.572 500.815 304.485 500.515 304.309 500.256C304.137 499.995 303.883 499.789 303.548 499.64C303.217 499.491 302.816 499.416 302.345 499.416H301.485V498.163H302.345C302.723 498.163 303.054 498.095 303.339 497.96C303.628 497.824 303.853 497.635 304.016 497.393C304.178 497.147 304.259 496.861 304.259 496.533C304.259 496.218 304.188 495.944 304.045 495.712C303.906 495.477 303.707 495.293 303.449 495.161C303.194 495.028 302.892 494.962 302.544 494.962C302.213 494.962 301.903 495.023 301.614 495.146C301.329 495.265 301.097 495.437 300.918 495.663C300.739 495.885 300.643 496.152 300.63 496.463H299.143C299.16 495.913 299.322 495.429 299.631 495.011C299.942 494.594 300.353 494.267 300.864 494.032C301.374 493.797 301.941 493.679 302.564 493.679C303.217 493.679 303.78 493.807 304.254 494.062C304.732 494.314 305.099 494.65 305.358 495.071C305.62 495.492 305.749 495.953 305.746 496.453C305.749 497.023 305.59 497.507 305.268 497.905C304.95 498.303 304.526 498.569 303.996 498.705V498.785C304.672 498.888 305.196 499.156 305.567 499.59C305.941 500.024 306.127 500.563 306.124 501.206C306.127 501.766 305.971 502.268 305.656 502.712C305.345 503.156 304.919 503.506 304.379 503.761C303.838 504.013 303.22 504.139 302.524 504.139ZM311.548 504.169C310.762 504.166 310.091 503.959 309.534 503.548C308.977 503.137 308.551 502.538 308.256 501.753C307.961 500.967 307.814 500.021 307.814 498.914C307.814 497.81 307.961 496.867 308.256 496.085C308.555 495.303 308.982 494.706 309.539 494.295C310.099 493.884 310.769 493.679 311.548 493.679C312.326 493.679 312.994 493.886 313.551 494.3C314.108 494.711 314.534 495.308 314.829 496.09C315.127 496.869 315.276 497.81 315.276 498.914C315.276 500.024 315.129 500.972 314.834 501.758C314.539 502.54 314.113 503.138 313.556 503.553C312.999 503.964 312.33 504.169 311.548 504.169ZM311.548 502.842C312.237 502.842 312.776 502.505 313.163 501.832C313.554 501.16 313.75 500.187 313.75 498.914C313.75 498.069 313.661 497.355 313.482 496.771C313.306 496.185 313.052 495.741 312.721 495.439C312.393 495.134 312.002 494.982 311.548 494.982C310.862 494.982 310.323 495.32 309.932 495.996C309.541 496.672 309.344 497.645 309.34 498.914C309.34 499.763 309.428 500.48 309.604 501.067C309.783 501.65 310.036 502.093 310.364 502.394C310.692 502.692 311.087 502.842 311.548 502.842Z" fill="#0A0A18"/>
    <path opacity="0.5" d="M126.842 493.818V504H125.301V495.359H125.241L122.805 496.95V495.479L125.346 493.818H126.842ZM133.141 504.169C132.356 504.166 131.685 503.959 131.128 503.548C130.571 503.137 130.145 502.538 129.85 501.753C129.555 500.967 129.408 500.021 129.408 498.914C129.408 497.81 129.555 496.867 129.85 496.085C130.148 495.303 130.576 494.706 131.133 494.295C131.693 493.884 132.362 493.679 133.141 493.679C133.92 493.679 134.588 493.886 135.145 494.3C135.702 494.711 136.128 495.308 136.423 496.09C136.721 496.869 136.87 497.81 136.87 498.914C136.87 500.024 136.723 500.972 136.428 501.758C136.133 502.54 135.707 503.138 135.15 503.553C134.593 503.964 133.924 504.169 133.141 504.169ZM133.141 502.842C133.831 502.842 134.369 502.505 134.757 501.832C135.148 501.16 135.344 500.187 135.344 498.914C135.344 498.069 135.254 497.355 135.075 496.771C134.9 496.185 134.646 495.741 134.315 495.439C133.987 495.134 133.595 494.982 133.141 494.982C132.455 494.982 131.917 495.32 131.526 495.996C131.134 496.672 130.937 497.645 130.934 498.914C130.934 499.763 131.022 500.48 131.197 501.067C131.376 501.65 131.63 502.093 131.958 502.394C132.286 502.692 132.681 502.842 133.141 502.842Z" fill="#0A0A18"/>
    <path opacity="0.5" d="M169.842 493.818V504H168.301V495.359H168.241L165.805 496.95V495.479L168.346 493.818H169.842ZM175.957 504.139C175.334 504.139 174.774 504.02 174.277 503.781C173.783 503.539 173.389 503.208 173.094 502.787C172.799 502.366 172.641 501.885 172.621 501.345H174.113C174.149 501.783 174.343 502.142 174.695 502.424C175.046 502.706 175.467 502.847 175.957 502.847C176.348 502.847 176.695 502.757 176.996 502.578C177.301 502.396 177.54 502.146 177.712 501.827C177.888 501.509 177.976 501.146 177.976 500.739C177.976 500.324 177.886 499.955 177.707 499.63C177.528 499.305 177.281 499.05 176.967 498.864C176.655 498.679 176.297 498.584 175.893 498.581C175.585 498.581 175.275 498.634 174.963 498.74C174.652 498.846 174.4 498.985 174.207 499.158L172.8 498.949L173.372 493.818H178.97V495.136H174.65L174.327 497.984H174.386C174.585 497.792 174.849 497.631 175.177 497.502C175.508 497.373 175.863 497.308 176.241 497.308C176.861 497.308 177.412 497.456 177.896 497.751C178.384 498.046 178.766 498.448 179.045 498.959C179.326 499.466 179.466 500.049 179.462 500.709C179.466 501.368 179.317 501.957 179.015 502.474C178.717 502.991 178.302 503.398 177.772 503.697C177.245 503.992 176.64 504.139 175.957 504.139Z" fill="#0A0A18"/>
    <path opacity="0.5" d="M208.979 504V502.886L212.425 499.317C212.793 498.929 213.096 498.589 213.335 498.298C213.576 498.003 213.757 497.723 213.876 497.457C213.996 497.192 214.055 496.911 214.055 496.612C214.055 496.274 213.976 495.982 213.817 495.737C213.658 495.489 213.441 495.298 213.165 495.165C212.89 495.03 212.58 494.962 212.236 494.962C211.871 494.962 211.553 495.036 211.281 495.185C211.009 495.335 210.801 495.545 210.655 495.817C210.509 496.089 210.436 496.407 210.436 496.771H208.969C208.969 496.152 209.112 495.61 209.397 495.146C209.682 494.682 210.073 494.322 210.57 494.067C211.067 493.808 211.633 493.679 212.266 493.679C212.905 493.679 213.469 493.807 213.956 494.062C214.446 494.314 214.829 494.658 215.104 495.096C215.379 495.53 215.517 496.021 215.517 496.567C215.517 496.945 215.446 497.315 215.303 497.676C215.164 498.037 214.92 498.44 214.572 498.884C214.224 499.325 213.741 499.86 213.121 500.49L211.097 502.608V502.683H215.681V504H208.979ZM221.11 504.169C220.325 504.166 219.653 503.959 219.097 503.548C218.54 503.137 218.114 502.538 217.819 501.753C217.524 500.967 217.376 500.021 217.376 498.914C217.376 497.81 217.524 496.867 217.819 496.085C218.117 495.303 218.545 494.706 219.102 494.295C219.662 493.884 220.331 493.679 221.11 493.679C221.889 493.679 222.557 493.886 223.114 494.3C223.67 494.711 224.096 495.308 224.391 496.09C224.69 496.869 224.839 497.81 224.839 498.914C224.839 500.024 224.691 500.972 224.396 501.758C224.101 502.54 223.675 503.138 223.119 503.553C222.562 503.964 221.892 504.169 221.11 504.169ZM221.11 502.842C221.799 502.842 222.338 502.505 222.726 501.832C223.117 501.16 223.312 500.187 223.312 498.914C223.312 498.069 223.223 497.355 223.044 496.771C222.868 496.185 222.615 495.741 222.283 495.439C221.955 495.134 221.564 494.982 221.11 494.982C220.424 494.982 219.885 495.32 219.494 495.996C219.103 496.672 218.906 497.645 218.903 498.914C218.903 499.763 218.991 500.48 219.166 501.067C219.345 501.65 219.599 502.093 219.927 502.394C220.255 502.692 220.649 502.842 221.11 502.842Z" fill="#0A0A18"/>
    <defs>
    <linearGradient id="paint0_linear_0_1" x1="188.75" y1="361" x2="188.75" y2="477" gradientUnits="userSpaceOnUse">
    <stop stop-color="#9866FD"/>
    <stop offset="1" stop-color="#9866FD" stop-opacity="0"/>
    </linearGradient>
    <linearGradient id="paint1_linear_0_1" x1="188.75" y1="319" x2="188.75" y2="435" gradientUnits="userSpaceOnUse">
    <stop stop-color="#FF46CB"/>
    <stop offset="1" stop-color="#FF46CB" stop-opacity="0"/>
    </linearGradient>
    <linearGradient id="paint2_linear_0_1" x1="188.75" y1="305" x2="188.75" y2="421" gradientUnits="userSpaceOnUse">
    <stop stop-color="#F8B738"/>
    <stop offset="1" stop-color="#F8B738" stop-opacity="0"/>
    </linearGradient>
    <linearGradient id="paint3_linear_0_1" x1="188.803" y1="238" x2="188.803" y2="477.5" gradientUnits="userSpaceOnUse">
    <stop stop-color="#38F8AC"/>
    <stop offset="1" stop-color="#38F8AC" stop-opacity="0"/>
    </linearGradient>
    </defs>
    </svg>
    