<svg width="161" height="17" viewBox="0 0 161 17" fill="none"
    xmlns="http://www.w3.org/2000/svg">
    <path d="M12.8849 6.36222H10.2287C10.1529 5.92661 10.0133 5.54072 9.80966 5.20455C9.60606 4.86364 9.35275 4.57481 9.04972 4.33807C8.74669 4.10133 8.40104 3.92377 8.01278 3.8054C7.62926 3.68229 7.21496 3.62074 6.76989 3.62074C5.97917 3.62074 5.27841 3.8196 4.66761 4.21733C4.05682 4.61032 3.5786 5.18797 3.23295 5.95028C2.88731 6.70786 2.71449 7.63352 2.71449 8.72727C2.71449 9.83996 2.88731 10.7775 3.23295 11.5398C3.58333 12.2973 4.06155 12.8703 4.66761 13.2585C5.27841 13.642 5.9768 13.8338 6.76278 13.8338C7.19839 13.8338 7.60559 13.777 7.98438 13.6634C8.3679 13.545 8.71117 13.3722 9.0142 13.1449C9.32197 12.9176 9.58002 12.6383 9.78835 12.3068C10.0014 11.9754 10.1482 11.5966 10.2287 11.1705L12.8849 11.1847C12.7855 11.8759 12.5701 12.5246 12.2386 13.1307C11.9119 13.7367 11.4834 14.2718 10.9531 14.7358C10.4228 15.1951 9.80256 15.5549 9.09233 15.8153C8.3821 16.071 7.59375 16.1989 6.72727 16.1989C5.44886 16.1989 4.30777 15.9029 3.30398 15.3111C2.30019 14.7192 1.50947 13.8646 0.931818 12.7472C0.354167 11.6297 0.0653409 10.2898 0.0653409 8.72727C0.0653409 7.16004 0.356534 5.82008 0.93892 4.70739C1.52131 3.58996 2.31439 2.73532 3.31818 2.14347C4.32197 1.55161 5.45833 1.25568 6.72727 1.25568C7.53693 1.25568 8.28977 1.36932 8.9858 1.59659C9.68182 1.82386 10.3021 2.15767 10.8466 2.59801C11.3911 3.03362 11.8385 3.56866 12.1889 4.20312C12.544 4.83286 12.776 5.55256 12.8849 6.36222ZM20.2269 16H15.2979V1.45455H20.3263C21.7705 1.45455 23.011 1.74574 24.0479 2.32812C25.0896 2.90578 25.8898 3.73674 26.4485 4.82102C27.0072 5.9053 27.2866 7.20265 27.2866 8.71307C27.2866 10.2282 27.0049 11.5303 26.4414 12.6193C25.8827 13.7083 25.0754 14.544 24.0195 15.1264C22.9684 15.7088 21.7042 16 20.2269 16ZM17.9329 13.7202H20.0991C21.1123 13.7202 21.9575 13.5355 22.6346 13.1662C23.3117 12.7921 23.8207 12.2358 24.1616 11.4972C24.5025 10.7538 24.6729 9.82576 24.6729 8.71307C24.6729 7.60038 24.5025 6.67708 24.1616 5.94318C23.8207 5.20455 23.3164 4.65294 22.6488 4.28835C21.9859 3.91903 21.1621 3.73438 20.1772 3.73438H17.9329V13.7202ZM41.7433 1.45455V16H39.3995L32.5458 6.09233H32.4251V16H29.7901V1.45455H32.1481L38.9947 11.3693H39.1225V1.45455H41.7433ZM54.5043 16H49.5753V1.45455H54.6037C56.0478 1.45455 57.2884 1.74574 58.3253 2.32812C59.367 2.90578 60.1671 3.73674 60.7259 4.82102C61.2846 5.9053 61.5639 7.20265 61.5639 8.71307C61.5639 10.2282 61.2822 11.5303 60.7188 12.6193C60.16 13.7083 59.3527 14.544 58.2969 15.1264C57.2457 15.7088 55.9815 16 54.5043 16ZM52.2102 13.7202H54.3764C55.3897 13.7202 56.2348 13.5355 56.9119 13.1662C57.589 12.7921 58.098 12.2358 58.4389 11.4972C58.7798 10.7538 58.9503 9.82576 58.9503 8.71307C58.9503 7.60038 58.7798 6.67708 58.4389 5.94318C58.098 5.20455 57.5938 4.65294 56.9261 4.28835C56.2633 3.91903 55.4394 3.73438 54.4545 3.73438H52.2102V13.7202ZM63.9538 16V5.09091H66.5249V16H63.9538ZM65.2464 3.54261C64.8393 3.54261 64.4889 3.40767 64.1953 3.13778C63.9018 2.86316 63.755 2.53409 63.755 2.15057C63.755 1.76231 63.9018 1.43324 64.1953 1.16335C64.4889 0.88873 64.8393 0.75142 65.2464 0.75142C65.6584 0.75142 66.0088 0.88873 66.2976 1.16335C66.5911 1.43324 66.7379 1.76231 66.7379 2.15057C66.7379 2.53409 66.5911 2.86316 66.2976 3.13778C66.0088 3.40767 65.6584 3.54261 65.2464 3.54261ZM77.7908 7.97443L75.4471 8.23011C75.3808 7.99337 75.2648 7.77083 75.0991 7.5625C74.9381 7.35417 74.7203 7.18608 74.4457 7.05824C74.171 6.9304 73.8349 6.86648 73.4371 6.86648C72.9021 6.86648 72.4523 6.98248 72.0877 7.21449C71.7279 7.4465 71.5503 7.74716 71.555 8.11648C71.5503 8.43371 71.6663 8.69176 71.9031 8.89062C72.1445 9.08949 72.5423 9.25284 73.0962 9.38068L74.957 9.77841C75.9892 10.0009 76.7563 10.3537 77.2582 10.8366C77.7648 11.3196 78.0205 11.9517 78.0252 12.733C78.0205 13.4195 77.8192 14.0256 77.4215 14.5511C77.0285 15.072 76.4817 15.4792 75.7809 15.7727C75.0801 16.0663 74.2752 16.2131 73.3661 16.2131C72.0309 16.2131 70.9561 15.9337 70.1417 15.375C69.3273 14.8116 68.842 14.0279 68.6857 13.0241L71.1928 12.7827C71.3065 13.2751 71.5479 13.6468 71.9173 13.8977C72.2866 14.1487 72.7672 14.2741 73.359 14.2741C73.9698 14.2741 74.4599 14.1487 74.8292 13.8977C75.2032 13.6468 75.3903 13.3366 75.3903 12.9673C75.3903 12.6548 75.2695 12.3968 75.0281 12.1932C74.7913 11.9896 74.422 11.8333 73.9201 11.7244L72.0593 11.3338C71.0129 11.116 70.2388 10.7491 69.7369 10.233C69.235 9.71212 68.9864 9.05398 68.9911 8.25852C68.9864 7.58617 69.1687 7.00379 69.538 6.51136C69.9121 6.0142 70.4305 5.63068 71.0934 5.3608C71.761 5.08617 72.5304 4.94886 73.4016 4.94886C74.68 4.94886 75.6862 5.22112 76.4201 5.76562C77.1587 6.31013 77.6156 7.0464 77.7908 7.97443ZM85.5927 5.09091V7.07955H79.3214V5.09091H85.5927ZM80.8697 2.47727H83.4407V12.7188C83.4407 13.0644 83.4928 13.3295 83.5969 13.5142C83.7058 13.6941 83.8479 13.8172 84.0231 13.8835C84.1983 13.9498 84.3924 13.983 84.6055 13.983C84.7665 13.983 84.9132 13.9711 85.0458 13.9474C85.1831 13.9238 85.2873 13.9025 85.3583 13.8835L85.7915 15.8935C85.6542 15.9408 85.4577 15.9929 85.2021 16.0497C84.9511 16.1065 84.6433 16.1397 84.2788 16.1491C83.6348 16.1681 83.0548 16.071 82.5387 15.858C82.0226 15.6402 81.613 15.304 81.31 14.8494C81.0117 14.3949 80.8649 13.8267 80.8697 13.1449V2.47727ZM87.7429 16V5.09091H90.2358V6.90909H90.3494C90.5483 6.27936 90.8892 5.79403 91.3722 5.45312C91.8598 5.10748 92.4162 4.93466 93.0412 4.93466C93.1832 4.93466 93.3419 4.94176 93.517 4.95597C93.697 4.96544 93.8461 4.98201 93.9645 5.00568V7.37074C93.8556 7.33286 93.6828 7.29972 93.446 7.27131C93.214 7.23816 92.9891 7.22159 92.7713 7.22159C92.3026 7.22159 91.8812 7.32339 91.5071 7.52699C91.1378 7.72585 90.8466 8.00284 90.6335 8.35795C90.4205 8.71307 90.3139 9.12263 90.3139 9.58665V16H87.7429ZM95.6726 16V5.09091H98.2436V16H95.6726ZM96.9652 3.54261C96.558 3.54261 96.2076 3.40767 95.9141 3.13778C95.6205 2.86316 95.4737 2.53409 95.4737 2.15057C95.4737 1.76231 95.6205 1.43324 95.9141 1.16335C96.2076 0.88873 96.558 0.75142 96.9652 0.75142C97.3771 0.75142 97.7275 0.88873 98.0163 1.16335C98.3099 1.43324 98.4567 1.76231 98.4567 2.15057C98.4567 2.53409 98.3099 2.86316 98.0163 3.13778C97.7275 3.40767 97.3771 3.54261 96.9652 3.54261ZM101.001 16V1.45455H103.572V6.89489H103.679C103.811 6.62973 103.998 6.34801 104.24 6.04972C104.481 5.74669 104.808 5.48864 105.22 5.27557C105.632 5.05777 106.157 4.94886 106.797 4.94886C107.639 4.94886 108.399 5.1643 109.076 5.59517C109.758 6.02131 110.298 6.65341 110.696 7.49148C111.098 8.32481 111.299 9.34754 111.299 10.5597C111.299 11.7576 111.103 12.7756 110.71 13.6136C110.317 14.4517 109.782 15.0909 109.105 15.5312C108.428 15.9716 107.661 16.1918 106.804 16.1918C106.179 16.1918 105.66 16.0876 105.248 15.8793C104.836 15.6709 104.505 15.42 104.254 15.1264C104.008 14.8281 103.816 14.5464 103.679 14.2812H103.529V16H101.001ZM103.522 10.5455C103.522 11.2509 103.622 11.8688 103.821 12.3991C104.024 12.9295 104.315 13.3437 104.694 13.642C105.078 13.9356 105.542 14.0824 106.086 14.0824C106.654 14.0824 107.13 13.9309 107.514 13.6278C107.897 13.3201 108.186 12.901 108.38 12.3707C108.579 11.8357 108.679 11.2273 108.679 10.5455C108.679 9.86837 108.582 9.26705 108.387 8.74148C108.193 8.21591 107.904 7.80398 107.521 7.50568C107.137 7.20739 106.659 7.05824 106.086 7.05824C105.537 7.05824 105.071 7.20265 104.687 7.49148C104.304 7.7803 104.012 8.18513 103.814 8.70597C103.619 9.2268 103.522 9.83996 103.522 10.5455ZM120.438 11.4119V5.09091H123.009V16H120.516V14.0611H120.403C120.156 14.6719 119.752 15.1714 119.188 15.5597C118.629 15.9479 117.941 16.142 117.121 16.142C116.406 16.142 115.774 15.9834 115.225 15.6662C114.681 15.3442 114.254 14.8778 113.947 14.267C113.639 13.6515 113.485 12.9081 113.485 12.0369V5.09091H116.056V11.6392C116.056 12.3305 116.246 12.8797 116.624 13.2869C117.003 13.6941 117.5 13.8977 118.116 13.8977C118.495 13.8977 118.862 13.8054 119.217 13.6207C119.572 13.4361 119.863 13.1615 120.09 12.7969C120.322 12.4276 120.438 11.9659 120.438 11.4119ZM131.1 5.09091V7.07955H124.829V5.09091H131.1ZM126.377 2.47727H128.949V12.7188C128.949 13.0644 129.001 13.3295 129.105 13.5142C129.214 13.6941 129.356 13.8172 129.531 13.8835C129.706 13.9498 129.9 13.983 130.113 13.983C130.274 13.983 130.421 13.9711 130.554 13.9474C130.691 13.9238 130.795 13.9025 130.866 13.8835L131.299 15.8935C131.162 15.9408 130.966 15.9929 130.71 16.0497C130.459 16.1065 130.151 16.1397 129.787 16.1491C129.143 16.1681 128.563 16.071 128.047 15.858C127.53 15.6402 127.121 15.304 126.818 14.8494C126.52 14.3949 126.373 13.8267 126.377 13.1449V2.47727ZM133.251 16V5.09091H135.822V16H133.251ZM134.543 3.54261C134.136 3.54261 133.786 3.40767 133.492 3.13778C133.199 2.86316 133.052 2.53409 133.052 2.15057C133.052 1.76231 133.199 1.43324 133.492 1.16335C133.786 0.88873 134.136 0.75142 134.543 0.75142C134.955 0.75142 135.306 0.88873 135.594 1.16335C135.888 1.43324 136.035 1.76231 136.035 2.15057C136.035 2.53409 135.888 2.86316 135.594 3.13778C135.306 3.40767 134.955 3.54261 134.543 3.54261ZM143.224 16.2131C142.159 16.2131 141.235 15.9787 140.454 15.5099C139.673 15.0412 139.067 14.3854 138.636 13.5426C138.21 12.6998 137.997 11.715 137.997 10.5881C137.997 9.46117 138.21 8.47396 138.636 7.62642C139.067 6.77888 139.673 6.12074 140.454 5.65199C141.235 5.18324 142.159 4.94886 143.224 4.94886C144.289 4.94886 145.213 5.18324 145.994 5.65199C146.775 6.12074 147.379 6.77888 147.805 7.62642C148.236 8.47396 148.451 9.46117 148.451 10.5881C148.451 11.715 148.236 12.6998 147.805 13.5426C147.379 14.3854 146.775 15.0412 145.994 15.5099C145.213 15.9787 144.289 16.2131 143.224 16.2131ZM143.238 14.1534C143.816 14.1534 144.299 13.9948 144.687 13.6776C145.075 13.3556 145.364 12.9247 145.554 12.3849C145.748 11.8452 145.845 11.2438 145.845 10.581C145.845 9.91335 145.748 9.30966 145.554 8.76989C145.364 8.22538 145.075 7.79214 144.687 7.47017C144.299 7.1482 143.816 6.98722 143.238 6.98722C142.646 6.98722 142.154 7.1482 141.761 7.47017C141.373 7.79214 141.082 8.22538 140.887 8.76989C140.698 9.30966 140.603 9.91335 140.603 10.581C140.603 11.2438 140.698 11.8452 140.887 12.3849C141.082 12.9247 141.373 13.3556 141.761 13.6776C142.154 13.9948 142.646 14.1534 143.238 14.1534ZM153.205 9.60795V16H150.634V5.09091H153.091V6.9446H153.219C153.47 6.33381 153.87 5.84848 154.419 5.48864C154.973 5.12879 155.657 4.94886 156.472 4.94886C157.224 4.94886 157.88 5.10985 158.439 5.43182C159.002 5.75379 159.438 6.22017 159.746 6.83097C160.058 7.44176 160.212 8.18276 160.207 9.05398V16H157.636V9.4517C157.636 8.72254 157.447 8.15199 157.068 7.74006C156.694 7.32812 156.176 7.12216 155.513 7.12216C155.063 7.12216 154.663 7.22159 154.312 7.42045C153.967 7.61458 153.695 7.89631 153.496 8.26562C153.302 8.63494 153.205 9.08239 153.205 9.60795Z" fill="#0A0A18"/>
</svg>
    