<svg width="18" height="18" viewBox="0 0 18 18" fill="none" xmlns="http://www.w3.org/2000/svg">
<g id="cloud-lightning">
<path id="Solid" fill-rule="evenodd" clip-rule="evenodd" d="M14.6185 6.14011C16.5627 6.6374 18 8.40085 18 10.5C18 12.9853 15.9853 15 13.5 15H4.875C2.18261 15 0 12.8174 0 10.125C0 7.82829 1.58823 5.90253 3.72631 5.38611C4.74298 3.51791 6.72342 2.25 9 2.25C11.5712 2.25 13.7646 3.86731 14.6185 6.14011ZM10.2277 6.44642C10.4742 6.11358 10.4043 5.64388 10.0714 5.39733C9.73858 5.15078 9.26888 5.22074 9.02233 5.55358L6.52233 8.92858C6.35372 9.15621 6.32774 9.45941 6.45518 9.7124C6.58262 9.9654 6.84173 10.125 7.125 10.125H9.38609L7.77233 12.3036C7.52578 12.6364 7.59573 13.1061 7.92858 13.3527C8.26142 13.5992 8.73112 13.5293 8.97767 13.1964L11.4777 9.82142C11.6463 9.59379 11.6723 9.29059 11.5448 9.0376C11.4174 8.7846 11.1583 8.625 10.875 8.625H8.61391L10.2277 6.44642Z" fill="#38F8AC"/>
</g>
</svg>
