<svg width="18" height="18" viewBox="0 0 18 18" fill="none" xmlns="http://www.w3.org/2000/svg">
<g id="bar-chart-02">
<g id="Solid">
<path fill-rule="evenodd" clip-rule="evenodd" d="M13.5 2.25C13.9142 2.25 14.25 2.58579 14.25 3V15C14.25 15.4142 13.9142 15.75 13.5 15.75C13.0858 15.75 12.75 15.4142 12.75 15V3C12.75 2.58579 13.0858 2.25 13.5 2.25Z" fill="#38F8AC"/>
<path fill-rule="evenodd" clip-rule="evenodd" d="M4.5 11.25C4.91421 11.25 5.25 11.5858 5.25 12V15C5.25 15.4142 4.91421 15.75 4.5 15.75C4.08579 15.75 3.75 15.4142 3.75 15V12C3.75 11.5858 4.08579 11.25 4.5 11.25Z" fill="#38F8AC"/>
<path fill-rule="evenodd" clip-rule="evenodd" d="M9 6.75C9.41421 6.75 9.75 7.08579 9.75 7.5V15C9.75 15.4142 9.41421 15.75 9 15.75C8.58579 15.75 8.25 15.4142 8.25 15V7.5C8.25 7.08579 8.58579 6.75 9 6.75Z" fill="#38F8AC"/>
</g>
</g>
</svg>
