<svg width="18" height="18" viewBox="0 0 18 18" fill="none" xmlns="http://www.w3.org/2000/svg">
<g id="repeat-04">
<g id="Solid">
<path d="M8.78033 0.669743C8.48744 0.37685 8.01256 0.37685 7.71967 0.669743C7.42678 0.962636 7.42678 1.43751 7.71967 1.7304L7.94224 1.95298C4.50885 2.46395 1.875 5.42439 1.875 9C1.875 11.369 3.03194 13.4679 4.80836 14.7621C5.14314 15.006 5.61227 14.9324 5.85618 14.5976C6.10009 14.2628 6.02642 13.7937 5.69164 13.5498C4.28606 12.5257 3.375 10.8693 3.375 9C3.375 6.26681 5.32436 3.98892 7.90861 3.48081L7.71967 3.66974C7.42678 3.96264 7.42678 4.43751 7.71967 4.7304C8.01256 5.0233 8.48744 5.0233 8.78033 4.7304L10.2803 3.2304C10.5732 2.93751 10.5732 2.46264 10.2803 2.16974L8.78033 0.669743Z" fill="#38F8AC"/>
<path d="M13.1916 3.23781C12.8569 2.99389 12.3877 3.06756 12.1438 3.40234C11.8999 3.73713 11.9736 4.20625 12.3084 4.45016C13.7139 5.47422 14.625 7.13064 14.625 8.99994C14.625 11.7331 12.6757 14.011 10.0915 14.5191L10.2803 14.3303C10.5732 14.0374 10.5732 13.5625 10.2803 13.2696C9.98744 12.9767 9.51256 12.9767 9.21967 13.2696L7.71967 14.7696C7.42678 15.0625 7.42678 15.5374 7.71967 15.8303L9.21967 17.3303C9.51256 17.6231 9.98744 17.6231 10.2803 17.3303C10.5732 17.0374 10.5732 16.5625 10.2803 16.2696L10.0577 16.047C13.4911 15.536 16.125 12.5756 16.125 8.99994C16.125 6.63092 14.9681 4.53205 13.1916 3.23781Z" fill="#38F8AC"/>
</g>
</g>
</svg>
