<svg width="14" height="14" viewBox="0 0 14 14" fill="none" xmlns="http://www.w3.org/2000/svg">
    <path id="Icon" d="M9.4 9.4V11.08C9.4 11.7521 9.4 12.0881 9.26921 12.3448C9.15416 12.5706 8.97058 12.7542 8.74479 12.8692C8.4881 13 8.15206 13 7.48 13H2.92C2.24794 13 1.91191 13 1.65521 12.8692C1.42942 12.7542 1.24584 12.5706 1.13079 12.3448C1 12.0881 1 11.7521 1 11.08V6.52C1 5.84794 1 5.51191 1.13079 5.25521C1.24584 5.02942 1.42942 4.84584 1.65521 4.73079C1.91191 4.6 2.24794 4.6 2.92 4.6H4.6M6.52 9.4H11.08C11.7521 9.4 12.0881 9.4 12.3448 9.26921C12.5706 9.15416 12.7542 8.97058 12.8692 8.74479C13 8.48809 13 8.15206 13 7.48V2.92C13 2.24794 13 1.91191 12.8692 1.65521C12.7542 1.42942 12.5706 1.24584 12.3448 1.13079C12.0881 1 11.7521 1 11.08 1H6.52C5.84794 1 5.51191 1 5.25521 1.13079C5.02942 1.24584 4.84584 1.42942 4.73079 1.65521C4.6 1.91191 4.6 2.24794 4.6 2.92V7.48C4.6 8.15206 4.6 8.48809 4.73079 8.74479C4.84584 8.97058 5.02942 9.15416 5.25521 9.26921C5.51191 9.4 5.84794 9.4 6.52 9.4Z" stroke="#0A0A18" stroke-width="1.5" stroke-linecap="round" stroke-linejoin="round"/>
    </svg>
    